%TF.GenerationSoftware,KiCad,Pcbnew,9.0.3*%
%TF.CreationDate,2026-06-16T12:23:42-04:00*%
%TF.ProjectId,M.2 to USB,4d2e3220-746f-4205-9553-422e6b696361,rev?*%
%TF.SameCoordinates,Original*%
%TF.FileFunction,Copper,L2,Inr*%
%TF.FilePolarity,Positive*%
%FSLAX46Y46*%
G04 Gerber Fmt 4.6, Leading zero omitted, Abs format (unit mm)*
G04 Created by KiCad (PCBNEW 9.0.3) date 2026-06-16 12:23:42*
%MOMM*%
%LPD*%
G01*
G04 APERTURE LIST*
%TA.AperFunction,HeatsinkPad*%
%ADD10R,0.700000X1.300000*%
%TD*%
%TA.AperFunction,ComponentPad*%
%ADD11R,1.700000X1.700000*%
%TD*%
%TA.AperFunction,ComponentPad*%
%ADD12C,1.700000*%
%TD*%
%TA.AperFunction,HeatsinkPad*%
%ADD13C,0.400000*%
%TD*%
%TA.AperFunction,CastellatedPad*%
%ADD14C,5.500000*%
%TD*%
%TA.AperFunction,ViaPad*%
%ADD15C,0.450000*%
%TD*%
G04 APERTURE END LIST*
D10*
%TO.N,GND*%
%TO.C,U3*%
X128700000Y-149390000D03*
%TD*%
D11*
%TO.N,VBUS2*%
%TO.C,J2*%
X125430000Y-130350000D03*
D12*
%TO.N,VBUS1*%
X127970000Y-130350000D03*
%TO.N,USBDN_D2-*%
X125430000Y-132890000D03*
%TO.N,USBDN_D1-*%
X127970000Y-132890000D03*
%TO.N,USBDN_D2+*%
X125430000Y-135430000D03*
%TO.N,USBDN_D1+*%
X127970000Y-135430000D03*
%TO.N,GND*%
X125430000Y-137970000D03*
X127970000Y-137970000D03*
%TO.N,unconnected-(J2-Pin_10-Pad10)*%
X127970000Y-140510000D03*
%TD*%
D13*
%TO.N,GND*%
%TO.C,U1*%
X136630000Y-133580000D03*
X136630000Y-135080000D03*
X137380000Y-134330000D03*
X138130000Y-133580000D03*
X138130000Y-135080000D03*
%TD*%
D14*
%TO.N,GND*%
%TO.C,H1*%
X134000000Y-125130000D03*
%TD*%
D15*
%TO.N,+3.3V*%
X138750000Y-149900000D03*
X139420000Y-149150000D03*
X124810000Y-145490000D03*
X126560000Y-144680000D03*
X127300000Y-144680000D03*
X141460000Y-149900000D03*
X138060000Y-149900000D03*
X140110000Y-149900000D03*
X141460000Y-149150000D03*
X138750000Y-149150000D03*
X140902151Y-134040930D03*
X125430000Y-149640000D03*
X136140000Y-138980000D03*
X139420000Y-149900000D03*
X140770000Y-149150000D03*
X127300000Y-145510000D03*
X124810000Y-144660000D03*
X126560000Y-145510000D03*
X127300000Y-146400000D03*
X140770000Y-149900000D03*
X138060000Y-149150000D03*
X140110000Y-149150000D03*
X143350000Y-126950000D03*
X134520000Y-133080000D03*
X131920000Y-150130000D03*
X140680000Y-132445000D03*
X126950000Y-149640000D03*
X139670000Y-145320000D03*
%TO.N,GND*%
X125700000Y-143150000D03*
X132250000Y-152200000D03*
X143350000Y-137160000D03*
X126560000Y-143980000D03*
X143330000Y-132640000D03*
X140000000Y-131380000D03*
X136350000Y-129100000D03*
X143330000Y-131510000D03*
X133750000Y-152200000D03*
X127750000Y-152200000D03*
X127280000Y-127680000D03*
X124810000Y-143960000D03*
X139000000Y-152200000D03*
X144050000Y-128670000D03*
X129670000Y-126820000D03*
X124810000Y-143130000D03*
X127280000Y-126820000D03*
X127300000Y-143980000D03*
X129250000Y-152200000D03*
X142590000Y-130680000D03*
X142620000Y-137930000D03*
X136810000Y-140240000D03*
X135140000Y-136500000D03*
X127300000Y-143150000D03*
X135250000Y-152200000D03*
X126250000Y-152200000D03*
X143340000Y-136030000D03*
X138570000Y-126970000D03*
X130750000Y-152200000D03*
X140710000Y-130680000D03*
X137950000Y-140240000D03*
X143340000Y-134900000D03*
X129670000Y-127690000D03*
X142310000Y-148120000D03*
X139490000Y-132260000D03*
X126560000Y-143150000D03*
X141600000Y-130680000D03*
%TO.N,VBUS2*%
X133770000Y-136830000D03*
X133170000Y-136830000D03*
X133730000Y-139930000D03*
X133170000Y-137360000D03*
X133770000Y-137360000D03*
X133200000Y-139930000D03*
%TO.N,VBUS1*%
X131780000Y-137360000D03*
X132380000Y-137360000D03*
X132340000Y-139930000D03*
X131810000Y-139930000D03*
X131780000Y-136830000D03*
X132380000Y-136830000D03*
%TO.N,USBDN_D2-*%
X128512500Y-143575000D03*
%TO.N,USBDN_D2+*%
X129162500Y-143575000D03*
%TO.N,~{PG}*%
X140980000Y-148060000D03*
X130610000Y-149210000D03*
%TO.N,~{FLT1}*%
X130855000Y-140802500D03*
X136500000Y-137510000D03*
%TO.N,~{FLT2}*%
X134910000Y-137150000D03*
X139200000Y-137500000D03*
%TO.N,Net-(R5-Pad1)*%
X142290000Y-143290000D03*
X143300000Y-133765000D03*
%TD*%
%TA.AperFunction,Conductor*%
%TO.N,GND*%
G36*
X144785148Y-125344852D02*
G01*
X144799500Y-125379500D01*
X144799500Y-150880500D01*
X144785148Y-150915148D01*
X144750500Y-150929500D01*
X144356001Y-150929500D01*
X144220681Y-150956417D01*
X144220670Y-150956420D01*
X144093192Y-151009223D01*
X143978460Y-151085883D01*
X143880883Y-151183460D01*
X143804223Y-151298192D01*
X143751420Y-151425670D01*
X143751417Y-151425681D01*
X143724500Y-151561001D01*
X143724500Y-153571000D01*
X143710148Y-153605648D01*
X143675500Y-153620000D01*
X141474500Y-153620000D01*
X141439852Y-153605648D01*
X141425500Y-153571000D01*
X141425500Y-152145863D01*
X141390515Y-151981275D01*
X141390514Y-151981269D01*
X141322072Y-151827546D01*
X141223164Y-151691411D01*
X141223162Y-151691409D01*
X141223159Y-151691405D01*
X141098117Y-151578818D01*
X141098114Y-151578815D01*
X140952386Y-151494679D01*
X140792350Y-151442680D01*
X140625000Y-151425091D01*
X140457649Y-151442680D01*
X140297613Y-151494679D01*
X140297610Y-151494681D01*
X140151890Y-151578812D01*
X140151882Y-151578818D01*
X140026840Y-151691405D01*
X139927928Y-151827546D01*
X139859487Y-151981266D01*
X139859484Y-151981275D01*
X139824500Y-152145863D01*
X139824500Y-153571000D01*
X139810148Y-153605648D01*
X139775500Y-153620000D01*
X137474500Y-153620000D01*
X137439852Y-153605648D01*
X137425500Y-153571000D01*
X137425500Y-152145863D01*
X137390515Y-151981275D01*
X137390514Y-151981269D01*
X137322072Y-151827546D01*
X137223164Y-151691411D01*
X137223162Y-151691409D01*
X137223159Y-151691405D01*
X137098117Y-151578818D01*
X137098114Y-151578815D01*
X136952386Y-151494679D01*
X136792350Y-151442680D01*
X136625000Y-151425091D01*
X136457649Y-151442680D01*
X136297613Y-151494679D01*
X136297610Y-151494681D01*
X136151890Y-151578812D01*
X136151882Y-151578818D01*
X136026840Y-151691405D01*
X135927928Y-151827546D01*
X135859487Y-151981266D01*
X135859484Y-151981275D01*
X135824500Y-152145863D01*
X135824500Y-153571000D01*
X135810148Y-153605648D01*
X135775500Y-153620000D01*
X124324500Y-153620000D01*
X124289852Y-153605648D01*
X124275500Y-153571000D01*
X124275500Y-151561007D01*
X124275499Y-151561001D01*
X124248582Y-151425681D01*
X124248579Y-151425670D01*
X124232851Y-151387699D01*
X124195775Y-151298189D01*
X124149613Y-151229102D01*
X124119116Y-151183460D01*
X124021539Y-151085883D01*
X123953074Y-151040137D01*
X123906811Y-151009225D01*
X123906808Y-151009223D01*
X123906807Y-151009223D01*
X123779329Y-150956420D01*
X123779318Y-150956417D01*
X123643998Y-150929500D01*
X123643993Y-150929500D01*
X123614882Y-150929500D01*
X123249500Y-150929500D01*
X123214852Y-150915148D01*
X123200500Y-150880500D01*
X123200500Y-150073978D01*
X131494500Y-150073978D01*
X131494500Y-150186021D01*
X131523496Y-150294235D01*
X131523497Y-150294239D01*
X131579515Y-150391263D01*
X131658737Y-150470485D01*
X131694249Y-150490988D01*
X131755760Y-150526502D01*
X131755762Y-150526502D01*
X131755763Y-150526503D01*
X131841111Y-150549371D01*
X131863978Y-150555499D01*
X131863979Y-150555500D01*
X131863982Y-150555500D01*
X131976021Y-150555500D01*
X131976021Y-150555499D01*
X132084237Y-150526503D01*
X132181263Y-150470485D01*
X132260485Y-150391263D01*
X132316503Y-150294237D01*
X132345499Y-150186021D01*
X132345500Y-150186021D01*
X132345500Y-150073979D01*
X132345499Y-150073978D01*
X132333269Y-150028335D01*
X132316503Y-149965763D01*
X132316502Y-149965762D01*
X132316502Y-149965760D01*
X132260484Y-149868736D01*
X132181263Y-149789515D01*
X132084239Y-149733497D01*
X132084235Y-149733496D01*
X131976021Y-149704500D01*
X131976018Y-149704500D01*
X131863982Y-149704500D01*
X131863979Y-149704500D01*
X131755764Y-149733496D01*
X131755760Y-149733497D01*
X131658736Y-149789515D01*
X131658736Y-149789516D01*
X131579516Y-149868736D01*
X131579515Y-149868736D01*
X131523497Y-149965760D01*
X131523496Y-149965764D01*
X131494500Y-150073978D01*
X123200500Y-150073978D01*
X123200500Y-149583978D01*
X125004500Y-149583978D01*
X125004500Y-149696021D01*
X125033496Y-149804235D01*
X125033497Y-149804239D01*
X125070736Y-149868737D01*
X125089515Y-149901263D01*
X125168737Y-149980485D01*
X125204249Y-150000988D01*
X125265760Y-150036502D01*
X125265762Y-150036502D01*
X125265763Y-150036503D01*
X125351111Y-150059371D01*
X125373978Y-150065499D01*
X125373979Y-150065500D01*
X125373982Y-150065500D01*
X125486021Y-150065500D01*
X125486021Y-150065499D01*
X125594237Y-150036503D01*
X125691263Y-149980485D01*
X125770485Y-149901263D01*
X125826503Y-149804237D01*
X125855499Y-149696021D01*
X125855500Y-149696021D01*
X125855500Y-149583979D01*
X125855499Y-149583978D01*
X126524500Y-149583978D01*
X126524500Y-149696021D01*
X126553496Y-149804235D01*
X126553497Y-149804239D01*
X126590736Y-149868737D01*
X126609515Y-149901263D01*
X126688737Y-149980485D01*
X126724249Y-150000988D01*
X126785760Y-150036502D01*
X126785762Y-150036502D01*
X126785763Y-150036503D01*
X126871111Y-150059371D01*
X126893978Y-150065499D01*
X126893979Y-150065500D01*
X126893982Y-150065500D01*
X127006021Y-150065500D01*
X127006021Y-150065499D01*
X127114237Y-150036503D01*
X127114239Y-150036502D01*
X127128385Y-150028335D01*
X127150029Y-150015838D01*
X127211263Y-149980485D01*
X127290485Y-149901263D01*
X127346503Y-149804237D01*
X127375499Y-149696021D01*
X127375500Y-149696021D01*
X127375500Y-149583979D01*
X127375499Y-149583978D01*
X127359696Y-149525000D01*
X127346503Y-149475763D01*
X127346502Y-149475762D01*
X127346502Y-149475760D01*
X127290484Y-149378736D01*
X127211263Y-149299515D01*
X127114239Y-149243497D01*
X127114235Y-149243496D01*
X127006021Y-149214500D01*
X127006018Y-149214500D01*
X126893982Y-149214500D01*
X126893979Y-149214500D01*
X126785764Y-149243496D01*
X126785760Y-149243497D01*
X126688736Y-149299515D01*
X126688736Y-149299516D01*
X126609516Y-149378736D01*
X126609515Y-149378736D01*
X126553497Y-149475760D01*
X126553496Y-149475764D01*
X126524500Y-149583978D01*
X125855499Y-149583978D01*
X125839696Y-149525000D01*
X125826503Y-149475763D01*
X125826502Y-149475762D01*
X125826502Y-149475760D01*
X125770484Y-149378736D01*
X125691263Y-149299515D01*
X125594239Y-149243497D01*
X125594235Y-149243496D01*
X125486021Y-149214500D01*
X125486018Y-149214500D01*
X125373982Y-149214500D01*
X125373979Y-149214500D01*
X125265764Y-149243496D01*
X125265760Y-149243497D01*
X125168736Y-149299515D01*
X125168736Y-149299516D01*
X125089516Y-149378736D01*
X125089515Y-149378736D01*
X125033497Y-149475760D01*
X125033496Y-149475764D01*
X125004500Y-149583978D01*
X123200500Y-149583978D01*
X123200500Y-149153978D01*
X130184500Y-149153978D01*
X130184500Y-149266021D01*
X130213496Y-149374235D01*
X130213497Y-149374239D01*
X130240927Y-149421748D01*
X130269515Y-149471263D01*
X130348737Y-149550485D01*
X130364608Y-149559648D01*
X130445760Y-149606502D01*
X130445762Y-149606502D01*
X130445763Y-149606503D01*
X130526932Y-149628252D01*
X130553978Y-149635499D01*
X130553979Y-149635500D01*
X130553982Y-149635500D01*
X130666021Y-149635500D01*
X130666021Y-149635499D01*
X130774237Y-149606503D01*
X130871263Y-149550485D01*
X130950485Y-149471263D01*
X131006503Y-149374237D01*
X131035499Y-149266021D01*
X131035500Y-149266021D01*
X131035500Y-149153979D01*
X131021961Y-149103452D01*
X131019422Y-149093978D01*
X137634500Y-149093978D01*
X137634500Y-149206021D01*
X137663496Y-149314235D01*
X137663497Y-149314239D01*
X137719515Y-149411263D01*
X137798604Y-149490352D01*
X137812956Y-149525000D01*
X137798604Y-149559648D01*
X137719516Y-149638736D01*
X137719515Y-149638736D01*
X137663497Y-149735760D01*
X137663496Y-149735764D01*
X137634500Y-149843978D01*
X137634500Y-149956021D01*
X137663496Y-150064235D01*
X137663497Y-150064239D01*
X137719515Y-150161263D01*
X137798737Y-150240485D01*
X137834249Y-150260988D01*
X137895760Y-150296502D01*
X137895762Y-150296502D01*
X137895763Y-150296503D01*
X137981111Y-150319371D01*
X138003978Y-150325499D01*
X138003979Y-150325500D01*
X138003982Y-150325500D01*
X138116021Y-150325500D01*
X138116021Y-150325499D01*
X138224237Y-150296503D01*
X138228159Y-150294239D01*
X138237237Y-150288997D01*
X138321263Y-150240485D01*
X138370352Y-150191396D01*
X138405000Y-150177044D01*
X138439648Y-150191396D01*
X138488737Y-150240485D01*
X138524249Y-150260988D01*
X138585760Y-150296502D01*
X138585762Y-150296502D01*
X138585763Y-150296503D01*
X138671111Y-150319371D01*
X138693978Y-150325499D01*
X138693979Y-150325500D01*
X138693982Y-150325500D01*
X138806021Y-150325500D01*
X138806021Y-150325499D01*
X138914237Y-150296503D01*
X138918159Y-150294239D01*
X138927237Y-150288997D01*
X139011263Y-150240485D01*
X139050352Y-150201396D01*
X139085000Y-150187044D01*
X139119648Y-150201396D01*
X139158737Y-150240485D01*
X139194249Y-150260988D01*
X139255760Y-150296502D01*
X139255762Y-150296502D01*
X139255763Y-150296503D01*
X139341111Y-150319371D01*
X139363978Y-150325499D01*
X139363979Y-150325500D01*
X139363982Y-150325500D01*
X139476021Y-150325500D01*
X139476021Y-150325499D01*
X139584237Y-150296503D01*
X139588159Y-150294239D01*
X139597237Y-150288997D01*
X139681263Y-150240485D01*
X139730352Y-150191396D01*
X139765000Y-150177044D01*
X139799648Y-150191396D01*
X139848737Y-150240485D01*
X139884249Y-150260988D01*
X139945760Y-150296502D01*
X139945762Y-150296502D01*
X139945763Y-150296503D01*
X140031111Y-150319371D01*
X140053978Y-150325499D01*
X140053979Y-150325500D01*
X140053982Y-150325500D01*
X140166021Y-150325500D01*
X140166021Y-150325499D01*
X140274237Y-150296503D01*
X140278159Y-150294239D01*
X140287237Y-150288997D01*
X140371263Y-150240485D01*
X140405352Y-150206396D01*
X140440000Y-150192044D01*
X140474648Y-150206396D01*
X140508737Y-150240485D01*
X140544249Y-150260988D01*
X140605760Y-150296502D01*
X140605762Y-150296502D01*
X140605763Y-150296503D01*
X140691111Y-150319371D01*
X140713978Y-150325499D01*
X140713979Y-150325500D01*
X140713982Y-150325500D01*
X140826021Y-150325500D01*
X140826021Y-150325499D01*
X140934237Y-150296503D01*
X140938159Y-150294239D01*
X140947237Y-150288997D01*
X141031263Y-150240485D01*
X141080352Y-150191396D01*
X141115000Y-150177044D01*
X141149648Y-150191396D01*
X141198737Y-150240485D01*
X141234249Y-150260988D01*
X141295760Y-150296502D01*
X141295762Y-150296502D01*
X141295763Y-150296503D01*
X141381111Y-150319371D01*
X141403978Y-150325499D01*
X141403979Y-150325500D01*
X141403982Y-150325500D01*
X141516021Y-150325500D01*
X141516021Y-150325499D01*
X141624237Y-150296503D01*
X141628159Y-150294239D01*
X141637237Y-150288997D01*
X141721263Y-150240485D01*
X141800485Y-150161263D01*
X141855774Y-150065500D01*
X141856502Y-150064239D01*
X141856502Y-150064238D01*
X141856503Y-150064237D01*
X141885499Y-149956021D01*
X141885500Y-149956021D01*
X141885500Y-149843979D01*
X141885499Y-149843978D01*
X141856503Y-149735764D01*
X141856502Y-149735760D01*
X141800484Y-149638736D01*
X141721396Y-149559648D01*
X141707044Y-149525000D01*
X141721396Y-149490352D01*
X141800484Y-149411264D01*
X141800485Y-149411263D01*
X141856503Y-149314237D01*
X141885499Y-149206021D01*
X141885500Y-149206021D01*
X141885500Y-149093979D01*
X141885499Y-149093978D01*
X141856503Y-148985764D01*
X141856502Y-148985760D01*
X141800484Y-148888736D01*
X141721263Y-148809515D01*
X141624239Y-148753497D01*
X141624235Y-148753496D01*
X141516021Y-148724500D01*
X141516018Y-148724500D01*
X141403982Y-148724500D01*
X141403979Y-148724500D01*
X141295764Y-148753496D01*
X141295760Y-148753497D01*
X141198736Y-148809515D01*
X141198736Y-148809516D01*
X141149648Y-148858604D01*
X141115000Y-148872956D01*
X141080352Y-148858604D01*
X141031263Y-148809515D01*
X140934239Y-148753497D01*
X140934235Y-148753496D01*
X140826021Y-148724500D01*
X140826018Y-148724500D01*
X140713982Y-148724500D01*
X140713979Y-148724500D01*
X140605764Y-148753496D01*
X140605760Y-148753497D01*
X140508736Y-148809515D01*
X140508736Y-148809516D01*
X140474648Y-148843604D01*
X140440000Y-148857956D01*
X140405352Y-148843604D01*
X140371263Y-148809515D01*
X140274239Y-148753497D01*
X140274235Y-148753496D01*
X140166021Y-148724500D01*
X140166018Y-148724500D01*
X140053982Y-148724500D01*
X140053979Y-148724500D01*
X139945764Y-148753496D01*
X139945760Y-148753497D01*
X139848736Y-148809515D01*
X139848736Y-148809516D01*
X139799648Y-148858604D01*
X139765000Y-148872956D01*
X139730352Y-148858604D01*
X139681263Y-148809515D01*
X139584239Y-148753497D01*
X139584235Y-148753496D01*
X139476021Y-148724500D01*
X139476018Y-148724500D01*
X139363982Y-148724500D01*
X139363979Y-148724500D01*
X139255764Y-148753496D01*
X139255760Y-148753497D01*
X139158736Y-148809515D01*
X139158736Y-148809516D01*
X139119648Y-148848604D01*
X139085000Y-148862956D01*
X139050352Y-148848604D01*
X139011263Y-148809515D01*
X138914239Y-148753497D01*
X138914235Y-148753496D01*
X138806021Y-148724500D01*
X138806018Y-148724500D01*
X138693982Y-148724500D01*
X138693979Y-148724500D01*
X138585764Y-148753496D01*
X138585760Y-148753497D01*
X138488736Y-148809515D01*
X138488736Y-148809516D01*
X138439648Y-148858604D01*
X138405000Y-148872956D01*
X138370352Y-148858604D01*
X138321263Y-148809515D01*
X138224239Y-148753497D01*
X138224235Y-148753496D01*
X138116021Y-148724500D01*
X138116018Y-148724500D01*
X138003982Y-148724500D01*
X138003979Y-148724500D01*
X137895764Y-148753496D01*
X137895760Y-148753497D01*
X137798736Y-148809515D01*
X137798736Y-148809516D01*
X137719516Y-148888736D01*
X137719515Y-148888736D01*
X137663497Y-148985760D01*
X137663496Y-148985764D01*
X137634500Y-149093978D01*
X131019422Y-149093978D01*
X131006503Y-149045764D01*
X131006502Y-149045760D01*
X130950484Y-148948736D01*
X130871263Y-148869515D01*
X130774239Y-148813497D01*
X130774235Y-148813496D01*
X130666021Y-148784500D01*
X130666018Y-148784500D01*
X130553982Y-148784500D01*
X130553979Y-148784500D01*
X130445764Y-148813496D01*
X130445760Y-148813497D01*
X130348736Y-148869515D01*
X130348736Y-148869516D01*
X130269516Y-148948736D01*
X130269515Y-148948736D01*
X130213497Y-149045760D01*
X130213496Y-149045764D01*
X130184500Y-149153978D01*
X123200500Y-149153978D01*
X123200500Y-148003978D01*
X140554500Y-148003978D01*
X140554500Y-148116021D01*
X140583496Y-148224235D01*
X140583497Y-148224239D01*
X140639515Y-148321263D01*
X140718737Y-148400485D01*
X140754249Y-148420988D01*
X140815760Y-148456502D01*
X140815762Y-148456502D01*
X140815763Y-148456503D01*
X140901111Y-148479371D01*
X140923978Y-148485499D01*
X140923979Y-148485500D01*
X140923982Y-148485500D01*
X141036021Y-148485500D01*
X141036021Y-148485499D01*
X141144237Y-148456503D01*
X141241263Y-148400485D01*
X141320485Y-148321263D01*
X141376503Y-148224237D01*
X141405499Y-148116021D01*
X141405500Y-148116021D01*
X141405500Y-148003979D01*
X141405499Y-148003978D01*
X141376503Y-147895764D01*
X141376502Y-147895760D01*
X141320484Y-147798736D01*
X141241263Y-147719515D01*
X141144239Y-147663497D01*
X141144235Y-147663496D01*
X141036021Y-147634500D01*
X141036018Y-147634500D01*
X140923982Y-147634500D01*
X140923979Y-147634500D01*
X140815764Y-147663496D01*
X140815760Y-147663497D01*
X140718736Y-147719515D01*
X140718736Y-147719516D01*
X140639516Y-147798736D01*
X140639515Y-147798736D01*
X140583497Y-147895760D01*
X140583496Y-147895764D01*
X140554500Y-148003978D01*
X123200500Y-148003978D01*
X123200500Y-144603978D01*
X124384500Y-144603978D01*
X124384500Y-144716021D01*
X124413496Y-144824235D01*
X124413497Y-144824239D01*
X124454063Y-144894500D01*
X124469515Y-144921263D01*
X124548737Y-145000485D01*
X124583376Y-145020484D01*
X124604301Y-145032565D01*
X124627131Y-145062318D01*
X124622236Y-145099500D01*
X124604301Y-145117435D01*
X124548736Y-145149515D01*
X124548736Y-145149516D01*
X124469516Y-145228736D01*
X124469515Y-145228736D01*
X124413497Y-145325760D01*
X124413496Y-145325764D01*
X124384500Y-145433978D01*
X124384500Y-145546021D01*
X124413496Y-145654235D01*
X124413497Y-145654239D01*
X124466187Y-145745499D01*
X124469515Y-145751263D01*
X124548737Y-145830485D01*
X124583376Y-145850484D01*
X124645760Y-145886502D01*
X124645762Y-145886502D01*
X124645763Y-145886503D01*
X124720397Y-145906501D01*
X124753978Y-145915499D01*
X124753979Y-145915500D01*
X124753982Y-145915500D01*
X124866021Y-145915500D01*
X124866021Y-145915499D01*
X124974237Y-145886503D01*
X125071263Y-145830485D01*
X125150485Y-145751263D01*
X125206503Y-145654237D01*
X125235499Y-145546021D01*
X125235500Y-145546021D01*
X125235500Y-145433979D01*
X125235499Y-145433978D01*
X125229371Y-145411111D01*
X125206503Y-145325763D01*
X125206502Y-145325762D01*
X125206502Y-145325760D01*
X125150484Y-145228736D01*
X125071263Y-145149515D01*
X125050340Y-145137435D01*
X125015697Y-145117434D01*
X124992868Y-145087682D01*
X124997763Y-145050500D01*
X125015696Y-145032566D01*
X125071263Y-145000485D01*
X125150485Y-144921263D01*
X125206503Y-144824237D01*
X125235499Y-144716021D01*
X125235500Y-144716021D01*
X125235500Y-144623978D01*
X126134500Y-144623978D01*
X126134500Y-144736021D01*
X126163496Y-144844235D01*
X126163497Y-144844239D01*
X126209257Y-144923496D01*
X126219515Y-144941263D01*
X126298737Y-145020485D01*
X126343470Y-145046312D01*
X126354301Y-145052565D01*
X126377131Y-145082318D01*
X126372236Y-145119500D01*
X126354301Y-145137435D01*
X126298736Y-145169515D01*
X126298736Y-145169516D01*
X126219516Y-145248736D01*
X126219515Y-145248736D01*
X126163497Y-145345760D01*
X126163496Y-145345764D01*
X126134500Y-145453978D01*
X126134500Y-145566021D01*
X126163496Y-145674235D01*
X126163497Y-145674239D01*
X126214192Y-145762044D01*
X126219515Y-145771263D01*
X126298737Y-145850485D01*
X126334249Y-145870988D01*
X126395760Y-145906502D01*
X126395762Y-145906502D01*
X126395763Y-145906503D01*
X126481111Y-145929371D01*
X126503978Y-145935499D01*
X126503979Y-145935500D01*
X126503982Y-145935500D01*
X126616021Y-145935500D01*
X126616021Y-145935499D01*
X126724237Y-145906503D01*
X126724241Y-145906501D01*
X126758878Y-145886503D01*
X126821263Y-145850485D01*
X126895352Y-145776396D01*
X126930000Y-145762044D01*
X126964648Y-145776396D01*
X127038737Y-145850485D01*
X127101120Y-145886502D01*
X127135759Y-145906501D01*
X127135763Y-145906503D01*
X127139416Y-145907481D01*
X127140118Y-145907670D01*
X127169871Y-145930501D01*
X127174765Y-145967683D01*
X127151934Y-145997436D01*
X127140118Y-146002330D01*
X127135762Y-146003497D01*
X127135760Y-146003497D01*
X127038736Y-146059515D01*
X127038736Y-146059516D01*
X126959516Y-146138736D01*
X126959515Y-146138736D01*
X126903497Y-146235760D01*
X126903496Y-146235764D01*
X126874500Y-146343978D01*
X126874500Y-146456021D01*
X126903496Y-146564235D01*
X126903497Y-146564239D01*
X126959515Y-146661263D01*
X127038737Y-146740485D01*
X127074249Y-146760988D01*
X127135760Y-146796502D01*
X127135762Y-146796502D01*
X127135763Y-146796503D01*
X127221111Y-146819371D01*
X127243978Y-146825499D01*
X127243979Y-146825500D01*
X127243982Y-146825500D01*
X127356021Y-146825500D01*
X127356021Y-146825499D01*
X127464237Y-146796503D01*
X127561263Y-146740485D01*
X127640485Y-146661263D01*
X127696503Y-146564237D01*
X127725499Y-146456021D01*
X127725500Y-146456021D01*
X127725500Y-146343979D01*
X127725499Y-146343978D01*
X127696503Y-146235764D01*
X127696502Y-146235760D01*
X127640484Y-146138736D01*
X127561263Y-146059515D01*
X127464240Y-146003498D01*
X127464237Y-146003497D01*
X127459880Y-146002329D01*
X127430129Y-145979501D01*
X127425233Y-145942318D01*
X127448063Y-145912565D01*
X127459875Y-145907671D01*
X127464237Y-145906503D01*
X127561263Y-145850485D01*
X127640485Y-145771263D01*
X127696503Y-145674237D01*
X127725499Y-145566021D01*
X127725500Y-145566021D01*
X127725500Y-145453979D01*
X127725499Y-145453978D01*
X127719371Y-145431111D01*
X127696503Y-145345763D01*
X127649284Y-145263978D01*
X139244500Y-145263978D01*
X139244500Y-145376021D01*
X139273496Y-145484235D01*
X139273497Y-145484239D01*
X139309166Y-145546018D01*
X139329515Y-145581263D01*
X139408737Y-145660485D01*
X139432553Y-145674235D01*
X139505760Y-145716502D01*
X139505762Y-145716502D01*
X139505763Y-145716503D01*
X139591111Y-145739371D01*
X139613978Y-145745499D01*
X139613979Y-145745500D01*
X139613982Y-145745500D01*
X139726021Y-145745500D01*
X139726021Y-145745499D01*
X139834237Y-145716503D01*
X139931263Y-145660485D01*
X140010485Y-145581263D01*
X140066503Y-145484237D01*
X140095499Y-145376021D01*
X140095500Y-145376021D01*
X140095500Y-145263979D01*
X140095499Y-145263978D01*
X140066503Y-145155764D01*
X140066502Y-145155760D01*
X140010484Y-145058736D01*
X139931263Y-144979515D01*
X139834239Y-144923497D01*
X139834235Y-144923496D01*
X139726021Y-144894500D01*
X139726018Y-144894500D01*
X139613982Y-144894500D01*
X139613979Y-144894500D01*
X139505764Y-144923496D01*
X139505760Y-144923497D01*
X139408736Y-144979515D01*
X139408736Y-144979516D01*
X139329516Y-145058736D01*
X139329515Y-145058736D01*
X139273497Y-145155760D01*
X139273496Y-145155764D01*
X139244500Y-145263978D01*
X127649284Y-145263978D01*
X127640485Y-145248737D01*
X127561263Y-145169515D01*
X127505697Y-145137434D01*
X127482868Y-145107682D01*
X127487763Y-145070500D01*
X127505696Y-145052566D01*
X127561263Y-145020485D01*
X127640485Y-144941263D01*
X127696503Y-144844237D01*
X127725499Y-144736021D01*
X127725500Y-144736021D01*
X127725500Y-144623979D01*
X127725499Y-144623978D01*
X127696503Y-144515764D01*
X127696502Y-144515760D01*
X127660988Y-144454249D01*
X127640485Y-144418737D01*
X127561263Y-144339515D01*
X127526624Y-144319516D01*
X127464239Y-144283497D01*
X127464235Y-144283496D01*
X127356021Y-144254500D01*
X127356018Y-144254500D01*
X127243982Y-144254500D01*
X127243979Y-144254500D01*
X127135764Y-144283496D01*
X127135760Y-144283497D01*
X127038736Y-144339515D01*
X127038736Y-144339516D01*
X126964648Y-144413604D01*
X126930000Y-144427956D01*
X126895352Y-144413604D01*
X126821263Y-144339515D01*
X126724239Y-144283497D01*
X126724235Y-144283496D01*
X126616021Y-144254500D01*
X126616018Y-144254500D01*
X126503982Y-144254500D01*
X126503979Y-144254500D01*
X126395764Y-144283496D01*
X126395760Y-144283497D01*
X126298736Y-144339515D01*
X126298736Y-144339516D01*
X126219516Y-144418736D01*
X126219515Y-144418736D01*
X126163497Y-144515760D01*
X126163496Y-144515764D01*
X126134500Y-144623978D01*
X125235500Y-144623978D01*
X125235500Y-144603979D01*
X125235499Y-144603978D01*
X125206503Y-144495764D01*
X125206502Y-144495760D01*
X125150484Y-144398736D01*
X125071263Y-144319515D01*
X124974239Y-144263497D01*
X124974235Y-144263496D01*
X124866021Y-144234500D01*
X124866018Y-144234500D01*
X124753982Y-144234500D01*
X124753979Y-144234500D01*
X124645764Y-144263496D01*
X124645760Y-144263497D01*
X124548736Y-144319515D01*
X124548736Y-144319516D01*
X124469516Y-144398736D01*
X124469515Y-144398736D01*
X124413497Y-144495760D01*
X124413496Y-144495764D01*
X124384500Y-144603978D01*
X123200500Y-144603978D01*
X123200500Y-143518978D01*
X128087000Y-143518978D01*
X128087000Y-143631021D01*
X128115996Y-143739235D01*
X128115997Y-143739239D01*
X128172015Y-143836263D01*
X128251237Y-143915485D01*
X128286749Y-143935988D01*
X128348260Y-143971502D01*
X128348262Y-143971502D01*
X128348263Y-143971503D01*
X128433611Y-143994371D01*
X128456478Y-144000499D01*
X128456479Y-144000500D01*
X128456482Y-144000500D01*
X128568521Y-144000500D01*
X128568521Y-144000499D01*
X128676737Y-143971503D01*
X128773763Y-143915485D01*
X128802852Y-143886396D01*
X128837500Y-143872044D01*
X128872148Y-143886396D01*
X128901237Y-143915485D01*
X128936749Y-143935988D01*
X128998260Y-143971502D01*
X128998262Y-143971502D01*
X128998263Y-143971503D01*
X129083611Y-143994371D01*
X129106478Y-144000499D01*
X129106479Y-144000500D01*
X129106482Y-144000500D01*
X129218521Y-144000500D01*
X129218521Y-144000499D01*
X129326737Y-143971503D01*
X129423763Y-143915485D01*
X129502985Y-143836263D01*
X129559003Y-143739237D01*
X129587999Y-143631021D01*
X129588000Y-143631021D01*
X129588000Y-143518979D01*
X129587999Y-143518978D01*
X129559003Y-143410764D01*
X129559002Y-143410760D01*
X129502984Y-143313736D01*
X129423763Y-143234515D01*
X129422833Y-143233978D01*
X141864500Y-143233978D01*
X141864500Y-143346021D01*
X141893496Y-143454235D01*
X141893497Y-143454239D01*
X141949515Y-143551263D01*
X142028737Y-143630485D01*
X142064249Y-143650988D01*
X142125760Y-143686502D01*
X142125762Y-143686502D01*
X142125763Y-143686503D01*
X142211111Y-143709371D01*
X142233978Y-143715499D01*
X142233979Y-143715500D01*
X142233982Y-143715500D01*
X142346021Y-143715500D01*
X142346021Y-143715499D01*
X142454237Y-143686503D01*
X142551263Y-143630485D01*
X142630485Y-143551263D01*
X142686503Y-143454237D01*
X142715499Y-143346021D01*
X142715500Y-143346021D01*
X142715500Y-143233979D01*
X142715499Y-143233978D01*
X142686503Y-143125764D01*
X142686502Y-143125760D01*
X142630484Y-143028736D01*
X142551263Y-142949515D01*
X142454239Y-142893497D01*
X142454235Y-142893496D01*
X142346021Y-142864500D01*
X142346018Y-142864500D01*
X142233982Y-142864500D01*
X142233979Y-142864500D01*
X142125764Y-142893496D01*
X142125760Y-142893497D01*
X142028736Y-142949515D01*
X142028736Y-142949516D01*
X141949516Y-143028736D01*
X141949515Y-143028736D01*
X141893497Y-143125760D01*
X141893496Y-143125764D01*
X141864500Y-143233978D01*
X129422833Y-143233978D01*
X129326739Y-143178497D01*
X129326735Y-143178496D01*
X129218521Y-143149500D01*
X129218518Y-143149500D01*
X129106482Y-143149500D01*
X129106479Y-143149500D01*
X128998264Y-143178496D01*
X128998260Y-143178497D01*
X128901236Y-143234515D01*
X128901236Y-143234516D01*
X128872148Y-143263604D01*
X128837500Y-143277956D01*
X128802852Y-143263604D01*
X128773763Y-143234515D01*
X128676739Y-143178497D01*
X128676735Y-143178496D01*
X128568521Y-143149500D01*
X128568518Y-143149500D01*
X128456482Y-143149500D01*
X128456479Y-143149500D01*
X128348264Y-143178496D01*
X128348260Y-143178497D01*
X128251236Y-143234515D01*
X128251236Y-143234516D01*
X128172016Y-143313736D01*
X128172015Y-143313736D01*
X128115997Y-143410760D01*
X128115996Y-143410764D01*
X128087000Y-143518978D01*
X123200500Y-143518978D01*
X123200500Y-140406535D01*
X126919500Y-140406535D01*
X126919500Y-140613465D01*
X126924433Y-140638263D01*
X126959869Y-140816417D01*
X126959871Y-140816423D01*
X127039058Y-141007596D01*
X127039059Y-141007598D01*
X127154023Y-141179655D01*
X127300345Y-141325977D01*
X127472402Y-141440941D01*
X127663580Y-141520130D01*
X127866535Y-141560500D01*
X127866538Y-141560500D01*
X128073462Y-141560500D01*
X128073465Y-141560500D01*
X128276420Y-141520130D01*
X128467598Y-141440941D01*
X128639655Y-141325977D01*
X128785977Y-141179655D01*
X128900941Y-141007598D01*
X128980130Y-140816420D01*
X128994042Y-140746478D01*
X130429500Y-140746478D01*
X130429500Y-140858521D01*
X130458496Y-140966735D01*
X130458497Y-140966739D01*
X130514515Y-141063763D01*
X130593737Y-141142985D01*
X130629249Y-141163488D01*
X130690760Y-141199002D01*
X130690762Y-141199002D01*
X130690763Y-141199003D01*
X130776111Y-141221871D01*
X130798978Y-141227999D01*
X130798979Y-141228000D01*
X130798982Y-141228000D01*
X130911021Y-141228000D01*
X130911021Y-141227999D01*
X131019237Y-141199003D01*
X131116263Y-141142985D01*
X131195485Y-141063763D01*
X131251503Y-140966737D01*
X131280499Y-140858521D01*
X131280500Y-140858521D01*
X131280500Y-140746479D01*
X131280499Y-140746478D01*
X131251503Y-140638264D01*
X131251502Y-140638260D01*
X131195484Y-140541236D01*
X131116263Y-140462015D01*
X131019239Y-140405997D01*
X131019235Y-140405996D01*
X130911021Y-140377000D01*
X130911018Y-140377000D01*
X130798982Y-140377000D01*
X130798979Y-140377000D01*
X130690764Y-140405996D01*
X130690760Y-140405997D01*
X130593736Y-140462015D01*
X130593736Y-140462016D01*
X130514516Y-140541236D01*
X130514515Y-140541236D01*
X130458497Y-140638260D01*
X130458496Y-140638264D01*
X130429500Y-140746478D01*
X128994042Y-140746478D01*
X129020500Y-140613465D01*
X129020500Y-140406535D01*
X128980130Y-140203580D01*
X128900941Y-140012402D01*
X128808450Y-139873978D01*
X131384500Y-139873978D01*
X131384500Y-139986021D01*
X131413496Y-140094235D01*
X131413497Y-140094239D01*
X131469515Y-140191263D01*
X131548737Y-140270485D01*
X131561021Y-140277577D01*
X131645760Y-140326502D01*
X131645762Y-140326502D01*
X131645763Y-140326503D01*
X131731111Y-140349371D01*
X131753978Y-140355499D01*
X131753979Y-140355500D01*
X131753982Y-140355500D01*
X131866021Y-140355500D01*
X131866021Y-140355499D01*
X131974237Y-140326503D01*
X132050501Y-140282471D01*
X132087682Y-140277577D01*
X132099496Y-140282470D01*
X132175763Y-140326503D01*
X132261111Y-140349371D01*
X132283978Y-140355499D01*
X132283979Y-140355500D01*
X132283982Y-140355500D01*
X132396021Y-140355500D01*
X132396021Y-140355499D01*
X132504237Y-140326503D01*
X132601263Y-140270485D01*
X132680485Y-140191263D01*
X132727565Y-140109717D01*
X132757318Y-140086888D01*
X132794500Y-140091783D01*
X132812434Y-140109717D01*
X132859515Y-140191263D01*
X132938737Y-140270485D01*
X132951021Y-140277577D01*
X133035760Y-140326502D01*
X133035762Y-140326502D01*
X133035763Y-140326503D01*
X133121111Y-140349371D01*
X133143978Y-140355499D01*
X133143979Y-140355500D01*
X133143982Y-140355500D01*
X133256021Y-140355500D01*
X133256021Y-140355499D01*
X133364237Y-140326503D01*
X133440501Y-140282471D01*
X133477682Y-140277577D01*
X133489496Y-140282470D01*
X133565763Y-140326503D01*
X133651111Y-140349371D01*
X133673978Y-140355499D01*
X133673979Y-140355500D01*
X133673982Y-140355500D01*
X133786021Y-140355500D01*
X133786021Y-140355499D01*
X133894237Y-140326503D01*
X133991263Y-140270485D01*
X134070485Y-140191263D01*
X134126503Y-140094237D01*
X134155499Y-139986021D01*
X134155500Y-139986021D01*
X134155500Y-139873979D01*
X134155499Y-139873978D01*
X134126503Y-139765764D01*
X134126502Y-139765760D01*
X134070484Y-139668736D01*
X133991263Y-139589515D01*
X133894239Y-139533497D01*
X133894235Y-139533496D01*
X133786021Y-139504500D01*
X133786018Y-139504500D01*
X133673982Y-139504500D01*
X133673979Y-139504500D01*
X133565764Y-139533496D01*
X133565760Y-139533497D01*
X133489500Y-139577527D01*
X133452318Y-139582422D01*
X133440500Y-139577527D01*
X133364239Y-139533497D01*
X133364235Y-139533496D01*
X133256021Y-139504500D01*
X133256018Y-139504500D01*
X133143982Y-139504500D01*
X133143979Y-139504500D01*
X133035764Y-139533496D01*
X133035760Y-139533497D01*
X132938736Y-139589515D01*
X132938736Y-139589516D01*
X132859516Y-139668736D01*
X132859515Y-139668736D01*
X132812435Y-139750281D01*
X132782682Y-139773111D01*
X132745500Y-139768216D01*
X132727565Y-139750281D01*
X132680484Y-139668736D01*
X132601263Y-139589515D01*
X132504239Y-139533497D01*
X132504235Y-139533496D01*
X132396021Y-139504500D01*
X132396018Y-139504500D01*
X132283982Y-139504500D01*
X132283979Y-139504500D01*
X132175764Y-139533496D01*
X132175760Y-139533497D01*
X132099500Y-139577527D01*
X132062318Y-139582422D01*
X132050500Y-139577527D01*
X131974239Y-139533497D01*
X131974235Y-139533496D01*
X131866021Y-139504500D01*
X131866018Y-139504500D01*
X131753982Y-139504500D01*
X131753979Y-139504500D01*
X131645764Y-139533496D01*
X131645760Y-139533497D01*
X131548736Y-139589515D01*
X131548736Y-139589516D01*
X131469516Y-139668736D01*
X131469515Y-139668736D01*
X131413497Y-139765760D01*
X131413496Y-139765764D01*
X131384500Y-139873978D01*
X128808450Y-139873978D01*
X128785977Y-139840345D01*
X128639655Y-139694023D01*
X128467598Y-139579059D01*
X128467596Y-139579058D01*
X128276423Y-139499871D01*
X128276417Y-139499869D01*
X128194572Y-139483589D01*
X128073465Y-139459500D01*
X127866535Y-139459500D01*
X127765520Y-139479592D01*
X127663582Y-139499869D01*
X127663576Y-139499871D01*
X127472403Y-139579058D01*
X127300345Y-139694022D01*
X127154022Y-139840345D01*
X127039058Y-140012403D01*
X126959871Y-140203576D01*
X126959869Y-140203582D01*
X126939592Y-140305520D01*
X126919500Y-140406535D01*
X123200500Y-140406535D01*
X123200500Y-137866587D01*
X124380000Y-137866587D01*
X124380000Y-138073412D01*
X124420349Y-138276271D01*
X124420351Y-138276277D01*
X124499500Y-138467358D01*
X124614410Y-138639335D01*
X124616826Y-138641751D01*
X125012210Y-138246366D01*
X125029901Y-138277007D01*
X125122993Y-138370099D01*
X125153632Y-138387788D01*
X124758248Y-138783173D01*
X124760664Y-138785589D01*
X124932641Y-138900499D01*
X125123722Y-138979648D01*
X125123728Y-138979650D01*
X125326587Y-139020000D01*
X125533413Y-139020000D01*
X125736271Y-138979650D01*
X125736277Y-138979648D01*
X125927358Y-138900499D01*
X126099333Y-138785590D01*
X126101750Y-138783172D01*
X125706367Y-138387789D01*
X125737007Y-138370099D01*
X125830099Y-138277007D01*
X125847789Y-138246367D01*
X126243172Y-138641750D01*
X126245590Y-138639333D01*
X126360499Y-138467358D01*
X126439648Y-138276277D01*
X126439650Y-138276271D01*
X126480000Y-138073412D01*
X126480000Y-137866587D01*
X126920000Y-137866587D01*
X126920000Y-138073412D01*
X126960349Y-138276271D01*
X126960351Y-138276277D01*
X127039500Y-138467358D01*
X127154410Y-138639335D01*
X127156826Y-138641751D01*
X127552210Y-138246366D01*
X127569901Y-138277007D01*
X127662993Y-138370099D01*
X127693632Y-138387788D01*
X127298248Y-138783173D01*
X127300664Y-138785589D01*
X127472641Y-138900499D01*
X127663722Y-138979648D01*
X127663728Y-138979650D01*
X127866587Y-139020000D01*
X128073413Y-139020000D01*
X128276271Y-138979650D01*
X128276277Y-138979648D01*
X128410675Y-138923978D01*
X135714500Y-138923978D01*
X135714500Y-139036021D01*
X135743496Y-139144235D01*
X135743497Y-139144239D01*
X135799515Y-139241263D01*
X135878737Y-139320485D01*
X135914249Y-139340988D01*
X135975760Y-139376502D01*
X135975762Y-139376502D01*
X135975763Y-139376503D01*
X136061111Y-139399371D01*
X136083978Y-139405499D01*
X136083979Y-139405500D01*
X136083982Y-139405500D01*
X136196021Y-139405500D01*
X136196021Y-139405499D01*
X136304237Y-139376503D01*
X136401263Y-139320485D01*
X136480485Y-139241263D01*
X136536503Y-139144237D01*
X136565499Y-139036021D01*
X136565500Y-139036021D01*
X136565500Y-138923979D01*
X136565499Y-138923978D01*
X136536503Y-138815764D01*
X136536502Y-138815760D01*
X136480484Y-138718736D01*
X136401263Y-138639515D01*
X136304239Y-138583497D01*
X136304235Y-138583496D01*
X136196021Y-138554500D01*
X136196018Y-138554500D01*
X136083982Y-138554500D01*
X136083979Y-138554500D01*
X135975764Y-138583496D01*
X135975760Y-138583497D01*
X135878736Y-138639515D01*
X135878736Y-138639516D01*
X135799516Y-138718736D01*
X135799515Y-138718736D01*
X135743497Y-138815760D01*
X135743496Y-138815764D01*
X135714500Y-138923978D01*
X128410675Y-138923978D01*
X128467358Y-138900499D01*
X128497997Y-138880028D01*
X128639333Y-138785590D01*
X128641750Y-138783172D01*
X128246367Y-138387789D01*
X128277007Y-138370099D01*
X128370099Y-138277007D01*
X128387789Y-138246367D01*
X128783172Y-138641750D01*
X128785590Y-138639333D01*
X128900499Y-138467358D01*
X128979648Y-138276277D01*
X128979650Y-138276271D01*
X129020000Y-138073412D01*
X129020000Y-137866587D01*
X128979650Y-137663728D01*
X128979648Y-137663722D01*
X128900499Y-137472641D01*
X128785589Y-137300664D01*
X128783173Y-137298248D01*
X128387788Y-137693632D01*
X128370099Y-137662993D01*
X128277007Y-137569901D01*
X128246365Y-137552210D01*
X128641751Y-137156826D01*
X128639335Y-137154410D01*
X128467358Y-137039500D01*
X128276277Y-136960351D01*
X128276271Y-136960349D01*
X128073413Y-136920000D01*
X127866587Y-136920000D01*
X127663728Y-136960349D01*
X127663722Y-136960351D01*
X127472641Y-137039500D01*
X127300668Y-137154408D01*
X127300665Y-137154410D01*
X127298248Y-137156826D01*
X127693632Y-137552210D01*
X127662993Y-137569901D01*
X127569901Y-137662993D01*
X127552210Y-137693632D01*
X127156826Y-137298248D01*
X127154410Y-137300665D01*
X127154408Y-137300668D01*
X127039500Y-137472641D01*
X126960351Y-137663722D01*
X126960349Y-137663728D01*
X126920000Y-137866587D01*
X126480000Y-137866587D01*
X126439650Y-137663728D01*
X126439648Y-137663722D01*
X126360499Y-137472641D01*
X126245589Y-137300664D01*
X126243173Y-137298248D01*
X125847788Y-137693632D01*
X125830099Y-137662993D01*
X125737007Y-137569901D01*
X125706365Y-137552210D01*
X126101751Y-137156826D01*
X126099335Y-137154410D01*
X125927358Y-137039500D01*
X125736277Y-136960351D01*
X125736271Y-136960349D01*
X125533413Y-136920000D01*
X125326587Y-136920000D01*
X125123728Y-136960349D01*
X125123722Y-136960351D01*
X124932641Y-137039500D01*
X124760668Y-137154408D01*
X124760665Y-137154410D01*
X124758248Y-137156826D01*
X125153632Y-137552210D01*
X125122993Y-137569901D01*
X125029901Y-137662993D01*
X125012210Y-137693632D01*
X124616826Y-137298248D01*
X124614410Y-137300665D01*
X124614408Y-137300668D01*
X124499500Y-137472641D01*
X124420351Y-137663722D01*
X124420349Y-137663728D01*
X124380000Y-137866587D01*
X123200500Y-137866587D01*
X123200500Y-136773978D01*
X131354500Y-136773978D01*
X131354500Y-136886021D01*
X131383496Y-136994235D01*
X131383497Y-136994239D01*
X131427527Y-137070500D01*
X131432422Y-137107682D01*
X131427527Y-137119500D01*
X131383497Y-137195760D01*
X131383496Y-137195764D01*
X131354500Y-137303978D01*
X131354500Y-137416021D01*
X131383496Y-137524235D01*
X131383497Y-137524239D01*
X131439515Y-137621263D01*
X131518737Y-137700485D01*
X131554249Y-137720988D01*
X131615760Y-137756502D01*
X131615762Y-137756502D01*
X131615763Y-137756503D01*
X131701111Y-137779371D01*
X131723978Y-137785499D01*
X131723979Y-137785500D01*
X131723982Y-137785500D01*
X131836021Y-137785500D01*
X131836021Y-137785499D01*
X131944237Y-137756503D01*
X132041263Y-137700485D01*
X132045352Y-137696396D01*
X132080000Y-137682044D01*
X132114648Y-137696396D01*
X132118737Y-137700485D01*
X132154249Y-137720988D01*
X132215760Y-137756502D01*
X132215762Y-137756502D01*
X132215763Y-137756503D01*
X132301111Y-137779371D01*
X132323978Y-137785499D01*
X132323979Y-137785500D01*
X132323982Y-137785500D01*
X132436021Y-137785500D01*
X132436021Y-137785499D01*
X132544237Y-137756503D01*
X132641263Y-137700485D01*
X132720485Y-137621263D01*
X132732565Y-137600338D01*
X132762318Y-137577509D01*
X132799500Y-137582404D01*
X132817433Y-137600337D01*
X132829515Y-137621263D01*
X132908737Y-137700485D01*
X132944249Y-137720988D01*
X133005760Y-137756502D01*
X133005762Y-137756502D01*
X133005763Y-137756503D01*
X133091111Y-137779371D01*
X133113978Y-137785499D01*
X133113979Y-137785500D01*
X133113982Y-137785500D01*
X133226021Y-137785500D01*
X133226021Y-137785499D01*
X133334237Y-137756503D01*
X133431263Y-137700485D01*
X133435352Y-137696396D01*
X133470000Y-137682044D01*
X133504648Y-137696396D01*
X133508737Y-137700485D01*
X133544249Y-137720988D01*
X133605760Y-137756502D01*
X133605762Y-137756502D01*
X133605763Y-137756503D01*
X133691111Y-137779371D01*
X133713978Y-137785499D01*
X133713979Y-137785500D01*
X133713982Y-137785500D01*
X133826021Y-137785500D01*
X133826021Y-137785499D01*
X133934237Y-137756503D01*
X134031263Y-137700485D01*
X134110485Y-137621263D01*
X134166503Y-137524237D01*
X134195499Y-137416021D01*
X134195500Y-137416021D01*
X134195500Y-137303979D01*
X134195499Y-137303978D01*
X134178018Y-137238737D01*
X134166503Y-137195763D01*
X134122471Y-137119498D01*
X134121607Y-137112936D01*
X134117577Y-137107684D01*
X134119246Y-137094999D01*
X134119112Y-137093978D01*
X134484500Y-137093978D01*
X134484500Y-137206021D01*
X134513496Y-137314235D01*
X134513497Y-137314239D01*
X134569515Y-137411263D01*
X134648737Y-137490485D01*
X134672276Y-137504075D01*
X134745760Y-137546502D01*
X134745762Y-137546502D01*
X134745763Y-137546503D01*
X134818606Y-137566021D01*
X134853978Y-137575499D01*
X134853979Y-137575500D01*
X134853982Y-137575500D01*
X134966021Y-137575500D01*
X134966021Y-137575499D01*
X135074237Y-137546503D01*
X135171263Y-137490485D01*
X135207770Y-137453978D01*
X136074500Y-137453978D01*
X136074500Y-137566021D01*
X136103496Y-137674235D01*
X136103497Y-137674239D01*
X136150993Y-137756502D01*
X136159515Y-137771263D01*
X136238737Y-137850485D01*
X136274249Y-137870988D01*
X136335760Y-137906502D01*
X136335762Y-137906502D01*
X136335763Y-137906503D01*
X136406658Y-137925499D01*
X136443978Y-137935499D01*
X136443979Y-137935500D01*
X136443982Y-137935500D01*
X136556021Y-137935500D01*
X136556021Y-137935499D01*
X136664237Y-137906503D01*
X136761263Y-137850485D01*
X136840485Y-137771263D01*
X136896503Y-137674237D01*
X136925499Y-137566021D01*
X136925500Y-137566021D01*
X136925500Y-137453980D01*
X136925358Y-137453450D01*
X136925358Y-137453448D01*
X136922820Y-137443978D01*
X138774500Y-137443978D01*
X138774500Y-137556021D01*
X138803496Y-137664235D01*
X138803497Y-137664239D01*
X138856766Y-137756502D01*
X138859515Y-137761263D01*
X138938737Y-137840485D01*
X138956056Y-137850484D01*
X139035760Y-137896502D01*
X139035762Y-137896502D01*
X139035763Y-137896503D01*
X139073084Y-137906503D01*
X139143978Y-137925499D01*
X139143979Y-137925500D01*
X139143982Y-137925500D01*
X139256021Y-137925500D01*
X139256021Y-137925499D01*
X139364237Y-137896503D01*
X139461263Y-137840485D01*
X139540485Y-137761263D01*
X139590728Y-137674239D01*
X139596502Y-137664239D01*
X139596502Y-137664238D01*
X139596503Y-137664237D01*
X139625499Y-137556021D01*
X139625500Y-137556021D01*
X139625500Y-137443979D01*
X139625499Y-137443978D01*
X139599182Y-137345763D01*
X139596503Y-137335763D01*
X139596502Y-137335762D01*
X139596502Y-137335760D01*
X139560988Y-137274249D01*
X139540485Y-137238737D01*
X139461263Y-137159515D01*
X139452421Y-137154410D01*
X139364239Y-137103497D01*
X139364235Y-137103496D01*
X139256021Y-137074500D01*
X139256018Y-137074500D01*
X139143982Y-137074500D01*
X139143979Y-137074500D01*
X139035764Y-137103496D01*
X139035760Y-137103497D01*
X138938736Y-137159515D01*
X138938736Y-137159516D01*
X138859516Y-137238736D01*
X138859515Y-137238736D01*
X138803497Y-137335760D01*
X138803496Y-137335764D01*
X138774500Y-137443978D01*
X136922820Y-137443978D01*
X136896503Y-137345764D01*
X136896502Y-137345760D01*
X136840484Y-137248736D01*
X136761263Y-137169515D01*
X136664239Y-137113497D01*
X136664235Y-137113496D01*
X136556021Y-137084500D01*
X136556018Y-137084500D01*
X136443982Y-137084500D01*
X136443979Y-137084500D01*
X136335764Y-137113496D01*
X136335760Y-137113497D01*
X136238736Y-137169515D01*
X136238736Y-137169516D01*
X136159516Y-137248736D01*
X136159515Y-137248736D01*
X136103497Y-137345760D01*
X136103496Y-137345764D01*
X136074500Y-137453978D01*
X135207770Y-137453978D01*
X135250485Y-137411263D01*
X135306503Y-137314237D01*
X135335499Y-137206021D01*
X135335500Y-137206021D01*
X135335500Y-137093979D01*
X135335499Y-137093978D01*
X135308774Y-136994238D01*
X135306503Y-136985763D01*
X135306502Y-136985762D01*
X135306502Y-136985760D01*
X135250484Y-136888736D01*
X135171263Y-136809515D01*
X135074239Y-136753497D01*
X135074235Y-136753496D01*
X134966021Y-136724500D01*
X134966018Y-136724500D01*
X134853982Y-136724500D01*
X134853979Y-136724500D01*
X134745764Y-136753496D01*
X134745760Y-136753497D01*
X134648736Y-136809515D01*
X134648736Y-136809516D01*
X134569516Y-136888736D01*
X134569515Y-136888736D01*
X134513497Y-136985760D01*
X134513496Y-136985764D01*
X134484500Y-137093978D01*
X134119112Y-137093978D01*
X134118848Y-137091975D01*
X134118349Y-137090770D01*
X134118577Y-137089917D01*
X134117577Y-137082318D01*
X134122468Y-137070506D01*
X134166503Y-136994237D01*
X134195499Y-136886021D01*
X134195500Y-136886021D01*
X134195500Y-136773979D01*
X134195499Y-136773978D01*
X134166503Y-136665764D01*
X134166502Y-136665760D01*
X134110484Y-136568736D01*
X134031263Y-136489515D01*
X133934239Y-136433497D01*
X133934235Y-136433496D01*
X133826021Y-136404500D01*
X133826018Y-136404500D01*
X133713982Y-136404500D01*
X133713979Y-136404500D01*
X133605764Y-136433496D01*
X133605760Y-136433497D01*
X133508736Y-136489515D01*
X133508736Y-136489516D01*
X133504648Y-136493604D01*
X133470000Y-136507956D01*
X133435352Y-136493604D01*
X133431263Y-136489515D01*
X133334239Y-136433497D01*
X133334235Y-136433496D01*
X133226021Y-136404500D01*
X133226018Y-136404500D01*
X133113982Y-136404500D01*
X133113979Y-136404500D01*
X133005764Y-136433496D01*
X133005760Y-136433497D01*
X132908736Y-136489515D01*
X132908736Y-136489516D01*
X132829517Y-136568734D01*
X132829515Y-136568736D01*
X132829515Y-136568737D01*
X132817433Y-136589661D01*
X132787681Y-136612491D01*
X132750499Y-136607595D01*
X132732566Y-136589662D01*
X132720485Y-136568737D01*
X132641263Y-136489515D01*
X132625649Y-136480500D01*
X132544239Y-136433497D01*
X132544235Y-136433496D01*
X132436021Y-136404500D01*
X132436018Y-136404500D01*
X132323982Y-136404500D01*
X132323979Y-136404500D01*
X132215764Y-136433496D01*
X132215760Y-136433497D01*
X132118736Y-136489515D01*
X132118736Y-136489516D01*
X132114648Y-136493604D01*
X132080000Y-136507956D01*
X132045352Y-136493604D01*
X132041263Y-136489515D01*
X131944239Y-136433497D01*
X131944235Y-136433496D01*
X131836021Y-136404500D01*
X131836018Y-136404500D01*
X131723982Y-136404500D01*
X131723979Y-136404500D01*
X131615764Y-136433496D01*
X131615760Y-136433497D01*
X131518736Y-136489515D01*
X131518736Y-136489516D01*
X131439516Y-136568736D01*
X131439515Y-136568736D01*
X131383497Y-136665760D01*
X131383496Y-136665764D01*
X131354500Y-136773978D01*
X123200500Y-136773978D01*
X123200500Y-135326535D01*
X124379500Y-135326535D01*
X124379500Y-135533465D01*
X124419870Y-135736420D01*
X124499059Y-135927598D01*
X124614023Y-136099655D01*
X124760345Y-136245977D01*
X124932402Y-136360941D01*
X125123580Y-136440130D01*
X125326535Y-136480500D01*
X125326538Y-136480500D01*
X125533462Y-136480500D01*
X125533465Y-136480500D01*
X125736420Y-136440130D01*
X125927598Y-136360941D01*
X126099655Y-136245977D01*
X126245977Y-136099655D01*
X126360941Y-135927598D01*
X126440130Y-135736420D01*
X126480500Y-135533465D01*
X126480500Y-135326535D01*
X126919500Y-135326535D01*
X126919500Y-135533465D01*
X126959870Y-135736420D01*
X127039059Y-135927598D01*
X127154023Y-136099655D01*
X127300345Y-136245977D01*
X127472402Y-136360941D01*
X127663580Y-136440130D01*
X127866535Y-136480500D01*
X127866538Y-136480500D01*
X128073462Y-136480500D01*
X128073465Y-136480500D01*
X128276420Y-136440130D01*
X128467598Y-136360941D01*
X128639655Y-136245977D01*
X128785977Y-136099655D01*
X128900941Y-135927598D01*
X128980130Y-135736420D01*
X129020500Y-135533465D01*
X129020500Y-135326535D01*
X128980130Y-135123580D01*
X128900941Y-134932402D01*
X128785977Y-134760345D01*
X128639655Y-134614023D01*
X128467598Y-134499059D01*
X128467596Y-134499058D01*
X128276423Y-134419871D01*
X128276417Y-134419869D01*
X128194572Y-134403589D01*
X128073465Y-134379500D01*
X127866535Y-134379500D01*
X127765520Y-134399592D01*
X127663582Y-134419869D01*
X127663576Y-134419871D01*
X127472403Y-134499058D01*
X127300345Y-134614022D01*
X127154022Y-134760345D01*
X127039058Y-134932403D01*
X126959871Y-135123576D01*
X126959869Y-135123582D01*
X126939592Y-135225520D01*
X126919500Y-135326535D01*
X126480500Y-135326535D01*
X126440130Y-135123580D01*
X126360941Y-134932402D01*
X126245977Y-134760345D01*
X126099655Y-134614023D01*
X125927598Y-134499059D01*
X125927596Y-134499058D01*
X125736423Y-134419871D01*
X125736417Y-134419869D01*
X125654572Y-134403589D01*
X125533465Y-134379500D01*
X125326535Y-134379500D01*
X125225520Y-134399592D01*
X125123582Y-134419869D01*
X125123576Y-134419871D01*
X124932403Y-134499058D01*
X124760345Y-134614022D01*
X124614022Y-134760345D01*
X124499058Y-134932403D01*
X124419871Y-135123576D01*
X124419869Y-135123582D01*
X124399592Y-135225520D01*
X124379500Y-135326535D01*
X123200500Y-135326535D01*
X123200500Y-133984908D01*
X140476651Y-133984908D01*
X140476651Y-134096951D01*
X140505647Y-134205165D01*
X140505648Y-134205169D01*
X140561666Y-134302193D01*
X140640888Y-134381415D01*
X140676400Y-134401918D01*
X140737911Y-134437432D01*
X140737913Y-134437432D01*
X140737914Y-134437433D01*
X140823262Y-134460301D01*
X140846129Y-134466429D01*
X140846130Y-134466430D01*
X140846133Y-134466430D01*
X140958172Y-134466430D01*
X140958172Y-134466429D01*
X141066388Y-134437433D01*
X141163414Y-134381415D01*
X141242636Y-134302193D01*
X141298654Y-134205167D01*
X141327650Y-134096951D01*
X141327651Y-134096951D01*
X141327651Y-133984909D01*
X141327650Y-133984908D01*
X141313913Y-133933640D01*
X141298654Y-133876693D01*
X141298653Y-133876692D01*
X141298653Y-133876690D01*
X141242635Y-133779666D01*
X141171947Y-133708978D01*
X142874500Y-133708978D01*
X142874500Y-133821021D01*
X142903496Y-133929235D01*
X142903497Y-133929239D01*
X142959515Y-134026263D01*
X143038737Y-134105485D01*
X143074249Y-134125988D01*
X143135760Y-134161502D01*
X143135762Y-134161502D01*
X143135763Y-134161503D01*
X143221111Y-134184371D01*
X143243978Y-134190499D01*
X143243979Y-134190500D01*
X143243982Y-134190500D01*
X143356021Y-134190500D01*
X143356021Y-134190499D01*
X143464237Y-134161503D01*
X143561263Y-134105485D01*
X143640485Y-134026263D01*
X143696503Y-133929237D01*
X143725499Y-133821021D01*
X143725500Y-133821021D01*
X143725500Y-133708979D01*
X143725499Y-133708978D01*
X143696503Y-133600764D01*
X143696502Y-133600760D01*
X143660988Y-133539249D01*
X143640485Y-133503737D01*
X143561263Y-133424515D01*
X143554281Y-133420484D01*
X143464239Y-133368497D01*
X143464235Y-133368496D01*
X143356021Y-133339500D01*
X143356018Y-133339500D01*
X143243982Y-133339500D01*
X143243979Y-133339500D01*
X143135764Y-133368496D01*
X143135760Y-133368497D01*
X143038736Y-133424515D01*
X143038736Y-133424516D01*
X142959516Y-133503736D01*
X142959515Y-133503736D01*
X142903497Y-133600760D01*
X142903496Y-133600764D01*
X142874500Y-133708978D01*
X141171947Y-133708978D01*
X141163414Y-133700445D01*
X141066390Y-133644427D01*
X141066386Y-133644426D01*
X140958172Y-133615430D01*
X140958169Y-133615430D01*
X140846133Y-133615430D01*
X140846130Y-133615430D01*
X140737915Y-133644426D01*
X140737911Y-133644427D01*
X140640887Y-133700445D01*
X140640887Y-133700446D01*
X140561667Y-133779666D01*
X140561666Y-133779666D01*
X140505648Y-133876690D01*
X140505647Y-133876694D01*
X140476651Y-133984908D01*
X123200500Y-133984908D01*
X123200500Y-132786535D01*
X124379500Y-132786535D01*
X124379500Y-132993465D01*
X124406290Y-133128150D01*
X124419869Y-133196417D01*
X124419871Y-133196423D01*
X124491147Y-133368497D01*
X124499059Y-133387598D01*
X124614023Y-133559655D01*
X124760345Y-133705977D01*
X124932402Y-133820941D01*
X125123580Y-133900130D01*
X125326535Y-133940500D01*
X125326538Y-133940500D01*
X125533462Y-133940500D01*
X125533465Y-133940500D01*
X125736420Y-133900130D01*
X125927598Y-133820941D01*
X126099655Y-133705977D01*
X126245977Y-133559655D01*
X126360941Y-133387598D01*
X126440130Y-133196420D01*
X126480500Y-132993465D01*
X126480500Y-132786535D01*
X126919500Y-132786535D01*
X126919500Y-132993465D01*
X126946290Y-133128150D01*
X126959869Y-133196417D01*
X126959871Y-133196423D01*
X127031147Y-133368497D01*
X127039059Y-133387598D01*
X127154023Y-133559655D01*
X127300345Y-133705977D01*
X127472402Y-133820941D01*
X127663580Y-133900130D01*
X127866535Y-133940500D01*
X127866538Y-133940500D01*
X128073462Y-133940500D01*
X128073465Y-133940500D01*
X128107951Y-133933640D01*
X128107954Y-133933640D01*
X128173187Y-133920664D01*
X128276420Y-133900130D01*
X128467598Y-133820941D01*
X128639655Y-133705977D01*
X128785977Y-133559655D01*
X128900941Y-133387598D01*
X128980130Y-133196420D01*
X129014430Y-133023982D01*
X129014431Y-133023978D01*
X134094500Y-133023978D01*
X134094500Y-133136021D01*
X134123496Y-133244235D01*
X134123497Y-133244239D01*
X134178497Y-133339500D01*
X134179515Y-133341263D01*
X134258737Y-133420485D01*
X134265719Y-133424516D01*
X134355760Y-133476502D01*
X134355762Y-133476502D01*
X134355763Y-133476503D01*
X134441111Y-133499371D01*
X134463978Y-133505499D01*
X134463979Y-133505500D01*
X134463982Y-133505500D01*
X134576021Y-133505500D01*
X134576021Y-133505499D01*
X134684237Y-133476503D01*
X134781263Y-133420485D01*
X134860485Y-133341263D01*
X134916503Y-133244237D01*
X134945499Y-133136021D01*
X134945500Y-133136021D01*
X134945500Y-133023979D01*
X134945499Y-133023978D01*
X134937323Y-132993465D01*
X134916503Y-132915763D01*
X134916502Y-132915762D01*
X134916502Y-132915760D01*
X134860484Y-132818736D01*
X134781263Y-132739515D01*
X134684239Y-132683497D01*
X134684235Y-132683496D01*
X134576021Y-132654500D01*
X134576018Y-132654500D01*
X134463982Y-132654500D01*
X134463979Y-132654500D01*
X134355764Y-132683496D01*
X134355760Y-132683497D01*
X134258736Y-132739515D01*
X134258736Y-132739516D01*
X134179516Y-132818736D01*
X134179515Y-132818736D01*
X134123497Y-132915760D01*
X134123496Y-132915764D01*
X134094500Y-133023978D01*
X129014431Y-133023978D01*
X129016969Y-133011219D01*
X129016970Y-133011212D01*
X129020500Y-132993463D01*
X129020500Y-132786538D01*
X129020500Y-132786535D01*
X128980130Y-132583580D01*
X128900941Y-132392402D01*
X128898653Y-132388978D01*
X140254500Y-132388978D01*
X140254500Y-132501021D01*
X140283496Y-132609235D01*
X140283497Y-132609239D01*
X140326370Y-132683496D01*
X140339515Y-132706263D01*
X140418737Y-132785485D01*
X140454249Y-132805988D01*
X140515760Y-132841502D01*
X140515762Y-132841502D01*
X140515763Y-132841503D01*
X140601111Y-132864371D01*
X140623978Y-132870499D01*
X140623979Y-132870500D01*
X140623982Y-132870500D01*
X140736021Y-132870500D01*
X140736021Y-132870499D01*
X140844237Y-132841503D01*
X140941263Y-132785485D01*
X141020485Y-132706263D01*
X141076503Y-132609237D01*
X141105499Y-132501021D01*
X141105500Y-132501021D01*
X141105500Y-132388979D01*
X141105499Y-132388978D01*
X141076503Y-132280764D01*
X141076502Y-132280760D01*
X141020484Y-132183736D01*
X140941263Y-132104515D01*
X140844239Y-132048497D01*
X140844235Y-132048496D01*
X140736021Y-132019500D01*
X140736018Y-132019500D01*
X140623982Y-132019500D01*
X140623979Y-132019500D01*
X140515764Y-132048496D01*
X140515760Y-132048497D01*
X140418736Y-132104515D01*
X140418736Y-132104516D01*
X140339516Y-132183736D01*
X140339515Y-132183736D01*
X140283497Y-132280760D01*
X140283496Y-132280764D01*
X140254500Y-132388978D01*
X128898653Y-132388978D01*
X128785977Y-132220345D01*
X128639655Y-132074023D01*
X128601452Y-132048497D01*
X128554207Y-132016929D01*
X128467598Y-131959059D01*
X128467596Y-131959058D01*
X128276423Y-131879871D01*
X128276417Y-131879869D01*
X128194572Y-131863589D01*
X128073465Y-131839500D01*
X127866535Y-131839500D01*
X127765520Y-131859592D01*
X127663582Y-131879869D01*
X127663576Y-131879871D01*
X127472403Y-131959058D01*
X127300345Y-132074022D01*
X127154022Y-132220345D01*
X127039058Y-132392403D01*
X126959871Y-132583576D01*
X126959869Y-132583582D01*
X126954766Y-132609239D01*
X126919500Y-132786535D01*
X126480500Y-132786535D01*
X126440130Y-132583580D01*
X126360941Y-132392402D01*
X126245977Y-132220345D01*
X126099655Y-132074023D01*
X126061452Y-132048497D01*
X126014207Y-132016929D01*
X125927598Y-131959059D01*
X125927596Y-131959058D01*
X125736423Y-131879871D01*
X125736417Y-131879869D01*
X125654572Y-131863589D01*
X125533465Y-131839500D01*
X125326535Y-131839500D01*
X125225520Y-131859592D01*
X125123582Y-131879869D01*
X125123576Y-131879871D01*
X124932403Y-131959058D01*
X124760345Y-132074022D01*
X124614022Y-132220345D01*
X124499058Y-132392403D01*
X124419871Y-132583576D01*
X124419869Y-132583582D01*
X124414766Y-132609239D01*
X124379500Y-132786535D01*
X123200500Y-132786535D01*
X123200500Y-129480252D01*
X124379500Y-129480252D01*
X124379500Y-131219748D01*
X124391133Y-131278231D01*
X124392944Y-131280941D01*
X124435447Y-131344552D01*
X124458759Y-131360128D01*
X124501769Y-131388867D01*
X124560252Y-131400500D01*
X124560255Y-131400500D01*
X126299745Y-131400500D01*
X126299748Y-131400500D01*
X126358231Y-131388867D01*
X126424552Y-131344552D01*
X126468867Y-131278231D01*
X126480500Y-131219748D01*
X126480500Y-130246535D01*
X126919500Y-130246535D01*
X126919500Y-130453465D01*
X126959870Y-130656420D01*
X127039059Y-130847598D01*
X127154023Y-131019655D01*
X127300345Y-131165977D01*
X127472402Y-131280941D01*
X127663580Y-131360130D01*
X127866535Y-131400500D01*
X127866538Y-131400500D01*
X128073462Y-131400500D01*
X128073465Y-131400500D01*
X128276420Y-131360130D01*
X128467598Y-131280941D01*
X128639655Y-131165977D01*
X128785977Y-131019655D01*
X128900941Y-130847598D01*
X128980130Y-130656420D01*
X129020500Y-130453465D01*
X129020500Y-130246535D01*
X128980130Y-130043580D01*
X128900941Y-129852402D01*
X128785977Y-129680345D01*
X128639655Y-129534023D01*
X128467598Y-129419059D01*
X128467596Y-129419058D01*
X128276423Y-129339871D01*
X128276417Y-129339869D01*
X128194572Y-129323589D01*
X128073465Y-129299500D01*
X127866535Y-129299500D01*
X127765520Y-129319592D01*
X127663582Y-129339869D01*
X127663576Y-129339871D01*
X127472403Y-129419058D01*
X127300345Y-129534022D01*
X127154022Y-129680345D01*
X127039058Y-129852403D01*
X126959871Y-130043576D01*
X126959869Y-130043582D01*
X126939592Y-130145520D01*
X126919500Y-130246535D01*
X126480500Y-130246535D01*
X126480500Y-129480252D01*
X126468867Y-129421769D01*
X126442301Y-129382012D01*
X126424552Y-129355447D01*
X126384795Y-129328882D01*
X126358231Y-129311133D01*
X126299748Y-129299500D01*
X124560252Y-129299500D01*
X124501769Y-129311133D01*
X124435447Y-129355447D01*
X124392944Y-129419058D01*
X124391133Y-129421769D01*
X124379500Y-129480252D01*
X123200500Y-129480252D01*
X123200500Y-126893978D01*
X142924500Y-126893978D01*
X142924500Y-127006021D01*
X142953496Y-127114235D01*
X142953497Y-127114239D01*
X143009515Y-127211263D01*
X143088737Y-127290485D01*
X143124249Y-127310988D01*
X143185760Y-127346502D01*
X143185762Y-127346502D01*
X143185763Y-127346503D01*
X143271111Y-127369371D01*
X143293978Y-127375499D01*
X143293979Y-127375500D01*
X143293982Y-127375500D01*
X143406021Y-127375500D01*
X143406021Y-127375499D01*
X143514237Y-127346503D01*
X143611263Y-127290485D01*
X143690485Y-127211263D01*
X143746503Y-127114237D01*
X143775499Y-127006021D01*
X143775500Y-127006021D01*
X143775500Y-126893979D01*
X143775499Y-126893978D01*
X143746503Y-126785764D01*
X143746502Y-126785760D01*
X143690484Y-126688736D01*
X143611263Y-126609515D01*
X143514239Y-126553497D01*
X143514235Y-126553496D01*
X143406021Y-126524500D01*
X143406018Y-126524500D01*
X143293982Y-126524500D01*
X143293979Y-126524500D01*
X143185764Y-126553496D01*
X143185760Y-126553497D01*
X143088736Y-126609515D01*
X143088736Y-126609516D01*
X143009516Y-126688736D01*
X143009515Y-126688736D01*
X142953497Y-126785760D01*
X142953496Y-126785764D01*
X142924500Y-126893978D01*
X123200500Y-126893978D01*
X123200500Y-125379500D01*
X123214852Y-125344852D01*
X123249500Y-125330500D01*
X144750500Y-125330500D01*
X144785148Y-125344852D01*
G37*
%TD.AperFunction*%
%TD*%
M02*
