%TF.GenerationSoftware,KiCad,Pcbnew,9.0.3*%
%TF.CreationDate,2025-08-06T21:05:05-04:00*%
%TF.ProjectId,M.2 to USB,4d2e3220-746f-4205-9553-422e6b696361,rev?*%
%TF.SameCoordinates,Original*%
%TF.FileFunction,Legend,Top*%
%TF.FilePolarity,Positive*%
%FSLAX46Y46*%
G04 Gerber Fmt 4.6, Leading zero omitted, Abs format (unit mm)*
G04 Created by KiCad (PCBNEW 9.0.3) date 2025-08-06 21:05:05*
%MOMM*%
%LPD*%
G01*
G04 APERTURE LIST*
%ADD10C,0.150000*%
%ADD11C,0.254000*%
%ADD12C,0.120000*%
%ADD13C,0.100000*%
%ADD14C,0.250000*%
%ADD15C,0.200000*%
%ADD16C,0.000000*%
%ADD17C,0.184350*%
G04 APERTURE END LIST*
D10*
X143783333Y-131754366D02*
X143750000Y-131787700D01*
X143750000Y-131787700D02*
X143650000Y-131821033D01*
X143650000Y-131821033D02*
X143583333Y-131821033D01*
X143583333Y-131821033D02*
X143483333Y-131787700D01*
X143483333Y-131787700D02*
X143416667Y-131721033D01*
X143416667Y-131721033D02*
X143383333Y-131654366D01*
X143383333Y-131654366D02*
X143350000Y-131521033D01*
X143350000Y-131521033D02*
X143350000Y-131421033D01*
X143350000Y-131421033D02*
X143383333Y-131287700D01*
X143383333Y-131287700D02*
X143416667Y-131221033D01*
X143416667Y-131221033D02*
X143483333Y-131154366D01*
X143483333Y-131154366D02*
X143583333Y-131121033D01*
X143583333Y-131121033D02*
X143650000Y-131121033D01*
X143650000Y-131121033D02*
X143750000Y-131154366D01*
X143750000Y-131154366D02*
X143783333Y-131187700D01*
X144383333Y-131354366D02*
X144383333Y-131821033D01*
X144216667Y-131087700D02*
X144050000Y-131587700D01*
X144050000Y-131587700D02*
X144483333Y-131587700D01*
X143733333Y-132951033D02*
X143500000Y-132617700D01*
X143333333Y-132951033D02*
X143333333Y-132251033D01*
X143333333Y-132251033D02*
X143600000Y-132251033D01*
X143600000Y-132251033D02*
X143666667Y-132284366D01*
X143666667Y-132284366D02*
X143700000Y-132317700D01*
X143700000Y-132317700D02*
X143733333Y-132384366D01*
X143733333Y-132384366D02*
X143733333Y-132484366D01*
X143733333Y-132484366D02*
X143700000Y-132551033D01*
X143700000Y-132551033D02*
X143666667Y-132584366D01*
X143666667Y-132584366D02*
X143600000Y-132617700D01*
X143600000Y-132617700D02*
X143333333Y-132617700D01*
X144333333Y-132251033D02*
X144200000Y-132251033D01*
X144200000Y-132251033D02*
X144133333Y-132284366D01*
X144133333Y-132284366D02*
X144100000Y-132317700D01*
X144100000Y-132317700D02*
X144033333Y-132417700D01*
X144033333Y-132417700D02*
X144000000Y-132551033D01*
X144000000Y-132551033D02*
X144000000Y-132817700D01*
X144000000Y-132817700D02*
X144033333Y-132884366D01*
X144033333Y-132884366D02*
X144066667Y-132917700D01*
X144066667Y-132917700D02*
X144133333Y-132951033D01*
X144133333Y-132951033D02*
X144266667Y-132951033D01*
X144266667Y-132951033D02*
X144333333Y-132917700D01*
X144333333Y-132917700D02*
X144366667Y-132884366D01*
X144366667Y-132884366D02*
X144400000Y-132817700D01*
X144400000Y-132817700D02*
X144400000Y-132651033D01*
X144400000Y-132651033D02*
X144366667Y-132584366D01*
X144366667Y-132584366D02*
X144333333Y-132551033D01*
X144333333Y-132551033D02*
X144266667Y-132517700D01*
X144266667Y-132517700D02*
X144133333Y-132517700D01*
X144133333Y-132517700D02*
X144066667Y-132551033D01*
X144066667Y-132551033D02*
X144033333Y-132584366D01*
X144033333Y-132584366D02*
X144000000Y-132651033D01*
X127938095Y-150734819D02*
X127938095Y-151544342D01*
X127938095Y-151544342D02*
X127985714Y-151639580D01*
X127985714Y-151639580D02*
X128033333Y-151687200D01*
X128033333Y-151687200D02*
X128128571Y-151734819D01*
X128128571Y-151734819D02*
X128319047Y-151734819D01*
X128319047Y-151734819D02*
X128414285Y-151687200D01*
X128414285Y-151687200D02*
X128461904Y-151639580D01*
X128461904Y-151639580D02*
X128509523Y-151544342D01*
X128509523Y-151544342D02*
X128509523Y-150734819D01*
X128890476Y-150734819D02*
X129509523Y-150734819D01*
X129509523Y-150734819D02*
X129176190Y-151115771D01*
X129176190Y-151115771D02*
X129319047Y-151115771D01*
X129319047Y-151115771D02*
X129414285Y-151163390D01*
X129414285Y-151163390D02*
X129461904Y-151211009D01*
X129461904Y-151211009D02*
X129509523Y-151306247D01*
X129509523Y-151306247D02*
X129509523Y-151544342D01*
X129509523Y-151544342D02*
X129461904Y-151639580D01*
X129461904Y-151639580D02*
X129414285Y-151687200D01*
X129414285Y-151687200D02*
X129319047Y-151734819D01*
X129319047Y-151734819D02*
X129033333Y-151734819D01*
X129033333Y-151734819D02*
X128938095Y-151687200D01*
X128938095Y-151687200D02*
X128890476Y-151639580D01*
X138249474Y-140881666D02*
X138289951Y-140922142D01*
X138289951Y-140922142D02*
X138330427Y-141043571D01*
X138330427Y-141043571D02*
X138330427Y-141124523D01*
X138330427Y-141124523D02*
X138289951Y-141245952D01*
X138289951Y-141245952D02*
X138208998Y-141326904D01*
X138208998Y-141326904D02*
X138128046Y-141367381D01*
X138128046Y-141367381D02*
X137966141Y-141407857D01*
X137966141Y-141407857D02*
X137844712Y-141407857D01*
X137844712Y-141407857D02*
X137682808Y-141367381D01*
X137682808Y-141367381D02*
X137601855Y-141326904D01*
X137601855Y-141326904D02*
X137520903Y-141245952D01*
X137520903Y-141245952D02*
X137480427Y-141124523D01*
X137480427Y-141124523D02*
X137480427Y-141043571D01*
X137480427Y-141043571D02*
X137520903Y-140922142D01*
X137520903Y-140922142D02*
X137561379Y-140881666D01*
X137480427Y-140598333D02*
X137480427Y-140072142D01*
X137480427Y-140072142D02*
X137804236Y-140355476D01*
X137804236Y-140355476D02*
X137804236Y-140234047D01*
X137804236Y-140234047D02*
X137844712Y-140153095D01*
X137844712Y-140153095D02*
X137885189Y-140112619D01*
X137885189Y-140112619D02*
X137966141Y-140072142D01*
X137966141Y-140072142D02*
X138168522Y-140072142D01*
X138168522Y-140072142D02*
X138249474Y-140112619D01*
X138249474Y-140112619D02*
X138289951Y-140153095D01*
X138289951Y-140153095D02*
X138330427Y-140234047D01*
X138330427Y-140234047D02*
X138330427Y-140476904D01*
X138330427Y-140476904D02*
X138289951Y-140557857D01*
X138289951Y-140557857D02*
X138249474Y-140598333D01*
X125246666Y-139854819D02*
X125246666Y-140569104D01*
X125246666Y-140569104D02*
X125199047Y-140711961D01*
X125199047Y-140711961D02*
X125103809Y-140807200D01*
X125103809Y-140807200D02*
X124960952Y-140854819D01*
X124960952Y-140854819D02*
X124865714Y-140854819D01*
X125675238Y-139950057D02*
X125722857Y-139902438D01*
X125722857Y-139902438D02*
X125818095Y-139854819D01*
X125818095Y-139854819D02*
X126056190Y-139854819D01*
X126056190Y-139854819D02*
X126151428Y-139902438D01*
X126151428Y-139902438D02*
X126199047Y-139950057D01*
X126199047Y-139950057D02*
X126246666Y-140045295D01*
X126246666Y-140045295D02*
X126246666Y-140140533D01*
X126246666Y-140140533D02*
X126199047Y-140283390D01*
X126199047Y-140283390D02*
X125627619Y-140854819D01*
X125627619Y-140854819D02*
X126246666Y-140854819D01*
X135615427Y-128671666D02*
X135210665Y-128955000D01*
X135615427Y-129157381D02*
X134765427Y-129157381D01*
X134765427Y-129157381D02*
X134765427Y-128833571D01*
X134765427Y-128833571D02*
X134805903Y-128752619D01*
X134805903Y-128752619D02*
X134846379Y-128712142D01*
X134846379Y-128712142D02*
X134927331Y-128671666D01*
X134927331Y-128671666D02*
X135048760Y-128671666D01*
X135048760Y-128671666D02*
X135129712Y-128712142D01*
X135129712Y-128712142D02*
X135170189Y-128752619D01*
X135170189Y-128752619D02*
X135210665Y-128833571D01*
X135210665Y-128833571D02*
X135210665Y-129157381D01*
X135615427Y-127862142D02*
X135615427Y-128347857D01*
X135615427Y-128105000D02*
X134765427Y-128105000D01*
X134765427Y-128105000D02*
X134886855Y-128185952D01*
X134886855Y-128185952D02*
X134967808Y-128266904D01*
X134967808Y-128266904D02*
X135008284Y-128347857D01*
X136654474Y-128671666D02*
X136694951Y-128712142D01*
X136694951Y-128712142D02*
X136735427Y-128833571D01*
X136735427Y-128833571D02*
X136735427Y-128914523D01*
X136735427Y-128914523D02*
X136694951Y-129035952D01*
X136694951Y-129035952D02*
X136613998Y-129116904D01*
X136613998Y-129116904D02*
X136533046Y-129157381D01*
X136533046Y-129157381D02*
X136371141Y-129197857D01*
X136371141Y-129197857D02*
X136249712Y-129197857D01*
X136249712Y-129197857D02*
X136087808Y-129157381D01*
X136087808Y-129157381D02*
X136006855Y-129116904D01*
X136006855Y-129116904D02*
X135925903Y-129035952D01*
X135925903Y-129035952D02*
X135885427Y-128914523D01*
X135885427Y-128914523D02*
X135885427Y-128833571D01*
X135885427Y-128833571D02*
X135925903Y-128712142D01*
X135925903Y-128712142D02*
X135966379Y-128671666D01*
X135885427Y-127902619D02*
X135885427Y-128307381D01*
X135885427Y-128307381D02*
X136290189Y-128347857D01*
X136290189Y-128347857D02*
X136249712Y-128307381D01*
X136249712Y-128307381D02*
X136209236Y-128226428D01*
X136209236Y-128226428D02*
X136209236Y-128024047D01*
X136209236Y-128024047D02*
X136249712Y-127943095D01*
X136249712Y-127943095D02*
X136290189Y-127902619D01*
X136290189Y-127902619D02*
X136371141Y-127862142D01*
X136371141Y-127862142D02*
X136573522Y-127862142D01*
X136573522Y-127862142D02*
X136654474Y-127902619D01*
X136654474Y-127902619D02*
X136694951Y-127943095D01*
X136694951Y-127943095D02*
X136735427Y-128024047D01*
X136735427Y-128024047D02*
X136735427Y-128226428D01*
X136735427Y-128226428D02*
X136694951Y-128307381D01*
X136694951Y-128307381D02*
X136654474Y-128347857D01*
X143334819Y-146561904D02*
X144144342Y-146561904D01*
X144144342Y-146561904D02*
X144239580Y-146514285D01*
X144239580Y-146514285D02*
X144287200Y-146466666D01*
X144287200Y-146466666D02*
X144334819Y-146371428D01*
X144334819Y-146371428D02*
X144334819Y-146180952D01*
X144334819Y-146180952D02*
X144287200Y-146085714D01*
X144287200Y-146085714D02*
X144239580Y-146038095D01*
X144239580Y-146038095D02*
X144144342Y-145990476D01*
X144144342Y-145990476D02*
X143334819Y-145990476D01*
X143668152Y-145085714D02*
X144334819Y-145085714D01*
X143287200Y-145323809D02*
X144001485Y-145561904D01*
X144001485Y-145561904D02*
X144001485Y-144942857D01*
X137119474Y-140891666D02*
X137159951Y-140932142D01*
X137159951Y-140932142D02*
X137200427Y-141053571D01*
X137200427Y-141053571D02*
X137200427Y-141134523D01*
X137200427Y-141134523D02*
X137159951Y-141255952D01*
X137159951Y-141255952D02*
X137078998Y-141336904D01*
X137078998Y-141336904D02*
X136998046Y-141377381D01*
X136998046Y-141377381D02*
X136836141Y-141417857D01*
X136836141Y-141417857D02*
X136714712Y-141417857D01*
X136714712Y-141417857D02*
X136552808Y-141377381D01*
X136552808Y-141377381D02*
X136471855Y-141336904D01*
X136471855Y-141336904D02*
X136390903Y-141255952D01*
X136390903Y-141255952D02*
X136350427Y-141134523D01*
X136350427Y-141134523D02*
X136350427Y-141053571D01*
X136350427Y-141053571D02*
X136390903Y-140932142D01*
X136390903Y-140932142D02*
X136431379Y-140891666D01*
X136431379Y-140567857D02*
X136390903Y-140527381D01*
X136390903Y-140527381D02*
X136350427Y-140446428D01*
X136350427Y-140446428D02*
X136350427Y-140244047D01*
X136350427Y-140244047D02*
X136390903Y-140163095D01*
X136390903Y-140163095D02*
X136431379Y-140122619D01*
X136431379Y-140122619D02*
X136512331Y-140082142D01*
X136512331Y-140082142D02*
X136593284Y-140082142D01*
X136593284Y-140082142D02*
X136714712Y-140122619D01*
X136714712Y-140122619D02*
X137200427Y-140608333D01*
X137200427Y-140608333D02*
X137200427Y-140082142D01*
D11*
X138342380Y-130164318D02*
X138342380Y-131192413D01*
X138342380Y-131192413D02*
X138402857Y-131313365D01*
X138402857Y-131313365D02*
X138463333Y-131373842D01*
X138463333Y-131373842D02*
X138584285Y-131434318D01*
X138584285Y-131434318D02*
X138826190Y-131434318D01*
X138826190Y-131434318D02*
X138947142Y-131373842D01*
X138947142Y-131373842D02*
X139007619Y-131313365D01*
X139007619Y-131313365D02*
X139068095Y-131192413D01*
X139068095Y-131192413D02*
X139068095Y-130164318D01*
X140338095Y-131434318D02*
X139612380Y-131434318D01*
X139975237Y-131434318D02*
X139975237Y-130164318D01*
X139975237Y-130164318D02*
X139854285Y-130345746D01*
X139854285Y-130345746D02*
X139733333Y-130466699D01*
X139733333Y-130466699D02*
X139612380Y-130527175D01*
D10*
X131708333Y-135324474D02*
X131667857Y-135364951D01*
X131667857Y-135364951D02*
X131546428Y-135405427D01*
X131546428Y-135405427D02*
X131465476Y-135405427D01*
X131465476Y-135405427D02*
X131344047Y-135364951D01*
X131344047Y-135364951D02*
X131263095Y-135283998D01*
X131263095Y-135283998D02*
X131222618Y-135203046D01*
X131222618Y-135203046D02*
X131182142Y-135041141D01*
X131182142Y-135041141D02*
X131182142Y-134919712D01*
X131182142Y-134919712D02*
X131222618Y-134757808D01*
X131222618Y-134757808D02*
X131263095Y-134676855D01*
X131263095Y-134676855D02*
X131344047Y-134595903D01*
X131344047Y-134595903D02*
X131465476Y-134555427D01*
X131465476Y-134555427D02*
X131546428Y-134555427D01*
X131546428Y-134555427D02*
X131667857Y-134595903D01*
X131667857Y-134595903D02*
X131708333Y-134636379D01*
X131991666Y-134555427D02*
X132558333Y-134555427D01*
X132558333Y-134555427D02*
X132194047Y-135405427D01*
X134433571Y-146044474D02*
X134393095Y-146084951D01*
X134393095Y-146084951D02*
X134271666Y-146125427D01*
X134271666Y-146125427D02*
X134190714Y-146125427D01*
X134190714Y-146125427D02*
X134069285Y-146084951D01*
X134069285Y-146084951D02*
X133988333Y-146003998D01*
X133988333Y-146003998D02*
X133947856Y-145923046D01*
X133947856Y-145923046D02*
X133907380Y-145761141D01*
X133907380Y-145761141D02*
X133907380Y-145639712D01*
X133907380Y-145639712D02*
X133947856Y-145477808D01*
X133947856Y-145477808D02*
X133988333Y-145396855D01*
X133988333Y-145396855D02*
X134069285Y-145315903D01*
X134069285Y-145315903D02*
X134190714Y-145275427D01*
X134190714Y-145275427D02*
X134271666Y-145275427D01*
X134271666Y-145275427D02*
X134393095Y-145315903D01*
X134393095Y-145315903D02*
X134433571Y-145356379D01*
X135243095Y-146125427D02*
X134757380Y-146125427D01*
X135000237Y-146125427D02*
X135000237Y-145275427D01*
X135000237Y-145275427D02*
X134919285Y-145396855D01*
X134919285Y-145396855D02*
X134838333Y-145477808D01*
X134838333Y-145477808D02*
X134757380Y-145518284D01*
X135769285Y-145275427D02*
X135850238Y-145275427D01*
X135850238Y-145275427D02*
X135931190Y-145315903D01*
X135931190Y-145315903D02*
X135971666Y-145356379D01*
X135971666Y-145356379D02*
X136012142Y-145437331D01*
X136012142Y-145437331D02*
X136052619Y-145599236D01*
X136052619Y-145599236D02*
X136052619Y-145801617D01*
X136052619Y-145801617D02*
X136012142Y-145963522D01*
X136012142Y-145963522D02*
X135971666Y-146044474D01*
X135971666Y-146044474D02*
X135931190Y-146084951D01*
X135931190Y-146084951D02*
X135850238Y-146125427D01*
X135850238Y-146125427D02*
X135769285Y-146125427D01*
X135769285Y-146125427D02*
X135688333Y-146084951D01*
X135688333Y-146084951D02*
X135647857Y-146044474D01*
X135647857Y-146044474D02*
X135607380Y-145963522D01*
X135607380Y-145963522D02*
X135566904Y-145801617D01*
X135566904Y-145801617D02*
X135566904Y-145599236D01*
X135566904Y-145599236D02*
X135607380Y-145437331D01*
X135607380Y-145437331D02*
X135647857Y-145356379D01*
X135647857Y-145356379D02*
X135688333Y-145315903D01*
X135688333Y-145315903D02*
X135769285Y-145275427D01*
X143703333Y-136341033D02*
X143470000Y-136007700D01*
X143303333Y-136341033D02*
X143303333Y-135641033D01*
X143303333Y-135641033D02*
X143570000Y-135641033D01*
X143570000Y-135641033D02*
X143636667Y-135674366D01*
X143636667Y-135674366D02*
X143670000Y-135707700D01*
X143670000Y-135707700D02*
X143703333Y-135774366D01*
X143703333Y-135774366D02*
X143703333Y-135874366D01*
X143703333Y-135874366D02*
X143670000Y-135941033D01*
X143670000Y-135941033D02*
X143636667Y-135974366D01*
X143636667Y-135974366D02*
X143570000Y-136007700D01*
X143570000Y-136007700D02*
X143303333Y-136007700D01*
X143970000Y-135707700D02*
X144003333Y-135674366D01*
X144003333Y-135674366D02*
X144070000Y-135641033D01*
X144070000Y-135641033D02*
X144236667Y-135641033D01*
X144236667Y-135641033D02*
X144303333Y-135674366D01*
X144303333Y-135674366D02*
X144336667Y-135707700D01*
X144336667Y-135707700D02*
X144370000Y-135774366D01*
X144370000Y-135774366D02*
X144370000Y-135841033D01*
X144370000Y-135841033D02*
X144336667Y-135941033D01*
X144336667Y-135941033D02*
X143936667Y-136341033D01*
X143936667Y-136341033D02*
X144370000Y-136341033D01*
X143703333Y-137471033D02*
X143470000Y-137137700D01*
X143303333Y-137471033D02*
X143303333Y-136771033D01*
X143303333Y-136771033D02*
X143570000Y-136771033D01*
X143570000Y-136771033D02*
X143636667Y-136804366D01*
X143636667Y-136804366D02*
X143670000Y-136837700D01*
X143670000Y-136837700D02*
X143703333Y-136904366D01*
X143703333Y-136904366D02*
X143703333Y-137004366D01*
X143703333Y-137004366D02*
X143670000Y-137071033D01*
X143670000Y-137071033D02*
X143636667Y-137104366D01*
X143636667Y-137104366D02*
X143570000Y-137137700D01*
X143570000Y-137137700D02*
X143303333Y-137137700D01*
X143936667Y-136771033D02*
X144370000Y-136771033D01*
X144370000Y-136771033D02*
X144136667Y-137037700D01*
X144136667Y-137037700D02*
X144236667Y-137037700D01*
X144236667Y-137037700D02*
X144303333Y-137071033D01*
X144303333Y-137071033D02*
X144336667Y-137104366D01*
X144336667Y-137104366D02*
X144370000Y-137171033D01*
X144370000Y-137171033D02*
X144370000Y-137337700D01*
X144370000Y-137337700D02*
X144336667Y-137404366D01*
X144336667Y-137404366D02*
X144303333Y-137437700D01*
X144303333Y-137437700D02*
X144236667Y-137471033D01*
X144236667Y-137471033D02*
X144036667Y-137471033D01*
X144036667Y-137471033D02*
X143970000Y-137437700D01*
X143970000Y-137437700D02*
X143936667Y-137404366D01*
D11*
X132064318Y-142297619D02*
X133092413Y-142297619D01*
X133092413Y-142297619D02*
X133213365Y-142237142D01*
X133213365Y-142237142D02*
X133273842Y-142176666D01*
X133273842Y-142176666D02*
X133334318Y-142055714D01*
X133334318Y-142055714D02*
X133334318Y-141813809D01*
X133334318Y-141813809D02*
X133273842Y-141692857D01*
X133273842Y-141692857D02*
X133213365Y-141632380D01*
X133213365Y-141632380D02*
X133092413Y-141571904D01*
X133092413Y-141571904D02*
X132064318Y-141571904D01*
X132185270Y-141027619D02*
X132124794Y-140967143D01*
X132124794Y-140967143D02*
X132064318Y-140846190D01*
X132064318Y-140846190D02*
X132064318Y-140543809D01*
X132064318Y-140543809D02*
X132124794Y-140422857D01*
X132124794Y-140422857D02*
X132185270Y-140362381D01*
X132185270Y-140362381D02*
X132306222Y-140301904D01*
X132306222Y-140301904D02*
X132427175Y-140301904D01*
X132427175Y-140301904D02*
X132608603Y-140362381D01*
X132608603Y-140362381D02*
X133334318Y-141088095D01*
X133334318Y-141088095D02*
X133334318Y-140301904D01*
D10*
X129093571Y-145924474D02*
X129053095Y-145964951D01*
X129053095Y-145964951D02*
X128931666Y-146005427D01*
X128931666Y-146005427D02*
X128850714Y-146005427D01*
X128850714Y-146005427D02*
X128729285Y-145964951D01*
X128729285Y-145964951D02*
X128648333Y-145883998D01*
X128648333Y-145883998D02*
X128607856Y-145803046D01*
X128607856Y-145803046D02*
X128567380Y-145641141D01*
X128567380Y-145641141D02*
X128567380Y-145519712D01*
X128567380Y-145519712D02*
X128607856Y-145357808D01*
X128607856Y-145357808D02*
X128648333Y-145276855D01*
X128648333Y-145276855D02*
X128729285Y-145195903D01*
X128729285Y-145195903D02*
X128850714Y-145155427D01*
X128850714Y-145155427D02*
X128931666Y-145155427D01*
X128931666Y-145155427D02*
X129053095Y-145195903D01*
X129053095Y-145195903D02*
X129093571Y-145236379D01*
X129903095Y-146005427D02*
X129417380Y-146005427D01*
X129660237Y-146005427D02*
X129660237Y-145155427D01*
X129660237Y-145155427D02*
X129579285Y-145276855D01*
X129579285Y-145276855D02*
X129498333Y-145357808D01*
X129498333Y-145357808D02*
X129417380Y-145398284D01*
X130631666Y-145438760D02*
X130631666Y-146005427D01*
X130429285Y-145114951D02*
X130226904Y-145722093D01*
X130226904Y-145722093D02*
X130753095Y-145722093D01*
X131943333Y-128859580D02*
X131895714Y-128907200D01*
X131895714Y-128907200D02*
X131752857Y-128954819D01*
X131752857Y-128954819D02*
X131657619Y-128954819D01*
X131657619Y-128954819D02*
X131514762Y-128907200D01*
X131514762Y-128907200D02*
X131419524Y-128811961D01*
X131419524Y-128811961D02*
X131371905Y-128716723D01*
X131371905Y-128716723D02*
X131324286Y-128526247D01*
X131324286Y-128526247D02*
X131324286Y-128383390D01*
X131324286Y-128383390D02*
X131371905Y-128192914D01*
X131371905Y-128192914D02*
X131419524Y-128097676D01*
X131419524Y-128097676D02*
X131514762Y-128002438D01*
X131514762Y-128002438D02*
X131657619Y-127954819D01*
X131657619Y-127954819D02*
X131752857Y-127954819D01*
X131752857Y-127954819D02*
X131895714Y-128002438D01*
X131895714Y-128002438D02*
X131943333Y-128050057D01*
X132514762Y-128383390D02*
X132419524Y-128335771D01*
X132419524Y-128335771D02*
X132371905Y-128288152D01*
X132371905Y-128288152D02*
X132324286Y-128192914D01*
X132324286Y-128192914D02*
X132324286Y-128145295D01*
X132324286Y-128145295D02*
X132371905Y-128050057D01*
X132371905Y-128050057D02*
X132419524Y-128002438D01*
X132419524Y-128002438D02*
X132514762Y-127954819D01*
X132514762Y-127954819D02*
X132705238Y-127954819D01*
X132705238Y-127954819D02*
X132800476Y-128002438D01*
X132800476Y-128002438D02*
X132848095Y-128050057D01*
X132848095Y-128050057D02*
X132895714Y-128145295D01*
X132895714Y-128145295D02*
X132895714Y-128192914D01*
X132895714Y-128192914D02*
X132848095Y-128288152D01*
X132848095Y-128288152D02*
X132800476Y-128335771D01*
X132800476Y-128335771D02*
X132705238Y-128383390D01*
X132705238Y-128383390D02*
X132514762Y-128383390D01*
X132514762Y-128383390D02*
X132419524Y-128431009D01*
X132419524Y-128431009D02*
X132371905Y-128478628D01*
X132371905Y-128478628D02*
X132324286Y-128573866D01*
X132324286Y-128573866D02*
X132324286Y-128764342D01*
X132324286Y-128764342D02*
X132371905Y-128859580D01*
X132371905Y-128859580D02*
X132419524Y-128907200D01*
X132419524Y-128907200D02*
X132514762Y-128954819D01*
X132514762Y-128954819D02*
X132705238Y-128954819D01*
X132705238Y-128954819D02*
X132800476Y-128907200D01*
X132800476Y-128907200D02*
X132848095Y-128859580D01*
X132848095Y-128859580D02*
X132895714Y-128764342D01*
X132895714Y-128764342D02*
X132895714Y-128573866D01*
X132895714Y-128573866D02*
X132848095Y-128478628D01*
X132848095Y-128478628D02*
X132800476Y-128431009D01*
X132800476Y-128431009D02*
X132705238Y-128383390D01*
X144304474Y-130066428D02*
X144344951Y-130106904D01*
X144344951Y-130106904D02*
X144385427Y-130228333D01*
X144385427Y-130228333D02*
X144385427Y-130309285D01*
X144385427Y-130309285D02*
X144344951Y-130430714D01*
X144344951Y-130430714D02*
X144263998Y-130511666D01*
X144263998Y-130511666D02*
X144183046Y-130552143D01*
X144183046Y-130552143D02*
X144021141Y-130592619D01*
X144021141Y-130592619D02*
X143899712Y-130592619D01*
X143899712Y-130592619D02*
X143737808Y-130552143D01*
X143737808Y-130552143D02*
X143656855Y-130511666D01*
X143656855Y-130511666D02*
X143575903Y-130430714D01*
X143575903Y-130430714D02*
X143535427Y-130309285D01*
X143535427Y-130309285D02*
X143535427Y-130228333D01*
X143535427Y-130228333D02*
X143575903Y-130106904D01*
X143575903Y-130106904D02*
X143616379Y-130066428D01*
X144385427Y-129256904D02*
X144385427Y-129742619D01*
X144385427Y-129499762D02*
X143535427Y-129499762D01*
X143535427Y-129499762D02*
X143656855Y-129580714D01*
X143656855Y-129580714D02*
X143737808Y-129661666D01*
X143737808Y-129661666D02*
X143778284Y-129742619D01*
X143535427Y-128973571D02*
X143535427Y-128406904D01*
X143535427Y-128406904D02*
X144385427Y-128771190D01*
X134413571Y-147384474D02*
X134373095Y-147424951D01*
X134373095Y-147424951D02*
X134251666Y-147465427D01*
X134251666Y-147465427D02*
X134170714Y-147465427D01*
X134170714Y-147465427D02*
X134049285Y-147424951D01*
X134049285Y-147424951D02*
X133968333Y-147343998D01*
X133968333Y-147343998D02*
X133927856Y-147263046D01*
X133927856Y-147263046D02*
X133887380Y-147101141D01*
X133887380Y-147101141D02*
X133887380Y-146979712D01*
X133887380Y-146979712D02*
X133927856Y-146817808D01*
X133927856Y-146817808D02*
X133968333Y-146736855D01*
X133968333Y-146736855D02*
X134049285Y-146655903D01*
X134049285Y-146655903D02*
X134170714Y-146615427D01*
X134170714Y-146615427D02*
X134251666Y-146615427D01*
X134251666Y-146615427D02*
X134373095Y-146655903D01*
X134373095Y-146655903D02*
X134413571Y-146696379D01*
X135223095Y-147465427D02*
X134737380Y-147465427D01*
X134980237Y-147465427D02*
X134980237Y-146615427D01*
X134980237Y-146615427D02*
X134899285Y-146736855D01*
X134899285Y-146736855D02*
X134818333Y-146817808D01*
X134818333Y-146817808D02*
X134737380Y-146858284D01*
X136032619Y-147465427D02*
X135546904Y-147465427D01*
X135789761Y-147465427D02*
X135789761Y-146615427D01*
X135789761Y-146615427D02*
X135708809Y-146736855D01*
X135708809Y-146736855D02*
X135627857Y-146817808D01*
X135627857Y-146817808D02*
X135546904Y-146858284D01*
X138084474Y-146356428D02*
X138124951Y-146396904D01*
X138124951Y-146396904D02*
X138165427Y-146518333D01*
X138165427Y-146518333D02*
X138165427Y-146599285D01*
X138165427Y-146599285D02*
X138124951Y-146720714D01*
X138124951Y-146720714D02*
X138043998Y-146801666D01*
X138043998Y-146801666D02*
X137963046Y-146842143D01*
X137963046Y-146842143D02*
X137801141Y-146882619D01*
X137801141Y-146882619D02*
X137679712Y-146882619D01*
X137679712Y-146882619D02*
X137517808Y-146842143D01*
X137517808Y-146842143D02*
X137436855Y-146801666D01*
X137436855Y-146801666D02*
X137355903Y-146720714D01*
X137355903Y-146720714D02*
X137315427Y-146599285D01*
X137315427Y-146599285D02*
X137315427Y-146518333D01*
X137315427Y-146518333D02*
X137355903Y-146396904D01*
X137355903Y-146396904D02*
X137396379Y-146356428D01*
X138165427Y-145546904D02*
X138165427Y-146032619D01*
X138165427Y-145789762D02*
X137315427Y-145789762D01*
X137315427Y-145789762D02*
X137436855Y-145870714D01*
X137436855Y-145870714D02*
X137517808Y-145951666D01*
X137517808Y-145951666D02*
X137558284Y-146032619D01*
X137315427Y-144818333D02*
X137315427Y-144980238D01*
X137315427Y-144980238D02*
X137355903Y-145061190D01*
X137355903Y-145061190D02*
X137396379Y-145101666D01*
X137396379Y-145101666D02*
X137517808Y-145182619D01*
X137517808Y-145182619D02*
X137679712Y-145223095D01*
X137679712Y-145223095D02*
X138003522Y-145223095D01*
X138003522Y-145223095D02*
X138084474Y-145182619D01*
X138084474Y-145182619D02*
X138124951Y-145142142D01*
X138124951Y-145142142D02*
X138165427Y-145061190D01*
X138165427Y-145061190D02*
X138165427Y-144899285D01*
X138165427Y-144899285D02*
X138124951Y-144818333D01*
X138124951Y-144818333D02*
X138084474Y-144777857D01*
X138084474Y-144777857D02*
X138003522Y-144737380D01*
X138003522Y-144737380D02*
X137801141Y-144737380D01*
X137801141Y-144737380D02*
X137720189Y-144777857D01*
X137720189Y-144777857D02*
X137679712Y-144818333D01*
X137679712Y-144818333D02*
X137639236Y-144899285D01*
X137639236Y-144899285D02*
X137639236Y-145061190D01*
X137639236Y-145061190D02*
X137679712Y-145142142D01*
X137679712Y-145142142D02*
X137720189Y-145182619D01*
X137720189Y-145182619D02*
X137801141Y-145223095D01*
X130088333Y-127609580D02*
X130040714Y-127657200D01*
X130040714Y-127657200D02*
X129897857Y-127704819D01*
X129897857Y-127704819D02*
X129802619Y-127704819D01*
X129802619Y-127704819D02*
X129659762Y-127657200D01*
X129659762Y-127657200D02*
X129564524Y-127561961D01*
X129564524Y-127561961D02*
X129516905Y-127466723D01*
X129516905Y-127466723D02*
X129469286Y-127276247D01*
X129469286Y-127276247D02*
X129469286Y-127133390D01*
X129469286Y-127133390D02*
X129516905Y-126942914D01*
X129516905Y-126942914D02*
X129564524Y-126847676D01*
X129564524Y-126847676D02*
X129659762Y-126752438D01*
X129659762Y-126752438D02*
X129802619Y-126704819D01*
X129802619Y-126704819D02*
X129897857Y-126704819D01*
X129897857Y-126704819D02*
X130040714Y-126752438D01*
X130040714Y-126752438D02*
X130088333Y-126800057D01*
X130564524Y-127704819D02*
X130755000Y-127704819D01*
X130755000Y-127704819D02*
X130850238Y-127657200D01*
X130850238Y-127657200D02*
X130897857Y-127609580D01*
X130897857Y-127609580D02*
X130993095Y-127466723D01*
X130993095Y-127466723D02*
X131040714Y-127276247D01*
X131040714Y-127276247D02*
X131040714Y-126895295D01*
X131040714Y-126895295D02*
X130993095Y-126800057D01*
X130993095Y-126800057D02*
X130945476Y-126752438D01*
X130945476Y-126752438D02*
X130850238Y-126704819D01*
X130850238Y-126704819D02*
X130659762Y-126704819D01*
X130659762Y-126704819D02*
X130564524Y-126752438D01*
X130564524Y-126752438D02*
X130516905Y-126800057D01*
X130516905Y-126800057D02*
X130469286Y-126895295D01*
X130469286Y-126895295D02*
X130469286Y-127133390D01*
X130469286Y-127133390D02*
X130516905Y-127228628D01*
X130516905Y-127228628D02*
X130564524Y-127276247D01*
X130564524Y-127276247D02*
X130659762Y-127323866D01*
X130659762Y-127323866D02*
X130850238Y-127323866D01*
X130850238Y-127323866D02*
X130945476Y-127276247D01*
X130945476Y-127276247D02*
X130993095Y-127228628D01*
X130993095Y-127228628D02*
X131040714Y-127133390D01*
X143753333Y-134081033D02*
X143520000Y-133747700D01*
X143353333Y-134081033D02*
X143353333Y-133381033D01*
X143353333Y-133381033D02*
X143620000Y-133381033D01*
X143620000Y-133381033D02*
X143686667Y-133414366D01*
X143686667Y-133414366D02*
X143720000Y-133447700D01*
X143720000Y-133447700D02*
X143753333Y-133514366D01*
X143753333Y-133514366D02*
X143753333Y-133614366D01*
X143753333Y-133614366D02*
X143720000Y-133681033D01*
X143720000Y-133681033D02*
X143686667Y-133714366D01*
X143686667Y-133714366D02*
X143620000Y-133747700D01*
X143620000Y-133747700D02*
X143353333Y-133747700D01*
X144386667Y-133381033D02*
X144053333Y-133381033D01*
X144053333Y-133381033D02*
X144020000Y-133714366D01*
X144020000Y-133714366D02*
X144053333Y-133681033D01*
X144053333Y-133681033D02*
X144120000Y-133647700D01*
X144120000Y-133647700D02*
X144286667Y-133647700D01*
X144286667Y-133647700D02*
X144353333Y-133681033D01*
X144353333Y-133681033D02*
X144386667Y-133714366D01*
X144386667Y-133714366D02*
X144420000Y-133781033D01*
X144420000Y-133781033D02*
X144420000Y-133947700D01*
X144420000Y-133947700D02*
X144386667Y-134014366D01*
X144386667Y-134014366D02*
X144353333Y-134047700D01*
X144353333Y-134047700D02*
X144286667Y-134081033D01*
X144286667Y-134081033D02*
X144120000Y-134081033D01*
X144120000Y-134081033D02*
X144053333Y-134047700D01*
X144053333Y-134047700D02*
X144020000Y-134014366D01*
X133538333Y-149735427D02*
X133254999Y-149330665D01*
X133052618Y-149735427D02*
X133052618Y-148885427D01*
X133052618Y-148885427D02*
X133376428Y-148885427D01*
X133376428Y-148885427D02*
X133457380Y-148925903D01*
X133457380Y-148925903D02*
X133497857Y-148966379D01*
X133497857Y-148966379D02*
X133538333Y-149047331D01*
X133538333Y-149047331D02*
X133538333Y-149168760D01*
X133538333Y-149168760D02*
X133497857Y-149249712D01*
X133497857Y-149249712D02*
X133457380Y-149290189D01*
X133457380Y-149290189D02*
X133376428Y-149330665D01*
X133376428Y-149330665D02*
X133052618Y-149330665D01*
X134266904Y-149168760D02*
X134266904Y-149735427D01*
X134064523Y-148844951D02*
X133862142Y-149452093D01*
X133862142Y-149452093D02*
X134388333Y-149452093D01*
X125474474Y-150666428D02*
X125514951Y-150706904D01*
X125514951Y-150706904D02*
X125555427Y-150828333D01*
X125555427Y-150828333D02*
X125555427Y-150909285D01*
X125555427Y-150909285D02*
X125514951Y-151030714D01*
X125514951Y-151030714D02*
X125433998Y-151111666D01*
X125433998Y-151111666D02*
X125353046Y-151152143D01*
X125353046Y-151152143D02*
X125191141Y-151192619D01*
X125191141Y-151192619D02*
X125069712Y-151192619D01*
X125069712Y-151192619D02*
X124907808Y-151152143D01*
X124907808Y-151152143D02*
X124826855Y-151111666D01*
X124826855Y-151111666D02*
X124745903Y-151030714D01*
X124745903Y-151030714D02*
X124705427Y-150909285D01*
X124705427Y-150909285D02*
X124705427Y-150828333D01*
X124705427Y-150828333D02*
X124745903Y-150706904D01*
X124745903Y-150706904D02*
X124786379Y-150666428D01*
X125555427Y-149856904D02*
X125555427Y-150342619D01*
X125555427Y-150099762D02*
X124705427Y-150099762D01*
X124705427Y-150099762D02*
X124826855Y-150180714D01*
X124826855Y-150180714D02*
X124907808Y-150261666D01*
X124907808Y-150261666D02*
X124948284Y-150342619D01*
X124705427Y-149573571D02*
X124705427Y-149047380D01*
X124705427Y-149047380D02*
X125029236Y-149330714D01*
X125029236Y-149330714D02*
X125029236Y-149209285D01*
X125029236Y-149209285D02*
X125069712Y-149128333D01*
X125069712Y-149128333D02*
X125110189Y-149087857D01*
X125110189Y-149087857D02*
X125191141Y-149047380D01*
X125191141Y-149047380D02*
X125393522Y-149047380D01*
X125393522Y-149047380D02*
X125474474Y-149087857D01*
X125474474Y-149087857D02*
X125514951Y-149128333D01*
X125514951Y-149128333D02*
X125555427Y-149209285D01*
X125555427Y-149209285D02*
X125555427Y-149452142D01*
X125555427Y-149452142D02*
X125514951Y-149533095D01*
X125514951Y-149533095D02*
X125474474Y-149573571D01*
X125249999Y-143609366D02*
X125216666Y-143642700D01*
X125216666Y-143642700D02*
X125116666Y-143676033D01*
X125116666Y-143676033D02*
X125049999Y-143676033D01*
X125049999Y-143676033D02*
X124949999Y-143642700D01*
X124949999Y-143642700D02*
X124883333Y-143576033D01*
X124883333Y-143576033D02*
X124849999Y-143509366D01*
X124849999Y-143509366D02*
X124816666Y-143376033D01*
X124816666Y-143376033D02*
X124816666Y-143276033D01*
X124816666Y-143276033D02*
X124849999Y-143142700D01*
X124849999Y-143142700D02*
X124883333Y-143076033D01*
X124883333Y-143076033D02*
X124949999Y-143009366D01*
X124949999Y-143009366D02*
X125049999Y-142976033D01*
X125049999Y-142976033D02*
X125116666Y-142976033D01*
X125116666Y-142976033D02*
X125216666Y-143009366D01*
X125216666Y-143009366D02*
X125249999Y-143042700D01*
X125916666Y-143676033D02*
X125516666Y-143676033D01*
X125716666Y-143676033D02*
X125716666Y-142976033D01*
X125716666Y-142976033D02*
X125649999Y-143076033D01*
X125649999Y-143076033D02*
X125583333Y-143142700D01*
X125583333Y-143142700D02*
X125516666Y-143176033D01*
X126183333Y-143042700D02*
X126216666Y-143009366D01*
X126216666Y-143009366D02*
X126283333Y-142976033D01*
X126283333Y-142976033D02*
X126450000Y-142976033D01*
X126450000Y-142976033D02*
X126516666Y-143009366D01*
X126516666Y-143009366D02*
X126550000Y-143042700D01*
X126550000Y-143042700D02*
X126583333Y-143109366D01*
X126583333Y-143109366D02*
X126583333Y-143176033D01*
X126583333Y-143176033D02*
X126550000Y-143276033D01*
X126550000Y-143276033D02*
X126150000Y-143676033D01*
X126150000Y-143676033D02*
X126583333Y-143676033D01*
X143489999Y-135134366D02*
X143456666Y-135167700D01*
X143456666Y-135167700D02*
X143356666Y-135201033D01*
X143356666Y-135201033D02*
X143289999Y-135201033D01*
X143289999Y-135201033D02*
X143189999Y-135167700D01*
X143189999Y-135167700D02*
X143123333Y-135101033D01*
X143123333Y-135101033D02*
X143089999Y-135034366D01*
X143089999Y-135034366D02*
X143056666Y-134901033D01*
X143056666Y-134901033D02*
X143056666Y-134801033D01*
X143056666Y-134801033D02*
X143089999Y-134667700D01*
X143089999Y-134667700D02*
X143123333Y-134601033D01*
X143123333Y-134601033D02*
X143189999Y-134534366D01*
X143189999Y-134534366D02*
X143289999Y-134501033D01*
X143289999Y-134501033D02*
X143356666Y-134501033D01*
X143356666Y-134501033D02*
X143456666Y-134534366D01*
X143456666Y-134534366D02*
X143489999Y-134567700D01*
X144156666Y-135201033D02*
X143756666Y-135201033D01*
X143956666Y-135201033D02*
X143956666Y-134501033D01*
X143956666Y-134501033D02*
X143889999Y-134601033D01*
X143889999Y-134601033D02*
X143823333Y-134667700D01*
X143823333Y-134667700D02*
X143756666Y-134701033D01*
X144790000Y-134501033D02*
X144456666Y-134501033D01*
X144456666Y-134501033D02*
X144423333Y-134834366D01*
X144423333Y-134834366D02*
X144456666Y-134801033D01*
X144456666Y-134801033D02*
X144523333Y-134767700D01*
X144523333Y-134767700D02*
X144690000Y-134767700D01*
X144690000Y-134767700D02*
X144756666Y-134801033D01*
X144756666Y-134801033D02*
X144790000Y-134834366D01*
X144790000Y-134834366D02*
X144823333Y-134901033D01*
X144823333Y-134901033D02*
X144823333Y-135067700D01*
X144823333Y-135067700D02*
X144790000Y-135134366D01*
X144790000Y-135134366D02*
X144756666Y-135167700D01*
X144756666Y-135167700D02*
X144690000Y-135201033D01*
X144690000Y-135201033D02*
X144523333Y-135201033D01*
X144523333Y-135201033D02*
X144456666Y-135167700D01*
X144456666Y-135167700D02*
X144423333Y-135134366D01*
X141554160Y-151259104D02*
X142030350Y-151259104D01*
X141458922Y-151544819D02*
X141792255Y-150544819D01*
X141792255Y-150544819D02*
X142125588Y-151544819D01*
X137616779Y-151046009D02*
X137950112Y-151046009D01*
X138092969Y-151569819D02*
X137616779Y-151569819D01*
X137616779Y-151569819D02*
X137616779Y-150569819D01*
X137616779Y-150569819D02*
X138092969Y-150569819D01*
X131498333Y-133184474D02*
X131457857Y-133224951D01*
X131457857Y-133224951D02*
X131336428Y-133265427D01*
X131336428Y-133265427D02*
X131255476Y-133265427D01*
X131255476Y-133265427D02*
X131134047Y-133224951D01*
X131134047Y-133224951D02*
X131053095Y-133143998D01*
X131053095Y-133143998D02*
X131012618Y-133063046D01*
X131012618Y-133063046D02*
X130972142Y-132901141D01*
X130972142Y-132901141D02*
X130972142Y-132779712D01*
X130972142Y-132779712D02*
X131012618Y-132617808D01*
X131012618Y-132617808D02*
X131053095Y-132536855D01*
X131053095Y-132536855D02*
X131134047Y-132455903D01*
X131134047Y-132455903D02*
X131255476Y-132415427D01*
X131255476Y-132415427D02*
X131336428Y-132415427D01*
X131336428Y-132415427D02*
X131457857Y-132455903D01*
X131457857Y-132455903D02*
X131498333Y-132496379D01*
X132307857Y-133265427D02*
X131822142Y-133265427D01*
X132064999Y-133265427D02*
X132064999Y-132415427D01*
X132064999Y-132415427D02*
X131984047Y-132536855D01*
X131984047Y-132536855D02*
X131903095Y-132617808D01*
X131903095Y-132617808D02*
X131822142Y-132658284D01*
X133528333Y-135334474D02*
X133487857Y-135374951D01*
X133487857Y-135374951D02*
X133366428Y-135415427D01*
X133366428Y-135415427D02*
X133285476Y-135415427D01*
X133285476Y-135415427D02*
X133164047Y-135374951D01*
X133164047Y-135374951D02*
X133083095Y-135293998D01*
X133083095Y-135293998D02*
X133042618Y-135213046D01*
X133042618Y-135213046D02*
X133002142Y-135051141D01*
X133002142Y-135051141D02*
X133002142Y-134929712D01*
X133002142Y-134929712D02*
X133042618Y-134767808D01*
X133042618Y-134767808D02*
X133083095Y-134686855D01*
X133083095Y-134686855D02*
X133164047Y-134605903D01*
X133164047Y-134605903D02*
X133285476Y-134565427D01*
X133285476Y-134565427D02*
X133366428Y-134565427D01*
X133366428Y-134565427D02*
X133487857Y-134605903D01*
X133487857Y-134605903D02*
X133528333Y-134646379D01*
X134256904Y-134565427D02*
X134094999Y-134565427D01*
X134094999Y-134565427D02*
X134014047Y-134605903D01*
X134014047Y-134605903D02*
X133973571Y-134646379D01*
X133973571Y-134646379D02*
X133892618Y-134767808D01*
X133892618Y-134767808D02*
X133852142Y-134929712D01*
X133852142Y-134929712D02*
X133852142Y-135253522D01*
X133852142Y-135253522D02*
X133892618Y-135334474D01*
X133892618Y-135334474D02*
X133933095Y-135374951D01*
X133933095Y-135374951D02*
X134014047Y-135415427D01*
X134014047Y-135415427D02*
X134175952Y-135415427D01*
X134175952Y-135415427D02*
X134256904Y-135374951D01*
X134256904Y-135374951D02*
X134297380Y-135334474D01*
X134297380Y-135334474D02*
X134337857Y-135253522D01*
X134337857Y-135253522D02*
X134337857Y-135051141D01*
X134337857Y-135051141D02*
X134297380Y-134970189D01*
X134297380Y-134970189D02*
X134256904Y-134929712D01*
X134256904Y-134929712D02*
X134175952Y-134889236D01*
X134175952Y-134889236D02*
X134014047Y-134889236D01*
X134014047Y-134889236D02*
X133933095Y-134929712D01*
X133933095Y-134929712D02*
X133892618Y-134970189D01*
X133892618Y-134970189D02*
X133852142Y-135051141D01*
X124284819Y-147556666D02*
X124284819Y-148032856D01*
X124284819Y-148032856D02*
X123284819Y-148032856D01*
X124284819Y-146699523D02*
X124284819Y-147270951D01*
X124284819Y-146985237D02*
X123284819Y-146985237D01*
X123284819Y-146985237D02*
X123427676Y-147080475D01*
X123427676Y-147080475D02*
X123522914Y-147175713D01*
X123522914Y-147175713D02*
X123570533Y-147270951D01*
X137643809Y-127728628D02*
X137643809Y-128204819D01*
X137310476Y-127204819D02*
X137643809Y-127728628D01*
X137643809Y-127728628D02*
X137977142Y-127204819D01*
X138834285Y-128204819D02*
X138262857Y-128204819D01*
X138548571Y-128204819D02*
X138548571Y-127204819D01*
X138548571Y-127204819D02*
X138453333Y-127347676D01*
X138453333Y-127347676D02*
X138358095Y-127442914D01*
X138358095Y-127442914D02*
X138262857Y-127490533D01*
D12*
%TO.C,C4*%
X142207836Y-131145000D02*
X141992164Y-131145000D01*
X142207836Y-131865000D02*
X141992164Y-131865000D01*
%TO.C,R6*%
X141946359Y-132255000D02*
X142253641Y-132255000D01*
X141946359Y-133015000D02*
X142253641Y-133015000D01*
D13*
%TO.C,U3*%
X127600000Y-148290000D02*
X127600000Y-148390000D01*
X127600000Y-150490000D02*
X127600000Y-150390000D01*
X129800000Y-148290000D02*
X127600000Y-148290000D01*
X129800000Y-148290000D02*
X129800000Y-148390000D01*
X129800000Y-150490000D02*
X127600000Y-150490000D01*
X129800000Y-150490000D02*
X129800000Y-150390000D01*
D10*
X127365000Y-148190000D02*
G75*
G02*
X127215000Y-148190000I-75000J0D01*
G01*
X127215000Y-148190000D02*
G75*
G02*
X127365000Y-148190000I75000J0D01*
G01*
D12*
%TO.C,C3*%
X137585000Y-138892164D02*
X137585000Y-139107836D01*
X138305000Y-138892164D02*
X138305000Y-139107836D01*
%TO.C,J2*%
X124050000Y-128970000D02*
X125430000Y-128970000D01*
X124050000Y-130350000D02*
X124050000Y-128970000D01*
X124050000Y-131620000D02*
X124050000Y-141890000D01*
X124050000Y-131620000D02*
X126700000Y-131620000D01*
X124050000Y-141890000D02*
X129350000Y-141890000D01*
X126700000Y-128970000D02*
X129350000Y-128970000D01*
X126700000Y-131620000D02*
X126700000Y-128970000D01*
X129350000Y-128970000D02*
X129350000Y-141890000D01*
%TO.C,R1*%
X134850000Y-130463641D02*
X134850000Y-130156359D01*
X135610000Y-130463641D02*
X135610000Y-130156359D01*
%TO.C,C5*%
X135990000Y-130417836D02*
X135990000Y-130202164D01*
X136710000Y-130417836D02*
X136710000Y-130202164D01*
%TO.C,U4*%
X139780000Y-145800000D02*
X139780000Y-145000000D01*
X139780000Y-145800000D02*
X139780000Y-146600000D01*
X142900000Y-145800000D02*
X142900000Y-145000000D01*
X142900000Y-145800000D02*
X142900000Y-146600000D01*
X139830000Y-147100000D02*
X139500000Y-147340000D01*
X139500000Y-146860000D01*
X139830000Y-147100000D01*
G36*
X139830000Y-147100000D02*
G01*
X139500000Y-147340000D01*
X139500000Y-146860000D01*
X139830000Y-147100000D01*
G37*
%TO.C,C2*%
X136455000Y-138892164D02*
X136455000Y-139107836D01*
X137175000Y-138892164D02*
X137175000Y-139107836D01*
D14*
%TO.C,U1*%
X135130000Y-132330000D02*
G75*
G02*
X134880000Y-132330000I-125000J0D01*
G01*
X134880000Y-132330000D02*
G75*
G02*
X135130000Y-132330000I125000J0D01*
G01*
D12*
%TO.C,C7*%
X131742164Y-135690000D02*
X131957836Y-135690000D01*
X131742164Y-136410000D02*
X131957836Y-136410000D01*
%TO.C,C10*%
X132662164Y-145380000D02*
X132877836Y-145380000D01*
X132662164Y-146100000D02*
X132877836Y-146100000D01*
%TO.C,R2*%
X141946359Y-135645000D02*
X142253641Y-135645000D01*
X141946359Y-136405000D02*
X142253641Y-136405000D01*
%TO.C,R3*%
X141946359Y-136775000D02*
X142253641Y-136775000D01*
X141946359Y-137535000D02*
X142253641Y-137535000D01*
D15*
%TO.C,U2*%
X130180000Y-144780000D02*
X130180000Y-143280000D01*
X130310000Y-139730000D02*
X135210000Y-139730000D01*
X130310000Y-142930000D02*
X130310000Y-139730000D01*
X135210000Y-139730000D02*
X135210000Y-142930000D01*
X135210000Y-142930000D02*
X130310000Y-142930000D01*
D12*
%TO.C,C14*%
X129901252Y-146455000D02*
X129378748Y-146455000D01*
X129901252Y-147925000D02*
X129378748Y-147925000D01*
%TO.C,C8*%
X131398748Y-129440000D02*
X132821252Y-129440000D01*
X131398748Y-131260000D02*
X132821252Y-131260000D01*
%TO.C,C17*%
X143700000Y-127322164D02*
X143700000Y-127537836D01*
X144420000Y-127322164D02*
X144420000Y-127537836D01*
%TO.C,C11*%
X132662164Y-146720000D02*
X132877836Y-146720000D01*
X132662164Y-147440000D02*
X132877836Y-147440000D01*
%TO.C,C16*%
X138560000Y-145692164D02*
X138560000Y-145907836D01*
X139280000Y-145692164D02*
X139280000Y-145907836D01*
%TO.C,C9*%
X127616252Y-126330000D02*
X126193748Y-126330000D01*
X127616252Y-128150000D02*
X126193748Y-128150000D01*
%TO.C,R5*%
X142253641Y-133385000D02*
X141946359Y-133385000D01*
X142253641Y-134145000D02*
X141946359Y-134145000D01*
%TO.C,R4*%
X132073641Y-148970000D02*
X131766359Y-148970000D01*
X132073641Y-149730000D02*
X131766359Y-149730000D01*
%TO.C,C13*%
X125800000Y-150012164D02*
X125800000Y-150227836D01*
X126520000Y-150012164D02*
X126520000Y-150227836D01*
%TO.C,C12*%
X125340000Y-144827836D02*
X125340000Y-144612164D01*
X126060000Y-144827836D02*
X126060000Y-144612164D01*
%TO.C,C15*%
X141992164Y-134535000D02*
X142207836Y-134535000D01*
X141992164Y-135255000D02*
X142207836Y-135255000D01*
D16*
%TO.C,G\u002A\u002A\u002A*%
G36*
X141720007Y-138095041D02*
G01*
X141783064Y-138127196D01*
X141845861Y-138157349D01*
X141908352Y-138185482D01*
X141970488Y-138211578D01*
X142032223Y-138235619D01*
X142093509Y-138257588D01*
X142154299Y-138277468D01*
X142214545Y-138295240D01*
X142274199Y-138310888D01*
X142333215Y-138324394D01*
X142354040Y-138328678D01*
X142414786Y-138339714D01*
X142475166Y-138348507D01*
X142535176Y-138355057D01*
X142594816Y-138359365D01*
X142654080Y-138361430D01*
X142712968Y-138361253D01*
X142771475Y-138358833D01*
X142829599Y-138354171D01*
X142887338Y-138347267D01*
X142944688Y-138338121D01*
X143001647Y-138326733D01*
X143058212Y-138313103D01*
X143110031Y-138298545D01*
X143162243Y-138281792D01*
X143214631Y-138262860D01*
X143267041Y-138241823D01*
X143319318Y-138218753D01*
X143371307Y-138193725D01*
X143422853Y-138166813D01*
X143473802Y-138138089D01*
X143524000Y-138107628D01*
X143560515Y-138084049D01*
X143563646Y-138081975D01*
X143563632Y-138666985D01*
X143563630Y-138712909D01*
X143563628Y-138756622D01*
X143563624Y-138798188D01*
X143563618Y-138837673D01*
X143563609Y-138875142D01*
X143563597Y-138910659D01*
X143563582Y-138944291D01*
X143563562Y-138976103D01*
X143563538Y-139006158D01*
X143563508Y-139034524D01*
X143563472Y-139061265D01*
X143563430Y-139086446D01*
X143563381Y-139110132D01*
X143563324Y-139132388D01*
X143563260Y-139153281D01*
X143563186Y-139172874D01*
X143563104Y-139191234D01*
X143563012Y-139208424D01*
X143562910Y-139224512D01*
X143562797Y-139239560D01*
X143562673Y-139253636D01*
X143562536Y-139266804D01*
X143562388Y-139279129D01*
X143562227Y-139290676D01*
X143562052Y-139301511D01*
X143561863Y-139311699D01*
X143561659Y-139321305D01*
X143561441Y-139330394D01*
X143561207Y-139339031D01*
X143560956Y-139347282D01*
X143560689Y-139355211D01*
X143560405Y-139362885D01*
X143560103Y-139370367D01*
X143559782Y-139377724D01*
X143559443Y-139385020D01*
X143559084Y-139392321D01*
X143558706Y-139399692D01*
X143558306Y-139407198D01*
X143557886Y-139414904D01*
X143557444Y-139422876D01*
X143557323Y-139425040D01*
X143551460Y-139512907D01*
X143543637Y-139601806D01*
X143533878Y-139691648D01*
X143522205Y-139782342D01*
X143508642Y-139873800D01*
X143493209Y-139965933D01*
X143475931Y-140058651D01*
X143456830Y-140151865D01*
X143435928Y-140245485D01*
X143413249Y-140339422D01*
X143388814Y-140433587D01*
X143362647Y-140527890D01*
X143334769Y-140622242D01*
X143305205Y-140716553D01*
X143273976Y-140810735D01*
X143241105Y-140904697D01*
X143206614Y-140998352D01*
X143170527Y-141091608D01*
X143132866Y-141184377D01*
X143093654Y-141276569D01*
X143080355Y-141306901D01*
X143041413Y-141393190D01*
X143001342Y-141478317D01*
X142960181Y-141562219D01*
X142917973Y-141644830D01*
X142874758Y-141726084D01*
X142830577Y-141805915D01*
X142785471Y-141884259D01*
X142739483Y-141961050D01*
X142692651Y-142036221D01*
X142645018Y-142109709D01*
X142596625Y-142181446D01*
X142547513Y-142251369D01*
X142497723Y-142319410D01*
X142447295Y-142385506D01*
X142396271Y-142449590D01*
X142344693Y-142511596D01*
X142292600Y-142571460D01*
X142274995Y-142591075D01*
X142262240Y-142605037D01*
X142248366Y-142619973D01*
X142233594Y-142635659D01*
X142218145Y-142651869D01*
X142202239Y-142668379D01*
X142186099Y-142684964D01*
X142169944Y-142701398D01*
X142153997Y-142717457D01*
X142138478Y-142732916D01*
X142123608Y-142747549D01*
X142109609Y-142761131D01*
X142096701Y-142773439D01*
X142086202Y-142783236D01*
X142044834Y-142820719D01*
X142004173Y-142856252D01*
X141964032Y-142889981D01*
X141924225Y-142922049D01*
X141884563Y-142952600D01*
X141844858Y-142981779D01*
X141804924Y-143009731D01*
X141764573Y-143036599D01*
X141723616Y-143062527D01*
X141721061Y-143064102D01*
X141714648Y-143068040D01*
X141708778Y-143071627D01*
X141703766Y-143074673D01*
X141699927Y-143076986D01*
X141697577Y-143078376D01*
X141697106Y-143078640D01*
X141696215Y-143078864D01*
X141694929Y-143078648D01*
X141693033Y-143077867D01*
X141690314Y-143076399D01*
X141686557Y-143074120D01*
X141681548Y-143070906D01*
X141675073Y-143066635D01*
X141667781Y-143061763D01*
X141615658Y-143025649D01*
X141563629Y-142987268D01*
X141511704Y-142946629D01*
X141459892Y-142903742D01*
X141408203Y-142858614D01*
X141356647Y-142811255D01*
X141305233Y-142761673D01*
X141253971Y-142709878D01*
X141202870Y-142655878D01*
X141151941Y-142599682D01*
X141112380Y-142554375D01*
X141057110Y-142488610D01*
X141002502Y-142420739D01*
X140948597Y-142350845D01*
X140895436Y-142279014D01*
X140843061Y-142205330D01*
X140791514Y-142129877D01*
X140740836Y-142052740D01*
X140691068Y-141974004D01*
X140642252Y-141893752D01*
X140594429Y-141812069D01*
X140547641Y-141729040D01*
X140501929Y-141644748D01*
X140457335Y-141559280D01*
X140413900Y-141472718D01*
X140371666Y-141385147D01*
X140330674Y-141296652D01*
X140290965Y-141207318D01*
X140252582Y-141117228D01*
X140215565Y-141026467D01*
X140179955Y-140935120D01*
X140145796Y-140843270D01*
X140113127Y-140751003D01*
X140081990Y-140658403D01*
X140052428Y-140565554D01*
X140024480Y-140472541D01*
X139998189Y-140379448D01*
X139973597Y-140286359D01*
X139950744Y-140193360D01*
X139948631Y-140184388D01*
X139930405Y-140103832D01*
X139913567Y-140023487D01*
X139898146Y-139943540D01*
X139884174Y-139864178D01*
X139871681Y-139785589D01*
X139860697Y-139707959D01*
X139851254Y-139631475D01*
X139843382Y-139556325D01*
X139840356Y-139522947D01*
X139839728Y-139515659D01*
X139838961Y-139506763D01*
X139838112Y-139496922D01*
X139837239Y-139486797D01*
X139836397Y-139477048D01*
X139836085Y-139473425D01*
X139833580Y-139444394D01*
X139833489Y-139259496D01*
X140211027Y-139259496D01*
X140211033Y-139288273D01*
X140211047Y-139315288D01*
X140211069Y-139340612D01*
X140211099Y-139364321D01*
X140211139Y-139386487D01*
X140211189Y-139407184D01*
X140211248Y-139426485D01*
X140211319Y-139444464D01*
X140211400Y-139461194D01*
X140211493Y-139476748D01*
X140211598Y-139491200D01*
X140211716Y-139504624D01*
X140211846Y-139517092D01*
X140211991Y-139528679D01*
X140212149Y-139539457D01*
X140212322Y-139549501D01*
X140212509Y-139558883D01*
X140212712Y-139567676D01*
X140212931Y-139575955D01*
X140213167Y-139583793D01*
X140213419Y-139591263D01*
X140213689Y-139598439D01*
X140213976Y-139605394D01*
X140214282Y-139612201D01*
X140214607Y-139618934D01*
X140214919Y-139625065D01*
X140219843Y-139701135D01*
X140226727Y-139778260D01*
X140235555Y-139856365D01*
X140246310Y-139935377D01*
X140258974Y-140015222D01*
X140273532Y-140095825D01*
X140289965Y-140177114D01*
X140308258Y-140259014D01*
X140328393Y-140341451D01*
X140350353Y-140424351D01*
X140374121Y-140507641D01*
X140399681Y-140591246D01*
X140427015Y-140675092D01*
X140456107Y-140759106D01*
X140486940Y-140843214D01*
X140503817Y-140887382D01*
X140534533Y-140964743D01*
X140566425Y-141041361D01*
X140599451Y-141117165D01*
X140633566Y-141192087D01*
X140668727Y-141266056D01*
X140704890Y-141339004D01*
X140742011Y-141410860D01*
X140780047Y-141481557D01*
X140818953Y-141551023D01*
X140858686Y-141619190D01*
X140899202Y-141685988D01*
X140940458Y-141751348D01*
X140982409Y-141815200D01*
X141025012Y-141877476D01*
X141068224Y-141938105D01*
X141111999Y-141997018D01*
X141156296Y-142054145D01*
X141201069Y-142109418D01*
X141246275Y-142162767D01*
X141291870Y-142214122D01*
X141337811Y-142263415D01*
X141384053Y-142310574D01*
X141427341Y-142352505D01*
X141461959Y-142384597D01*
X141495899Y-142414858D01*
X141529440Y-142443521D01*
X141562861Y-142470819D01*
X141596442Y-142496987D01*
X141626000Y-142519012D01*
X141631335Y-142522867D01*
X141637555Y-142527297D01*
X141644418Y-142532135D01*
X141651681Y-142537214D01*
X141659100Y-142542369D01*
X141666434Y-142547431D01*
X141673440Y-142552235D01*
X141679876Y-142556613D01*
X141685498Y-142560398D01*
X141690063Y-142563425D01*
X141693330Y-142565526D01*
X141695055Y-142566534D01*
X141695241Y-142566598D01*
X141696357Y-142566037D01*
X141699058Y-142564492D01*
X141702988Y-142562171D01*
X141707792Y-142559283D01*
X141710136Y-142557859D01*
X141718026Y-142552964D01*
X141727385Y-142547014D01*
X141737823Y-142540268D01*
X141748951Y-142532983D01*
X141760378Y-142525419D01*
X141771715Y-142517835D01*
X141782571Y-142510490D01*
X141792556Y-142503641D01*
X141801279Y-142497548D01*
X141804168Y-142495495D01*
X141850842Y-142460952D01*
X141897366Y-142424174D01*
X141943700Y-142385198D01*
X141989801Y-142344063D01*
X142035627Y-142300807D01*
X142081138Y-142255468D01*
X142126291Y-142208085D01*
X142171046Y-142158696D01*
X142179704Y-142148858D01*
X142226592Y-142093920D01*
X142272922Y-142036839D01*
X142318647Y-141977689D01*
X142363721Y-141916546D01*
X142408097Y-141853485D01*
X142451729Y-141788580D01*
X142494571Y-141721907D01*
X142536577Y-141653540D01*
X142577700Y-141583555D01*
X142617894Y-141512027D01*
X142657113Y-141439031D01*
X142695310Y-141364641D01*
X142732439Y-141288933D01*
X142768454Y-141211982D01*
X142796587Y-141149226D01*
X142832597Y-141065149D01*
X142867001Y-140980431D01*
X142899769Y-140895180D01*
X142930871Y-140809504D01*
X142960278Y-140723512D01*
X142987963Y-140637312D01*
X143013894Y-140551013D01*
X143038045Y-140464723D01*
X143060384Y-140378550D01*
X143080883Y-140292602D01*
X143099514Y-140206989D01*
X143116247Y-140121819D01*
X143131053Y-140037199D01*
X143143902Y-139953238D01*
X143154766Y-139870045D01*
X143163616Y-139787728D01*
X143164537Y-139777960D01*
X143166177Y-139759820D01*
X143167697Y-139741942D01*
X143169119Y-139724008D01*
X143170464Y-139705701D01*
X143171755Y-139686702D01*
X143173012Y-139666692D01*
X143174258Y-139645352D01*
X143175515Y-139622365D01*
X143176769Y-139598085D01*
X143176890Y-139594917D01*
X143177006Y-139590269D01*
X143177116Y-139584107D01*
X143177222Y-139576394D01*
X143177324Y-139567092D01*
X143177421Y-139556167D01*
X143177514Y-139543582D01*
X143177603Y-139529300D01*
X143177687Y-139513286D01*
X143177768Y-139495503D01*
X143177845Y-139475914D01*
X143177918Y-139454483D01*
X143177987Y-139431175D01*
X143178053Y-139405953D01*
X143178116Y-139378780D01*
X143178176Y-139349620D01*
X143178232Y-139318437D01*
X143178286Y-139285195D01*
X143178336Y-139249857D01*
X143178384Y-139212388D01*
X143178430Y-139172750D01*
X143178472Y-139130907D01*
X143178513Y-139087045D01*
X143178936Y-138602190D01*
X143175762Y-138604276D01*
X143149824Y-138620753D01*
X143122044Y-138637333D01*
X143092831Y-138653804D01*
X143062598Y-138669953D01*
X143031757Y-138685567D01*
X143000717Y-138700432D01*
X142969891Y-138714335D01*
X142939690Y-138727063D01*
X142935789Y-138728638D01*
X142886250Y-138747310D01*
X142836146Y-138763791D01*
X142785527Y-138778069D01*
X142734440Y-138790131D01*
X142682934Y-138799965D01*
X142631057Y-138807559D01*
X142613038Y-138809662D01*
X142576192Y-138813024D01*
X142537957Y-138815260D01*
X142498928Y-138816362D01*
X142459699Y-138816323D01*
X142420864Y-138815137D01*
X142383018Y-138812796D01*
X142379086Y-138812479D01*
X142326864Y-138807160D01*
X142274345Y-138799770D01*
X142221487Y-138790298D01*
X142168250Y-138778733D01*
X142114590Y-138765063D01*
X142060466Y-138749277D01*
X142005837Y-138731364D01*
X141950661Y-138711311D01*
X141894896Y-138689107D01*
X141838500Y-138664742D01*
X141834337Y-138662869D01*
X141820115Y-138656368D01*
X141804703Y-138649170D01*
X141788608Y-138641521D01*
X141772338Y-138633666D01*
X141756402Y-138625853D01*
X141741307Y-138618328D01*
X141727561Y-138611335D01*
X141721756Y-138608327D01*
X141695128Y-138594427D01*
X141678495Y-138603097D01*
X141621153Y-138632056D01*
X141564254Y-138658927D01*
X141507821Y-138683702D01*
X141451879Y-138706374D01*
X141396453Y-138726933D01*
X141341567Y-138745372D01*
X141287245Y-138761682D01*
X141233512Y-138775856D01*
X141180392Y-138787885D01*
X141127909Y-138797762D01*
X141076089Y-138805477D01*
X141070296Y-138806210D01*
X141052487Y-138808365D01*
X141036233Y-138810191D01*
X141021123Y-138811713D01*
X141006743Y-138812956D01*
X140992681Y-138813944D01*
X140978525Y-138814701D01*
X140963860Y-138815254D01*
X140948276Y-138815625D01*
X140931358Y-138815839D01*
X140912694Y-138815922D01*
X140907068Y-138815925D01*
X140890206Y-138815890D01*
X140875256Y-138815780D01*
X140861853Y-138815578D01*
X140849632Y-138815267D01*
X140838230Y-138814829D01*
X140827281Y-138814246D01*
X140816421Y-138813500D01*
X140805285Y-138812575D01*
X140793509Y-138811452D01*
X140780729Y-138810114D01*
X140776146Y-138809614D01*
X140724492Y-138802804D01*
X140673296Y-138793804D01*
X140622498Y-138782601D01*
X140572037Y-138769178D01*
X140521853Y-138753519D01*
X140471887Y-138735610D01*
X140447134Y-138725875D01*
X140416521Y-138712936D01*
X140384888Y-138698533D01*
X140352715Y-138682915D01*
X140320482Y-138666331D01*
X140288668Y-138649028D01*
X140257753Y-138631257D01*
X140228218Y-138613265D01*
X140220582Y-138608427D01*
X140211474Y-138602606D01*
X140211128Y-139045700D01*
X140211097Y-139086597D01*
X140211072Y-139125290D01*
X140211051Y-139161853D01*
X140211037Y-139196359D01*
X140211029Y-139228883D01*
X140211027Y-139259496D01*
X139833489Y-139259496D01*
X139833247Y-138765492D01*
X139832914Y-138086589D01*
X139837196Y-138089181D01*
X139840236Y-138091080D01*
X139844356Y-138093728D01*
X139848745Y-138096604D01*
X139849446Y-138097069D01*
X139854742Y-138100509D01*
X139861661Y-138104884D01*
X139869856Y-138109983D01*
X139878983Y-138115596D01*
X139888695Y-138121512D01*
X139898647Y-138127522D01*
X139908493Y-138133416D01*
X139917887Y-138138982D01*
X139926483Y-138144012D01*
X139930276Y-138146203D01*
X139984664Y-138176244D01*
X140039379Y-138204033D01*
X140094421Y-138229569D01*
X140149789Y-138252853D01*
X140205483Y-138273884D01*
X140261503Y-138292661D01*
X140317848Y-138309186D01*
X140374516Y-138323457D01*
X140431508Y-138335475D01*
X140488824Y-138345239D01*
X140546461Y-138352750D01*
X140604421Y-138358006D01*
X140662701Y-138361009D01*
X140721303Y-138361758D01*
X140780224Y-138360253D01*
X140839465Y-138356493D01*
X140858115Y-138354849D01*
X140917695Y-138348164D01*
X140977734Y-138339269D01*
X141038234Y-138328162D01*
X141099200Y-138314842D01*
X141160637Y-138299309D01*
X141222548Y-138281560D01*
X141284938Y-138261595D01*
X141347811Y-138239412D01*
X141411172Y-138215011D01*
X141475024Y-138188390D01*
X141509878Y-138173015D01*
X141525837Y-138165743D01*
X141543360Y-138157581D01*
X141562018Y-138148739D01*
X141581384Y-138139427D01*
X141601026Y-138129854D01*
X141620517Y-138120231D01*
X141639427Y-138110766D01*
X141657327Y-138101670D01*
X141673788Y-138093152D01*
X141679592Y-138090102D01*
X141695046Y-138081942D01*
X141720007Y-138095041D01*
G37*
G36*
X141735260Y-139316361D02*
G01*
X141780080Y-139319465D01*
X141824761Y-139324820D01*
X141833170Y-139326084D01*
X141877713Y-139334137D01*
X141921639Y-139344363D01*
X141964875Y-139356725D01*
X142007348Y-139371185D01*
X142048987Y-139387706D01*
X142089718Y-139406253D01*
X142129469Y-139426787D01*
X142168166Y-139449272D01*
X142205737Y-139473672D01*
X142242110Y-139499948D01*
X142277212Y-139528066D01*
X142310969Y-139557986D01*
X142333606Y-139579830D01*
X142364780Y-139612564D01*
X142394129Y-139646618D01*
X142421626Y-139681916D01*
X142447246Y-139718383D01*
X142470963Y-139755945D01*
X142492751Y-139794526D01*
X142512586Y-139834051D01*
X142530439Y-139874445D01*
X142546287Y-139915633D01*
X142560103Y-139957540D01*
X142571861Y-140000091D01*
X142581536Y-140043210D01*
X142589101Y-140086822D01*
X142594532Y-140130852D01*
X142597801Y-140175226D01*
X142598884Y-140219868D01*
X142597755Y-140264703D01*
X142594387Y-140309655D01*
X142591897Y-140331817D01*
X142585228Y-140376115D01*
X142576332Y-140420070D01*
X142565251Y-140463568D01*
X142552022Y-140506496D01*
X142536687Y-140548742D01*
X142519283Y-140590191D01*
X142499850Y-140630731D01*
X142478429Y-140670248D01*
X142467511Y-140688722D01*
X142443383Y-140726281D01*
X142417369Y-140762640D01*
X142389565Y-140797702D01*
X142360062Y-140831369D01*
X142328956Y-140863545D01*
X142296338Y-140894131D01*
X142262304Y-140923031D01*
X142226945Y-140950146D01*
X142195491Y-140972003D01*
X142156945Y-140996262D01*
X142117728Y-141018376D01*
X142077792Y-141038361D01*
X142037093Y-141056233D01*
X141995583Y-141072009D01*
X141953216Y-141085704D01*
X141909947Y-141097336D01*
X141865727Y-141106919D01*
X141820513Y-141114471D01*
X141774256Y-141120007D01*
X141771153Y-141120303D01*
X141766387Y-141120653D01*
X141759806Y-141120994D01*
X141751718Y-141121320D01*
X141742427Y-141121626D01*
X141732238Y-141121907D01*
X141721457Y-141122158D01*
X141710389Y-141122374D01*
X141699340Y-141122550D01*
X141688615Y-141122680D01*
X141678520Y-141122759D01*
X141669359Y-141122781D01*
X141661438Y-141122743D01*
X141655062Y-141122638D01*
X141650538Y-141122462D01*
X141649339Y-141122372D01*
X141646601Y-141122145D01*
X141642123Y-141121804D01*
X141636433Y-141121388D01*
X141630062Y-141120936D01*
X141627139Y-141120733D01*
X141598027Y-141118122D01*
X141567741Y-141114270D01*
X141536907Y-141109292D01*
X141506155Y-141103305D01*
X141476111Y-141096423D01*
X141447406Y-141088762D01*
X141437587Y-141085855D01*
X141431373Y-141083969D01*
X141425631Y-141082234D01*
X141420851Y-141080798D01*
X141417522Y-141079808D01*
X141416581Y-141079534D01*
X141414260Y-141078792D01*
X141410223Y-141077424D01*
X141404894Y-141075575D01*
X141398697Y-141073393D01*
X141392673Y-141071247D01*
X141350523Y-141055030D01*
X141309751Y-141037078D01*
X141270242Y-141017320D01*
X141231880Y-140995689D01*
X141194547Y-140972115D01*
X141158128Y-140946531D01*
X141122506Y-140918868D01*
X141096823Y-140897222D01*
X141090541Y-140891585D01*
X141083039Y-140884585D01*
X141074638Y-140876541D01*
X141065653Y-140867772D01*
X141056404Y-140858595D01*
X141047208Y-140849329D01*
X141038383Y-140840291D01*
X141030248Y-140831800D01*
X141023120Y-140824175D01*
X141017317Y-140817732D01*
X141016998Y-140817367D01*
X140987513Y-140781888D01*
X140959997Y-140745313D01*
X140934471Y-140707691D01*
X140910957Y-140669071D01*
X140889477Y-140629500D01*
X140878336Y-140606291D01*
X141153681Y-140606291D01*
X141153929Y-140617110D01*
X141154619Y-140627788D01*
X141155722Y-140637570D01*
X141156862Y-140644141D01*
X141162081Y-140663908D01*
X141169153Y-140682399D01*
X141178146Y-140699737D01*
X141189126Y-140716041D01*
X141202163Y-140731434D01*
X141209544Y-140738895D01*
X141224731Y-140752017D01*
X141240987Y-140763165D01*
X141258375Y-140772370D01*
X141276960Y-140779664D01*
X141296806Y-140785079D01*
X141304957Y-140786699D01*
X141310860Y-140787424D01*
X141318476Y-140787865D01*
X141327259Y-140788035D01*
X141336664Y-140787949D01*
X141346147Y-140787619D01*
X141355162Y-140787059D01*
X141363165Y-140786284D01*
X141369610Y-140785307D01*
X141370816Y-140785054D01*
X141390382Y-140779541D01*
X141409020Y-140772030D01*
X141426590Y-140762626D01*
X141442953Y-140751435D01*
X141457970Y-140738565D01*
X141471502Y-140724120D01*
X141483411Y-140708208D01*
X141493229Y-140691568D01*
X141500724Y-140675091D01*
X141502300Y-140670507D01*
X141877116Y-140670507D01*
X141877149Y-140679110D01*
X141877270Y-140685907D01*
X141877513Y-140691366D01*
X141877910Y-140695959D01*
X141878495Y-140700153D01*
X141879302Y-140704419D01*
X141879632Y-140705967D01*
X141885061Y-140725813D01*
X141892441Y-140744651D01*
X141901676Y-140762360D01*
X141912672Y-140778817D01*
X141925335Y-140793903D01*
X141939569Y-140807494D01*
X141955279Y-140819470D01*
X141972373Y-140829708D01*
X141978351Y-140832710D01*
X141996710Y-140840311D01*
X142015659Y-140845866D01*
X142034939Y-140849328D01*
X142054291Y-140850650D01*
X142073412Y-140849791D01*
X142093814Y-140846616D01*
X142113183Y-140841418D01*
X142131557Y-140834184D01*
X142148977Y-140824899D01*
X142155331Y-140820846D01*
X142171944Y-140808441D01*
X142186774Y-140794627D01*
X142199794Y-140779443D01*
X142210976Y-140762928D01*
X142220295Y-140745122D01*
X142227723Y-140726064D01*
X142233022Y-140706756D01*
X142233880Y-140702612D01*
X142234520Y-140698659D01*
X142234974Y-140694456D01*
X142235273Y-140689562D01*
X142235446Y-140683535D01*
X142235524Y-140675934D01*
X142235539Y-140670507D01*
X142235518Y-140661796D01*
X142235420Y-140654923D01*
X142235214Y-140649449D01*
X142234871Y-140644934D01*
X142234359Y-140640941D01*
X142233651Y-140637031D01*
X142233076Y-140634351D01*
X142227449Y-140614109D01*
X142219913Y-140595063D01*
X142210507Y-140577273D01*
X142199273Y-140560797D01*
X142186251Y-140545694D01*
X142171481Y-140532025D01*
X142155004Y-140519846D01*
X142153955Y-140519160D01*
X142136789Y-140509326D01*
X142118834Y-140501543D01*
X142100275Y-140495809D01*
X142081299Y-140492125D01*
X142062090Y-140490489D01*
X142042833Y-140490899D01*
X142023715Y-140493356D01*
X142004920Y-140497858D01*
X141986634Y-140504404D01*
X141969041Y-140512994D01*
X141957375Y-140520131D01*
X141940915Y-140532435D01*
X141926156Y-140546234D01*
X141913148Y-140561451D01*
X141901942Y-140578015D01*
X141892587Y-140595849D01*
X141885135Y-140614879D01*
X141879635Y-140635032D01*
X141879632Y-140635047D01*
X141878743Y-140639444D01*
X141878086Y-140643610D01*
X141877629Y-140648015D01*
X141877337Y-140653127D01*
X141877179Y-140659417D01*
X141877120Y-140667355D01*
X141877116Y-140670507D01*
X141502300Y-140670507D01*
X141506821Y-140657353D01*
X141510087Y-140644714D01*
X141510994Y-140640420D01*
X141511667Y-140636468D01*
X141512139Y-140632402D01*
X141512442Y-140627764D01*
X141512611Y-140622100D01*
X141512676Y-140614953D01*
X141512676Y-140608461D01*
X141512627Y-140599752D01*
X141512497Y-140592859D01*
X141512252Y-140587322D01*
X141511860Y-140582683D01*
X141511288Y-140578480D01*
X141510503Y-140574255D01*
X141510108Y-140572385D01*
X141504702Y-140552536D01*
X141497357Y-140533874D01*
X141488046Y-140516347D01*
X141476738Y-140499900D01*
X141463405Y-140484482D01*
X141460450Y-140481474D01*
X141445089Y-140467653D01*
X141428840Y-140455929D01*
X141411705Y-140446302D01*
X141393685Y-140438773D01*
X141374782Y-140433343D01*
X141354997Y-140430011D01*
X141341299Y-140428956D01*
X141321190Y-140429197D01*
X141301634Y-140431570D01*
X141282754Y-140435973D01*
X141264671Y-140442301D01*
X141247506Y-140450452D01*
X141231382Y-140460323D01*
X141216420Y-140471811D01*
X141202742Y-140484811D01*
X141190469Y-140499222D01*
X141179724Y-140514940D01*
X141170627Y-140531862D01*
X141163300Y-140549884D01*
X141157866Y-140568903D01*
X141154633Y-140587259D01*
X141153906Y-140596089D01*
X141153681Y-140606291D01*
X140878336Y-140606291D01*
X140870050Y-140589028D01*
X140852699Y-140547704D01*
X140837444Y-140505575D01*
X140824307Y-140462691D01*
X140813309Y-140419101D01*
X140804472Y-140374852D01*
X140797816Y-140329994D01*
X140795537Y-140309618D01*
X140792830Y-140275370D01*
X140791430Y-140239942D01*
X140791339Y-140204015D01*
X140791970Y-140185475D01*
X141515053Y-140185475D01*
X141517087Y-140204673D01*
X141521207Y-140223615D01*
X141527416Y-140242134D01*
X141535715Y-140260065D01*
X141544388Y-140274681D01*
X141556510Y-140291061D01*
X141570193Y-140305823D01*
X141585313Y-140318883D01*
X141601752Y-140330161D01*
X141619389Y-140339575D01*
X141638102Y-140347043D01*
X141657772Y-140352482D01*
X141659585Y-140352869D01*
X141674845Y-140355187D01*
X141691319Y-140356103D01*
X141708414Y-140355601D01*
X141719923Y-140354463D01*
X141739015Y-140350923D01*
X141757270Y-140345365D01*
X141774589Y-140337925D01*
X141790873Y-140328737D01*
X141806023Y-140317938D01*
X141819940Y-140305664D01*
X141832524Y-140292050D01*
X141843677Y-140277232D01*
X141853298Y-140261345D01*
X141861290Y-140244526D01*
X141867552Y-140226910D01*
X141871986Y-140208633D01*
X141874492Y-140189830D01*
X141874972Y-140170638D01*
X141873326Y-140151191D01*
X141872464Y-140145680D01*
X141867985Y-140126230D01*
X141861470Y-140107624D01*
X141853040Y-140089993D01*
X141842817Y-140073468D01*
X141830923Y-140058182D01*
X141817477Y-140044264D01*
X141802603Y-140031847D01*
X141786422Y-140021063D01*
X141769054Y-140012041D01*
X141750622Y-140004914D01*
X141739276Y-140001646D01*
X141719999Y-139997904D01*
X141700445Y-139996282D01*
X141680862Y-139996748D01*
X141661495Y-139999267D01*
X141642590Y-140003806D01*
X141624394Y-140010331D01*
X141607153Y-140018807D01*
X141604946Y-140020080D01*
X141592103Y-140028511D01*
X141579380Y-140038538D01*
X141567299Y-140049677D01*
X141556383Y-140061444D01*
X141547153Y-140073355D01*
X141546572Y-140074200D01*
X141536123Y-140091450D01*
X141527750Y-140109440D01*
X141521455Y-140128003D01*
X141517239Y-140146974D01*
X141515105Y-140166187D01*
X141515053Y-140185475D01*
X140791970Y-140185475D01*
X140792556Y-140168272D01*
X140795082Y-140133395D01*
X140795541Y-140128604D01*
X140800398Y-140089231D01*
X140807194Y-140049333D01*
X140815823Y-140009389D01*
X140826184Y-139969881D01*
X140837859Y-139932221D01*
X140853221Y-139889899D01*
X140870603Y-139848575D01*
X140889947Y-139808309D01*
X140911196Y-139769163D01*
X140934292Y-139731199D01*
X140959179Y-139694479D01*
X140968003Y-139682741D01*
X141153979Y-139682741D01*
X141154121Y-139692880D01*
X141154611Y-139702298D01*
X141155453Y-139710420D01*
X141156201Y-139714776D01*
X141161336Y-139734659D01*
X141168035Y-139753002D01*
X141176410Y-139770019D01*
X141186571Y-139785922D01*
X141198629Y-139800925D01*
X141204117Y-139806834D01*
X141219043Y-139820677D01*
X141235235Y-139832645D01*
X141252592Y-139842685D01*
X141271014Y-139850741D01*
X141290398Y-139856762D01*
X141302620Y-139859405D01*
X141311332Y-139860567D01*
X141321528Y-139861238D01*
X141332579Y-139861431D01*
X141343854Y-139861160D01*
X141354724Y-139860440D01*
X141364561Y-139859284D01*
X141372126Y-139857856D01*
X141390659Y-139852626D01*
X141407551Y-139846109D01*
X141423159Y-139838104D01*
X141437843Y-139828413D01*
X141451960Y-139816836D01*
X141460433Y-139808776D01*
X141472123Y-139796176D01*
X141877116Y-139796176D01*
X141877149Y-139804779D01*
X141877270Y-139811576D01*
X141877513Y-139817035D01*
X141877910Y-139821628D01*
X141878495Y-139825822D01*
X141879302Y-139830088D01*
X141879632Y-139831636D01*
X141885069Y-139851516D01*
X141892456Y-139870375D01*
X141901700Y-139888094D01*
X141912709Y-139904557D01*
X141925392Y-139919643D01*
X141939656Y-139933236D01*
X141955410Y-139945218D01*
X141972562Y-139955469D01*
X141978351Y-139958375D01*
X141997162Y-139966198D01*
X142016350Y-139971818D01*
X142035809Y-139975217D01*
X142055433Y-139976376D01*
X142073412Y-139975460D01*
X142093771Y-139972304D01*
X142113071Y-139967149D01*
X142131400Y-139959967D01*
X142148843Y-139950726D01*
X142153955Y-139947523D01*
X142170471Y-139935469D01*
X142185323Y-139921883D01*
X142198457Y-139906845D01*
X142209818Y-139890434D01*
X142219352Y-139872731D01*
X142227004Y-139853814D01*
X142232719Y-139833762D01*
X142233022Y-139832425D01*
X142233880Y-139828281D01*
X142234520Y-139824328D01*
X142234974Y-139820125D01*
X142235273Y-139815231D01*
X142235446Y-139809204D01*
X142235524Y-139801603D01*
X142235539Y-139796176D01*
X142235518Y-139787465D01*
X142235420Y-139780592D01*
X142235214Y-139775118D01*
X142234871Y-139770603D01*
X142234359Y-139766610D01*
X142233651Y-139762700D01*
X142233076Y-139760020D01*
X142227454Y-139739792D01*
X142219925Y-139720759D01*
X142210531Y-139702984D01*
X142199312Y-139686525D01*
X142186311Y-139671445D01*
X142171568Y-139657803D01*
X142155167Y-139645686D01*
X142137909Y-139635644D01*
X142119893Y-139627673D01*
X142101296Y-139621771D01*
X142082292Y-139617939D01*
X142063057Y-139616176D01*
X142043769Y-139616481D01*
X142024601Y-139618854D01*
X142005731Y-139623295D01*
X141987333Y-139629803D01*
X141969584Y-139638377D01*
X141956648Y-139646268D01*
X141940395Y-139658492D01*
X141925782Y-139672264D01*
X141912875Y-139687489D01*
X141901736Y-139704072D01*
X141892429Y-139721918D01*
X141885017Y-139740934D01*
X141879632Y-139760715D01*
X141878743Y-139765113D01*
X141878086Y-139769279D01*
X141877629Y-139773683D01*
X141877337Y-139778796D01*
X141877179Y-139785086D01*
X141877120Y-139793024D01*
X141877116Y-139796176D01*
X141472123Y-139796176D01*
X141472532Y-139795735D01*
X141482685Y-139782637D01*
X141491185Y-139769014D01*
X141498325Y-139754398D01*
X141504265Y-139738725D01*
X141509523Y-139719465D01*
X141512584Y-139699882D01*
X141513468Y-139680160D01*
X141512197Y-139660487D01*
X141508793Y-139641048D01*
X141503276Y-139622029D01*
X141495667Y-139603616D01*
X141486939Y-139587536D01*
X141478678Y-139575435D01*
X141468772Y-139563322D01*
X141457771Y-139551796D01*
X141446225Y-139541455D01*
X141440433Y-139536925D01*
X141423922Y-139526057D01*
X141406442Y-139517171D01*
X141388180Y-139510288D01*
X141369325Y-139505432D01*
X141350067Y-139502624D01*
X141330595Y-139501886D01*
X141311097Y-139503241D01*
X141291762Y-139506710D01*
X141272779Y-139512315D01*
X141262932Y-139516157D01*
X141249032Y-139522713D01*
X141236299Y-139530167D01*
X141224209Y-139538883D01*
X141212235Y-139549221D01*
X141205865Y-139555372D01*
X141192498Y-139570166D01*
X141181122Y-139585918D01*
X141171665Y-139602764D01*
X141164056Y-139620837D01*
X141158221Y-139640272D01*
X141156788Y-139646469D01*
X141155589Y-139653745D01*
X141154718Y-139662599D01*
X141154180Y-139672456D01*
X141153979Y-139682741D01*
X140968003Y-139682741D01*
X140985800Y-139659065D01*
X141014097Y-139625018D01*
X141044013Y-139592401D01*
X141075492Y-139561275D01*
X141108476Y-139531702D01*
X141142907Y-139503743D01*
X141178730Y-139477461D01*
X141215887Y-139452918D01*
X141254320Y-139430175D01*
X141293973Y-139409294D01*
X141334789Y-139390336D01*
X141340818Y-139387743D01*
X141382745Y-139371121D01*
X141425362Y-139356645D01*
X141468577Y-139344326D01*
X141512297Y-139334176D01*
X141556431Y-139326206D01*
X141600887Y-139320428D01*
X141645572Y-139316853D01*
X141690393Y-139315494D01*
X141735260Y-139316361D01*
G37*
D12*
%TO.C,C1*%
X133477836Y-132510000D02*
X133262164Y-132510000D01*
X133477836Y-133230000D02*
X133262164Y-133230000D01*
%TO.C,C6*%
X133562164Y-135690000D02*
X133777836Y-135690000D01*
X133562164Y-136410000D02*
X133777836Y-136410000D01*
D13*
%TO.C,L1*%
X124540000Y-146840000D02*
X124540000Y-147940000D01*
X126640000Y-146840000D02*
X126640000Y-147940000D01*
%TO.C,Y1*%
X143110000Y-129500000D02*
X139110000Y-129500000D01*
X139110000Y-126000000D01*
X143110000Y-126000000D01*
X143110000Y-129500000D01*
D17*
X143507175Y-125695000D02*
G75*
G02*
X143322825Y-125695000I-92175J0D01*
G01*
X143322825Y-125695000D02*
G75*
G02*
X143507175Y-125695000I92175J0D01*
G01*
%TD*%
M02*
