%TF.GenerationSoftware,KiCad,Pcbnew,9.0.3*%
%TF.CreationDate,2026-06-16T12:23:42-04:00*%
%TF.ProjectId,M.2 to USB,4d2e3220-746f-4205-9553-422e6b696361,rev?*%
%TF.SameCoordinates,Original*%
%TF.FileFunction,Copper,L3,Inr*%
%TF.FilePolarity,Positive*%
%FSLAX46Y46*%
G04 Gerber Fmt 4.6, Leading zero omitted, Abs format (unit mm)*
G04 Created by KiCad (PCBNEW 9.0.3) date 2026-06-16 12:23:42*
%MOMM*%
%LPD*%
G01*
G04 APERTURE LIST*
%TA.AperFunction,HeatsinkPad*%
%ADD10R,0.700000X1.300000*%
%TD*%
%TA.AperFunction,ComponentPad*%
%ADD11R,1.700000X1.700000*%
%TD*%
%TA.AperFunction,ComponentPad*%
%ADD12C,1.700000*%
%TD*%
%TA.AperFunction,HeatsinkPad*%
%ADD13C,0.400000*%
%TD*%
%TA.AperFunction,CastellatedPad*%
%ADD14C,5.500000*%
%TD*%
%TA.AperFunction,ViaPad*%
%ADD15C,0.450000*%
%TD*%
G04 APERTURE END LIST*
D10*
%TO.N,GND*%
%TO.C,U3*%
X128700000Y-149390000D03*
%TD*%
D11*
%TO.N,VBUS2*%
%TO.C,J2*%
X125430000Y-130350000D03*
D12*
%TO.N,VBUS1*%
X127970000Y-130350000D03*
%TO.N,USBDN_D2-*%
X125430000Y-132890000D03*
%TO.N,USBDN_D1-*%
X127970000Y-132890000D03*
%TO.N,USBDN_D2+*%
X125430000Y-135430000D03*
%TO.N,USBDN_D1+*%
X127970000Y-135430000D03*
%TO.N,GND*%
X125430000Y-137970000D03*
X127970000Y-137970000D03*
%TO.N,unconnected-(J2-Pin_10-Pad10)*%
X127970000Y-140510000D03*
%TD*%
D13*
%TO.N,GND*%
%TO.C,U1*%
X136630000Y-133580000D03*
X136630000Y-135080000D03*
X137380000Y-134330000D03*
X138130000Y-133580000D03*
X138130000Y-135080000D03*
%TD*%
D14*
%TO.N,GND*%
%TO.C,H1*%
X134000000Y-125130000D03*
%TD*%
D15*
%TO.N,+3.3V*%
X138750000Y-149900000D03*
X139420000Y-149150000D03*
X124810000Y-145490000D03*
X126560000Y-144680000D03*
X127300000Y-144680000D03*
X141460000Y-149900000D03*
X138060000Y-149900000D03*
X140110000Y-149900000D03*
X141460000Y-149150000D03*
X138750000Y-149150000D03*
X140902151Y-134040930D03*
X125430000Y-149640000D03*
X136140000Y-138980000D03*
X139420000Y-149900000D03*
X140770000Y-149150000D03*
X127300000Y-145510000D03*
X124810000Y-144660000D03*
X126560000Y-145510000D03*
X127300000Y-146400000D03*
X140770000Y-149900000D03*
X138060000Y-149150000D03*
X140110000Y-149150000D03*
X143350000Y-126950000D03*
X134520000Y-133080000D03*
X131920000Y-150130000D03*
X140680000Y-132445000D03*
X126950000Y-149640000D03*
X139670000Y-145320000D03*
%TO.N,GND*%
X125700000Y-143150000D03*
X132250000Y-152200000D03*
X143350000Y-137160000D03*
X126560000Y-143980000D03*
X143330000Y-132640000D03*
X140000000Y-131380000D03*
X136350000Y-129100000D03*
X143330000Y-131510000D03*
X133750000Y-152200000D03*
X127750000Y-152200000D03*
X127280000Y-127680000D03*
X124810000Y-143960000D03*
X139000000Y-152200000D03*
X144050000Y-128670000D03*
X129670000Y-126820000D03*
X124810000Y-143130000D03*
X127280000Y-126820000D03*
X127300000Y-143980000D03*
X129250000Y-152200000D03*
X142590000Y-130680000D03*
X142620000Y-137930000D03*
X136810000Y-140240000D03*
X135140000Y-136500000D03*
X127300000Y-143150000D03*
X135250000Y-152200000D03*
X126250000Y-152200000D03*
X143340000Y-136030000D03*
X138570000Y-126970000D03*
X130750000Y-152200000D03*
X140710000Y-130680000D03*
X137950000Y-140240000D03*
X143340000Y-134900000D03*
X129670000Y-127690000D03*
X142310000Y-148120000D03*
X139490000Y-132260000D03*
X126560000Y-143150000D03*
X141600000Y-130680000D03*
%TO.N,VBUS2*%
X133770000Y-136830000D03*
X133170000Y-136830000D03*
X133730000Y-139930000D03*
X133170000Y-137360000D03*
X133770000Y-137360000D03*
X133200000Y-139930000D03*
%TO.N,VBUS1*%
X131780000Y-137360000D03*
X132380000Y-137360000D03*
X132340000Y-139930000D03*
X131810000Y-139930000D03*
X131780000Y-136830000D03*
X132380000Y-136830000D03*
%TO.N,USBDN_D2-*%
X128512500Y-143575000D03*
%TO.N,USBDN_D2+*%
X129162500Y-143575000D03*
%TO.N,~{PG}*%
X140980000Y-148060000D03*
X130610000Y-149210000D03*
%TO.N,~{FLT1}*%
X130855000Y-140802500D03*
X136500000Y-137510000D03*
%TO.N,~{FLT2}*%
X134910000Y-137150000D03*
X139200000Y-137500000D03*
%TO.N,Net-(R5-Pad1)*%
X142290000Y-143290000D03*
X143300000Y-133765000D03*
%TD*%
%TA.AperFunction,Conductor*%
%TO.N,GND*%
G36*
X144785148Y-125344852D02*
G01*
X144799500Y-125379500D01*
X144799500Y-126425086D01*
X144785148Y-126459734D01*
X144750500Y-126474086D01*
X144715852Y-126459734D01*
X144702442Y-126434646D01*
X144699859Y-126421663D01*
X144699858Y-126421662D01*
X144699857Y-126421653D01*
X144685505Y-126387005D01*
X144640958Y-126320338D01*
X144169662Y-125849042D01*
X144102995Y-125804495D01*
X144102991Y-125804493D01*
X144102989Y-125804492D01*
X144068354Y-125790145D01*
X144068344Y-125790142D01*
X144036630Y-125783834D01*
X143989704Y-125774500D01*
X137570296Y-125774500D01*
X137531155Y-125782285D01*
X137491655Y-125790142D01*
X137491645Y-125790145D01*
X137457010Y-125804492D01*
X137457006Y-125804494D01*
X137457005Y-125804495D01*
X137391223Y-125848450D01*
X137390335Y-125849044D01*
X136869044Y-126370335D01*
X136869042Y-126370338D01*
X136826072Y-126434646D01*
X136824492Y-126437010D01*
X136810145Y-126471645D01*
X136810142Y-126471655D01*
X136802285Y-126511155D01*
X136794500Y-126550296D01*
X136794500Y-126550299D01*
X136794500Y-128684582D01*
X136780148Y-128719230D01*
X136643848Y-128855529D01*
X136634610Y-128865393D01*
X136630321Y-128870286D01*
X136629145Y-128871640D01*
X136629134Y-128871656D01*
X136586420Y-128952505D01*
X136586417Y-128952514D01*
X136582238Y-128968120D01*
X136580561Y-128974382D01*
X136578938Y-128980443D01*
X136578938Y-128980445D01*
X136574583Y-128996706D01*
X136575840Y-129002092D01*
X136574893Y-129016550D01*
X136573770Y-129024249D01*
X136572191Y-129031168D01*
X136570000Y-129035132D01*
X136570000Y-129122511D01*
X136568330Y-129135194D01*
X136556675Y-129178687D01*
X136551781Y-129190503D01*
X136529269Y-129229496D01*
X136521481Y-129239645D01*
X136489645Y-129271481D01*
X136479496Y-129279269D01*
X136440503Y-129301781D01*
X136428687Y-129306675D01*
X136385194Y-129318330D01*
X136372511Y-129320000D01*
X136302827Y-129320000D01*
X136298939Y-129319745D01*
X136297015Y-129319627D01*
X136294820Y-129320000D01*
X136283808Y-129320000D01*
X136278415Y-129322786D01*
X136206852Y-129334945D01*
X136206848Y-129334946D01*
X136172205Y-129349296D01*
X136105534Y-129393843D01*
X135020711Y-130478668D01*
X134848346Y-130651033D01*
X134320712Y-131178668D01*
X134119232Y-131380148D01*
X134084584Y-131394500D01*
X133700296Y-131394500D01*
X133661155Y-131402285D01*
X133621655Y-131410142D01*
X133621645Y-131410145D01*
X133587010Y-131424492D01*
X133587006Y-131424494D01*
X133587005Y-131424495D01*
X133576803Y-131431312D01*
X133520335Y-131469044D01*
X130979044Y-134010335D01*
X130934492Y-134077010D01*
X130920145Y-134111645D01*
X130920142Y-134111655D01*
X130915499Y-134135000D01*
X130904500Y-134190296D01*
X130904500Y-134190299D01*
X130904500Y-140328000D01*
X130890148Y-140362648D01*
X130855500Y-140377000D01*
X130798979Y-140377000D01*
X130690764Y-140405996D01*
X130690760Y-140405997D01*
X130593736Y-140462015D01*
X130593736Y-140462016D01*
X130514516Y-140541236D01*
X130514515Y-140541236D01*
X130458497Y-140638260D01*
X130458496Y-140638264D01*
X130429500Y-140746478D01*
X130429500Y-140858521D01*
X130458496Y-140966735D01*
X130458497Y-140966739D01*
X130514515Y-141063763D01*
X130593737Y-141142985D01*
X130629249Y-141163488D01*
X130690760Y-141199002D01*
X130690762Y-141199002D01*
X130690763Y-141199003D01*
X130776111Y-141221871D01*
X130798978Y-141227999D01*
X130798979Y-141228000D01*
X130798982Y-141228000D01*
X130855500Y-141228000D01*
X130890148Y-141242352D01*
X130904500Y-141277000D01*
X130904500Y-143024584D01*
X130890148Y-143059232D01*
X129739232Y-144210148D01*
X129704584Y-144224500D01*
X124299000Y-144224500D01*
X124259859Y-144232285D01*
X124220359Y-144240142D01*
X124220349Y-144240145D01*
X124185716Y-144254491D01*
X124185710Y-144254494D01*
X124185709Y-144254495D01*
X124167618Y-144265861D01*
X124127416Y-144291122D01*
X124074496Y-144365706D01*
X124060144Y-144400353D01*
X124060142Y-144400359D01*
X124052285Y-144439859D01*
X124044500Y-144479000D01*
X124044500Y-148031033D01*
X124044500Y-150035000D01*
X124044500Y-150421000D01*
X124054880Y-150473187D01*
X124060142Y-150499640D01*
X124060145Y-150499650D01*
X124074491Y-150534283D01*
X124074490Y-150534283D01*
X124111122Y-150592583D01*
X124185706Y-150645503D01*
X124185709Y-150645505D01*
X124220357Y-150659857D01*
X124299000Y-150675500D01*
X124299003Y-150675500D01*
X141749701Y-150675500D01*
X141749704Y-150675500D01*
X141828347Y-150659857D01*
X141862995Y-150645505D01*
X141929662Y-150600958D01*
X144640958Y-147889662D01*
X144685505Y-147822995D01*
X144699857Y-147788347D01*
X144702441Y-147775353D01*
X144723277Y-147744171D01*
X144760059Y-147736854D01*
X144791242Y-147757690D01*
X144799500Y-147784913D01*
X144799500Y-150880500D01*
X144785148Y-150915148D01*
X144750500Y-150929500D01*
X144356001Y-150929500D01*
X144220681Y-150956417D01*
X144220670Y-150956420D01*
X144093192Y-151009223D01*
X143978460Y-151085883D01*
X143880883Y-151183460D01*
X143804223Y-151298192D01*
X143751420Y-151425670D01*
X143751417Y-151425681D01*
X143724500Y-151561001D01*
X143724500Y-153571000D01*
X143710148Y-153605648D01*
X143675500Y-153620000D01*
X141474500Y-153620000D01*
X141439852Y-153605648D01*
X141425500Y-153571000D01*
X141425500Y-152145863D01*
X141390515Y-151981275D01*
X141390514Y-151981269D01*
X141322072Y-151827546D01*
X141223164Y-151691411D01*
X141223162Y-151691409D01*
X141223159Y-151691405D01*
X141098117Y-151578818D01*
X141098114Y-151578815D01*
X140952386Y-151494679D01*
X140792350Y-151442680D01*
X140625000Y-151425091D01*
X140457649Y-151442680D01*
X140297613Y-151494679D01*
X140297610Y-151494681D01*
X140151890Y-151578812D01*
X140151882Y-151578818D01*
X140026840Y-151691405D01*
X139927928Y-151827546D01*
X139859487Y-151981266D01*
X139859484Y-151981275D01*
X139824500Y-152145863D01*
X139824500Y-153571000D01*
X139810148Y-153605648D01*
X139775500Y-153620000D01*
X137474500Y-153620000D01*
X137439852Y-153605648D01*
X137425500Y-153571000D01*
X137425500Y-152145863D01*
X137390515Y-151981275D01*
X137390514Y-151981269D01*
X137322072Y-151827546D01*
X137223164Y-151691411D01*
X137223162Y-151691409D01*
X137223159Y-151691405D01*
X137098117Y-151578818D01*
X137098114Y-151578815D01*
X136952386Y-151494679D01*
X136792350Y-151442680D01*
X136625000Y-151425091D01*
X136457649Y-151442680D01*
X136297613Y-151494679D01*
X136297610Y-151494681D01*
X136151890Y-151578812D01*
X136151882Y-151578818D01*
X136026840Y-151691405D01*
X135927928Y-151827546D01*
X135859487Y-151981266D01*
X135859484Y-151981275D01*
X135824500Y-152145863D01*
X135824500Y-153571000D01*
X135810148Y-153605648D01*
X135775500Y-153620000D01*
X124324500Y-153620000D01*
X124289852Y-153605648D01*
X124275500Y-153571000D01*
X124275500Y-151561007D01*
X124275499Y-151561001D01*
X124248582Y-151425681D01*
X124248579Y-151425670D01*
X124232851Y-151387699D01*
X124195775Y-151298189D01*
X124149613Y-151229102D01*
X124119116Y-151183460D01*
X124021539Y-151085883D01*
X123953074Y-151040137D01*
X123906811Y-151009225D01*
X123906808Y-151009223D01*
X123906807Y-151009223D01*
X123779329Y-150956420D01*
X123779318Y-150956417D01*
X123643998Y-150929500D01*
X123643993Y-150929500D01*
X123614882Y-150929500D01*
X123249500Y-150929500D01*
X123214852Y-150915148D01*
X123200500Y-150880500D01*
X123200500Y-143518978D01*
X128087000Y-143518978D01*
X128087000Y-143631021D01*
X128115996Y-143739235D01*
X128115997Y-143739239D01*
X128172015Y-143836263D01*
X128251237Y-143915485D01*
X128286749Y-143935988D01*
X128348260Y-143971502D01*
X128348262Y-143971502D01*
X128348263Y-143971503D01*
X128433611Y-143994371D01*
X128456478Y-144000499D01*
X128456479Y-144000500D01*
X128456482Y-144000500D01*
X128568521Y-144000500D01*
X128568521Y-144000499D01*
X128676737Y-143971503D01*
X128773763Y-143915485D01*
X128802852Y-143886396D01*
X128837500Y-143872044D01*
X128872148Y-143886396D01*
X128901237Y-143915485D01*
X128936749Y-143935988D01*
X128998260Y-143971502D01*
X128998262Y-143971502D01*
X128998263Y-143971503D01*
X129083611Y-143994371D01*
X129106478Y-144000499D01*
X129106479Y-144000500D01*
X129106482Y-144000500D01*
X129218521Y-144000500D01*
X129218521Y-144000499D01*
X129326737Y-143971503D01*
X129423763Y-143915485D01*
X129502985Y-143836263D01*
X129559003Y-143739237D01*
X129587999Y-143631021D01*
X129588000Y-143631021D01*
X129588000Y-143518979D01*
X129587999Y-143518978D01*
X129559003Y-143410764D01*
X129559002Y-143410760D01*
X129502984Y-143313736D01*
X129423763Y-143234515D01*
X129326739Y-143178497D01*
X129326735Y-143178496D01*
X129218521Y-143149500D01*
X129218518Y-143149500D01*
X129106482Y-143149500D01*
X129106479Y-143149500D01*
X128998264Y-143178496D01*
X128998260Y-143178497D01*
X128901236Y-143234515D01*
X128901236Y-143234516D01*
X128872148Y-143263604D01*
X128837500Y-143277956D01*
X128802852Y-143263604D01*
X128773763Y-143234515D01*
X128676739Y-143178497D01*
X128676735Y-143178496D01*
X128568521Y-143149500D01*
X128568518Y-143149500D01*
X128456482Y-143149500D01*
X128456479Y-143149500D01*
X128348264Y-143178496D01*
X128348260Y-143178497D01*
X128251236Y-143234515D01*
X128251236Y-143234516D01*
X128172016Y-143313736D01*
X128172015Y-143313736D01*
X128115997Y-143410760D01*
X128115996Y-143410764D01*
X128087000Y-143518978D01*
X123200500Y-143518978D01*
X123200500Y-140406535D01*
X126919500Y-140406535D01*
X126919500Y-140613465D01*
X126924433Y-140638263D01*
X126959869Y-140816417D01*
X126959871Y-140816423D01*
X127039058Y-141007596D01*
X127039059Y-141007598D01*
X127154023Y-141179655D01*
X127300345Y-141325977D01*
X127472402Y-141440941D01*
X127663580Y-141520130D01*
X127866535Y-141560500D01*
X127866538Y-141560500D01*
X128073462Y-141560500D01*
X128073465Y-141560500D01*
X128276420Y-141520130D01*
X128467598Y-141440941D01*
X128639655Y-141325977D01*
X128785977Y-141179655D01*
X128900941Y-141007598D01*
X128980130Y-140816420D01*
X129020500Y-140613465D01*
X129020500Y-140406535D01*
X128980130Y-140203580D01*
X128900941Y-140012402D01*
X128785977Y-139840345D01*
X128639655Y-139694023D01*
X128467598Y-139579059D01*
X128467596Y-139579058D01*
X128276423Y-139499871D01*
X128276417Y-139499869D01*
X128194572Y-139483589D01*
X128073465Y-139459500D01*
X127866535Y-139459500D01*
X127765520Y-139479592D01*
X127663582Y-139499869D01*
X127663576Y-139499871D01*
X127472403Y-139579058D01*
X127300345Y-139694022D01*
X127154022Y-139840345D01*
X127039058Y-140012403D01*
X126959871Y-140203576D01*
X126959869Y-140203582D01*
X126948148Y-140262511D01*
X126919500Y-140406535D01*
X123200500Y-140406535D01*
X123200500Y-137866587D01*
X124380000Y-137866587D01*
X124380000Y-138073412D01*
X124420349Y-138276271D01*
X124420351Y-138276277D01*
X124499500Y-138467358D01*
X124614410Y-138639335D01*
X124616826Y-138641751D01*
X125012210Y-138246366D01*
X125029901Y-138277007D01*
X125122993Y-138370099D01*
X125153632Y-138387788D01*
X124758248Y-138783173D01*
X124760664Y-138785589D01*
X124932641Y-138900499D01*
X125123722Y-138979648D01*
X125123728Y-138979650D01*
X125326587Y-139020000D01*
X125533413Y-139020000D01*
X125736271Y-138979650D01*
X125736277Y-138979648D01*
X125927358Y-138900499D01*
X126099333Y-138785590D01*
X126101750Y-138783172D01*
X125706367Y-138387789D01*
X125737007Y-138370099D01*
X125830099Y-138277007D01*
X125847789Y-138246367D01*
X126243172Y-138641750D01*
X126245590Y-138639333D01*
X126360499Y-138467358D01*
X126439648Y-138276277D01*
X126439650Y-138276271D01*
X126480000Y-138073412D01*
X126480000Y-137866587D01*
X126920000Y-137866587D01*
X126920000Y-138073412D01*
X126960349Y-138276271D01*
X126960351Y-138276277D01*
X127039500Y-138467358D01*
X127154410Y-138639335D01*
X127156826Y-138641751D01*
X127552210Y-138246366D01*
X127569901Y-138277007D01*
X127662993Y-138370099D01*
X127693632Y-138387788D01*
X127298248Y-138783173D01*
X127300664Y-138785589D01*
X127472641Y-138900499D01*
X127663722Y-138979648D01*
X127663728Y-138979650D01*
X127866587Y-139020000D01*
X128073413Y-139020000D01*
X128276271Y-138979650D01*
X128276277Y-138979648D01*
X128467358Y-138900499D01*
X128639333Y-138785590D01*
X128641750Y-138783172D01*
X128246367Y-138387789D01*
X128277007Y-138370099D01*
X128370099Y-138277007D01*
X128387789Y-138246367D01*
X128783172Y-138641750D01*
X128785590Y-138639333D01*
X128900499Y-138467358D01*
X128979648Y-138276277D01*
X128979650Y-138276271D01*
X129020000Y-138073412D01*
X129020000Y-137866587D01*
X128979650Y-137663728D01*
X128979648Y-137663722D01*
X128900499Y-137472641D01*
X128785589Y-137300664D01*
X128783173Y-137298248D01*
X128387788Y-137693632D01*
X128370099Y-137662993D01*
X128277007Y-137569901D01*
X128246365Y-137552210D01*
X128641751Y-137156826D01*
X128639335Y-137154410D01*
X128467358Y-137039500D01*
X128276277Y-136960351D01*
X128276271Y-136960349D01*
X128073413Y-136920000D01*
X127866587Y-136920000D01*
X127663728Y-136960349D01*
X127663722Y-136960351D01*
X127472641Y-137039500D01*
X127300668Y-137154408D01*
X127300665Y-137154410D01*
X127298248Y-137156826D01*
X127693632Y-137552210D01*
X127662993Y-137569901D01*
X127569901Y-137662993D01*
X127552210Y-137693632D01*
X127156826Y-137298248D01*
X127154410Y-137300665D01*
X127154408Y-137300668D01*
X127039500Y-137472641D01*
X126960351Y-137663722D01*
X126960349Y-137663728D01*
X126920000Y-137866587D01*
X126480000Y-137866587D01*
X126439650Y-137663728D01*
X126439648Y-137663722D01*
X126360499Y-137472641D01*
X126245589Y-137300664D01*
X126243173Y-137298248D01*
X125847788Y-137693632D01*
X125830099Y-137662993D01*
X125737007Y-137569901D01*
X125706365Y-137552210D01*
X126101751Y-137156826D01*
X126099335Y-137154410D01*
X125927358Y-137039500D01*
X125736277Y-136960351D01*
X125736271Y-136960349D01*
X125533413Y-136920000D01*
X125326587Y-136920000D01*
X125123728Y-136960349D01*
X125123722Y-136960351D01*
X124932641Y-137039500D01*
X124760668Y-137154408D01*
X124760665Y-137154410D01*
X124758248Y-137156826D01*
X125153632Y-137552210D01*
X125122993Y-137569901D01*
X125029901Y-137662993D01*
X125012210Y-137693632D01*
X124616826Y-137298248D01*
X124614410Y-137300665D01*
X124614408Y-137300668D01*
X124499500Y-137472641D01*
X124420351Y-137663722D01*
X124420349Y-137663728D01*
X124380000Y-137866587D01*
X123200500Y-137866587D01*
X123200500Y-135326535D01*
X124379500Y-135326535D01*
X124379500Y-135533465D01*
X124406290Y-135668150D01*
X124419869Y-135736417D01*
X124419871Y-135736423D01*
X124499058Y-135927596D01*
X124582522Y-136052511D01*
X124614023Y-136099655D01*
X124760345Y-136245977D01*
X124932402Y-136360941D01*
X125123580Y-136440130D01*
X125326535Y-136480500D01*
X125326538Y-136480500D01*
X125533462Y-136480500D01*
X125533465Y-136480500D01*
X125736420Y-136440130D01*
X125927598Y-136360941D01*
X126099655Y-136245977D01*
X126245977Y-136099655D01*
X126360941Y-135927598D01*
X126440130Y-135736420D01*
X126480500Y-135533465D01*
X126480500Y-135326535D01*
X126919500Y-135326535D01*
X126919500Y-135533465D01*
X126946290Y-135668150D01*
X126959869Y-135736417D01*
X126959871Y-135736423D01*
X127039058Y-135927596D01*
X127122522Y-136052511D01*
X127154023Y-136099655D01*
X127300345Y-136245977D01*
X127472402Y-136360941D01*
X127663580Y-136440130D01*
X127866535Y-136480500D01*
X127866538Y-136480500D01*
X128073462Y-136480500D01*
X128073465Y-136480500D01*
X128276420Y-136440130D01*
X128467598Y-136360941D01*
X128639655Y-136245977D01*
X128785977Y-136099655D01*
X128900941Y-135927598D01*
X128980130Y-135736420D01*
X129020500Y-135533465D01*
X129020500Y-135326535D01*
X128980130Y-135123580D01*
X128900941Y-134932402D01*
X128785977Y-134760345D01*
X128639655Y-134614023D01*
X128467598Y-134499059D01*
X128443949Y-134489263D01*
X128276423Y-134419871D01*
X128276417Y-134419869D01*
X128194572Y-134403589D01*
X128073465Y-134379500D01*
X127866535Y-134379500D01*
X127768320Y-134399036D01*
X127663582Y-134419869D01*
X127663576Y-134419871D01*
X127472403Y-134499058D01*
X127300345Y-134614022D01*
X127154022Y-134760345D01*
X127039058Y-134932403D01*
X126959871Y-135123576D01*
X126959869Y-135123582D01*
X126952456Y-135160853D01*
X126919500Y-135326535D01*
X126480500Y-135326535D01*
X126440130Y-135123580D01*
X126360941Y-134932402D01*
X126245977Y-134760345D01*
X126099655Y-134614023D01*
X125927598Y-134499059D01*
X125903949Y-134489263D01*
X125736423Y-134419871D01*
X125736417Y-134419869D01*
X125654572Y-134403589D01*
X125533465Y-134379500D01*
X125326535Y-134379500D01*
X125228320Y-134399036D01*
X125123582Y-134419869D01*
X125123576Y-134419871D01*
X124932403Y-134499058D01*
X124760345Y-134614022D01*
X124614022Y-134760345D01*
X124499058Y-134932403D01*
X124419871Y-135123576D01*
X124419869Y-135123582D01*
X124412456Y-135160853D01*
X124379500Y-135326535D01*
X123200500Y-135326535D01*
X123200500Y-132786535D01*
X124379500Y-132786535D01*
X124379500Y-132993465D01*
X124406290Y-133128150D01*
X124419869Y-133196417D01*
X124419871Y-133196423D01*
X124499058Y-133387596D01*
X124499059Y-133387598D01*
X124544564Y-133455702D01*
X124606295Y-133548090D01*
X124614023Y-133559655D01*
X124760345Y-133705977D01*
X124932402Y-133820941D01*
X125123580Y-133900130D01*
X125326535Y-133940500D01*
X125326538Y-133940500D01*
X125533462Y-133940500D01*
X125533465Y-133940500D01*
X125736420Y-133900130D01*
X125927598Y-133820941D01*
X126099655Y-133705977D01*
X126245977Y-133559655D01*
X126360941Y-133387598D01*
X126440130Y-133196420D01*
X126480500Y-132993465D01*
X126480500Y-132786535D01*
X126919500Y-132786535D01*
X126919500Y-132993465D01*
X126946290Y-133128150D01*
X126959869Y-133196417D01*
X126959871Y-133196423D01*
X127039058Y-133387596D01*
X127039059Y-133387598D01*
X127084564Y-133455702D01*
X127146295Y-133548090D01*
X127154023Y-133559655D01*
X127300345Y-133705977D01*
X127472402Y-133820941D01*
X127663580Y-133900130D01*
X127866535Y-133940500D01*
X127866538Y-133940500D01*
X128073462Y-133940500D01*
X128073465Y-133940500D01*
X128276420Y-133900130D01*
X128467598Y-133820941D01*
X128639655Y-133705977D01*
X128785977Y-133559655D01*
X128900941Y-133387598D01*
X128980130Y-133196420D01*
X129020500Y-132993465D01*
X129020500Y-132786535D01*
X128980130Y-132583580D01*
X128900941Y-132392402D01*
X128785977Y-132220345D01*
X128639655Y-132074023D01*
X128615999Y-132058217D01*
X128554207Y-132016929D01*
X128467598Y-131959059D01*
X128467596Y-131959058D01*
X128276423Y-131879871D01*
X128276417Y-131879869D01*
X128194572Y-131863589D01*
X128073465Y-131839500D01*
X127866535Y-131839500D01*
X127765520Y-131859592D01*
X127663582Y-131879869D01*
X127663576Y-131879871D01*
X127472403Y-131959058D01*
X127300345Y-132074022D01*
X127154022Y-132220345D01*
X127039058Y-132392403D01*
X126959871Y-132583576D01*
X126959869Y-132583582D01*
X126942886Y-132668965D01*
X126919500Y-132786535D01*
X126480500Y-132786535D01*
X126440130Y-132583580D01*
X126360941Y-132392402D01*
X126245977Y-132220345D01*
X126099655Y-132074023D01*
X126075999Y-132058217D01*
X126014207Y-132016929D01*
X125927598Y-131959059D01*
X125927596Y-131959058D01*
X125736423Y-131879871D01*
X125736417Y-131879869D01*
X125654572Y-131863589D01*
X125533465Y-131839500D01*
X125326535Y-131839500D01*
X125225520Y-131859592D01*
X125123582Y-131879869D01*
X125123576Y-131879871D01*
X124932403Y-131959058D01*
X124760345Y-132074022D01*
X124614022Y-132220345D01*
X124499058Y-132392403D01*
X124419871Y-132583576D01*
X124419869Y-132583582D01*
X124402886Y-132668965D01*
X124379500Y-132786535D01*
X123200500Y-132786535D01*
X123200500Y-129480252D01*
X124379500Y-129480252D01*
X124379500Y-131219748D01*
X124391133Y-131278231D01*
X124407899Y-131303322D01*
X124435447Y-131344552D01*
X124445147Y-131351033D01*
X124501769Y-131388867D01*
X124560252Y-131400500D01*
X124560255Y-131400500D01*
X126299745Y-131400500D01*
X126299748Y-131400500D01*
X126358231Y-131388867D01*
X126424552Y-131344552D01*
X126468867Y-131278231D01*
X126480500Y-131219748D01*
X126480500Y-130246535D01*
X126919500Y-130246535D01*
X126919500Y-130453465D01*
X126946290Y-130588150D01*
X126959869Y-130656417D01*
X126959871Y-130656423D01*
X127027480Y-130819645D01*
X127039059Y-130847598D01*
X127154023Y-131019655D01*
X127300345Y-131165977D01*
X127472402Y-131280941D01*
X127663580Y-131360130D01*
X127866535Y-131400500D01*
X127866538Y-131400500D01*
X128073462Y-131400500D01*
X128073465Y-131400500D01*
X128276420Y-131360130D01*
X128467598Y-131280941D01*
X128639655Y-131165977D01*
X128785977Y-131019655D01*
X128900941Y-130847598D01*
X128980130Y-130656420D01*
X129020500Y-130453465D01*
X129020500Y-130246535D01*
X128980130Y-130043580D01*
X128900941Y-129852402D01*
X128785977Y-129680345D01*
X128639655Y-129534023D01*
X128467598Y-129419059D01*
X128406722Y-129393843D01*
X128276423Y-129339871D01*
X128276417Y-129339869D01*
X128175244Y-129319745D01*
X128073465Y-129299500D01*
X127866535Y-129299500D01*
X127771870Y-129318330D01*
X127663582Y-129339869D01*
X127663576Y-129339871D01*
X127472403Y-129419058D01*
X127300345Y-129534022D01*
X127154022Y-129680345D01*
X127039058Y-129852403D01*
X126959871Y-130043576D01*
X126959869Y-130043582D01*
X126939592Y-130145520D01*
X126919500Y-130246535D01*
X126480500Y-130246535D01*
X126480500Y-129480252D01*
X126468867Y-129421769D01*
X126442301Y-129382012D01*
X126424552Y-129355447D01*
X126384795Y-129328882D01*
X126358231Y-129311133D01*
X126299748Y-129299500D01*
X124560252Y-129299500D01*
X124501769Y-129311133D01*
X124435447Y-129355447D01*
X124392944Y-129419058D01*
X124391133Y-129421769D01*
X124379500Y-129480252D01*
X123200500Y-129480252D01*
X123200500Y-125379500D01*
X123214852Y-125344852D01*
X123249500Y-125330500D01*
X144750500Y-125330500D01*
X144785148Y-125344852D01*
G37*
%TD.AperFunction*%
%TA.AperFunction,Conductor*%
G36*
X129030648Y-148759352D02*
G01*
X129045000Y-148794000D01*
X129045000Y-149986000D01*
X129030648Y-150020648D01*
X128996000Y-150035000D01*
X128404000Y-150035000D01*
X128369352Y-150020648D01*
X128355000Y-149986000D01*
X128355000Y-148794000D01*
X128369352Y-148759352D01*
X128404000Y-148745000D01*
X128996000Y-148745000D01*
X129030648Y-148759352D01*
G37*
%TD.AperFunction*%
%TA.AperFunction,Conductor*%
G36*
X142345198Y-147901669D02*
G01*
X142388687Y-147913322D01*
X142400503Y-147918216D01*
X142439493Y-147940728D01*
X142439497Y-147940730D01*
X142449645Y-147948517D01*
X142481480Y-147980352D01*
X142489267Y-147990500D01*
X142511781Y-148029495D01*
X142516676Y-148041311D01*
X142528330Y-148084801D01*
X142530000Y-148097483D01*
X142530000Y-148142511D01*
X142528330Y-148155194D01*
X142516675Y-148198687D01*
X142511781Y-148210503D01*
X142489269Y-148249496D01*
X142481481Y-148259645D01*
X142449645Y-148291481D01*
X142439496Y-148299269D01*
X142400503Y-148321781D01*
X142388687Y-148326675D01*
X142345194Y-148338330D01*
X142332511Y-148340000D01*
X142287489Y-148340000D01*
X142274807Y-148338330D01*
X142262079Y-148334919D01*
X142231311Y-148326675D01*
X142219494Y-148321780D01*
X142180500Y-148299267D01*
X142170352Y-148291480D01*
X142138517Y-148259645D01*
X142130730Y-148249497D01*
X142130729Y-148249496D01*
X142108216Y-148210503D01*
X142103322Y-148198687D01*
X142091668Y-148155192D01*
X142090000Y-148142515D01*
X142090000Y-148097482D01*
X142091668Y-148084806D01*
X142103324Y-148041303D01*
X142108216Y-148029495D01*
X142130730Y-147990499D01*
X142138510Y-147980360D01*
X142170359Y-147948511D01*
X142180498Y-147940731D01*
X142219496Y-147918215D01*
X142231304Y-147913324D01*
X142274805Y-147901669D01*
X142287486Y-147900000D01*
X142332517Y-147900000D01*
X142345198Y-147901669D01*
G37*
%TD.AperFunction*%
%TA.AperFunction,Conductor*%
G36*
X136845198Y-140021669D02*
G01*
X136888687Y-140033322D01*
X136900503Y-140038216D01*
X136939493Y-140060728D01*
X136939497Y-140060730D01*
X136949645Y-140068517D01*
X136981480Y-140100352D01*
X136989267Y-140110500D01*
X137011780Y-140149494D01*
X137016675Y-140161311D01*
X137025413Y-140193921D01*
X137028002Y-140203582D01*
X137028330Y-140204804D01*
X137030000Y-140217487D01*
X137030000Y-140262511D01*
X137028330Y-140275194D01*
X137016675Y-140318687D01*
X137011781Y-140330503D01*
X136989269Y-140369496D01*
X136981481Y-140379645D01*
X136949645Y-140411481D01*
X136939496Y-140419269D01*
X136900503Y-140441781D01*
X136888687Y-140446675D01*
X136845194Y-140458330D01*
X136832511Y-140460000D01*
X136787489Y-140460000D01*
X136774807Y-140458330D01*
X136762079Y-140454919D01*
X136731311Y-140446675D01*
X136719494Y-140441780D01*
X136680500Y-140419267D01*
X136670352Y-140411480D01*
X136638517Y-140379645D01*
X136630730Y-140369497D01*
X136630729Y-140369496D01*
X136608216Y-140330503D01*
X136603322Y-140318687D01*
X136591669Y-140275194D01*
X136590000Y-140262515D01*
X136590000Y-140217482D01*
X136591669Y-140204804D01*
X136603324Y-140161303D01*
X136608217Y-140149494D01*
X136630730Y-140110499D01*
X136638510Y-140100360D01*
X136670359Y-140068511D01*
X136680498Y-140060731D01*
X136719496Y-140038215D01*
X136731304Y-140033324D01*
X136774805Y-140021669D01*
X136787486Y-140020000D01*
X136832517Y-140020000D01*
X136845198Y-140021669D01*
G37*
%TD.AperFunction*%
%TA.AperFunction,Conductor*%
G36*
X137985198Y-140021669D02*
G01*
X138028687Y-140033322D01*
X138040503Y-140038216D01*
X138079493Y-140060728D01*
X138079497Y-140060730D01*
X138089645Y-140068517D01*
X138121480Y-140100352D01*
X138129267Y-140110500D01*
X138151781Y-140149496D01*
X138156676Y-140161311D01*
X138168330Y-140204801D01*
X138170000Y-140217483D01*
X138170000Y-140262511D01*
X138168330Y-140275194D01*
X138156675Y-140318687D01*
X138151781Y-140330503D01*
X138129269Y-140369496D01*
X138121481Y-140379645D01*
X138089645Y-140411481D01*
X138079496Y-140419269D01*
X138040503Y-140441781D01*
X138028687Y-140446675D01*
X137985194Y-140458330D01*
X137972511Y-140460000D01*
X137927489Y-140460000D01*
X137914807Y-140458330D01*
X137902079Y-140454919D01*
X137871311Y-140446675D01*
X137859494Y-140441780D01*
X137820500Y-140419267D01*
X137810352Y-140411480D01*
X137778517Y-140379645D01*
X137770730Y-140369497D01*
X137770729Y-140369496D01*
X137748216Y-140330503D01*
X137743322Y-140318687D01*
X137731668Y-140275192D01*
X137730000Y-140262515D01*
X137730000Y-140217482D01*
X137731669Y-140204804D01*
X137743324Y-140161303D01*
X137748217Y-140149494D01*
X137770730Y-140110499D01*
X137778510Y-140100360D01*
X137810359Y-140068511D01*
X137820498Y-140060731D01*
X137859496Y-140038215D01*
X137871304Y-140033324D01*
X137914805Y-140021669D01*
X137927486Y-140020000D01*
X137972517Y-140020000D01*
X137985198Y-140021669D01*
G37*
%TD.AperFunction*%
%TA.AperFunction,Conductor*%
G36*
X142655198Y-137711669D02*
G01*
X142698687Y-137723322D01*
X142710503Y-137728216D01*
X142749493Y-137750728D01*
X142749497Y-137750730D01*
X142759645Y-137758517D01*
X142791480Y-137790352D01*
X142799267Y-137800500D01*
X142821781Y-137839496D01*
X142826676Y-137851312D01*
X142838330Y-137894801D01*
X142840000Y-137907483D01*
X142840000Y-137952511D01*
X142838330Y-137965194D01*
X142826675Y-138008687D01*
X142821781Y-138020503D01*
X142799269Y-138059496D01*
X142791481Y-138069645D01*
X142759645Y-138101481D01*
X142749496Y-138109269D01*
X142710503Y-138131781D01*
X142698687Y-138136675D01*
X142655194Y-138148330D01*
X142642511Y-138150000D01*
X142597489Y-138150000D01*
X142584807Y-138148330D01*
X142572079Y-138144919D01*
X142541311Y-138136675D01*
X142529494Y-138131780D01*
X142490500Y-138109267D01*
X142480352Y-138101480D01*
X142448517Y-138069645D01*
X142440730Y-138059497D01*
X142440729Y-138059496D01*
X142418216Y-138020503D01*
X142413322Y-138008687D01*
X142401668Y-137965192D01*
X142400000Y-137952515D01*
X142400000Y-137907482D01*
X142401668Y-137894806D01*
X142413324Y-137851303D01*
X142418215Y-137839496D01*
X142440730Y-137800499D01*
X142448510Y-137790360D01*
X142480359Y-137758511D01*
X142490498Y-137750731D01*
X142529496Y-137728215D01*
X142541304Y-137723324D01*
X142584805Y-137711669D01*
X142597486Y-137710000D01*
X142642517Y-137710000D01*
X142655198Y-137711669D01*
G37*
%TD.AperFunction*%
%TA.AperFunction,Conductor*%
G36*
X143385198Y-136941669D02*
G01*
X143428687Y-136953322D01*
X143440503Y-136958216D01*
X143479493Y-136980728D01*
X143479497Y-136980730D01*
X143489645Y-136988517D01*
X143521480Y-137020352D01*
X143529267Y-137030500D01*
X143551781Y-137069496D01*
X143556676Y-137081312D01*
X143568330Y-137124801D01*
X143570000Y-137137483D01*
X143570000Y-137182511D01*
X143568330Y-137195194D01*
X143556675Y-137238687D01*
X143551781Y-137250503D01*
X143529269Y-137289496D01*
X143521481Y-137299645D01*
X143489645Y-137331481D01*
X143479496Y-137339269D01*
X143440503Y-137361781D01*
X143428687Y-137366675D01*
X143385194Y-137378330D01*
X143372511Y-137380000D01*
X143327484Y-137380000D01*
X143314801Y-137378330D01*
X143289655Y-137371591D01*
X143271312Y-137366676D01*
X143259496Y-137361781D01*
X143220500Y-137339267D01*
X143210352Y-137331480D01*
X143178517Y-137299645D01*
X143170730Y-137289497D01*
X143170729Y-137289496D01*
X143148216Y-137250503D01*
X143143322Y-137238687D01*
X143131669Y-137195194D01*
X143130000Y-137182515D01*
X143130000Y-137137482D01*
X143131668Y-137124806D01*
X143143324Y-137081303D01*
X143148215Y-137069496D01*
X143170730Y-137030499D01*
X143178510Y-137020360D01*
X143210359Y-136988511D01*
X143220498Y-136980731D01*
X143259496Y-136958215D01*
X143271304Y-136953324D01*
X143314805Y-136941669D01*
X143327486Y-136940000D01*
X143372517Y-136940000D01*
X143385198Y-136941669D01*
G37*
%TD.AperFunction*%
%TA.AperFunction,Conductor*%
G36*
X135175198Y-136281669D02*
G01*
X135218687Y-136293322D01*
X135230503Y-136298216D01*
X135269493Y-136320728D01*
X135269497Y-136320730D01*
X135279645Y-136328517D01*
X135311480Y-136360352D01*
X135319267Y-136370500D01*
X135341781Y-136409495D01*
X135346676Y-136421311D01*
X135358330Y-136464801D01*
X135360000Y-136477483D01*
X135360000Y-136522511D01*
X135358330Y-136535194D01*
X135346675Y-136578687D01*
X135341781Y-136590503D01*
X135319269Y-136629496D01*
X135311481Y-136639645D01*
X135279647Y-136671479D01*
X135269500Y-136679266D01*
X135206962Y-136715373D01*
X135154460Y-136761419D01*
X135118947Y-136773475D01*
X135097651Y-136767015D01*
X135074238Y-136753497D01*
X135074235Y-136753496D01*
X135001838Y-136734097D01*
X134972085Y-136711267D01*
X134965939Y-136693161D01*
X134961956Y-136662904D01*
X134935792Y-136585832D01*
X134933583Y-136579661D01*
X134921668Y-136535192D01*
X134920000Y-136522514D01*
X134920000Y-136477482D01*
X134921668Y-136464806D01*
X134933324Y-136421303D01*
X134938216Y-136409495D01*
X134960730Y-136370499D01*
X134968510Y-136360360D01*
X135000359Y-136328511D01*
X135010498Y-136320731D01*
X135049496Y-136298215D01*
X135061304Y-136293324D01*
X135104805Y-136281669D01*
X135117486Y-136280000D01*
X135162517Y-136280000D01*
X135175198Y-136281669D01*
G37*
%TD.AperFunction*%
%TA.AperFunction,Conductor*%
G36*
X143375198Y-135811669D02*
G01*
X143418687Y-135823322D01*
X143430503Y-135828216D01*
X143469493Y-135850728D01*
X143469497Y-135850730D01*
X143479645Y-135858517D01*
X143511479Y-135890351D01*
X143519266Y-135900499D01*
X143541782Y-135939497D01*
X143546677Y-135951315D01*
X143558330Y-135994804D01*
X143560000Y-136007486D01*
X143560000Y-136052511D01*
X143558330Y-136065194D01*
X143546675Y-136108687D01*
X143541781Y-136120503D01*
X143519269Y-136159496D01*
X143511481Y-136169645D01*
X143479645Y-136201481D01*
X143469496Y-136209269D01*
X143430503Y-136231781D01*
X143418687Y-136236675D01*
X143375194Y-136248330D01*
X143362511Y-136250000D01*
X143317484Y-136250000D01*
X143304801Y-136248330D01*
X143279655Y-136241591D01*
X143261312Y-136236676D01*
X143249496Y-136231781D01*
X143210500Y-136209267D01*
X143200352Y-136201480D01*
X143168517Y-136169645D01*
X143160730Y-136159497D01*
X143160729Y-136159496D01*
X143138216Y-136120503D01*
X143133322Y-136108687D01*
X143121669Y-136065194D01*
X143120000Y-136052515D01*
X143120000Y-136007482D01*
X143121669Y-135994804D01*
X143133324Y-135951303D01*
X143138215Y-135939496D01*
X143160730Y-135900499D01*
X143168510Y-135890360D01*
X143200359Y-135858511D01*
X143210498Y-135850731D01*
X143249496Y-135828215D01*
X143261304Y-135823324D01*
X143304805Y-135811669D01*
X143317486Y-135810000D01*
X143362517Y-135810000D01*
X143375198Y-135811669D01*
G37*
%TD.AperFunction*%
%TA.AperFunction,Conductor*%
G36*
X136661907Y-134886669D02*
G01*
X136699037Y-134896618D01*
X136710853Y-134901512D01*
X136744143Y-134920733D01*
X136744147Y-134920735D01*
X136754295Y-134928522D01*
X136781475Y-134955702D01*
X136789262Y-134965850D01*
X136808484Y-134999144D01*
X136813379Y-135010961D01*
X136823330Y-135048095D01*
X136825000Y-135060778D01*
X136825000Y-135099222D01*
X136823330Y-135111905D01*
X136813380Y-135149036D01*
X136808485Y-135160853D01*
X136789263Y-135194147D01*
X136781476Y-135204295D01*
X136754295Y-135231476D01*
X136744147Y-135239263D01*
X136710853Y-135258485D01*
X136699036Y-135263380D01*
X136669716Y-135271237D01*
X136661904Y-135273330D01*
X136649223Y-135275000D01*
X136610779Y-135275000D01*
X136598096Y-135273330D01*
X136560961Y-135263379D01*
X136549144Y-135258484D01*
X136515850Y-135239262D01*
X136505702Y-135231475D01*
X136478522Y-135204295D01*
X136470735Y-135194147D01*
X136451515Y-135160857D01*
X136446619Y-135149038D01*
X136436669Y-135111902D01*
X136435000Y-135099221D01*
X136435000Y-135060775D01*
X136436669Y-135048095D01*
X136446619Y-135010959D01*
X136451515Y-134999140D01*
X136470735Y-134965850D01*
X136478520Y-134955706D01*
X136505706Y-134928520D01*
X136515849Y-134920735D01*
X136549148Y-134901510D01*
X136560956Y-134896619D01*
X136583469Y-134890587D01*
X136598097Y-134886669D01*
X136610777Y-134885000D01*
X136649226Y-134885000D01*
X136661907Y-134886669D01*
G37*
%TD.AperFunction*%
%TA.AperFunction,Conductor*%
G36*
X138161907Y-134886669D02*
G01*
X138199037Y-134896618D01*
X138210853Y-134901512D01*
X138244143Y-134920733D01*
X138244147Y-134920735D01*
X138254295Y-134928522D01*
X138281474Y-134955701D01*
X138289262Y-134965850D01*
X138308486Y-134999148D01*
X138313380Y-135010963D01*
X138323330Y-135048094D01*
X138325000Y-135060775D01*
X138325000Y-135099222D01*
X138323330Y-135111905D01*
X138313380Y-135149036D01*
X138308485Y-135160853D01*
X138289263Y-135194147D01*
X138281476Y-135204295D01*
X138254295Y-135231476D01*
X138244147Y-135239263D01*
X138210853Y-135258485D01*
X138199036Y-135263380D01*
X138169716Y-135271237D01*
X138161904Y-135273330D01*
X138149223Y-135275000D01*
X138110779Y-135275000D01*
X138098096Y-135273330D01*
X138060961Y-135263379D01*
X138049144Y-135258484D01*
X138015850Y-135239262D01*
X138005702Y-135231475D01*
X137978522Y-135204295D01*
X137970735Y-135194147D01*
X137951515Y-135160857D01*
X137946619Y-135149038D01*
X137936669Y-135111902D01*
X137935000Y-135099221D01*
X137935000Y-135060775D01*
X137936669Y-135048095D01*
X137946619Y-135010959D01*
X137951515Y-134999140D01*
X137970735Y-134965850D01*
X137978520Y-134955706D01*
X138005706Y-134928520D01*
X138015849Y-134920735D01*
X138049148Y-134901510D01*
X138060956Y-134896619D01*
X138083469Y-134890587D01*
X138098097Y-134886669D01*
X138110777Y-134885000D01*
X138149226Y-134885000D01*
X138161907Y-134886669D01*
G37*
%TD.AperFunction*%
%TA.AperFunction,Conductor*%
G36*
X143375198Y-134681669D02*
G01*
X143418687Y-134693322D01*
X143430503Y-134698216D01*
X143469493Y-134720728D01*
X143469497Y-134720730D01*
X143479645Y-134728517D01*
X143511479Y-134760351D01*
X143519266Y-134770499D01*
X143541782Y-134809497D01*
X143546677Y-134821315D01*
X143558330Y-134864804D01*
X143560000Y-134877486D01*
X143560000Y-134922511D01*
X143558330Y-134935194D01*
X143546675Y-134978687D01*
X143541781Y-134990503D01*
X143519269Y-135029496D01*
X143511481Y-135039645D01*
X143479645Y-135071481D01*
X143469496Y-135079269D01*
X143430503Y-135101781D01*
X143418687Y-135106675D01*
X143375194Y-135118330D01*
X143362511Y-135120000D01*
X143317489Y-135120000D01*
X143304807Y-135118330D01*
X143292079Y-135114919D01*
X143261311Y-135106675D01*
X143249494Y-135101780D01*
X143210500Y-135079267D01*
X143200352Y-135071480D01*
X143168517Y-135039645D01*
X143160730Y-135029497D01*
X143160729Y-135029496D01*
X143138216Y-134990503D01*
X143133322Y-134978687D01*
X143121668Y-134935192D01*
X143120000Y-134922515D01*
X143120000Y-134877482D01*
X143121669Y-134864804D01*
X143133324Y-134821303D01*
X143138215Y-134809496D01*
X143160730Y-134770499D01*
X143168510Y-134760360D01*
X143200359Y-134728511D01*
X143210498Y-134720731D01*
X143249496Y-134698215D01*
X143261304Y-134693324D01*
X143304805Y-134681669D01*
X143317486Y-134680000D01*
X143362517Y-134680000D01*
X143375198Y-134681669D01*
G37*
%TD.AperFunction*%
%TA.AperFunction,Conductor*%
G36*
X137411907Y-134136669D02*
G01*
X137449037Y-134146618D01*
X137460853Y-134151512D01*
X137494143Y-134170733D01*
X137494147Y-134170735D01*
X137504295Y-134178522D01*
X137531475Y-134205702D01*
X137539262Y-134215850D01*
X137558484Y-134249144D01*
X137563379Y-134260959D01*
X137573330Y-134298095D01*
X137575000Y-134310777D01*
X137575000Y-134349222D01*
X137573330Y-134361902D01*
X137573330Y-134361905D01*
X137563380Y-134399036D01*
X137558485Y-134410853D01*
X137539263Y-134444147D01*
X137531476Y-134454295D01*
X137504295Y-134481476D01*
X137494147Y-134489263D01*
X137460853Y-134508485D01*
X137449036Y-134513380D01*
X137419716Y-134521237D01*
X137411904Y-134523330D01*
X137399223Y-134525000D01*
X137360779Y-134525000D01*
X137348096Y-134523330D01*
X137310961Y-134513379D01*
X137299144Y-134508484D01*
X137265850Y-134489262D01*
X137255702Y-134481475D01*
X137228522Y-134454295D01*
X137220735Y-134444147D01*
X137201515Y-134410857D01*
X137196619Y-134399038D01*
X137186669Y-134361902D01*
X137185000Y-134349221D01*
X137185000Y-134310776D01*
X137186669Y-134298095D01*
X137196619Y-134260959D01*
X137201515Y-134249140D01*
X137220735Y-134215850D01*
X137228520Y-134205706D01*
X137255706Y-134178520D01*
X137265849Y-134170735D01*
X137299148Y-134151510D01*
X137310956Y-134146619D01*
X137333469Y-134140587D01*
X137348097Y-134136669D01*
X137360777Y-134135000D01*
X137399226Y-134135000D01*
X137411907Y-134136669D01*
G37*
%TD.AperFunction*%
%TA.AperFunction,Conductor*%
G36*
X136661907Y-133386669D02*
G01*
X136699037Y-133396618D01*
X136710853Y-133401512D01*
X136744143Y-133420733D01*
X136744147Y-133420735D01*
X136754295Y-133428522D01*
X136781475Y-133455702D01*
X136789262Y-133465850D01*
X136808484Y-133499144D01*
X136813379Y-133510961D01*
X136823330Y-133548095D01*
X136825000Y-133560778D01*
X136825000Y-133599222D01*
X136823330Y-133611905D01*
X136813380Y-133649036D01*
X136808485Y-133660853D01*
X136789263Y-133694147D01*
X136781476Y-133704295D01*
X136754295Y-133731476D01*
X136744147Y-133739263D01*
X136710853Y-133758485D01*
X136699036Y-133763380D01*
X136669716Y-133771237D01*
X136661904Y-133773330D01*
X136649223Y-133775000D01*
X136610779Y-133775000D01*
X136598096Y-133773330D01*
X136560961Y-133763379D01*
X136549144Y-133758484D01*
X136515850Y-133739262D01*
X136505702Y-133731475D01*
X136478522Y-133704295D01*
X136470735Y-133694147D01*
X136451515Y-133660857D01*
X136446619Y-133649038D01*
X136436669Y-133611902D01*
X136435000Y-133599221D01*
X136435000Y-133560776D01*
X136436669Y-133548095D01*
X136446619Y-133510959D01*
X136451515Y-133499140D01*
X136470735Y-133465850D01*
X136478520Y-133455706D01*
X136505706Y-133428520D01*
X136515849Y-133420735D01*
X136549148Y-133401510D01*
X136560956Y-133396619D01*
X136583469Y-133390587D01*
X136598097Y-133386669D01*
X136610777Y-133385000D01*
X136649226Y-133385000D01*
X136661907Y-133386669D01*
G37*
%TD.AperFunction*%
%TA.AperFunction,Conductor*%
G36*
X138161907Y-133386669D02*
G01*
X138199037Y-133396618D01*
X138210853Y-133401512D01*
X138244143Y-133420733D01*
X138244147Y-133420735D01*
X138254295Y-133428522D01*
X138281475Y-133455702D01*
X138289262Y-133465850D01*
X138308485Y-133499145D01*
X138313380Y-133510961D01*
X138323330Y-133548093D01*
X138325000Y-133560774D01*
X138325000Y-133599222D01*
X138323330Y-133611905D01*
X138313380Y-133649036D01*
X138308485Y-133660853D01*
X138289263Y-133694147D01*
X138281476Y-133704295D01*
X138254295Y-133731476D01*
X138244147Y-133739263D01*
X138210853Y-133758485D01*
X138199036Y-133763380D01*
X138169716Y-133771237D01*
X138161904Y-133773330D01*
X138149223Y-133775000D01*
X138110779Y-133775000D01*
X138098096Y-133773330D01*
X138060961Y-133763379D01*
X138049144Y-133758484D01*
X138015850Y-133739262D01*
X138005702Y-133731475D01*
X137978522Y-133704295D01*
X137970735Y-133694147D01*
X137951515Y-133660857D01*
X137946619Y-133649038D01*
X137936669Y-133611902D01*
X137935000Y-133599221D01*
X137935000Y-133560776D01*
X137936669Y-133548095D01*
X137946619Y-133510959D01*
X137951515Y-133499140D01*
X137970735Y-133465850D01*
X137978520Y-133455706D01*
X138005706Y-133428520D01*
X138015849Y-133420735D01*
X138049148Y-133401510D01*
X138060956Y-133396619D01*
X138083469Y-133390587D01*
X138098097Y-133386669D01*
X138110777Y-133385000D01*
X138149226Y-133385000D01*
X138161907Y-133386669D01*
G37*
%TD.AperFunction*%
%TA.AperFunction,Conductor*%
G36*
X143365198Y-132421669D02*
G01*
X143408687Y-132433322D01*
X143420503Y-132438216D01*
X143459493Y-132460728D01*
X143459497Y-132460730D01*
X143469645Y-132468517D01*
X143501480Y-132500352D01*
X143509267Y-132510500D01*
X143531781Y-132549495D01*
X143536676Y-132561311D01*
X143548330Y-132604801D01*
X143550000Y-132617483D01*
X143550000Y-132662511D01*
X143548330Y-132675194D01*
X143536675Y-132718687D01*
X143531781Y-132730503D01*
X143509269Y-132769496D01*
X143501481Y-132779645D01*
X143469645Y-132811481D01*
X143459496Y-132819269D01*
X143420503Y-132841781D01*
X143408687Y-132846675D01*
X143365194Y-132858330D01*
X143352511Y-132860000D01*
X143307489Y-132860000D01*
X143294807Y-132858330D01*
X143282079Y-132854919D01*
X143251311Y-132846675D01*
X143239494Y-132841780D01*
X143200500Y-132819267D01*
X143190352Y-132811480D01*
X143158517Y-132779645D01*
X143150730Y-132769497D01*
X143150729Y-132769496D01*
X143128216Y-132730503D01*
X143123322Y-132718687D01*
X143111668Y-132675192D01*
X143110000Y-132662515D01*
X143110000Y-132617482D01*
X143111668Y-132604806D01*
X143123324Y-132561303D01*
X143128216Y-132549495D01*
X143150730Y-132510499D01*
X143158510Y-132500360D01*
X143190359Y-132468511D01*
X143200498Y-132460731D01*
X143239496Y-132438215D01*
X143251304Y-132433324D01*
X143294805Y-132421669D01*
X143307486Y-132420000D01*
X143352517Y-132420000D01*
X143365198Y-132421669D01*
G37*
%TD.AperFunction*%
%TA.AperFunction,Conductor*%
G36*
X139525198Y-132041669D02*
G01*
X139568687Y-132053322D01*
X139580503Y-132058216D01*
X139619493Y-132080728D01*
X139619497Y-132080730D01*
X139629645Y-132088517D01*
X139661480Y-132120352D01*
X139669267Y-132130500D01*
X139691781Y-132169495D01*
X139696676Y-132181311D01*
X139708330Y-132224801D01*
X139710000Y-132237483D01*
X139710000Y-132282511D01*
X139708330Y-132295194D01*
X139696675Y-132338687D01*
X139691781Y-132350503D01*
X139669269Y-132389496D01*
X139661481Y-132399645D01*
X139629645Y-132431481D01*
X139619496Y-132439269D01*
X139580503Y-132461781D01*
X139568687Y-132466675D01*
X139525194Y-132478330D01*
X139512511Y-132480000D01*
X139467489Y-132480000D01*
X139454807Y-132478330D01*
X139442079Y-132474919D01*
X139411311Y-132466675D01*
X139399494Y-132461780D01*
X139360500Y-132439267D01*
X139350352Y-132431480D01*
X139318517Y-132399645D01*
X139310730Y-132389497D01*
X139310729Y-132389496D01*
X139288216Y-132350503D01*
X139283322Y-132338687D01*
X139271668Y-132295192D01*
X139270000Y-132282515D01*
X139270000Y-132237482D01*
X139271668Y-132224806D01*
X139283324Y-132181303D01*
X139288216Y-132169495D01*
X139310730Y-132130499D01*
X139318510Y-132120360D01*
X139350359Y-132088511D01*
X139360498Y-132080731D01*
X139399496Y-132058215D01*
X139411304Y-132053324D01*
X139454805Y-132041669D01*
X139467486Y-132040000D01*
X139512517Y-132040000D01*
X139525198Y-132041669D01*
G37*
%TD.AperFunction*%
%TA.AperFunction,Conductor*%
G36*
X143365198Y-131291669D02*
G01*
X143408687Y-131303322D01*
X143420503Y-131308216D01*
X143459493Y-131330728D01*
X143459497Y-131330730D01*
X143469645Y-131338517D01*
X143501480Y-131370352D01*
X143509267Y-131380500D01*
X143531781Y-131419495D01*
X143536676Y-131431311D01*
X143548330Y-131474801D01*
X143550000Y-131487483D01*
X143550000Y-131532511D01*
X143548330Y-131545194D01*
X143536675Y-131588687D01*
X143531781Y-131600503D01*
X143509269Y-131639496D01*
X143501481Y-131649645D01*
X143469645Y-131681481D01*
X143459496Y-131689269D01*
X143420503Y-131711781D01*
X143408687Y-131716675D01*
X143365194Y-131728330D01*
X143352511Y-131730000D01*
X143307484Y-131730000D01*
X143294801Y-131728330D01*
X143269655Y-131721591D01*
X143251312Y-131716676D01*
X143239496Y-131711781D01*
X143200500Y-131689267D01*
X143190352Y-131681480D01*
X143158517Y-131649645D01*
X143150730Y-131639497D01*
X143150729Y-131639496D01*
X143128216Y-131600503D01*
X143123322Y-131588687D01*
X143111669Y-131545194D01*
X143110000Y-131532515D01*
X143110000Y-131487482D01*
X143111668Y-131474806D01*
X143123324Y-131431303D01*
X143128216Y-131419495D01*
X143150730Y-131380499D01*
X143158510Y-131370360D01*
X143190359Y-131338511D01*
X143200498Y-131330731D01*
X143239496Y-131308215D01*
X143251304Y-131303324D01*
X143294805Y-131291669D01*
X143307486Y-131290000D01*
X143352517Y-131290000D01*
X143365198Y-131291669D01*
G37*
%TD.AperFunction*%
%TA.AperFunction,Conductor*%
G36*
X140035198Y-131161669D02*
G01*
X140078687Y-131173322D01*
X140090503Y-131178216D01*
X140129493Y-131200728D01*
X140129497Y-131200730D01*
X140139645Y-131208517D01*
X140171480Y-131240352D01*
X140179267Y-131250500D01*
X140201781Y-131289495D01*
X140206676Y-131301311D01*
X140208527Y-131308217D01*
X140218330Y-131344801D01*
X140220000Y-131357483D01*
X140220000Y-131402512D01*
X140218330Y-131415196D01*
X140206675Y-131458688D01*
X140201782Y-131470501D01*
X140195704Y-131481030D01*
X140195702Y-131481033D01*
X140179268Y-131509497D01*
X140171481Y-131519645D01*
X140139645Y-131551481D01*
X140129496Y-131559269D01*
X140090503Y-131581781D01*
X140078687Y-131586675D01*
X140035194Y-131598330D01*
X140022511Y-131600000D01*
X139977489Y-131600000D01*
X139964807Y-131598330D01*
X139952073Y-131594918D01*
X139921311Y-131586675D01*
X139909494Y-131581780D01*
X139870500Y-131559267D01*
X139860352Y-131551480D01*
X139828517Y-131519645D01*
X139820730Y-131509497D01*
X139808019Y-131487482D01*
X139798216Y-131470503D01*
X139793323Y-131458691D01*
X139781668Y-131415192D01*
X139780000Y-131402515D01*
X139780000Y-131357482D01*
X139781668Y-131344806D01*
X139793324Y-131301303D01*
X139798216Y-131289495D01*
X139820730Y-131250499D01*
X139828510Y-131240360D01*
X139860359Y-131208511D01*
X139870498Y-131200731D01*
X139909496Y-131178215D01*
X139921304Y-131173324D01*
X139964805Y-131161669D01*
X139977486Y-131160000D01*
X140022517Y-131160000D01*
X140035198Y-131161669D01*
G37*
%TD.AperFunction*%
%TA.AperFunction,Conductor*%
G36*
X140745198Y-130461669D02*
G01*
X140788687Y-130473322D01*
X140800503Y-130478216D01*
X140839493Y-130500728D01*
X140839497Y-130500730D01*
X140849645Y-130508517D01*
X140881480Y-130540352D01*
X140889267Y-130550500D01*
X140917936Y-130600156D01*
X140920770Y-130605901D01*
X140922705Y-130610573D01*
X140929112Y-130624539D01*
X140929113Y-130624541D01*
X140937499Y-130634663D01*
X140948190Y-130647567D01*
X140951577Y-130658549D01*
X140958229Y-130667924D01*
X140956670Y-130675061D01*
X140959244Y-130683404D01*
X140951948Y-130704897D01*
X140950719Y-130706852D01*
X140944637Y-130714779D01*
X140940617Y-130722929D01*
X140939274Y-130725068D01*
X140937141Y-130726581D01*
X140889268Y-130809498D01*
X140881481Y-130819645D01*
X140849645Y-130851481D01*
X140839496Y-130859269D01*
X140800503Y-130881781D01*
X140788687Y-130886675D01*
X140745194Y-130898330D01*
X140732511Y-130900000D01*
X140687489Y-130900000D01*
X140674807Y-130898330D01*
X140662079Y-130894919D01*
X140631311Y-130886675D01*
X140619494Y-130881780D01*
X140580500Y-130859267D01*
X140570352Y-130851480D01*
X140538517Y-130819645D01*
X140530730Y-130809497D01*
X140530729Y-130809496D01*
X140508216Y-130770503D01*
X140503322Y-130758687D01*
X140491669Y-130715194D01*
X140490000Y-130702515D01*
X140490000Y-130657482D01*
X140491669Y-130644804D01*
X140503324Y-130601303D01*
X140508217Y-130589494D01*
X140530730Y-130550499D01*
X140538510Y-130540360D01*
X140570359Y-130508511D01*
X140580498Y-130500731D01*
X140619496Y-130478215D01*
X140631304Y-130473324D01*
X140674805Y-130461669D01*
X140687486Y-130460000D01*
X140732517Y-130460000D01*
X140745198Y-130461669D01*
G37*
%TD.AperFunction*%
%TA.AperFunction,Conductor*%
G36*
X141635198Y-130461669D02*
G01*
X141678687Y-130473322D01*
X141690503Y-130478216D01*
X141729493Y-130500728D01*
X141729497Y-130500730D01*
X141739645Y-130508517D01*
X141771480Y-130540352D01*
X141779267Y-130550500D01*
X141801780Y-130589494D01*
X141806675Y-130601311D01*
X141818330Y-130644804D01*
X141820000Y-130657487D01*
X141820000Y-130702511D01*
X141818330Y-130715194D01*
X141806675Y-130758687D01*
X141801781Y-130770503D01*
X141779269Y-130809496D01*
X141771481Y-130819645D01*
X141739645Y-130851481D01*
X141729496Y-130859269D01*
X141690503Y-130881781D01*
X141678687Y-130886675D01*
X141635194Y-130898330D01*
X141622511Y-130900000D01*
X141577489Y-130900000D01*
X141564807Y-130898330D01*
X141552079Y-130894919D01*
X141521311Y-130886675D01*
X141509494Y-130881780D01*
X141470500Y-130859267D01*
X141460352Y-130851480D01*
X141428518Y-130819646D01*
X141420731Y-130809498D01*
X141392057Y-130759832D01*
X141389228Y-130754096D01*
X141387290Y-130749417D01*
X141387287Y-130749410D01*
X141380884Y-130735451D01*
X141380881Y-130735447D01*
X141361810Y-130712430D01*
X141358421Y-130701446D01*
X141351769Y-130692070D01*
X141353328Y-130684934D01*
X141350755Y-130676594D01*
X141358053Y-130655097D01*
X141359271Y-130653158D01*
X141365362Y-130645221D01*
X141369379Y-130637072D01*
X141370724Y-130634933D01*
X141372856Y-130633419D01*
X141381462Y-130618511D01*
X141381464Y-130618512D01*
X141420731Y-130550497D01*
X141428510Y-130540360D01*
X141460359Y-130508511D01*
X141470498Y-130500731D01*
X141509496Y-130478215D01*
X141521304Y-130473324D01*
X141564805Y-130461669D01*
X141577486Y-130460000D01*
X141622517Y-130460000D01*
X141635198Y-130461669D01*
G37*
%TD.AperFunction*%
%TA.AperFunction,Conductor*%
G36*
X142625198Y-130461669D02*
G01*
X142668687Y-130473322D01*
X142680503Y-130478216D01*
X142719493Y-130500728D01*
X142719497Y-130500730D01*
X142729645Y-130508517D01*
X142761480Y-130540352D01*
X142769267Y-130550500D01*
X142791781Y-130589495D01*
X142796676Y-130601311D01*
X142808330Y-130644801D01*
X142810000Y-130657483D01*
X142810000Y-130702511D01*
X142808330Y-130715194D01*
X142796675Y-130758687D01*
X142791781Y-130770503D01*
X142769269Y-130809496D01*
X142761481Y-130819645D01*
X142729645Y-130851481D01*
X142719496Y-130859269D01*
X142680503Y-130881781D01*
X142668687Y-130886675D01*
X142625194Y-130898330D01*
X142612511Y-130900000D01*
X142567489Y-130900000D01*
X142554807Y-130898330D01*
X142542079Y-130894919D01*
X142511311Y-130886675D01*
X142499494Y-130881780D01*
X142460500Y-130859267D01*
X142450352Y-130851480D01*
X142418517Y-130819645D01*
X142410730Y-130809497D01*
X142410729Y-130809496D01*
X142388216Y-130770503D01*
X142383322Y-130758687D01*
X142371668Y-130715192D01*
X142370000Y-130702515D01*
X142370000Y-130657482D01*
X142371669Y-130644804D01*
X142383324Y-130601303D01*
X142388217Y-130589494D01*
X142410730Y-130550499D01*
X142418510Y-130540360D01*
X142450359Y-130508511D01*
X142460498Y-130500731D01*
X142499496Y-130478215D01*
X142511304Y-130473324D01*
X142554805Y-130461669D01*
X142567486Y-130460000D01*
X142612517Y-130460000D01*
X142625198Y-130461669D01*
G37*
%TD.AperFunction*%
%TA.AperFunction,Conductor*%
G36*
X144085198Y-128451669D02*
G01*
X144128687Y-128463322D01*
X144140503Y-128468216D01*
X144179493Y-128490728D01*
X144179497Y-128490730D01*
X144189645Y-128498517D01*
X144221481Y-128530353D01*
X144229268Y-128540501D01*
X144240591Y-128560114D01*
X144240597Y-128560123D01*
X144255538Y-128582483D01*
X144263325Y-128592630D01*
X144273121Y-128604453D01*
X144301751Y-128624767D01*
X144307506Y-128628851D01*
X144327458Y-128660606D01*
X144319112Y-128697169D01*
X144308979Y-128707687D01*
X144293471Y-128719586D01*
X144293469Y-128719588D01*
X144240598Y-128779876D01*
X144240594Y-128779880D01*
X144229267Y-128799499D01*
X144221481Y-128809645D01*
X144189645Y-128841481D01*
X144179496Y-128849269D01*
X144140503Y-128871781D01*
X144128687Y-128876675D01*
X144085194Y-128888330D01*
X144072511Y-128890000D01*
X144027489Y-128890000D01*
X144014807Y-128888330D01*
X144002079Y-128884919D01*
X143971311Y-128876675D01*
X143959494Y-128871780D01*
X143920500Y-128849267D01*
X143910352Y-128841480D01*
X143878517Y-128809645D01*
X143870730Y-128799497D01*
X143853321Y-128769345D01*
X143848216Y-128760503D01*
X143843323Y-128748691D01*
X143831668Y-128705192D01*
X143830000Y-128692515D01*
X143830000Y-128647482D01*
X143831668Y-128634806D01*
X143843324Y-128591303D01*
X143848215Y-128579496D01*
X143870730Y-128540499D01*
X143878510Y-128530360D01*
X143910359Y-128498511D01*
X143920498Y-128490731D01*
X143959496Y-128468215D01*
X143971304Y-128463324D01*
X144014805Y-128451669D01*
X144027486Y-128450000D01*
X144072517Y-128450000D01*
X144085198Y-128451669D01*
G37*
%TD.AperFunction*%
%TA.AperFunction,Conductor*%
G36*
X138605198Y-126751669D02*
G01*
X138648687Y-126763322D01*
X138660503Y-126768216D01*
X138699493Y-126790728D01*
X138699497Y-126790730D01*
X138709645Y-126798517D01*
X138741480Y-126830352D01*
X138749267Y-126840500D01*
X138771781Y-126879495D01*
X138776676Y-126891311D01*
X138788330Y-126934801D01*
X138790000Y-126947483D01*
X138790000Y-126992511D01*
X138788330Y-127005194D01*
X138776675Y-127048687D01*
X138771781Y-127060503D01*
X138749269Y-127099496D01*
X138741481Y-127109645D01*
X138709645Y-127141481D01*
X138699496Y-127149269D01*
X138660503Y-127171781D01*
X138648687Y-127176675D01*
X138605194Y-127188330D01*
X138592511Y-127190000D01*
X138547489Y-127190000D01*
X138534807Y-127188330D01*
X138522079Y-127184919D01*
X138491311Y-127176675D01*
X138479494Y-127171780D01*
X138440500Y-127149267D01*
X138430352Y-127141480D01*
X138398517Y-127109645D01*
X138390730Y-127099497D01*
X138390729Y-127099496D01*
X138368216Y-127060503D01*
X138363322Y-127048687D01*
X138351669Y-127005194D01*
X138350000Y-126992515D01*
X138350000Y-126947482D01*
X138351668Y-126934806D01*
X138363324Y-126891303D01*
X138368216Y-126879495D01*
X138390730Y-126840499D01*
X138398510Y-126830360D01*
X138430359Y-126798511D01*
X138440498Y-126790731D01*
X138479496Y-126768215D01*
X138491304Y-126763324D01*
X138534805Y-126751669D01*
X138547486Y-126750000D01*
X138592517Y-126750000D01*
X138605198Y-126751669D01*
G37*
%TD.AperFunction*%
%TD*%
%TA.AperFunction,Conductor*%
%TO.N,+3.3V*%
G36*
X144024352Y-125994352D02*
G01*
X144495648Y-126465648D01*
X144510000Y-126500296D01*
X144510000Y-128432872D01*
X144495648Y-128467520D01*
X144461000Y-128481872D01*
X144426352Y-128467520D01*
X144418565Y-128457373D01*
X144404419Y-128432872D01*
X144390485Y-128408737D01*
X144311263Y-128329515D01*
X144214239Y-128273497D01*
X144214235Y-128273496D01*
X144106021Y-128244500D01*
X144106018Y-128244500D01*
X143993982Y-128244500D01*
X143993979Y-128244500D01*
X143885764Y-128273496D01*
X143885760Y-128273497D01*
X143788736Y-128329515D01*
X143788736Y-128329516D01*
X143709516Y-128408736D01*
X143709515Y-128408736D01*
X143653497Y-128505760D01*
X143653496Y-128505764D01*
X143624500Y-128613978D01*
X143624500Y-128726021D01*
X143653496Y-128834235D01*
X143653497Y-128834239D01*
X143688258Y-128894445D01*
X143709515Y-128931263D01*
X143788737Y-129010485D01*
X143824249Y-129030988D01*
X143885760Y-129066502D01*
X143885762Y-129066502D01*
X143885763Y-129066503D01*
X143971111Y-129089371D01*
X143993978Y-129095499D01*
X143993979Y-129095500D01*
X143993982Y-129095500D01*
X144106021Y-129095500D01*
X144106021Y-129095499D01*
X144214237Y-129066503D01*
X144311263Y-129010485D01*
X144390485Y-128931263D01*
X144418565Y-128882626D01*
X144448318Y-128859797D01*
X144485500Y-128864692D01*
X144508330Y-128894445D01*
X144510000Y-128907127D01*
X144510000Y-147709704D01*
X144495648Y-147744352D01*
X141784352Y-150455648D01*
X141749704Y-150470000D01*
X124299000Y-150470000D01*
X124264352Y-150455648D01*
X124250000Y-150421000D01*
X124250000Y-148720252D01*
X128149500Y-148720252D01*
X128149500Y-150059748D01*
X128161133Y-150118231D01*
X128178882Y-150144795D01*
X128205447Y-150184552D01*
X128232012Y-150202301D01*
X128271769Y-150228867D01*
X128330252Y-150240500D01*
X128330255Y-150240500D01*
X129069745Y-150240500D01*
X129069748Y-150240500D01*
X129128231Y-150228867D01*
X129194552Y-150184552D01*
X129238867Y-150118231D01*
X129250500Y-150059748D01*
X129250500Y-149153978D01*
X130184500Y-149153978D01*
X130184500Y-149266021D01*
X130213496Y-149374235D01*
X130213497Y-149374239D01*
X130269515Y-149471263D01*
X130348737Y-149550485D01*
X130384249Y-149570988D01*
X130445760Y-149606502D01*
X130445762Y-149606502D01*
X130445763Y-149606503D01*
X130531111Y-149629371D01*
X130553978Y-149635499D01*
X130553979Y-149635500D01*
X130553982Y-149635500D01*
X130666021Y-149635500D01*
X130666021Y-149635499D01*
X130774237Y-149606503D01*
X130871263Y-149550485D01*
X130950485Y-149471263D01*
X131006503Y-149374237D01*
X131035499Y-149266021D01*
X131035500Y-149266021D01*
X131035500Y-149153979D01*
X131035499Y-149153978D01*
X131006503Y-149045764D01*
X131006502Y-149045760D01*
X130950484Y-148948736D01*
X130871263Y-148869515D01*
X130774239Y-148813497D01*
X130774235Y-148813496D01*
X130666021Y-148784500D01*
X130666018Y-148784500D01*
X130553982Y-148784500D01*
X130553979Y-148784500D01*
X130445764Y-148813496D01*
X130445760Y-148813497D01*
X130348736Y-148869515D01*
X130348736Y-148869516D01*
X130269516Y-148948736D01*
X130269515Y-148948736D01*
X130213497Y-149045760D01*
X130213496Y-149045764D01*
X130184500Y-149153978D01*
X129250500Y-149153978D01*
X129250500Y-148720252D01*
X129238867Y-148661769D01*
X129212301Y-148622012D01*
X129194552Y-148595447D01*
X129154795Y-148568882D01*
X129128231Y-148551133D01*
X129069748Y-148539500D01*
X128330252Y-148539500D01*
X128271769Y-148551133D01*
X128205447Y-148595447D01*
X128161133Y-148661769D01*
X128149500Y-148720252D01*
X124250000Y-148720252D01*
X124250000Y-148003978D01*
X140554500Y-148003978D01*
X140554500Y-148116021D01*
X140583496Y-148224235D01*
X140583497Y-148224239D01*
X140618138Y-148284237D01*
X140639515Y-148321263D01*
X140718737Y-148400485D01*
X140754249Y-148420988D01*
X140815760Y-148456502D01*
X140815762Y-148456502D01*
X140815763Y-148456503D01*
X140901111Y-148479371D01*
X140923978Y-148485499D01*
X140923979Y-148485500D01*
X140923982Y-148485500D01*
X141036021Y-148485500D01*
X141036021Y-148485499D01*
X141144237Y-148456503D01*
X141241263Y-148400485D01*
X141320485Y-148321263D01*
X141376503Y-148224237D01*
X141405499Y-148116021D01*
X141405500Y-148116021D01*
X141405500Y-148063978D01*
X141884500Y-148063978D01*
X141884500Y-148176021D01*
X141913496Y-148284235D01*
X141913497Y-148284239D01*
X141969515Y-148381263D01*
X142048737Y-148460485D01*
X142084249Y-148480988D01*
X142145760Y-148516502D01*
X142145762Y-148516502D01*
X142145763Y-148516503D01*
X142231111Y-148539371D01*
X142253978Y-148545499D01*
X142253979Y-148545500D01*
X142253982Y-148545500D01*
X142366021Y-148545500D01*
X142366021Y-148545499D01*
X142474237Y-148516503D01*
X142571263Y-148460485D01*
X142650485Y-148381263D01*
X142706503Y-148284237D01*
X142735499Y-148176021D01*
X142735500Y-148176021D01*
X142735500Y-148063979D01*
X142735499Y-148063978D01*
X142706503Y-147955764D01*
X142706502Y-147955760D01*
X142650484Y-147858736D01*
X142571263Y-147779515D01*
X142474239Y-147723497D01*
X142474235Y-147723496D01*
X142366021Y-147694500D01*
X142366018Y-147694500D01*
X142253982Y-147694500D01*
X142253979Y-147694500D01*
X142145764Y-147723496D01*
X142145760Y-147723497D01*
X142048736Y-147779515D01*
X142048736Y-147779516D01*
X141969516Y-147858736D01*
X141969515Y-147858736D01*
X141913497Y-147955760D01*
X141913496Y-147955764D01*
X141884500Y-148063978D01*
X141405500Y-148063978D01*
X141405500Y-148003979D01*
X141405499Y-148003978D01*
X141376503Y-147895764D01*
X141376502Y-147895760D01*
X141320484Y-147798736D01*
X141241263Y-147719515D01*
X141144239Y-147663497D01*
X141144235Y-147663496D01*
X141036021Y-147634500D01*
X141036018Y-147634500D01*
X140923982Y-147634500D01*
X140923979Y-147634500D01*
X140815764Y-147663496D01*
X140815760Y-147663497D01*
X140718736Y-147719515D01*
X140718736Y-147719516D01*
X140639516Y-147798736D01*
X140639515Y-147798736D01*
X140583497Y-147895760D01*
X140583496Y-147895764D01*
X140554500Y-148003978D01*
X124250000Y-148003978D01*
X124250000Y-144479000D01*
X124264352Y-144444352D01*
X124299000Y-144430000D01*
X129809999Y-144430000D01*
X129810000Y-144430000D01*
X131006022Y-143233978D01*
X141864500Y-143233978D01*
X141864500Y-143346021D01*
X141893496Y-143454235D01*
X141893497Y-143454239D01*
X141935220Y-143526503D01*
X141949515Y-143551263D01*
X142028737Y-143630485D01*
X142064249Y-143650988D01*
X142125760Y-143686502D01*
X142125762Y-143686502D01*
X142125763Y-143686503D01*
X142211111Y-143709371D01*
X142233978Y-143715499D01*
X142233979Y-143715500D01*
X142233982Y-143715500D01*
X142346021Y-143715500D01*
X142346021Y-143715499D01*
X142454237Y-143686503D01*
X142551263Y-143630485D01*
X142630485Y-143551263D01*
X142686503Y-143454237D01*
X142715499Y-143346021D01*
X142715500Y-143346021D01*
X142715500Y-143233979D01*
X142715499Y-143233978D01*
X142686503Y-143125764D01*
X142686502Y-143125760D01*
X142630484Y-143028736D01*
X142551263Y-142949515D01*
X142454239Y-142893497D01*
X142454235Y-142893496D01*
X142346021Y-142864500D01*
X142346018Y-142864500D01*
X142233982Y-142864500D01*
X142233979Y-142864500D01*
X142125764Y-142893496D01*
X142125760Y-142893497D01*
X142028736Y-142949515D01*
X142028736Y-142949516D01*
X141949516Y-143028736D01*
X141949515Y-143028736D01*
X141893497Y-143125760D01*
X141893496Y-143125764D01*
X141864500Y-143233978D01*
X131006022Y-143233978D01*
X131110000Y-143130000D01*
X131110000Y-141169544D01*
X131124352Y-141134896D01*
X131195484Y-141063764D01*
X131195485Y-141063763D01*
X131251503Y-140966737D01*
X131280499Y-140858521D01*
X131280500Y-140858521D01*
X131280500Y-140746479D01*
X131280499Y-140746478D01*
X131251503Y-140638264D01*
X131251502Y-140638260D01*
X131195484Y-140541236D01*
X131124352Y-140470104D01*
X131110000Y-140435456D01*
X131110000Y-139873978D01*
X131384500Y-139873978D01*
X131384500Y-139986021D01*
X131413496Y-140094235D01*
X131413497Y-140094239D01*
X131465311Y-140183982D01*
X131469515Y-140191263D01*
X131548737Y-140270485D01*
X131561021Y-140277577D01*
X131645760Y-140326502D01*
X131645762Y-140326502D01*
X131645763Y-140326503D01*
X131731111Y-140349371D01*
X131753978Y-140355499D01*
X131753979Y-140355500D01*
X131753982Y-140355500D01*
X131866021Y-140355500D01*
X131866021Y-140355499D01*
X131974237Y-140326503D01*
X132050501Y-140282471D01*
X132087682Y-140277577D01*
X132099496Y-140282470D01*
X132175763Y-140326503D01*
X132261111Y-140349371D01*
X132283978Y-140355499D01*
X132283979Y-140355500D01*
X132283982Y-140355500D01*
X132396021Y-140355500D01*
X132396021Y-140355499D01*
X132504237Y-140326503D01*
X132601263Y-140270485D01*
X132680485Y-140191263D01*
X132727565Y-140109717D01*
X132757318Y-140086888D01*
X132794500Y-140091783D01*
X132812434Y-140109717D01*
X132859515Y-140191263D01*
X132938737Y-140270485D01*
X132951021Y-140277577D01*
X133035760Y-140326502D01*
X133035762Y-140326502D01*
X133035763Y-140326503D01*
X133121111Y-140349371D01*
X133143978Y-140355499D01*
X133143979Y-140355500D01*
X133143982Y-140355500D01*
X133256021Y-140355500D01*
X133256021Y-140355499D01*
X133364237Y-140326503D01*
X133440501Y-140282471D01*
X133477682Y-140277577D01*
X133489496Y-140282470D01*
X133565763Y-140326503D01*
X133651111Y-140349371D01*
X133673978Y-140355499D01*
X133673979Y-140355500D01*
X133673982Y-140355500D01*
X133786021Y-140355500D01*
X133786021Y-140355499D01*
X133894237Y-140326503D01*
X133991263Y-140270485D01*
X134070485Y-140191263D01*
X134074691Y-140183978D01*
X136384500Y-140183978D01*
X136384500Y-140296021D01*
X136413496Y-140404235D01*
X136413497Y-140404239D01*
X136431521Y-140435456D01*
X136469515Y-140501263D01*
X136548737Y-140580485D01*
X136584249Y-140600988D01*
X136645760Y-140636502D01*
X136645762Y-140636502D01*
X136645763Y-140636503D01*
X136731111Y-140659371D01*
X136753978Y-140665499D01*
X136753979Y-140665500D01*
X136753982Y-140665500D01*
X136866021Y-140665500D01*
X136866021Y-140665499D01*
X136974237Y-140636503D01*
X137071263Y-140580485D01*
X137150485Y-140501263D01*
X137206503Y-140404237D01*
X137235499Y-140296021D01*
X137235500Y-140296021D01*
X137235500Y-140183979D01*
X137235499Y-140183978D01*
X137524500Y-140183978D01*
X137524500Y-140296021D01*
X137553496Y-140404235D01*
X137553497Y-140404239D01*
X137571521Y-140435456D01*
X137609515Y-140501263D01*
X137688737Y-140580485D01*
X137724249Y-140600988D01*
X137785760Y-140636502D01*
X137785762Y-140636502D01*
X137785763Y-140636503D01*
X137871111Y-140659371D01*
X137893978Y-140665499D01*
X137893979Y-140665500D01*
X137893982Y-140665500D01*
X138006021Y-140665500D01*
X138006021Y-140665499D01*
X138114237Y-140636503D01*
X138211263Y-140580485D01*
X138290485Y-140501263D01*
X138346503Y-140404237D01*
X138375499Y-140296021D01*
X138375500Y-140296021D01*
X138375500Y-140183979D01*
X138375499Y-140183978D01*
X138355601Y-140109718D01*
X138346503Y-140075763D01*
X138346502Y-140075762D01*
X138346502Y-140075760D01*
X138310988Y-140014249D01*
X138290485Y-139978737D01*
X138211263Y-139899515D01*
X138167039Y-139873982D01*
X138114239Y-139843497D01*
X138114235Y-139843496D01*
X138006021Y-139814500D01*
X138006018Y-139814500D01*
X137893982Y-139814500D01*
X137893979Y-139814500D01*
X137785764Y-139843496D01*
X137785760Y-139843497D01*
X137688736Y-139899515D01*
X137688736Y-139899516D01*
X137609516Y-139978736D01*
X137609515Y-139978736D01*
X137553497Y-140075760D01*
X137553496Y-140075764D01*
X137524500Y-140183978D01*
X137235499Y-140183978D01*
X137215601Y-140109718D01*
X137206503Y-140075763D01*
X137206502Y-140075762D01*
X137206502Y-140075760D01*
X137170988Y-140014249D01*
X137150485Y-139978737D01*
X137071263Y-139899515D01*
X137027039Y-139873982D01*
X136974239Y-139843497D01*
X136974235Y-139843496D01*
X136866021Y-139814500D01*
X136866018Y-139814500D01*
X136753982Y-139814500D01*
X136753979Y-139814500D01*
X136645764Y-139843496D01*
X136645760Y-139843497D01*
X136548736Y-139899515D01*
X136548736Y-139899516D01*
X136469516Y-139978736D01*
X136469515Y-139978736D01*
X136413497Y-140075760D01*
X136413496Y-140075764D01*
X136384500Y-140183978D01*
X134074691Y-140183978D01*
X134126503Y-140094237D01*
X134155499Y-139986021D01*
X134155500Y-139986021D01*
X134155500Y-139873979D01*
X134155499Y-139873978D01*
X134126503Y-139765764D01*
X134126502Y-139765760D01*
X134070484Y-139668736D01*
X133991263Y-139589515D01*
X133894239Y-139533497D01*
X133894235Y-139533496D01*
X133786021Y-139504500D01*
X133786018Y-139504500D01*
X133673982Y-139504500D01*
X133673979Y-139504500D01*
X133565764Y-139533496D01*
X133565760Y-139533497D01*
X133489500Y-139577527D01*
X133452318Y-139582422D01*
X133440500Y-139577527D01*
X133364239Y-139533497D01*
X133364235Y-139533496D01*
X133256021Y-139504500D01*
X133256018Y-139504500D01*
X133143982Y-139504500D01*
X133143979Y-139504500D01*
X133035764Y-139533496D01*
X133035760Y-139533497D01*
X132938736Y-139589515D01*
X132938736Y-139589516D01*
X132859516Y-139668736D01*
X132859515Y-139668736D01*
X132812435Y-139750281D01*
X132782682Y-139773111D01*
X132745500Y-139768216D01*
X132727565Y-139750281D01*
X132680484Y-139668736D01*
X132601263Y-139589515D01*
X132504239Y-139533497D01*
X132504235Y-139533496D01*
X132396021Y-139504500D01*
X132396018Y-139504500D01*
X132283982Y-139504500D01*
X132283979Y-139504500D01*
X132175764Y-139533496D01*
X132175760Y-139533497D01*
X132099500Y-139577527D01*
X132062318Y-139582422D01*
X132050500Y-139577527D01*
X131974239Y-139533497D01*
X131974235Y-139533496D01*
X131866021Y-139504500D01*
X131866018Y-139504500D01*
X131753982Y-139504500D01*
X131753979Y-139504500D01*
X131645764Y-139533496D01*
X131645760Y-139533497D01*
X131548736Y-139589515D01*
X131548736Y-139589516D01*
X131469516Y-139668736D01*
X131469515Y-139668736D01*
X131413497Y-139765760D01*
X131413496Y-139765764D01*
X131384500Y-139873978D01*
X131110000Y-139873978D01*
X131110000Y-136773978D01*
X131354500Y-136773978D01*
X131354500Y-136886021D01*
X131383496Y-136994235D01*
X131383497Y-136994239D01*
X131427527Y-137070500D01*
X131432422Y-137107682D01*
X131427527Y-137119500D01*
X131383497Y-137195760D01*
X131383496Y-137195764D01*
X131354500Y-137303978D01*
X131354500Y-137416021D01*
X131383496Y-137524235D01*
X131383497Y-137524239D01*
X131439515Y-137621263D01*
X131518737Y-137700485D01*
X131554249Y-137720988D01*
X131615760Y-137756502D01*
X131615762Y-137756502D01*
X131615763Y-137756503D01*
X131701111Y-137779371D01*
X131723978Y-137785499D01*
X131723979Y-137785500D01*
X131723982Y-137785500D01*
X131836021Y-137785500D01*
X131836021Y-137785499D01*
X131944237Y-137756503D01*
X132041263Y-137700485D01*
X132045352Y-137696396D01*
X132080000Y-137682044D01*
X132114648Y-137696396D01*
X132118737Y-137700485D01*
X132154249Y-137720988D01*
X132215760Y-137756502D01*
X132215762Y-137756502D01*
X132215763Y-137756503D01*
X132301111Y-137779371D01*
X132323978Y-137785499D01*
X132323979Y-137785500D01*
X132323982Y-137785500D01*
X132436021Y-137785500D01*
X132436021Y-137785499D01*
X132544237Y-137756503D01*
X132641263Y-137700485D01*
X132720485Y-137621263D01*
X132732565Y-137600338D01*
X132762318Y-137577509D01*
X132799500Y-137582404D01*
X132817433Y-137600337D01*
X132829515Y-137621263D01*
X132908737Y-137700485D01*
X132944249Y-137720988D01*
X133005760Y-137756502D01*
X133005762Y-137756502D01*
X133005763Y-137756503D01*
X133091111Y-137779371D01*
X133113978Y-137785499D01*
X133113979Y-137785500D01*
X133113982Y-137785500D01*
X133226021Y-137785500D01*
X133226021Y-137785499D01*
X133334237Y-137756503D01*
X133431263Y-137700485D01*
X133435352Y-137696396D01*
X133470000Y-137682044D01*
X133504648Y-137696396D01*
X133508737Y-137700485D01*
X133544249Y-137720988D01*
X133605760Y-137756502D01*
X133605762Y-137756502D01*
X133605763Y-137756503D01*
X133691111Y-137779371D01*
X133713978Y-137785499D01*
X133713979Y-137785500D01*
X133713982Y-137785500D01*
X133826021Y-137785500D01*
X133826021Y-137785499D01*
X133934237Y-137756503D01*
X134031263Y-137700485D01*
X134110485Y-137621263D01*
X134166503Y-137524237D01*
X134195499Y-137416021D01*
X134195500Y-137416021D01*
X134195500Y-137303979D01*
X134195499Y-137303978D01*
X134178018Y-137238737D01*
X134166503Y-137195763D01*
X134122471Y-137119498D01*
X134121607Y-137112936D01*
X134117577Y-137107684D01*
X134119246Y-137094999D01*
X134119112Y-137093978D01*
X134484500Y-137093978D01*
X134484500Y-137206021D01*
X134513496Y-137314235D01*
X134513497Y-137314239D01*
X134569515Y-137411263D01*
X134648737Y-137490485D01*
X134666056Y-137500484D01*
X134745760Y-137546502D01*
X134745762Y-137546502D01*
X134745763Y-137546503D01*
X134818606Y-137566021D01*
X134853978Y-137575499D01*
X134853979Y-137575500D01*
X134853982Y-137575500D01*
X134966021Y-137575500D01*
X134966021Y-137575499D01*
X135074237Y-137546503D01*
X135171263Y-137490485D01*
X135207770Y-137453978D01*
X136074500Y-137453978D01*
X136074500Y-137566021D01*
X136103496Y-137674235D01*
X136103497Y-137674239D01*
X136150993Y-137756502D01*
X136159515Y-137771263D01*
X136238737Y-137850485D01*
X136274249Y-137870988D01*
X136335760Y-137906502D01*
X136335762Y-137906502D01*
X136335763Y-137906503D01*
X136406658Y-137925499D01*
X136443978Y-137935499D01*
X136443979Y-137935500D01*
X136443982Y-137935500D01*
X136556021Y-137935500D01*
X136556021Y-137935499D01*
X136664237Y-137906503D01*
X136761263Y-137850485D01*
X136840485Y-137771263D01*
X136896503Y-137674237D01*
X136925499Y-137566021D01*
X136925500Y-137566021D01*
X136925500Y-137453980D01*
X136925358Y-137453450D01*
X136925358Y-137453448D01*
X136922820Y-137443978D01*
X138774500Y-137443978D01*
X138774500Y-137556021D01*
X138803496Y-137664235D01*
X138803497Y-137664239D01*
X138856766Y-137756502D01*
X138859515Y-137761263D01*
X138938737Y-137840485D01*
X138956056Y-137850484D01*
X139035760Y-137896502D01*
X139035762Y-137896502D01*
X139035763Y-137896503D01*
X139073084Y-137906503D01*
X139143978Y-137925499D01*
X139143979Y-137925500D01*
X139143982Y-137925500D01*
X139256021Y-137925500D01*
X139256021Y-137925499D01*
X139364237Y-137896503D01*
X139403251Y-137873978D01*
X142194500Y-137873978D01*
X142194500Y-137986021D01*
X142223496Y-138094235D01*
X142223497Y-138094239D01*
X142279515Y-138191263D01*
X142358737Y-138270485D01*
X142369017Y-138276420D01*
X142455760Y-138326502D01*
X142455762Y-138326502D01*
X142455763Y-138326503D01*
X142541111Y-138349371D01*
X142563978Y-138355499D01*
X142563979Y-138355500D01*
X142563982Y-138355500D01*
X142676021Y-138355500D01*
X142676021Y-138355499D01*
X142784237Y-138326503D01*
X142881263Y-138270485D01*
X142960485Y-138191263D01*
X143016503Y-138094237D01*
X143045499Y-137986021D01*
X143045500Y-137986021D01*
X143045500Y-137873979D01*
X143045499Y-137873978D01*
X143017977Y-137771264D01*
X143016503Y-137765763D01*
X143016502Y-137765762D01*
X143016502Y-137765760D01*
X142968168Y-137682044D01*
X142960485Y-137668737D01*
X142881263Y-137589515D01*
X142874307Y-137585499D01*
X142784239Y-137533497D01*
X142784235Y-137533496D01*
X142676021Y-137504500D01*
X142676018Y-137504500D01*
X142563982Y-137504500D01*
X142563979Y-137504500D01*
X142455764Y-137533496D01*
X142455760Y-137533497D01*
X142358736Y-137589515D01*
X142358736Y-137589516D01*
X142279516Y-137668736D01*
X142279515Y-137668736D01*
X142223497Y-137765760D01*
X142223496Y-137765764D01*
X142194500Y-137873978D01*
X139403251Y-137873978D01*
X139461263Y-137840485D01*
X139540485Y-137761263D01*
X139590728Y-137674239D01*
X139596502Y-137664239D01*
X139596502Y-137664238D01*
X139596503Y-137664237D01*
X139625499Y-137556021D01*
X139625500Y-137556021D01*
X139625500Y-137443979D01*
X139625499Y-137443978D01*
X139599182Y-137345763D01*
X139596503Y-137335763D01*
X139596502Y-137335762D01*
X139596502Y-137335760D01*
X139560988Y-137274249D01*
X139540485Y-137238737D01*
X139461263Y-137159515D01*
X139425160Y-137138671D01*
X139365072Y-137103978D01*
X142924500Y-137103978D01*
X142924500Y-137216021D01*
X142953496Y-137324235D01*
X142953497Y-137324239D01*
X143009515Y-137421263D01*
X143088737Y-137500485D01*
X143124249Y-137520988D01*
X143185760Y-137556502D01*
X143185762Y-137556502D01*
X143185763Y-137556503D01*
X143221274Y-137566018D01*
X143293978Y-137585499D01*
X143293979Y-137585500D01*
X143293982Y-137585500D01*
X143406021Y-137585500D01*
X143406021Y-137585499D01*
X143514237Y-137556503D01*
X143611263Y-137500485D01*
X143690485Y-137421263D01*
X143746503Y-137324237D01*
X143775499Y-137216021D01*
X143775500Y-137216021D01*
X143775500Y-137103979D01*
X143775499Y-137103978D01*
X143758104Y-137039059D01*
X143746503Y-136995763D01*
X143746502Y-136995762D01*
X143746502Y-136995760D01*
X143704545Y-136923090D01*
X143690485Y-136898737D01*
X143611263Y-136819515D01*
X143593946Y-136809517D01*
X143514239Y-136763497D01*
X143514235Y-136763496D01*
X143406021Y-136734500D01*
X143406018Y-136734500D01*
X143293982Y-136734500D01*
X143293979Y-136734500D01*
X143185764Y-136763496D01*
X143185760Y-136763497D01*
X143088736Y-136819515D01*
X143088736Y-136819516D01*
X143009516Y-136898736D01*
X143009515Y-136898736D01*
X142953497Y-136995760D01*
X142953496Y-136995764D01*
X142924500Y-137103978D01*
X139365072Y-137103978D01*
X139364239Y-137103497D01*
X139364235Y-137103496D01*
X139256021Y-137074500D01*
X139256018Y-137074500D01*
X139143982Y-137074500D01*
X139143979Y-137074500D01*
X139035764Y-137103496D01*
X139035760Y-137103497D01*
X138938736Y-137159515D01*
X138938736Y-137159516D01*
X138859516Y-137238736D01*
X138859515Y-137238736D01*
X138803497Y-137335760D01*
X138803496Y-137335764D01*
X138774500Y-137443978D01*
X136922820Y-137443978D01*
X136896503Y-137345764D01*
X136896502Y-137345760D01*
X136840484Y-137248736D01*
X136761263Y-137169515D01*
X136664239Y-137113497D01*
X136664235Y-137113496D01*
X136556021Y-137084500D01*
X136556018Y-137084500D01*
X136443982Y-137084500D01*
X136443979Y-137084500D01*
X136335764Y-137113496D01*
X136335760Y-137113497D01*
X136238736Y-137169515D01*
X136238736Y-137169516D01*
X136159516Y-137248736D01*
X136159515Y-137248736D01*
X136103497Y-137345760D01*
X136103496Y-137345764D01*
X136074500Y-137453978D01*
X135207770Y-137453978D01*
X135250485Y-137411263D01*
X135300728Y-137324239D01*
X135306502Y-137314239D01*
X135306502Y-137314238D01*
X135306503Y-137314237D01*
X135335499Y-137206021D01*
X135335500Y-137206021D01*
X135335500Y-137093979D01*
X135335499Y-137093978D01*
X135328075Y-137066270D01*
X135306503Y-136985763D01*
X135291784Y-136960270D01*
X135286889Y-136923090D01*
X135309716Y-136893339D01*
X135401263Y-136840485D01*
X135480485Y-136761263D01*
X135528997Y-136677237D01*
X135536502Y-136664239D01*
X135536502Y-136664238D01*
X135536503Y-136664237D01*
X135565499Y-136556021D01*
X135565500Y-136556021D01*
X135565500Y-136443979D01*
X135565499Y-136443978D01*
X135536503Y-136335764D01*
X135536502Y-136335760D01*
X135480484Y-136238736D01*
X135401263Y-136159515D01*
X135304239Y-136103497D01*
X135304235Y-136103496D01*
X135196021Y-136074500D01*
X135196018Y-136074500D01*
X135083982Y-136074500D01*
X135083979Y-136074500D01*
X134975764Y-136103496D01*
X134975760Y-136103497D01*
X134878736Y-136159515D01*
X134878736Y-136159516D01*
X134799516Y-136238736D01*
X134799515Y-136238736D01*
X134743497Y-136335760D01*
X134743496Y-136335764D01*
X134714500Y-136443978D01*
X134714500Y-136556021D01*
X134743495Y-136664232D01*
X134743497Y-136664238D01*
X134758214Y-136689727D01*
X134763109Y-136726909D01*
X134740280Y-136756662D01*
X134648734Y-136809517D01*
X134569516Y-136888736D01*
X134569515Y-136888736D01*
X134513497Y-136985760D01*
X134513496Y-136985764D01*
X134484500Y-137093978D01*
X134119112Y-137093978D01*
X134118848Y-137091975D01*
X134118349Y-137090770D01*
X134118577Y-137089917D01*
X134117577Y-137082318D01*
X134122468Y-137070506D01*
X134166503Y-136994237D01*
X134195499Y-136886021D01*
X134195500Y-136886021D01*
X134195500Y-136773979D01*
X134195499Y-136773978D01*
X134166503Y-136665764D01*
X134166502Y-136665760D01*
X134110484Y-136568736D01*
X134031263Y-136489515D01*
X133934239Y-136433497D01*
X133934235Y-136433496D01*
X133826021Y-136404500D01*
X133826018Y-136404500D01*
X133713982Y-136404500D01*
X133713979Y-136404500D01*
X133605764Y-136433496D01*
X133605760Y-136433497D01*
X133508736Y-136489515D01*
X133508736Y-136489516D01*
X133504648Y-136493604D01*
X133470000Y-136507956D01*
X133435352Y-136493604D01*
X133431263Y-136489515D01*
X133334239Y-136433497D01*
X133334235Y-136433496D01*
X133226021Y-136404500D01*
X133226018Y-136404500D01*
X133113982Y-136404500D01*
X133113979Y-136404500D01*
X133005764Y-136433496D01*
X133005760Y-136433497D01*
X132908736Y-136489515D01*
X132908736Y-136489516D01*
X132829517Y-136568734D01*
X132829515Y-136568736D01*
X132829515Y-136568737D01*
X132817433Y-136589661D01*
X132787681Y-136612491D01*
X132750499Y-136607595D01*
X132732566Y-136589662D01*
X132720485Y-136568737D01*
X132641263Y-136489515D01*
X132625649Y-136480500D01*
X132544239Y-136433497D01*
X132544235Y-136433496D01*
X132436021Y-136404500D01*
X132436018Y-136404500D01*
X132323982Y-136404500D01*
X132323979Y-136404500D01*
X132215764Y-136433496D01*
X132215760Y-136433497D01*
X132118736Y-136489515D01*
X132118736Y-136489516D01*
X132114648Y-136493604D01*
X132080000Y-136507956D01*
X132045352Y-136493604D01*
X132041263Y-136489515D01*
X131944239Y-136433497D01*
X131944235Y-136433496D01*
X131836021Y-136404500D01*
X131836018Y-136404500D01*
X131723982Y-136404500D01*
X131723979Y-136404500D01*
X131615764Y-136433496D01*
X131615760Y-136433497D01*
X131518736Y-136489515D01*
X131518736Y-136489516D01*
X131439516Y-136568736D01*
X131439515Y-136568736D01*
X131383497Y-136665760D01*
X131383496Y-136665764D01*
X131354500Y-136773978D01*
X131110000Y-136773978D01*
X131110000Y-135973978D01*
X142914500Y-135973978D01*
X142914500Y-136086021D01*
X142943496Y-136194235D01*
X142943497Y-136194239D01*
X142973369Y-136245977D01*
X142999515Y-136291263D01*
X143078737Y-136370485D01*
X143114249Y-136390988D01*
X143175760Y-136426502D01*
X143175762Y-136426502D01*
X143175763Y-136426503D01*
X143226620Y-136440130D01*
X143283978Y-136455499D01*
X143283979Y-136455500D01*
X143283982Y-136455500D01*
X143396021Y-136455500D01*
X143396021Y-136455499D01*
X143504237Y-136426503D01*
X143601263Y-136370485D01*
X143680485Y-136291263D01*
X143736503Y-136194237D01*
X143765499Y-136086021D01*
X143765500Y-136086021D01*
X143765500Y-135973979D01*
X143765499Y-135973978D01*
X143759371Y-135951111D01*
X143736503Y-135865763D01*
X143736502Y-135865762D01*
X143736502Y-135865760D01*
X143680484Y-135768736D01*
X143601263Y-135689515D01*
X143504239Y-135633497D01*
X143504235Y-135633496D01*
X143396021Y-135604500D01*
X143396018Y-135604500D01*
X143283982Y-135604500D01*
X143283979Y-135604500D01*
X143175764Y-135633496D01*
X143175760Y-135633497D01*
X143078736Y-135689515D01*
X143078736Y-135689516D01*
X142999516Y-135768736D01*
X142999515Y-135768736D01*
X142943497Y-135865760D01*
X142943496Y-135865764D01*
X142914500Y-135973978D01*
X131110000Y-135973978D01*
X131110000Y-135027269D01*
X136229500Y-135027269D01*
X136229500Y-135132730D01*
X136256792Y-135234585D01*
X136256793Y-135234589D01*
X136292540Y-135296503D01*
X136309520Y-135325913D01*
X136384087Y-135400480D01*
X136417513Y-135419778D01*
X136475410Y-135453206D01*
X136475412Y-135453206D01*
X136475413Y-135453207D01*
X136555747Y-135474732D01*
X136577269Y-135480499D01*
X136577270Y-135480500D01*
X136577273Y-135480500D01*
X136682730Y-135480500D01*
X136682730Y-135480499D01*
X136784587Y-135453207D01*
X136875913Y-135400480D01*
X136950480Y-135325913D01*
X137003207Y-135234587D01*
X137030499Y-135132730D01*
X137030500Y-135132730D01*
X137030500Y-135027270D01*
X137030499Y-135027269D01*
X137729500Y-135027269D01*
X137729500Y-135132730D01*
X137756792Y-135234585D01*
X137756793Y-135234589D01*
X137792540Y-135296503D01*
X137809520Y-135325913D01*
X137884087Y-135400480D01*
X137917513Y-135419778D01*
X137975410Y-135453206D01*
X137975412Y-135453206D01*
X137975413Y-135453207D01*
X138055747Y-135474732D01*
X138077269Y-135480499D01*
X138077270Y-135480500D01*
X138077273Y-135480500D01*
X138182730Y-135480500D01*
X138182730Y-135480499D01*
X138284587Y-135453207D01*
X138375913Y-135400480D01*
X138450480Y-135325913D01*
X138503207Y-135234587D01*
X138530499Y-135132730D01*
X138530500Y-135132730D01*
X138530500Y-135027270D01*
X138530499Y-135027269D01*
X138511407Y-134956018D01*
X138503207Y-134925413D01*
X138456191Y-134843978D01*
X142914500Y-134843978D01*
X142914500Y-134956021D01*
X142943496Y-135064235D01*
X142943497Y-135064239D01*
X142983041Y-135132730D01*
X142999515Y-135161263D01*
X143078737Y-135240485D01*
X143114249Y-135260988D01*
X143175760Y-135296502D01*
X143175762Y-135296502D01*
X143175763Y-135296503D01*
X143261111Y-135319371D01*
X143283978Y-135325499D01*
X143283979Y-135325500D01*
X143283982Y-135325500D01*
X143396021Y-135325500D01*
X143396021Y-135325499D01*
X143504237Y-135296503D01*
X143601263Y-135240485D01*
X143680485Y-135161263D01*
X143736503Y-135064237D01*
X143765499Y-134956021D01*
X143765500Y-134956021D01*
X143765500Y-134843979D01*
X143765499Y-134843978D01*
X143759371Y-134821111D01*
X143736503Y-134735763D01*
X143736502Y-134735762D01*
X143736502Y-134735760D01*
X143680484Y-134638736D01*
X143601263Y-134559515D01*
X143504239Y-134503497D01*
X143504235Y-134503496D01*
X143396021Y-134474500D01*
X143396018Y-134474500D01*
X143283982Y-134474500D01*
X143283979Y-134474500D01*
X143175764Y-134503496D01*
X143175760Y-134503497D01*
X143078736Y-134559515D01*
X143078736Y-134559516D01*
X142999516Y-134638736D01*
X142999515Y-134638736D01*
X142943497Y-134735760D01*
X142943496Y-134735764D01*
X142914500Y-134843978D01*
X138456191Y-134843978D01*
X138450480Y-134834087D01*
X138375913Y-134759520D01*
X138284589Y-134706793D01*
X138284585Y-134706792D01*
X138182730Y-134679500D01*
X138182727Y-134679500D01*
X138077273Y-134679500D01*
X138077270Y-134679500D01*
X137975414Y-134706792D01*
X137975410Y-134706793D01*
X137884086Y-134759520D01*
X137884086Y-134759521D01*
X137809521Y-134834086D01*
X137809520Y-134834086D01*
X137756793Y-134925410D01*
X137756792Y-134925414D01*
X137729500Y-135027269D01*
X137030499Y-135027269D01*
X137011407Y-134956018D01*
X137003207Y-134925413D01*
X137003206Y-134925411D01*
X137003206Y-134925410D01*
X136956191Y-134843979D01*
X136950480Y-134834087D01*
X136875913Y-134759520D01*
X136784589Y-134706793D01*
X136784585Y-134706792D01*
X136682730Y-134679500D01*
X136682727Y-134679500D01*
X136577273Y-134679500D01*
X136577270Y-134679500D01*
X136475414Y-134706792D01*
X136475410Y-134706793D01*
X136384086Y-134759520D01*
X136384086Y-134759521D01*
X136309521Y-134834086D01*
X136309520Y-134834086D01*
X136256793Y-134925410D01*
X136256792Y-134925414D01*
X136229500Y-135027269D01*
X131110000Y-135027269D01*
X131110000Y-134277269D01*
X136979500Y-134277269D01*
X136979500Y-134382730D01*
X137006792Y-134484585D01*
X137006793Y-134484589D01*
X137050053Y-134559516D01*
X137059520Y-134575913D01*
X137134087Y-134650480D01*
X137167513Y-134669778D01*
X137225410Y-134703206D01*
X137225412Y-134703206D01*
X137225413Y-134703207D01*
X137305747Y-134724732D01*
X137327269Y-134730499D01*
X137327270Y-134730500D01*
X137327273Y-134730500D01*
X137432730Y-134730500D01*
X137432730Y-134730499D01*
X137534587Y-134703207D01*
X137625913Y-134650480D01*
X137700480Y-134575913D01*
X137753207Y-134484587D01*
X137780499Y-134382730D01*
X137780500Y-134382730D01*
X137780500Y-134277270D01*
X137780499Y-134277269D01*
X137774732Y-134255747D01*
X137753207Y-134175413D01*
X137753206Y-134175412D01*
X137753206Y-134175410D01*
X137712834Y-134105485D01*
X137700480Y-134084087D01*
X137625913Y-134009520D01*
X137534589Y-133956793D01*
X137534585Y-133956792D01*
X137432730Y-133929500D01*
X137432727Y-133929500D01*
X137327273Y-133929500D01*
X137327270Y-133929500D01*
X137225414Y-133956792D01*
X137225410Y-133956793D01*
X137134086Y-134009520D01*
X137134086Y-134009521D01*
X137059521Y-134084086D01*
X137059520Y-134084086D01*
X137006793Y-134175410D01*
X137006792Y-134175414D01*
X136979500Y-134277269D01*
X131110000Y-134277269D01*
X131110000Y-134190296D01*
X131124352Y-134155648D01*
X131752731Y-133527269D01*
X136229500Y-133527269D01*
X136229500Y-133632730D01*
X136256792Y-133734585D01*
X136256793Y-133734589D01*
X136306649Y-133820941D01*
X136309520Y-133825913D01*
X136384087Y-133900480D01*
X136417513Y-133919778D01*
X136475410Y-133953206D01*
X136475412Y-133953206D01*
X136475413Y-133953207D01*
X136555747Y-133974732D01*
X136577269Y-133980499D01*
X136577270Y-133980500D01*
X136577273Y-133980500D01*
X136682730Y-133980500D01*
X136682730Y-133980499D01*
X136784587Y-133953207D01*
X136875913Y-133900480D01*
X136950480Y-133825913D01*
X137003207Y-133734587D01*
X137030499Y-133632730D01*
X137030500Y-133632730D01*
X137030500Y-133527270D01*
X137030499Y-133527269D01*
X137729500Y-133527269D01*
X137729500Y-133632730D01*
X137756792Y-133734585D01*
X137756793Y-133734589D01*
X137806649Y-133820941D01*
X137809520Y-133825913D01*
X137884087Y-133900480D01*
X137917513Y-133919778D01*
X137975410Y-133953206D01*
X137975412Y-133953206D01*
X137975413Y-133953207D01*
X138055747Y-133974732D01*
X138077269Y-133980499D01*
X138077270Y-133980500D01*
X138077273Y-133980500D01*
X138182730Y-133980500D01*
X138182730Y-133980499D01*
X138284587Y-133953207D01*
X138375913Y-133900480D01*
X138450480Y-133825913D01*
X138503207Y-133734587D01*
X138510069Y-133708978D01*
X142874500Y-133708978D01*
X142874500Y-133821021D01*
X142903496Y-133929235D01*
X142903497Y-133929239D01*
X142949848Y-134009520D01*
X142959515Y-134026263D01*
X143038737Y-134105485D01*
X143074249Y-134125988D01*
X143135760Y-134161502D01*
X143135762Y-134161502D01*
X143135763Y-134161503D01*
X143187680Y-134175414D01*
X143243978Y-134190499D01*
X143243979Y-134190500D01*
X143243982Y-134190500D01*
X143356021Y-134190500D01*
X143356021Y-134190499D01*
X143464237Y-134161503D01*
X143561263Y-134105485D01*
X143640485Y-134026263D01*
X143696503Y-133929237D01*
X143725499Y-133821021D01*
X143725500Y-133821021D01*
X143725500Y-133708979D01*
X143725499Y-133708978D01*
X143696503Y-133600764D01*
X143696502Y-133600760D01*
X143660988Y-133539249D01*
X143640485Y-133503737D01*
X143561263Y-133424515D01*
X143464239Y-133368497D01*
X143464235Y-133368496D01*
X143356021Y-133339500D01*
X143356018Y-133339500D01*
X143243982Y-133339500D01*
X143243979Y-133339500D01*
X143135764Y-133368496D01*
X143135760Y-133368497D01*
X143038736Y-133424515D01*
X143038736Y-133424516D01*
X142959516Y-133503736D01*
X142959515Y-133503736D01*
X142903497Y-133600760D01*
X142903496Y-133600764D01*
X142874500Y-133708978D01*
X138510069Y-133708978D01*
X138510873Y-133705977D01*
X138514327Y-133693088D01*
X138530499Y-133632730D01*
X138530500Y-133632730D01*
X138530500Y-133527270D01*
X138530499Y-133527269D01*
X138503207Y-133425414D01*
X138503206Y-133425410D01*
X138450479Y-133334086D01*
X138375913Y-133259520D01*
X138284589Y-133206793D01*
X138284585Y-133206792D01*
X138182730Y-133179500D01*
X138182727Y-133179500D01*
X138077273Y-133179500D01*
X138077270Y-133179500D01*
X137975414Y-133206792D01*
X137975410Y-133206793D01*
X137884086Y-133259520D01*
X137884086Y-133259521D01*
X137809521Y-133334086D01*
X137809520Y-133334086D01*
X137756793Y-133425410D01*
X137756792Y-133425414D01*
X137729500Y-133527269D01*
X137030499Y-133527269D01*
X137003207Y-133425414D01*
X137003206Y-133425410D01*
X136950479Y-133334086D01*
X136875913Y-133259520D01*
X136784589Y-133206793D01*
X136784585Y-133206792D01*
X136682730Y-133179500D01*
X136682727Y-133179500D01*
X136577273Y-133179500D01*
X136577270Y-133179500D01*
X136475414Y-133206792D01*
X136475410Y-133206793D01*
X136384086Y-133259520D01*
X136384086Y-133259521D01*
X136309521Y-133334086D01*
X136309520Y-133334086D01*
X136256793Y-133425410D01*
X136256792Y-133425414D01*
X136229500Y-133527269D01*
X131752731Y-133527269D01*
X133076022Y-132203978D01*
X139064500Y-132203978D01*
X139064500Y-132316021D01*
X139093496Y-132424235D01*
X139093497Y-132424239D01*
X139123246Y-132475764D01*
X139149515Y-132521263D01*
X139228737Y-132600485D01*
X139264249Y-132620988D01*
X139325760Y-132656502D01*
X139325762Y-132656502D01*
X139325763Y-132656503D01*
X139411111Y-132679371D01*
X139433978Y-132685499D01*
X139433979Y-132685500D01*
X139433982Y-132685500D01*
X139546021Y-132685500D01*
X139546021Y-132685499D01*
X139654237Y-132656503D01*
X139751263Y-132600485D01*
X139767770Y-132583978D01*
X142904500Y-132583978D01*
X142904500Y-132696021D01*
X142933496Y-132804235D01*
X142933497Y-132804239D01*
X142989515Y-132901263D01*
X143068737Y-132980485D01*
X143091219Y-132993465D01*
X143165760Y-133036502D01*
X143165762Y-133036502D01*
X143165763Y-133036503D01*
X143251111Y-133059371D01*
X143273978Y-133065499D01*
X143273979Y-133065500D01*
X143273982Y-133065500D01*
X143386021Y-133065500D01*
X143386021Y-133065499D01*
X143494237Y-133036503D01*
X143591263Y-132980485D01*
X143670485Y-132901263D01*
X143726503Y-132804237D01*
X143755499Y-132696021D01*
X143755500Y-132696021D01*
X143755500Y-132583979D01*
X143755499Y-132583978D01*
X143738695Y-132521264D01*
X143726503Y-132475763D01*
X143726502Y-132475762D01*
X143726502Y-132475760D01*
X143670484Y-132378736D01*
X143591263Y-132299515D01*
X143494239Y-132243497D01*
X143494235Y-132243496D01*
X143386021Y-132214500D01*
X143386018Y-132214500D01*
X143273982Y-132214500D01*
X143273979Y-132214500D01*
X143165764Y-132243496D01*
X143165760Y-132243497D01*
X143068736Y-132299515D01*
X143068736Y-132299516D01*
X142989516Y-132378736D01*
X142989515Y-132378736D01*
X142933497Y-132475760D01*
X142933496Y-132475764D01*
X142904500Y-132583978D01*
X139767770Y-132583978D01*
X139830485Y-132521263D01*
X139886503Y-132424237D01*
X139915499Y-132316021D01*
X139915500Y-132316021D01*
X139915500Y-132203979D01*
X139915499Y-132203978D01*
X139886503Y-132095764D01*
X139886502Y-132095760D01*
X139830484Y-131998736D01*
X139751263Y-131919515D01*
X139654239Y-131863497D01*
X139654235Y-131863496D01*
X139546021Y-131834500D01*
X139546018Y-131834500D01*
X139433982Y-131834500D01*
X139433979Y-131834500D01*
X139325764Y-131863496D01*
X139325760Y-131863497D01*
X139228736Y-131919515D01*
X139228736Y-131919516D01*
X139149516Y-131998736D01*
X139149515Y-131998736D01*
X139093497Y-132095760D01*
X139093496Y-132095764D01*
X139064500Y-132203978D01*
X133076022Y-132203978D01*
X133665648Y-131614352D01*
X133700296Y-131600000D01*
X134189999Y-131600000D01*
X134190000Y-131600000D01*
X134466022Y-131323978D01*
X139574500Y-131323978D01*
X139574500Y-131436021D01*
X139603496Y-131544235D01*
X139603497Y-131544239D01*
X139643978Y-131614352D01*
X139659515Y-131641263D01*
X139738737Y-131720485D01*
X139774249Y-131740988D01*
X139835760Y-131776502D01*
X139835762Y-131776502D01*
X139835763Y-131776503D01*
X139921111Y-131799371D01*
X139943978Y-131805499D01*
X139943979Y-131805500D01*
X139943982Y-131805500D01*
X140056021Y-131805500D01*
X140056021Y-131805499D01*
X140164237Y-131776503D01*
X140261263Y-131720485D01*
X140340485Y-131641263D01*
X140396503Y-131544237D01*
X140420687Y-131453982D01*
X140420688Y-131453978D01*
X142904500Y-131453978D01*
X142904500Y-131566021D01*
X142933496Y-131674235D01*
X142933497Y-131674239D01*
X142960198Y-131720485D01*
X142989515Y-131771263D01*
X143068737Y-131850485D01*
X143104249Y-131870988D01*
X143165760Y-131906502D01*
X143165762Y-131906502D01*
X143165763Y-131906503D01*
X143214325Y-131919515D01*
X143273978Y-131935499D01*
X143273979Y-131935500D01*
X143273982Y-131935500D01*
X143386021Y-131935500D01*
X143386021Y-131935499D01*
X143494237Y-131906503D01*
X143591263Y-131850485D01*
X143670485Y-131771263D01*
X143726503Y-131674237D01*
X143755499Y-131566021D01*
X143755500Y-131566021D01*
X143755500Y-131453979D01*
X143755499Y-131453978D01*
X143741170Y-131400500D01*
X143726503Y-131345763D01*
X143726502Y-131345762D01*
X143726502Y-131345760D01*
X143670484Y-131248736D01*
X143591263Y-131169515D01*
X143494239Y-131113497D01*
X143494235Y-131113496D01*
X143386021Y-131084500D01*
X143386018Y-131084500D01*
X143273982Y-131084500D01*
X143273979Y-131084500D01*
X143165764Y-131113496D01*
X143165760Y-131113497D01*
X143068736Y-131169515D01*
X143068736Y-131169516D01*
X142989516Y-131248736D01*
X142989515Y-131248736D01*
X142933497Y-131345760D01*
X142933496Y-131345764D01*
X142904500Y-131453978D01*
X140420688Y-131453978D01*
X140424946Y-131438088D01*
X140424946Y-131438086D01*
X140425500Y-131436018D01*
X140425500Y-131323979D01*
X140425499Y-131323978D01*
X140396503Y-131215764D01*
X140396502Y-131215760D01*
X140340484Y-131118736D01*
X140261263Y-131039515D01*
X140164239Y-130983497D01*
X140164235Y-130983496D01*
X140056021Y-130954500D01*
X140056018Y-130954500D01*
X139943982Y-130954500D01*
X139943979Y-130954500D01*
X139835764Y-130983496D01*
X139835760Y-130983497D01*
X139738736Y-131039515D01*
X139738736Y-131039516D01*
X139659516Y-131118736D01*
X139659515Y-131118736D01*
X139603497Y-131215760D01*
X139603496Y-131215764D01*
X139574500Y-131323978D01*
X134466022Y-131323978D01*
X135166022Y-130623978D01*
X140284500Y-130623978D01*
X140284500Y-130736021D01*
X140313496Y-130844235D01*
X140313497Y-130844239D01*
X140369515Y-130941263D01*
X140448737Y-131020485D01*
X140481698Y-131039515D01*
X140545760Y-131076502D01*
X140545762Y-131076502D01*
X140545763Y-131076503D01*
X140631111Y-131099371D01*
X140653978Y-131105499D01*
X140653979Y-131105500D01*
X140653982Y-131105500D01*
X140766021Y-131105500D01*
X140766021Y-131105499D01*
X140874237Y-131076503D01*
X140971263Y-131020485D01*
X141050485Y-130941263D01*
X141106503Y-130844237D01*
X141107670Y-130839880D01*
X141130499Y-130810129D01*
X141167682Y-130805233D01*
X141197435Y-130828063D01*
X141202328Y-130839875D01*
X141203497Y-130844237D01*
X141203498Y-130844240D01*
X141205437Y-130847598D01*
X141259515Y-130941263D01*
X141338737Y-131020485D01*
X141371698Y-131039515D01*
X141435760Y-131076502D01*
X141435762Y-131076502D01*
X141435763Y-131076503D01*
X141521111Y-131099371D01*
X141543978Y-131105499D01*
X141543979Y-131105500D01*
X141543982Y-131105500D01*
X141656021Y-131105500D01*
X141656021Y-131105499D01*
X141764237Y-131076503D01*
X141861263Y-131020485D01*
X141940485Y-130941263D01*
X141996503Y-130844237D01*
X142025499Y-130736021D01*
X142025500Y-130736021D01*
X142025500Y-130623979D01*
X142025499Y-130623978D01*
X142164500Y-130623978D01*
X142164500Y-130736021D01*
X142193496Y-130844235D01*
X142193497Y-130844239D01*
X142249515Y-130941263D01*
X142328737Y-131020485D01*
X142361698Y-131039515D01*
X142425760Y-131076502D01*
X142425762Y-131076502D01*
X142425763Y-131076503D01*
X142511111Y-131099371D01*
X142533978Y-131105499D01*
X142533979Y-131105500D01*
X142533982Y-131105500D01*
X142646021Y-131105500D01*
X142646021Y-131105499D01*
X142754237Y-131076503D01*
X142851263Y-131020485D01*
X142930485Y-130941263D01*
X142986503Y-130844237D01*
X143015499Y-130736021D01*
X143015500Y-130736021D01*
X143015500Y-130623979D01*
X143015499Y-130623978D01*
X142986503Y-130515764D01*
X142986502Y-130515760D01*
X142930484Y-130418736D01*
X142851263Y-130339515D01*
X142754239Y-130283497D01*
X142754235Y-130283496D01*
X142646021Y-130254500D01*
X142646018Y-130254500D01*
X142533982Y-130254500D01*
X142533979Y-130254500D01*
X142425764Y-130283496D01*
X142425760Y-130283497D01*
X142328736Y-130339515D01*
X142328736Y-130339516D01*
X142249516Y-130418736D01*
X142249515Y-130418736D01*
X142193497Y-130515760D01*
X142193496Y-130515764D01*
X142164500Y-130623978D01*
X142025499Y-130623978D01*
X141996503Y-130515764D01*
X141996502Y-130515760D01*
X141940484Y-130418736D01*
X141861263Y-130339515D01*
X141764239Y-130283497D01*
X141764235Y-130283496D01*
X141656021Y-130254500D01*
X141656018Y-130254500D01*
X141543982Y-130254500D01*
X141543979Y-130254500D01*
X141435764Y-130283496D01*
X141435760Y-130283497D01*
X141338736Y-130339515D01*
X141338736Y-130339516D01*
X141259516Y-130418736D01*
X141259515Y-130418736D01*
X141203497Y-130515760D01*
X141203497Y-130515762D01*
X141202330Y-130520118D01*
X141179499Y-130549871D01*
X141142317Y-130554765D01*
X141112564Y-130531934D01*
X141107670Y-130520118D01*
X141106503Y-130515764D01*
X141106503Y-130515763D01*
X141106502Y-130515761D01*
X141106502Y-130515760D01*
X141050484Y-130418736D01*
X140971263Y-130339515D01*
X140874239Y-130283497D01*
X140874235Y-130283496D01*
X140766021Y-130254500D01*
X140766018Y-130254500D01*
X140653982Y-130254500D01*
X140653979Y-130254500D01*
X140545764Y-130283496D01*
X140545760Y-130283497D01*
X140448736Y-130339515D01*
X140448736Y-130339516D01*
X140369516Y-130418736D01*
X140369515Y-130418736D01*
X140313497Y-130515760D01*
X140313496Y-130515764D01*
X140284500Y-130623978D01*
X135166022Y-130623978D01*
X136250845Y-129539154D01*
X136285490Y-129524804D01*
X136291894Y-129525224D01*
X136293976Y-129525498D01*
X136293982Y-129525500D01*
X136293988Y-129525500D01*
X136406021Y-129525500D01*
X136406021Y-129525499D01*
X136514237Y-129496503D01*
X136611263Y-129440485D01*
X136690485Y-129361263D01*
X136746503Y-129264237D01*
X136775499Y-129156021D01*
X136775500Y-129156021D01*
X136775500Y-129043987D01*
X136775500Y-129043982D01*
X136775498Y-129043977D01*
X136775224Y-129041894D01*
X136775500Y-129040863D01*
X136775500Y-129040770D01*
X136775525Y-129040770D01*
X136784925Y-129005667D01*
X136789141Y-129000858D01*
X137000000Y-128790000D01*
X137000000Y-126913978D01*
X138144500Y-126913978D01*
X138144500Y-127026021D01*
X138173496Y-127134235D01*
X138173497Y-127134239D01*
X138220993Y-127216503D01*
X138229515Y-127231263D01*
X138308737Y-127310485D01*
X138344249Y-127330988D01*
X138405760Y-127366502D01*
X138405762Y-127366502D01*
X138405763Y-127366503D01*
X138491111Y-127389371D01*
X138513978Y-127395499D01*
X138513979Y-127395500D01*
X138513982Y-127395500D01*
X138626021Y-127395500D01*
X138626021Y-127395499D01*
X138734237Y-127366503D01*
X138831263Y-127310485D01*
X138910485Y-127231263D01*
X138966503Y-127134237D01*
X138995499Y-127026021D01*
X138995500Y-127026021D01*
X138995500Y-126913979D01*
X138995499Y-126913978D01*
X138966503Y-126805764D01*
X138966502Y-126805760D01*
X138910484Y-126708736D01*
X138831263Y-126629515D01*
X138734239Y-126573497D01*
X138734235Y-126573496D01*
X138626021Y-126544500D01*
X138626018Y-126544500D01*
X138513982Y-126544500D01*
X138513979Y-126544500D01*
X138405764Y-126573496D01*
X138405760Y-126573497D01*
X138308736Y-126629515D01*
X138308736Y-126629516D01*
X138229516Y-126708736D01*
X138229515Y-126708736D01*
X138173497Y-126805760D01*
X138173496Y-126805764D01*
X138144500Y-126913978D01*
X137000000Y-126913978D01*
X137000000Y-126550296D01*
X137014352Y-126515648D01*
X137535648Y-125994352D01*
X137570296Y-125980000D01*
X143989704Y-125980000D01*
X144024352Y-125994352D01*
G37*
%TD.AperFunction*%
%TD*%
M02*
