%TF.GenerationSoftware,KiCad,Pcbnew,9.0.3*%
%TF.CreationDate,2025-08-06T00:17:30-04:00*%
%TF.ProjectId,M.2 to USB,4d2e3220-746f-4205-9553-422e6b696361,rev?*%
%TF.SameCoordinates,Original*%
%TF.FileFunction,Paste,Top*%
%TF.FilePolarity,Positive*%
%FSLAX46Y46*%
G04 Gerber Fmt 4.6, Leading zero omitted, Abs format (unit mm)*
G04 Created by KiCad (PCBNEW 9.0.3) date 2025-08-06 00:17:30*
%MOMM*%
%LPD*%
G01*
G04 APERTURE LIST*
G04 Aperture macros list*
%AMRoundRect*
0 Rectangle with rounded corners*
0 $1 Rounding radius*
0 $2 $3 $4 $5 $6 $7 $8 $9 X,Y pos of 4 corners*
0 Add a 4 corners polygon primitive as box body*
4,1,4,$2,$3,$4,$5,$6,$7,$8,$9,$2,$3,0*
0 Add four circle primitives for the rounded corners*
1,1,$1+$1,$2,$3*
1,1,$1+$1,$4,$5*
1,1,$1+$1,$6,$7*
1,1,$1+$1,$8,$9*
0 Add four rect primitives between the rounded corners*
20,1,$1+$1,$2,$3,$4,$5,0*
20,1,$1+$1,$4,$5,$6,$7,0*
20,1,$1+$1,$6,$7,$8,$9,0*
20,1,$1+$1,$8,$9,$2,$3,0*%
%AMOutline5P*
0 Free polygon, 5 corners , with rotation*
0 The origin of the aperture is its center*
0 number of corners: always 5*
0 $1 to $10 corner X, Y*
0 $11 Rotation angle, in degrees counterclockwise*
0 create outline with 5 corners*
4,1,5,$1,$2,$3,$4,$5,$6,$7,$8,$9,$10,$1,$2,$11*%
%AMOutline6P*
0 Free polygon, 6 corners , with rotation*
0 The origin of the aperture is its center*
0 number of corners: always 6*
0 $1 to $12 corner X, Y*
0 $13 Rotation angle, in degrees counterclockwise*
0 create outline with 6 corners*
4,1,6,$1,$2,$3,$4,$5,$6,$7,$8,$9,$10,$11,$12,$1,$2,$13*%
%AMOutline7P*
0 Free polygon, 7 corners , with rotation*
0 The origin of the aperture is its center*
0 number of corners: always 7*
0 $1 to $14 corner X, Y*
0 $15 Rotation angle, in degrees counterclockwise*
0 create outline with 7 corners*
4,1,7,$1,$2,$3,$4,$5,$6,$7,$8,$9,$10,$11,$12,$13,$14,$1,$2,$15*%
%AMOutline8P*
0 Free polygon, 8 corners , with rotation*
0 The origin of the aperture is its center*
0 number of corners: always 8*
0 $1 to $16 corner X, Y*
0 $17 Rotation angle, in degrees counterclockwise*
0 create outline with 8 corners*
4,1,8,$1,$2,$3,$4,$5,$6,$7,$8,$9,$10,$11,$12,$13,$14,$15,$16,$1,$2,$17*%
G04 Aperture macros list end*
%ADD10RoundRect,0.140000X0.140000X0.170000X-0.140000X0.170000X-0.140000X-0.170000X0.140000X-0.170000X0*%
%ADD11RoundRect,0.135000X-0.135000X-0.185000X0.135000X-0.185000X0.135000X0.185000X-0.135000X0.185000X0*%
%ADD12O,0.800000X0.300000*%
%ADD13R,0.700000X1.300000*%
%ADD14RoundRect,0.140000X-0.170000X0.140000X-0.170000X-0.140000X0.170000X-0.140000X0.170000X0.140000X0*%
%ADD15RoundRect,0.135000X0.185000X-0.135000X0.185000X0.135000X-0.185000X0.135000X-0.185000X-0.135000X0*%
%ADD16RoundRect,0.140000X0.170000X-0.140000X0.170000X0.140000X-0.170000X0.140000X-0.170000X-0.140000X0*%
%ADD17RoundRect,0.150000X0.150000X-0.512500X0.150000X0.512500X-0.150000X0.512500X-0.150000X-0.512500X0*%
%ADD18R,0.850000X0.300000*%
%ADD19R,0.300000X0.850000*%
%ADD20R,2.600000X2.600000*%
%ADD21RoundRect,0.140000X-0.140000X-0.170000X0.140000X-0.170000X0.140000X0.170000X-0.140000X0.170000X0*%
%ADD22R,0.650000X1.500000*%
%ADD23RoundRect,0.250000X-0.325000X-0.650000X0.325000X-0.650000X0.325000X0.650000X-0.325000X0.650000X0*%
%ADD24RoundRect,0.250000X0.325000X0.650000X-0.325000X0.650000X-0.325000X-0.650000X0.325000X-0.650000X0*%
%ADD25RoundRect,0.135000X0.135000X0.185000X-0.135000X0.185000X-0.135000X-0.185000X0.135000X-0.185000X0*%
%ADD26R,2.000000X0.800000*%
%ADD27Outline5P,-0.700000X0.550000X0.480000X0.550000X0.700000X0.330000X0.700000X-0.550000X-0.700000X-0.550000X180.000000*%
%ADD28R,1.400000X1.100000*%
%ADD29RoundRect,0.250000X0.250000X0.475000X-0.250000X0.475000X-0.250000X-0.475000X0.250000X-0.475000X0*%
G04 APERTURE END LIST*
D10*
%TO.C,C4*%
X142580000Y-131505000D03*
X141620000Y-131505000D03*
%TD*%
D11*
%TO.C,R6*%
X141590000Y-132635000D03*
X142610000Y-132635000D03*
%TD*%
D12*
%TO.C,U3*%
X127750000Y-148640000D03*
X127750000Y-149140000D03*
X127750000Y-149640000D03*
X127750000Y-150140000D03*
X129650000Y-150140000D03*
X129650000Y-149640000D03*
X129650000Y-149140000D03*
X129650000Y-148640000D03*
D13*
X128700000Y-149390000D03*
%TD*%
D14*
%TO.C,C3*%
X137945000Y-138520000D03*
X137945000Y-139480000D03*
%TD*%
D15*
%TO.C,R1*%
X135230000Y-130820000D03*
X135230000Y-129800000D03*
%TD*%
D16*
%TO.C,C5*%
X136350000Y-130790000D03*
X136350000Y-129830000D03*
%TD*%
D17*
%TO.C,U4*%
X140390000Y-146937500D03*
X141340000Y-146937500D03*
X142290000Y-146937500D03*
X142290000Y-144662500D03*
X140390000Y-144662500D03*
%TD*%
D14*
%TO.C,C2*%
X136815000Y-138520000D03*
X136815000Y-139480000D03*
%TD*%
D18*
%TO.C,U1*%
X135430000Y-133080000D03*
X135430000Y-133580000D03*
X135430000Y-134080000D03*
X135430000Y-134580000D03*
X135430000Y-135080000D03*
X135430000Y-135580000D03*
D19*
X136130000Y-136280000D03*
X136630000Y-136280000D03*
X137130000Y-136280000D03*
X137630000Y-136280000D03*
X138130000Y-136280000D03*
X138630000Y-136280000D03*
D18*
X139330000Y-135580000D03*
X139330000Y-135080000D03*
X139330000Y-134580000D03*
X139330000Y-134080000D03*
X139330000Y-133580000D03*
X139330000Y-133080000D03*
D19*
X138630000Y-132380000D03*
X138130000Y-132380000D03*
X137630000Y-132380000D03*
X137130000Y-132380000D03*
X136630000Y-132380000D03*
X136130000Y-132380000D03*
D20*
X137380000Y-134330000D03*
%TD*%
D21*
%TO.C,C7*%
X131370000Y-136000000D03*
X132330000Y-136000000D03*
%TD*%
%TO.C,C10*%
X132290000Y-145740000D03*
X133250000Y-145740000D03*
%TD*%
D11*
%TO.C,R2*%
X141590000Y-136025000D03*
X142610000Y-136025000D03*
%TD*%
%TO.C,R3*%
X141590000Y-137155000D03*
X142610000Y-137155000D03*
%TD*%
D22*
%TO.C,U2*%
X130855000Y-144030000D03*
X132125000Y-144030000D03*
X133395000Y-144030000D03*
X134665000Y-144030000D03*
X134665000Y-138630000D03*
X133395000Y-138630000D03*
X132125000Y-138630000D03*
X130855000Y-138630000D03*
%TD*%
D23*
%TO.C,C8*%
X130235000Y-130350000D03*
X133185000Y-130350000D03*
%TD*%
D14*
%TO.C,C17*%
X144060000Y-126950000D03*
X144060000Y-127910000D03*
%TD*%
D21*
%TO.C,C11*%
X132290000Y-147080000D03*
X133250000Y-147080000D03*
%TD*%
D14*
%TO.C,C16*%
X138920000Y-145320000D03*
X138920000Y-146280000D03*
%TD*%
D24*
%TO.C,C9*%
X127980000Y-127240000D03*
X125030000Y-127240000D03*
%TD*%
D25*
%TO.C,R5*%
X142610000Y-133765000D03*
X141590000Y-133765000D03*
%TD*%
%TO.C,R4*%
X132430000Y-149350000D03*
X131410000Y-149350000D03*
%TD*%
D14*
%TO.C,C13*%
X126160000Y-149640000D03*
X126160000Y-150600000D03*
%TD*%
D16*
%TO.C,C12*%
X125700000Y-145200000D03*
X125700000Y-144240000D03*
%TD*%
D21*
%TO.C,C15*%
X141620000Y-134895000D03*
X142580000Y-134895000D03*
%TD*%
D10*
%TO.C,C1*%
X133850000Y-132870000D03*
X132890000Y-132870000D03*
%TD*%
D21*
%TO.C,C6*%
X133190000Y-136000000D03*
X134150000Y-136000000D03*
%TD*%
D26*
%TO.C,L1*%
X125590000Y-146390000D03*
X125590000Y-148390000D03*
%TD*%
D27*
%TO.C,Y1*%
X142210000Y-126950000D03*
D28*
X140010000Y-126950000D03*
X140010000Y-128600000D03*
X142210000Y-128550000D03*
%TD*%
D29*
%TO.C,C14*%
X130590000Y-147190000D03*
X128690000Y-147190000D03*
%TD*%
M02*
