%TF.GenerationSoftware,KiCad,Pcbnew,9.0.3*%
%TF.CreationDate,2025-08-06T21:05:05-04:00*%
%TF.ProjectId,M.2 to USB,4d2e3220-746f-4205-9553-422e6b696361,rev?*%
%TF.SameCoordinates,Original*%
%TF.FileFunction,Copper,L4,Bot*%
%TF.FilePolarity,Positive*%
%FSLAX46Y46*%
G04 Gerber Fmt 4.6, Leading zero omitted, Abs format (unit mm)*
G04 Created by KiCad (PCBNEW 9.0.3) date 2025-08-06 21:05:05*
%MOMM*%
%LPD*%
G01*
G04 APERTURE LIST*
%TA.AperFunction,HeatsinkPad*%
%ADD10R,0.700000X1.300000*%
%TD*%
%TA.AperFunction,ComponentPad*%
%ADD11R,1.700000X1.700000*%
%TD*%
%TA.AperFunction,ComponentPad*%
%ADD12C,1.700000*%
%TD*%
%TA.AperFunction,HeatsinkPad*%
%ADD13C,0.400000*%
%TD*%
%TA.AperFunction,CastellatedPad*%
%ADD14O,6.000000X8.000000*%
%TD*%
%TA.AperFunction,ConnectorPad*%
%ADD15R,0.350000X2.200000*%
%TD*%
%TA.AperFunction,SMDPad,CuDef*%
%ADD16R,0.350000X2.200000*%
%TD*%
%TA.AperFunction,ViaPad*%
%ADD17C,0.450000*%
%TD*%
%TA.AperFunction,Conductor*%
%ADD18C,0.200000*%
%TD*%
%TA.AperFunction,Conductor*%
%ADD19C,0.130000*%
%TD*%
G04 APERTURE END LIST*
D10*
%TO.P,U3,9,EP*%
%TO.N,GND*%
X128700000Y-149390000D03*
%TD*%
D11*
%TO.P,J2,1,Pin_1*%
%TO.N,VBUS2*%
X125430000Y-130350000D03*
D12*
%TO.P,J2,2,Pin_2*%
%TO.N,VBUS1*%
X127970000Y-130350000D03*
%TO.P,J2,3,Pin_3*%
%TO.N,USBDN_D2-*%
X125430000Y-132890000D03*
%TO.P,J2,4,Pin_4*%
%TO.N,USBDN_D1-*%
X127970000Y-132890000D03*
%TO.P,J2,5,Pin_5*%
%TO.N,USBDN_D2+*%
X125430000Y-135430000D03*
%TO.P,J2,6,Pin_6*%
%TO.N,USBDN_D1+*%
X127970000Y-135430000D03*
%TO.P,J2,7,Pin_7*%
%TO.N,GND*%
X125430000Y-137970000D03*
%TO.P,J2,8,Pin_8*%
X127970000Y-137970000D03*
%TO.P,J2,10,Pin_10*%
%TO.N,unconnected-(J2-Pin_10-Pad10)*%
X127970000Y-140510000D03*
%TD*%
D13*
%TO.P,U1,25,EP*%
%TO.N,GND*%
X136630000Y-133580000D03*
X136630000Y-135080000D03*
X137380000Y-134330000D03*
X138130000Y-133580000D03*
X138130000Y-135080000D03*
%TD*%
D14*
%TO.P,H1,1,1*%
%TO.N,GND*%
X134000000Y-125130000D03*
%TD*%
D15*
%TO.P,J1,2,+3.3V*%
%TO.N,+3.3V*%
X143000000Y-153730000D03*
%TO.P,J1,4,+3.3V*%
X142500000Y-153730000D03*
%TO.P,J1,6,LED#1*%
%TO.N,unconnected-(J1-LED#1-Pad6)*%
X142000000Y-153730000D03*
D16*
%TO.P,J1,16,LED#2*%
%TO.N,unconnected-(J1-LED#2-Pad16)*%
X139500000Y-153730000D03*
%TO.P,J1,18,GND*%
%TO.N,GND*%
X139000000Y-153730000D03*
%TO.P,J1,20,NC*%
%TO.N,unconnected-(J1-NC-Pad20)*%
X138500000Y-153730000D03*
%TO.P,J1,22,NC*%
%TO.N,unconnected-(J1-NC-Pad22)*%
X138000000Y-153730000D03*
%TO.P,J1,32,NC*%
%TO.N,unconnected-(J1-NC-Pad32)*%
X135500000Y-153730000D03*
%TO.P,J1,34,NC*%
%TO.N,unconnected-(J1-NC-Pad34)*%
X135000000Y-153730000D03*
%TO.P,J1,36,NC*%
%TO.N,unconnected-(J1-NC-Pad36)*%
X134500000Y-153730000D03*
%TO.P,J1,38,Vender_Defined*%
%TO.N,unconnected-(J1-Vender_Defined-Pad38)*%
X134000000Y-153730000D03*
%TO.P,J1,40,Vender_Defined*%
%TO.N,unconnected-(J1-Vender_Defined-Pad40)*%
X133500000Y-153730000D03*
%TO.P,J1,42,Vender_Defined*%
%TO.N,unconnected-(J1-Vender_Defined-Pad42)*%
X133000000Y-153730000D03*
%TO.P,J1,44,COEX3*%
%TO.N,unconnected-(J1-COEX3-Pad44)*%
X132500000Y-153730000D03*
%TO.P,J1,46,COEX2*%
%TO.N,unconnected-(J1-COEX2-Pad46)*%
X132000000Y-153730000D03*
%TO.P,J1,48,COEX1*%
%TO.N,unconnected-(J1-COEX1-Pad48)*%
X131500000Y-153730000D03*
%TO.P,J1,50,SUSCLK*%
%TO.N,unconnected-(J1-SUSCLK-Pad50)*%
X131000000Y-153730000D03*
%TO.P,J1,52,PERST0#*%
%TO.N,unconnected-(J1-PERST0#-Pad52)*%
X130500000Y-153730000D03*
%TO.P,J1,54,W_DISABLE2#*%
%TO.N,unconnected-(J1-W_DISABLE2#-Pad54)*%
X130000000Y-153730000D03*
%TO.P,J1,56,W_DISABLE1#*%
%TO.N,unconnected-(J1-W_DISABLE1#-Pad56)*%
X129500000Y-153730000D03*
%TO.P,J1,58,I2C_Data*%
%TO.N,unconnected-(J1-I2C_Data-Pad58)*%
X129000000Y-153730000D03*
%TO.P,J1,60,I2C_CLK*%
%TO.N,unconnected-(J1-I2C_CLK-Pad60)*%
X128500000Y-153730000D03*
%TO.P,J1,62,ALERT#*%
%TO.N,unconnected-(J1-ALERT#-Pad62)*%
X128000000Y-153730000D03*
%TO.P,J1,64,RESERVED*%
%TO.N,unconnected-(J1-RESERVED-Pad64)*%
X127500000Y-153730000D03*
%TO.P,J1,66,UIM_SWP/PERST1#*%
%TO.N,unconnected-(J1-UIM_SWP{slash}PERST1#-Pad66)*%
X127000000Y-153730000D03*
%TO.P,J1,68,UMI_POWER_SNK/CLKREQ1#*%
%TO.N,unconnected-(J1-UMI_POWER_SNK{slash}CLKREQ1#-Pad68)*%
X126500000Y-153730000D03*
%TO.P,J1,70,UIM_POWER_SRC/GPIO1/PEWAKE1#*%
%TO.N,unconnected-(J1-UIM_POWER_SRC{slash}GPIO1{slash}PEWAKE1#-Pad70)*%
X126000000Y-153730000D03*
%TO.P,J1,72,+3.3V*%
%TO.N,+3.3V*%
X125500000Y-153730000D03*
%TO.P,J1,74,+3.3V*%
X125000000Y-153730000D03*
%TD*%
D17*
%TO.N,~{FLT1}*%
X130855000Y-140802500D03*
%TO.N,USBDN_D2-*%
X128512500Y-143575000D03*
%TO.N,USBDN_D2+*%
X129162500Y-143575000D03*
%TO.N,+3.3V*%
X138750000Y-149900000D03*
X139420000Y-149150000D03*
X124810000Y-145490000D03*
X126560000Y-144680000D03*
X127300000Y-144680000D03*
X141460000Y-149900000D03*
X138060000Y-149900000D03*
X140110000Y-149900000D03*
X141460000Y-149150000D03*
X138750000Y-149150000D03*
X140902151Y-134040930D03*
X125430000Y-149640000D03*
X136140000Y-138980000D03*
X139420000Y-149900000D03*
X140770000Y-149150000D03*
X127300000Y-145510000D03*
X124810000Y-144660000D03*
X126560000Y-145510000D03*
X127300000Y-146400000D03*
X140770000Y-149900000D03*
X138060000Y-149150000D03*
X140110000Y-149150000D03*
X143350000Y-126950000D03*
X134520000Y-133080000D03*
X131920000Y-150130000D03*
X140680000Y-132445000D03*
X126950000Y-149640000D03*
X139670000Y-145320000D03*
%TO.N,GND*%
X125700000Y-143150000D03*
X132250000Y-152200000D03*
X143350000Y-137160000D03*
X126560000Y-143980000D03*
X143330000Y-132640000D03*
X140000000Y-131380000D03*
X136350000Y-129100000D03*
X143330000Y-131510000D03*
X133750000Y-152200000D03*
X127750000Y-152200000D03*
X127280000Y-127680000D03*
X124810000Y-143960000D03*
X139000000Y-152200000D03*
X144050000Y-128670000D03*
X129670000Y-126820000D03*
X124810000Y-143130000D03*
X127280000Y-126820000D03*
X127300000Y-143980000D03*
X129250000Y-152200000D03*
X142590000Y-130680000D03*
X142620000Y-137930000D03*
X136810000Y-140240000D03*
X135140000Y-136500000D03*
X127300000Y-143150000D03*
X135250000Y-152200000D03*
X126250000Y-152200000D03*
X143340000Y-136030000D03*
X138570000Y-126970000D03*
X130750000Y-152200000D03*
X140710000Y-130680000D03*
X137950000Y-140240000D03*
X143340000Y-134900000D03*
X129670000Y-127690000D03*
X142310000Y-148120000D03*
X139490000Y-132260000D03*
X126560000Y-143150000D03*
X141600000Y-130680000D03*
%TO.N,VBUS2*%
X133770000Y-136830000D03*
X133170000Y-136830000D03*
X133730000Y-139930000D03*
X133170000Y-137360000D03*
X133770000Y-137360000D03*
X133200000Y-139930000D03*
%TO.N,VBUS1*%
X131780000Y-137360000D03*
X132380000Y-137360000D03*
X132340000Y-139930000D03*
X131810000Y-139930000D03*
X131780000Y-136830000D03*
X132380000Y-136830000D03*
%TO.N,~{PG}*%
X140980000Y-148060000D03*
X130610000Y-149210000D03*
%TO.N,~{FLT1}*%
X136500000Y-137510000D03*
%TO.N,~{FLT2}*%
X134910000Y-137150000D03*
X139200000Y-137500000D03*
%TO.N,Net-(R5-Pad1)*%
X142290000Y-143290000D03*
X143300000Y-133765000D03*
%TD*%
D18*
%TO.N,~{FLT1}*%
X135327500Y-140050000D02*
X135327500Y-138682500D01*
X134575000Y-140802500D02*
X135327500Y-140050000D01*
X135327500Y-138682500D02*
X136500000Y-137510000D01*
X130855000Y-140802500D02*
X134575000Y-140802500D01*
D19*
%TO.N,USBDN_D2-*%
X124325000Y-133995000D02*
X125430000Y-132890000D01*
X124174923Y-133995000D02*
X124325000Y-133995000D01*
X123647500Y-134522423D02*
X124174923Y-133995000D01*
X123647500Y-139988346D02*
X123647500Y-134522423D01*
X125944154Y-142285000D02*
X123647500Y-139988346D01*
X128672499Y-142995845D02*
X127961654Y-142285000D01*
X128672499Y-143415001D02*
X128672499Y-142995845D01*
X128512500Y-143575000D02*
X128672499Y-143415001D01*
%TO.N,USBDN_D2+*%
X124325000Y-134325000D02*
X125430000Y-135430000D01*
X124311615Y-134325000D02*
X124325000Y-134325000D01*
X123977500Y-134659115D02*
X124311615Y-134325000D01*
X128098346Y-141955000D02*
X126080846Y-141955000D01*
%TO.N,USBDN_D2-*%
X127961654Y-142285000D02*
X125944154Y-142285000D01*
%TO.N,USBDN_D2+*%
X129002501Y-142859155D02*
X128098346Y-141955000D01*
X129162500Y-143575000D02*
X129002501Y-143415001D01*
X126080846Y-141955000D02*
X123977500Y-139851654D01*
X129002501Y-143415001D02*
X129002501Y-142859155D01*
X123977500Y-139851654D02*
X123977500Y-134659115D01*
D18*
%TO.N,~{PG}*%
X130610000Y-149210000D02*
X131760000Y-148060000D01*
X131760000Y-148060000D02*
X140980000Y-148060000D01*
%TO.N,~{FLT2}*%
X134910000Y-137150000D02*
X136116123Y-137150000D01*
X136116123Y-137150000D02*
X136282123Y-136984000D01*
X136282123Y-136984000D02*
X138684000Y-136984000D01*
X138684000Y-136984000D02*
X139200000Y-137500000D01*
%TO.N,Net-(R5-Pad1)*%
X142094000Y-134971000D02*
X143300000Y-133765000D01*
X142094000Y-143094000D02*
X142094000Y-134971000D01*
X142290000Y-143290000D02*
X142094000Y-143094000D01*
%TD*%
%TA.AperFunction,Conductor*%
%TO.N,GND*%
G36*
X144785148Y-125344852D02*
G01*
X144799500Y-125379500D01*
X144799500Y-150880500D01*
X144785148Y-150915148D01*
X144750500Y-150929500D01*
X144356001Y-150929500D01*
X144220681Y-150956417D01*
X144220670Y-150956420D01*
X144093192Y-151009223D01*
X143978460Y-151085883D01*
X143880883Y-151183460D01*
X143804223Y-151298192D01*
X143751420Y-151425670D01*
X143751417Y-151425681D01*
X143724500Y-151561001D01*
X143724500Y-152381000D01*
X143710148Y-152415648D01*
X143675500Y-152430000D01*
X143434500Y-152430000D01*
X143399852Y-152415648D01*
X143385500Y-152381000D01*
X143385500Y-149680299D01*
X143385500Y-149680296D01*
X143369857Y-149601653D01*
X143355505Y-149567005D01*
X143310958Y-149500338D01*
X142509662Y-148699042D01*
X142442995Y-148654495D01*
X142442991Y-148654493D01*
X142442989Y-148654492D01*
X142408354Y-148640145D01*
X142408344Y-148640142D01*
X142376630Y-148633834D01*
X142329704Y-148624500D01*
X137749000Y-148624500D01*
X137709859Y-148632285D01*
X137670359Y-148640142D01*
X137670349Y-148640145D01*
X137635716Y-148654491D01*
X137635710Y-148654494D01*
X137635709Y-148654495D01*
X137617618Y-148665861D01*
X137577416Y-148691122D01*
X137524496Y-148765706D01*
X137510144Y-148800353D01*
X137510142Y-148800359D01*
X137507529Y-148813497D01*
X137494500Y-148879000D01*
X137494500Y-150321000D01*
X137504880Y-150373187D01*
X137510142Y-150399640D01*
X137510145Y-150399650D01*
X137524491Y-150434283D01*
X137524490Y-150434283D01*
X137561122Y-150492583D01*
X137635706Y-150545503D01*
X137635709Y-150545505D01*
X137670357Y-150559857D01*
X137749000Y-150575500D01*
X141404584Y-150575500D01*
X141439232Y-150589852D01*
X142030148Y-151180768D01*
X142044500Y-151215416D01*
X142044500Y-152380500D01*
X142030148Y-152415148D01*
X141995500Y-152429500D01*
X141849796Y-152429500D01*
X141826861Y-152420000D01*
X141820000Y-152420000D01*
X141474500Y-152420000D01*
X141439852Y-152405648D01*
X141425500Y-152371000D01*
X141425500Y-152145863D01*
X141390515Y-151981275D01*
X141390514Y-151981269D01*
X141322072Y-151827546D01*
X141223164Y-151691411D01*
X141223162Y-151691409D01*
X141223159Y-151691405D01*
X141098117Y-151578818D01*
X141098114Y-151578815D01*
X140952386Y-151494679D01*
X140792350Y-151442680D01*
X140625000Y-151425091D01*
X140457649Y-151442680D01*
X140297613Y-151494679D01*
X140297610Y-151494681D01*
X140151890Y-151578812D01*
X140151882Y-151578818D01*
X140026840Y-151691405D01*
X139927928Y-151827546D01*
X139859487Y-151981266D01*
X139859484Y-151981275D01*
X139824500Y-152145863D01*
X139824500Y-152397320D01*
X139810148Y-152431968D01*
X139775500Y-152446320D01*
X139756747Y-152442590D01*
X139753232Y-152441134D01*
X139753231Y-152441133D01*
X139694748Y-152429500D01*
X139305252Y-152429500D01*
X139259564Y-152438588D01*
X139246769Y-152441133D01*
X139180447Y-152485447D01*
X139136133Y-152551769D01*
X139124500Y-152610252D01*
X139124500Y-152610255D01*
X139124500Y-153571000D01*
X139110148Y-153605648D01*
X139075500Y-153620000D01*
X138924500Y-153620000D01*
X138889852Y-153605648D01*
X138875500Y-153571000D01*
X138875500Y-152610255D01*
X138875500Y-152610252D01*
X138863867Y-152551769D01*
X138824500Y-152492853D01*
X138819552Y-152485447D01*
X138779795Y-152458882D01*
X138753231Y-152441133D01*
X138694748Y-152429500D01*
X138305252Y-152429500D01*
X138292844Y-152431968D01*
X138259558Y-152438588D01*
X138240442Y-152438588D01*
X138207156Y-152431968D01*
X138194748Y-152429500D01*
X137805252Y-152429500D01*
X137805250Y-152429500D01*
X137802858Y-152429736D01*
X137802836Y-152429516D01*
X137797913Y-152430000D01*
X137474500Y-152430000D01*
X137439852Y-152415648D01*
X137425500Y-152381000D01*
X137425500Y-152145863D01*
X137390515Y-151981275D01*
X137390514Y-151981269D01*
X137322072Y-151827546D01*
X137223164Y-151691411D01*
X137223162Y-151691409D01*
X137223159Y-151691405D01*
X137098117Y-151578818D01*
X137098114Y-151578815D01*
X136952386Y-151494679D01*
X136792350Y-151442680D01*
X136625000Y-151425091D01*
X136457649Y-151442680D01*
X136297613Y-151494679D01*
X136297610Y-151494681D01*
X136151890Y-151578812D01*
X136151882Y-151578818D01*
X136026840Y-151691405D01*
X135927928Y-151827546D01*
X135859487Y-151981266D01*
X135859484Y-151981275D01*
X135824500Y-152145863D01*
X135824500Y-152397320D01*
X135810148Y-152431968D01*
X135775500Y-152446320D01*
X135756747Y-152442590D01*
X135753232Y-152441134D01*
X135753231Y-152441133D01*
X135694748Y-152429500D01*
X135305252Y-152429500D01*
X135292844Y-152431968D01*
X135259558Y-152438588D01*
X135240442Y-152438588D01*
X135207156Y-152431968D01*
X135194748Y-152429500D01*
X134805252Y-152429500D01*
X134792844Y-152431968D01*
X134759558Y-152438588D01*
X134740442Y-152438588D01*
X134707156Y-152431968D01*
X134694748Y-152429500D01*
X134305252Y-152429500D01*
X134292844Y-152431968D01*
X134259558Y-152438588D01*
X134240442Y-152438588D01*
X134207156Y-152431968D01*
X134194748Y-152429500D01*
X133805252Y-152429500D01*
X133792844Y-152431968D01*
X133759558Y-152438588D01*
X133740442Y-152438588D01*
X133707156Y-152431968D01*
X133694748Y-152429500D01*
X133305252Y-152429500D01*
X133292844Y-152431968D01*
X133259558Y-152438588D01*
X133240442Y-152438588D01*
X133207156Y-152431968D01*
X133194748Y-152429500D01*
X132805252Y-152429500D01*
X132792844Y-152431968D01*
X132759558Y-152438588D01*
X132740442Y-152438588D01*
X132707156Y-152431968D01*
X132694748Y-152429500D01*
X132305252Y-152429500D01*
X132292844Y-152431968D01*
X132259558Y-152438588D01*
X132240442Y-152438588D01*
X132207156Y-152431968D01*
X132194748Y-152429500D01*
X131805252Y-152429500D01*
X131792844Y-152431968D01*
X131759558Y-152438588D01*
X131740442Y-152438588D01*
X131707156Y-152431968D01*
X131694748Y-152429500D01*
X131305252Y-152429500D01*
X131292844Y-152431968D01*
X131259558Y-152438588D01*
X131240442Y-152438588D01*
X131207156Y-152431968D01*
X131194748Y-152429500D01*
X130805252Y-152429500D01*
X130792844Y-152431968D01*
X130759558Y-152438588D01*
X130740442Y-152438588D01*
X130707156Y-152431968D01*
X130694748Y-152429500D01*
X130305252Y-152429500D01*
X130292844Y-152431968D01*
X130259558Y-152438588D01*
X130240442Y-152438588D01*
X130207156Y-152431968D01*
X130194748Y-152429500D01*
X129805252Y-152429500D01*
X129792844Y-152431968D01*
X129759558Y-152438588D01*
X129740442Y-152438588D01*
X129707156Y-152431968D01*
X129694748Y-152429500D01*
X129305252Y-152429500D01*
X129292844Y-152431968D01*
X129259558Y-152438588D01*
X129240442Y-152438588D01*
X129207156Y-152431968D01*
X129194748Y-152429500D01*
X128805252Y-152429500D01*
X128792844Y-152431968D01*
X128759558Y-152438588D01*
X128740442Y-152438588D01*
X128707156Y-152431968D01*
X128694748Y-152429500D01*
X128305252Y-152429500D01*
X128292844Y-152431968D01*
X128259558Y-152438588D01*
X128240442Y-152438588D01*
X128207156Y-152431968D01*
X128194748Y-152429500D01*
X127805252Y-152429500D01*
X127792844Y-152431968D01*
X127759558Y-152438588D01*
X127740442Y-152438588D01*
X127707156Y-152431968D01*
X127694748Y-152429500D01*
X127305252Y-152429500D01*
X127292844Y-152431968D01*
X127259558Y-152438588D01*
X127240442Y-152438588D01*
X127207156Y-152431968D01*
X127194748Y-152429500D01*
X126805252Y-152429500D01*
X126792844Y-152431968D01*
X126759558Y-152438588D01*
X126740442Y-152438588D01*
X126707156Y-152431968D01*
X126694748Y-152429500D01*
X126305252Y-152429500D01*
X126292844Y-152431968D01*
X126259558Y-152438588D01*
X126240442Y-152438588D01*
X126207156Y-152431968D01*
X126194748Y-152429500D01*
X126194746Y-152429500D01*
X126004500Y-152429500D01*
X125969852Y-152415148D01*
X125955500Y-152380500D01*
X125955500Y-151384500D01*
X125969852Y-151349852D01*
X126004500Y-151335500D01*
X126569701Y-151335500D01*
X126569704Y-151335500D01*
X126648347Y-151319857D01*
X126682995Y-151305505D01*
X126749662Y-151260958D01*
X127936642Y-150073978D01*
X131494500Y-150073978D01*
X131494500Y-150186021D01*
X131523496Y-150294235D01*
X131523497Y-150294239D01*
X131579515Y-150391263D01*
X131658737Y-150470485D01*
X131694249Y-150490988D01*
X131755760Y-150526502D01*
X131755762Y-150526502D01*
X131755763Y-150526503D01*
X131826680Y-150545505D01*
X131863978Y-150555499D01*
X131863979Y-150555500D01*
X131863982Y-150555500D01*
X131976021Y-150555500D01*
X131976021Y-150555499D01*
X132084237Y-150526503D01*
X132181263Y-150470485D01*
X132260485Y-150391263D01*
X132316503Y-150294237D01*
X132345499Y-150186021D01*
X132345500Y-150186021D01*
X132345500Y-150073979D01*
X132345499Y-150073978D01*
X132339371Y-150051111D01*
X132316503Y-149965763D01*
X132316502Y-149965762D01*
X132316502Y-149965760D01*
X132260484Y-149868736D01*
X132181263Y-149789515D01*
X132084239Y-149733497D01*
X132084235Y-149733496D01*
X131976021Y-149704500D01*
X131976018Y-149704500D01*
X131863982Y-149704500D01*
X131863979Y-149704500D01*
X131755764Y-149733496D01*
X131755760Y-149733497D01*
X131658736Y-149789515D01*
X131658736Y-149789516D01*
X131579516Y-149868736D01*
X131579515Y-149868736D01*
X131523497Y-149965760D01*
X131523496Y-149965764D01*
X131494500Y-150073978D01*
X127936642Y-150073978D01*
X128100958Y-149909662D01*
X128145505Y-149842995D01*
X128159857Y-149808347D01*
X128175500Y-149729704D01*
X128175500Y-149153978D01*
X130184500Y-149153978D01*
X130184500Y-149266021D01*
X130213496Y-149374235D01*
X130213497Y-149374239D01*
X130269515Y-149471263D01*
X130348737Y-149550485D01*
X130377359Y-149567010D01*
X130445760Y-149606502D01*
X130445762Y-149606502D01*
X130445763Y-149606503D01*
X130531111Y-149629371D01*
X130553978Y-149635499D01*
X130553979Y-149635500D01*
X130553982Y-149635500D01*
X130666021Y-149635500D01*
X130666021Y-149635499D01*
X130774237Y-149606503D01*
X130782638Y-149601653D01*
X130787237Y-149598997D01*
X130871263Y-149550485D01*
X130950485Y-149471263D01*
X131006503Y-149374237D01*
X131035499Y-149266021D01*
X131035500Y-149266021D01*
X131035500Y-149229767D01*
X131049852Y-149195119D01*
X131870119Y-148374852D01*
X131904767Y-148360500D01*
X140658456Y-148360500D01*
X140693104Y-148374852D01*
X140718737Y-148400485D01*
X140754249Y-148420988D01*
X140815760Y-148456502D01*
X140815762Y-148456502D01*
X140815763Y-148456503D01*
X140901111Y-148479371D01*
X140923978Y-148485499D01*
X140923979Y-148485500D01*
X140923982Y-148485500D01*
X141036021Y-148485500D01*
X141036021Y-148485499D01*
X141144237Y-148456503D01*
X141241263Y-148400485D01*
X141320485Y-148321263D01*
X141376503Y-148224237D01*
X141405499Y-148116021D01*
X141405500Y-148116021D01*
X141405500Y-148003979D01*
X141405499Y-148003978D01*
X141376503Y-147895764D01*
X141376502Y-147895760D01*
X141332496Y-147819541D01*
X141320485Y-147798737D01*
X141241263Y-147719515D01*
X141144239Y-147663497D01*
X141144235Y-147663496D01*
X141036021Y-147634500D01*
X141036018Y-147634500D01*
X140923982Y-147634500D01*
X140923979Y-147634500D01*
X140815764Y-147663496D01*
X140815760Y-147663497D01*
X140718736Y-147719515D01*
X140718736Y-147719516D01*
X140693104Y-147745148D01*
X140658456Y-147759500D01*
X131720435Y-147759500D01*
X131644013Y-147779977D01*
X131644010Y-147779978D01*
X131575488Y-147819540D01*
X131575488Y-147819541D01*
X130624881Y-148770148D01*
X130590233Y-148784500D01*
X130553979Y-148784500D01*
X130445764Y-148813496D01*
X130445760Y-148813497D01*
X130348736Y-148869515D01*
X130348736Y-148869516D01*
X130269516Y-148948736D01*
X130269515Y-148948736D01*
X130213497Y-149045760D01*
X130213496Y-149045764D01*
X130184500Y-149153978D01*
X128175500Y-149153978D01*
X128175500Y-145263978D01*
X139244500Y-145263978D01*
X139244500Y-145376021D01*
X139273496Y-145484235D01*
X139273497Y-145484239D01*
X139329515Y-145581263D01*
X139408737Y-145660485D01*
X139444249Y-145680988D01*
X139505760Y-145716502D01*
X139505762Y-145716502D01*
X139505763Y-145716503D01*
X139591111Y-145739371D01*
X139613978Y-145745499D01*
X139613979Y-145745500D01*
X139613982Y-145745500D01*
X139726021Y-145745500D01*
X139726021Y-145745499D01*
X139834237Y-145716503D01*
X139931263Y-145660485D01*
X140010485Y-145581263D01*
X140066503Y-145484237D01*
X140095499Y-145376021D01*
X140095500Y-145376021D01*
X140095500Y-145263979D01*
X140095499Y-145263978D01*
X140066503Y-145155764D01*
X140066502Y-145155760D01*
X140010484Y-145058736D01*
X139931263Y-144979515D01*
X139834239Y-144923497D01*
X139834235Y-144923496D01*
X139726021Y-144894500D01*
X139726018Y-144894500D01*
X139613982Y-144894500D01*
X139613979Y-144894500D01*
X139505764Y-144923496D01*
X139505760Y-144923497D01*
X139408736Y-144979515D01*
X139408736Y-144979516D01*
X139329516Y-145058736D01*
X139329515Y-145058736D01*
X139273497Y-145155760D01*
X139273496Y-145155764D01*
X139244500Y-145263978D01*
X128175500Y-145263978D01*
X128175500Y-144469000D01*
X128159857Y-144390357D01*
X128145508Y-144355716D01*
X128145509Y-144355716D01*
X128108877Y-144297416D01*
X128034293Y-144244496D01*
X127999646Y-144230144D01*
X127999640Y-144230142D01*
X127967926Y-144223834D01*
X127921000Y-144214500D01*
X124439000Y-144214500D01*
X124399859Y-144222285D01*
X124360359Y-144230142D01*
X124360349Y-144230145D01*
X124325716Y-144244491D01*
X124325710Y-144244494D01*
X124325709Y-144244495D01*
X124307618Y-144255861D01*
X124267416Y-144281122D01*
X124214496Y-144355706D01*
X124200144Y-144390353D01*
X124200142Y-144390359D01*
X124192285Y-144429859D01*
X124184500Y-144469000D01*
X124184500Y-150669704D01*
X124194880Y-150721891D01*
X124200142Y-150748344D01*
X124200145Y-150748354D01*
X124214492Y-150782989D01*
X124214493Y-150782991D01*
X124214495Y-150782995D01*
X124259042Y-150849662D01*
X124259044Y-150849664D01*
X124600148Y-151190768D01*
X124614500Y-151225416D01*
X124614500Y-152371000D01*
X124600148Y-152405648D01*
X124565500Y-152420000D01*
X124324500Y-152420000D01*
X124289852Y-152405648D01*
X124275500Y-152371000D01*
X124275500Y-151561007D01*
X124275499Y-151561001D01*
X124248582Y-151425681D01*
X124248579Y-151425670D01*
X124217174Y-151349852D01*
X124195775Y-151298189D01*
X124133588Y-151205120D01*
X124119116Y-151183460D01*
X124021539Y-151085883D01*
X123953074Y-151040137D01*
X123906811Y-151009225D01*
X123906808Y-151009223D01*
X123906807Y-151009223D01*
X123779329Y-150956420D01*
X123779318Y-150956417D01*
X123643998Y-150929500D01*
X123643993Y-150929500D01*
X123614882Y-150929500D01*
X123249500Y-150929500D01*
X123214852Y-150915148D01*
X123200500Y-150880500D01*
X123200500Y-134469612D01*
X123382000Y-134469612D01*
X123382000Y-139935534D01*
X123382000Y-140041158D01*
X123422420Y-140138740D01*
X123422421Y-140138741D01*
X123422422Y-140138743D01*
X125793757Y-142510078D01*
X125793759Y-142510079D01*
X125793760Y-142510080D01*
X125834180Y-142526822D01*
X125891343Y-142550500D01*
X127831384Y-142550500D01*
X127866032Y-142564852D01*
X128391893Y-143090713D01*
X128406245Y-143125361D01*
X128391893Y-143160009D01*
X128369928Y-143172691D01*
X128348264Y-143178496D01*
X128348260Y-143178497D01*
X128251236Y-143234515D01*
X128251236Y-143234516D01*
X128172016Y-143313736D01*
X128172015Y-143313736D01*
X128115997Y-143410760D01*
X128115996Y-143410764D01*
X128087000Y-143518978D01*
X128087000Y-143631021D01*
X128115996Y-143739235D01*
X128115997Y-143739239D01*
X128172015Y-143836263D01*
X128251237Y-143915485D01*
X128286749Y-143935988D01*
X128348260Y-143971502D01*
X128348262Y-143971502D01*
X128348263Y-143971503D01*
X128433611Y-143994371D01*
X128456478Y-144000499D01*
X128456479Y-144000500D01*
X128456482Y-144000500D01*
X128568521Y-144000500D01*
X128568521Y-144000499D01*
X128676737Y-143971503D01*
X128773763Y-143915485D01*
X128802852Y-143886396D01*
X128837500Y-143872044D01*
X128872148Y-143886396D01*
X128901237Y-143915485D01*
X128936749Y-143935988D01*
X128998260Y-143971502D01*
X128998262Y-143971502D01*
X128998263Y-143971503D01*
X129083611Y-143994371D01*
X129106478Y-144000499D01*
X129106479Y-144000500D01*
X129106482Y-144000500D01*
X129218521Y-144000500D01*
X129218521Y-144000499D01*
X129326737Y-143971503D01*
X129423763Y-143915485D01*
X129502985Y-143836263D01*
X129559003Y-143739237D01*
X129587999Y-143631021D01*
X129588000Y-143631021D01*
X129588000Y-143518979D01*
X129587999Y-143518978D01*
X129559003Y-143410764D01*
X129559002Y-143410760D01*
X129502984Y-143313736D01*
X129423763Y-143234515D01*
X129326739Y-143178497D01*
X129326735Y-143178496D01*
X129304318Y-143172489D01*
X129274565Y-143149658D01*
X129268001Y-143125159D01*
X129268001Y-142806346D01*
X129268000Y-142806342D01*
X129227581Y-142708762D01*
X129227580Y-142708760D01*
X128248742Y-141729921D01*
X128151159Y-141689500D01*
X128151158Y-141689500D01*
X128151157Y-141689500D01*
X126211116Y-141689500D01*
X126176468Y-141675148D01*
X124907855Y-140406535D01*
X126919500Y-140406535D01*
X126919500Y-140613465D01*
X126924433Y-140638263D01*
X126959869Y-140816417D01*
X126959871Y-140816423D01*
X127039058Y-141007596D01*
X127039059Y-141007598D01*
X127154023Y-141179655D01*
X127300345Y-141325977D01*
X127472402Y-141440941D01*
X127663580Y-141520130D01*
X127866535Y-141560500D01*
X127866538Y-141560500D01*
X128073462Y-141560500D01*
X128073465Y-141560500D01*
X128276420Y-141520130D01*
X128467598Y-141440941D01*
X128639655Y-141325977D01*
X128785977Y-141179655D01*
X128900941Y-141007598D01*
X128980130Y-140816420D01*
X129020500Y-140613465D01*
X129020500Y-140406535D01*
X128980130Y-140203580D01*
X128900941Y-140012402D01*
X128785977Y-139840345D01*
X128639655Y-139694023D01*
X128467598Y-139579059D01*
X128467596Y-139579058D01*
X128276423Y-139499871D01*
X128276417Y-139499869D01*
X128194572Y-139483589D01*
X128073465Y-139459500D01*
X127866535Y-139459500D01*
X127765520Y-139479592D01*
X127663582Y-139499869D01*
X127663576Y-139499871D01*
X127472403Y-139579058D01*
X127300345Y-139694022D01*
X127154022Y-139840345D01*
X127039058Y-140012403D01*
X126959871Y-140203576D01*
X126959869Y-140203582D01*
X126939592Y-140305520D01*
X126919500Y-140406535D01*
X124907855Y-140406535D01*
X124257352Y-139756032D01*
X124243000Y-139721384D01*
X124243000Y-137866587D01*
X124380000Y-137866587D01*
X124380000Y-138073412D01*
X124420349Y-138276271D01*
X124420351Y-138276277D01*
X124499500Y-138467358D01*
X124614410Y-138639335D01*
X124616826Y-138641751D01*
X125012210Y-138246366D01*
X125029901Y-138277007D01*
X125122993Y-138370099D01*
X125153632Y-138387788D01*
X124758248Y-138783173D01*
X124760664Y-138785589D01*
X124932641Y-138900499D01*
X125123722Y-138979648D01*
X125123728Y-138979650D01*
X125326587Y-139020000D01*
X125533413Y-139020000D01*
X125736271Y-138979650D01*
X125736277Y-138979648D01*
X125927358Y-138900499D01*
X126099333Y-138785590D01*
X126101750Y-138783172D01*
X125706367Y-138387789D01*
X125737007Y-138370099D01*
X125830099Y-138277007D01*
X125847789Y-138246367D01*
X126243172Y-138641750D01*
X126245590Y-138639333D01*
X126360499Y-138467358D01*
X126439648Y-138276277D01*
X126439650Y-138276271D01*
X126480000Y-138073412D01*
X126480000Y-137866587D01*
X126920000Y-137866587D01*
X126920000Y-138073412D01*
X126960349Y-138276271D01*
X126960351Y-138276277D01*
X127039500Y-138467358D01*
X127154410Y-138639335D01*
X127156826Y-138641751D01*
X127552210Y-138246366D01*
X127569901Y-138277007D01*
X127662993Y-138370099D01*
X127693632Y-138387788D01*
X127298248Y-138783173D01*
X127300664Y-138785589D01*
X127472641Y-138900499D01*
X127663722Y-138979648D01*
X127663728Y-138979650D01*
X127866587Y-139020000D01*
X128073413Y-139020000D01*
X128276271Y-138979650D01*
X128276277Y-138979648D01*
X128467358Y-138900499D01*
X128639333Y-138785590D01*
X128641750Y-138783172D01*
X128246367Y-138387789D01*
X128277007Y-138370099D01*
X128370099Y-138277007D01*
X128387789Y-138246367D01*
X128783172Y-138641750D01*
X128785590Y-138639333D01*
X128900499Y-138467358D01*
X128979648Y-138276277D01*
X128979650Y-138276271D01*
X129020000Y-138073412D01*
X129020000Y-137866587D01*
X128979650Y-137663728D01*
X128979648Y-137663722D01*
X128900499Y-137472641D01*
X128785589Y-137300664D01*
X128783173Y-137298248D01*
X128387788Y-137693632D01*
X128370099Y-137662993D01*
X128277007Y-137569901D01*
X128246365Y-137552210D01*
X128641751Y-137156826D01*
X128639335Y-137154410D01*
X128467358Y-137039500D01*
X128276277Y-136960351D01*
X128276271Y-136960349D01*
X128073413Y-136920000D01*
X127866587Y-136920000D01*
X127663728Y-136960349D01*
X127663722Y-136960351D01*
X127472641Y-137039500D01*
X127300668Y-137154408D01*
X127300665Y-137154410D01*
X127298248Y-137156826D01*
X127693632Y-137552210D01*
X127662993Y-137569901D01*
X127569901Y-137662993D01*
X127552210Y-137693632D01*
X127156826Y-137298248D01*
X127154410Y-137300665D01*
X127154408Y-137300668D01*
X127039500Y-137472641D01*
X126960351Y-137663722D01*
X126960349Y-137663728D01*
X126920000Y-137866587D01*
X126480000Y-137866587D01*
X126439650Y-137663728D01*
X126439648Y-137663722D01*
X126360499Y-137472641D01*
X126245589Y-137300664D01*
X126243173Y-137298248D01*
X125847788Y-137693632D01*
X125830099Y-137662993D01*
X125737007Y-137569901D01*
X125706365Y-137552210D01*
X126101751Y-137156826D01*
X126099335Y-137154410D01*
X125927358Y-137039500D01*
X125736277Y-136960351D01*
X125736271Y-136960349D01*
X125533413Y-136920000D01*
X125326587Y-136920000D01*
X125123728Y-136960349D01*
X125123722Y-136960351D01*
X124932641Y-137039500D01*
X124760668Y-137154408D01*
X124760665Y-137154410D01*
X124758248Y-137156826D01*
X125153632Y-137552210D01*
X125122993Y-137569901D01*
X125029901Y-137662993D01*
X125012210Y-137693632D01*
X124616826Y-137298248D01*
X124614410Y-137300665D01*
X124614408Y-137300668D01*
X124499500Y-137472641D01*
X124420351Y-137663722D01*
X124420349Y-137663728D01*
X124380000Y-137866587D01*
X124243000Y-137866587D01*
X124243000Y-134789384D01*
X124257351Y-134754737D01*
X124283659Y-134728428D01*
X124318307Y-134714077D01*
X124352955Y-134728429D01*
X124493803Y-134869277D01*
X124508155Y-134903925D01*
X124500166Y-134930265D01*
X124500193Y-134930280D01*
X124500120Y-134930415D01*
X124499899Y-134931143D01*
X124499059Y-134932402D01*
X124499058Y-134932404D01*
X124419871Y-135123576D01*
X124419869Y-135123582D01*
X124399592Y-135225520D01*
X124379500Y-135326535D01*
X124379500Y-135533465D01*
X124419870Y-135736420D01*
X124499059Y-135927598D01*
X124614023Y-136099655D01*
X124760345Y-136245977D01*
X124932402Y-136360941D01*
X125123580Y-136440130D01*
X125326535Y-136480500D01*
X125326538Y-136480500D01*
X125533462Y-136480500D01*
X125533465Y-136480500D01*
X125736420Y-136440130D01*
X125927598Y-136360941D01*
X126099655Y-136245977D01*
X126245977Y-136099655D01*
X126360941Y-135927598D01*
X126440130Y-135736420D01*
X126480500Y-135533465D01*
X126480500Y-135326535D01*
X126919500Y-135326535D01*
X126919500Y-135533465D01*
X126959870Y-135736420D01*
X127039059Y-135927598D01*
X127154023Y-136099655D01*
X127300345Y-136245977D01*
X127472402Y-136360941D01*
X127663580Y-136440130D01*
X127866535Y-136480500D01*
X127866538Y-136480500D01*
X128073462Y-136480500D01*
X128073465Y-136480500D01*
X128276420Y-136440130D01*
X128467598Y-136360941D01*
X128639655Y-136245977D01*
X128785977Y-136099655D01*
X128900941Y-135927598D01*
X128980130Y-135736420D01*
X129020500Y-135533465D01*
X129020500Y-135326535D01*
X128980130Y-135123580D01*
X128900941Y-134932402D01*
X128785977Y-134760345D01*
X128639655Y-134614023D01*
X128467598Y-134499059D01*
X128406203Y-134473628D01*
X128276423Y-134419871D01*
X128276417Y-134419869D01*
X128194572Y-134403589D01*
X128073465Y-134379500D01*
X127866535Y-134379500D01*
X127765520Y-134399592D01*
X127663582Y-134419869D01*
X127663576Y-134419871D01*
X127472403Y-134499058D01*
X127300345Y-134614022D01*
X127154022Y-134760345D01*
X127039058Y-134932403D01*
X126959871Y-135123576D01*
X126959869Y-135123582D01*
X126939592Y-135225520D01*
X126919500Y-135326535D01*
X126480500Y-135326535D01*
X126440130Y-135123580D01*
X126360941Y-134932402D01*
X126245977Y-134760345D01*
X126099655Y-134614023D01*
X125927598Y-134499059D01*
X125866203Y-134473628D01*
X125736423Y-134419871D01*
X125736417Y-134419869D01*
X125654572Y-134403589D01*
X125533465Y-134379500D01*
X125326535Y-134379500D01*
X125225520Y-134399592D01*
X125123582Y-134419869D01*
X125123576Y-134419871D01*
X124993797Y-134473628D01*
X124932402Y-134499059D01*
X124931144Y-134499899D01*
X124930642Y-134499999D01*
X124930280Y-134500193D01*
X124930221Y-134500082D01*
X124894363Y-134507213D01*
X124869277Y-134493803D01*
X124570121Y-134194647D01*
X124555769Y-134159999D01*
X124570119Y-134125354D01*
X124869277Y-133826195D01*
X124903924Y-133811844D01*
X124930259Y-133819834D01*
X124930275Y-133819805D01*
X124930424Y-133819885D01*
X124931151Y-133820105D01*
X124932402Y-133820941D01*
X125123580Y-133900130D01*
X125326535Y-133940500D01*
X125326538Y-133940500D01*
X125533462Y-133940500D01*
X125533465Y-133940500D01*
X125736420Y-133900130D01*
X125927598Y-133820941D01*
X126099655Y-133705977D01*
X126245977Y-133559655D01*
X126360941Y-133387598D01*
X126440130Y-133196420D01*
X126480500Y-132993465D01*
X126480500Y-132786535D01*
X126919500Y-132786535D01*
X126919500Y-132993465D01*
X126946290Y-133128150D01*
X126959869Y-133196417D01*
X126959871Y-133196423D01*
X127031147Y-133368497D01*
X127039059Y-133387598D01*
X127154023Y-133559655D01*
X127300345Y-133705977D01*
X127472402Y-133820941D01*
X127663580Y-133900130D01*
X127866535Y-133940500D01*
X127866538Y-133940500D01*
X128073462Y-133940500D01*
X128073465Y-133940500D01*
X128276420Y-133900130D01*
X128467598Y-133820941D01*
X128639655Y-133705977D01*
X128785977Y-133559655D01*
X128900941Y-133387598D01*
X128980130Y-133196420D01*
X129020500Y-132993465D01*
X129020500Y-132786535D01*
X128980130Y-132583580D01*
X128900941Y-132392402D01*
X128785977Y-132220345D01*
X128639655Y-132074023D01*
X128601452Y-132048497D01*
X128554207Y-132016929D01*
X128467598Y-131959059D01*
X128467596Y-131959058D01*
X128276423Y-131879871D01*
X128276417Y-131879869D01*
X128194572Y-131863589D01*
X128073465Y-131839500D01*
X127866535Y-131839500D01*
X127765520Y-131859592D01*
X127663582Y-131879869D01*
X127663576Y-131879871D01*
X127472403Y-131959058D01*
X127300345Y-132074022D01*
X127154022Y-132220345D01*
X127039058Y-132392403D01*
X126959871Y-132583576D01*
X126959869Y-132583582D01*
X126954766Y-132609239D01*
X126919500Y-132786535D01*
X126480500Y-132786535D01*
X126440130Y-132583580D01*
X126360941Y-132392402D01*
X126245977Y-132220345D01*
X126099655Y-132074023D01*
X126061452Y-132048497D01*
X126014207Y-132016929D01*
X125927598Y-131959059D01*
X125927596Y-131959058D01*
X125736423Y-131879871D01*
X125736417Y-131879869D01*
X125654572Y-131863589D01*
X125533465Y-131839500D01*
X125326535Y-131839500D01*
X125225520Y-131859592D01*
X125123582Y-131879869D01*
X125123576Y-131879871D01*
X124932403Y-131959058D01*
X124760345Y-132074022D01*
X124614022Y-132220345D01*
X124499058Y-132392403D01*
X124419871Y-132583576D01*
X124419869Y-132583582D01*
X124414766Y-132609239D01*
X124379500Y-132786535D01*
X124379500Y-132993465D01*
X124406290Y-133128150D01*
X124419869Y-133196417D01*
X124419871Y-133196423D01*
X124499058Y-133387596D01*
X124499896Y-133388850D01*
X124499995Y-133389352D01*
X124500195Y-133389725D01*
X124500082Y-133389785D01*
X124507213Y-133425633D01*
X124493802Y-133450722D01*
X124229378Y-133715148D01*
X124194730Y-133729500D01*
X124122109Y-133729500D01*
X124024527Y-133769921D01*
X123422420Y-134372028D01*
X123397077Y-134433212D01*
X123397068Y-134433233D01*
X123396737Y-134434035D01*
X123382000Y-134469612D01*
X123200500Y-134469612D01*
X123200500Y-129480252D01*
X124379500Y-129480252D01*
X124379500Y-131219748D01*
X124391133Y-131278231D01*
X124392944Y-131280941D01*
X124435447Y-131344552D01*
X124446063Y-131351645D01*
X124501769Y-131388867D01*
X124560252Y-131400500D01*
X124560255Y-131400500D01*
X126299745Y-131400500D01*
X126299748Y-131400500D01*
X126358231Y-131388867D01*
X126424552Y-131344552D01*
X126468867Y-131278231D01*
X126480500Y-131219748D01*
X126480500Y-130490415D01*
X126494851Y-130455768D01*
X126858770Y-130091849D01*
X126893416Y-130077498D01*
X126928064Y-130091850D01*
X126942416Y-130126498D01*
X126941475Y-130136057D01*
X126919500Y-130246535D01*
X126919500Y-130453465D01*
X126959870Y-130656420D01*
X127039059Y-130847598D01*
X127154023Y-131019655D01*
X127300345Y-131165977D01*
X127472402Y-131280941D01*
X127663580Y-131360130D01*
X127866535Y-131400500D01*
X127984035Y-131400500D01*
X127993593Y-131401441D01*
X127999337Y-131402583D01*
X128014000Y-131405500D01*
X130034584Y-131405500D01*
X130069232Y-131419852D01*
X131260148Y-132610768D01*
X131274500Y-132645416D01*
X131274500Y-140251000D01*
X131284880Y-140303187D01*
X131290142Y-140329640D01*
X131290145Y-140329650D01*
X131304491Y-140364283D01*
X131304490Y-140364283D01*
X131304494Y-140364290D01*
X131304495Y-140364291D01*
X131341121Y-140422581D01*
X131341122Y-140422581D01*
X131343689Y-140426667D01*
X131341395Y-140428108D01*
X131351430Y-140454339D01*
X131336136Y-140488582D01*
X131302448Y-140502000D01*
X131176544Y-140502000D01*
X131141896Y-140487648D01*
X131116263Y-140462015D01*
X131019239Y-140405997D01*
X131019235Y-140405996D01*
X130911021Y-140377000D01*
X130911018Y-140377000D01*
X130798982Y-140377000D01*
X130798979Y-140377000D01*
X130690764Y-140405996D01*
X130690760Y-140405997D01*
X130593736Y-140462015D01*
X130593736Y-140462016D01*
X130514516Y-140541236D01*
X130514515Y-140541236D01*
X130458497Y-140638260D01*
X130458496Y-140638264D01*
X130429500Y-140746478D01*
X130429500Y-140858521D01*
X130458496Y-140966735D01*
X130458497Y-140966739D01*
X130502504Y-141042959D01*
X130514515Y-141063763D01*
X130593737Y-141142985D01*
X130629249Y-141163488D01*
X130690760Y-141199002D01*
X130690762Y-141199002D01*
X130690763Y-141199003D01*
X130776111Y-141221871D01*
X130798978Y-141227999D01*
X130798979Y-141228000D01*
X130798982Y-141228000D01*
X130911021Y-141228000D01*
X130911021Y-141227999D01*
X131019237Y-141199003D01*
X131116263Y-141142985D01*
X131141896Y-141117352D01*
X131176544Y-141103000D01*
X134614564Y-141103000D01*
X134641230Y-141095854D01*
X134690989Y-141082521D01*
X134759511Y-141042960D01*
X134815460Y-140987011D01*
X135567960Y-140234511D01*
X135607522Y-140165988D01*
X135627999Y-140089565D01*
X135628000Y-140089565D01*
X135628000Y-139085388D01*
X135642352Y-139050740D01*
X135677000Y-139036388D01*
X135711648Y-139050740D01*
X135724330Y-139072706D01*
X135743496Y-139144235D01*
X135743497Y-139144239D01*
X135799515Y-139241263D01*
X135878737Y-139320485D01*
X135914249Y-139340988D01*
X135975760Y-139376502D01*
X135975762Y-139376502D01*
X135975763Y-139376503D01*
X136061111Y-139399371D01*
X136083978Y-139405499D01*
X136083979Y-139405500D01*
X136083982Y-139405500D01*
X136196021Y-139405500D01*
X136196021Y-139405499D01*
X136304237Y-139376503D01*
X136401263Y-139320485D01*
X136480485Y-139241263D01*
X136536503Y-139144237D01*
X136565499Y-139036021D01*
X136565500Y-139036021D01*
X136565500Y-138923979D01*
X136565499Y-138923978D01*
X136536503Y-138815764D01*
X136536502Y-138815760D01*
X136480484Y-138718736D01*
X136401263Y-138639515D01*
X136304239Y-138583497D01*
X136304235Y-138583496D01*
X136196021Y-138554500D01*
X136196018Y-138554500D01*
X136083982Y-138554500D01*
X136083979Y-138554500D01*
X135982619Y-138581659D01*
X135945437Y-138576764D01*
X135922607Y-138547011D01*
X135927502Y-138509829D01*
X135935285Y-138499685D01*
X136485119Y-137949852D01*
X136519767Y-137935500D01*
X136556021Y-137935500D01*
X136556021Y-137935499D01*
X136664237Y-137906503D01*
X136761263Y-137850485D01*
X136840485Y-137771263D01*
X136896503Y-137674237D01*
X136925499Y-137566021D01*
X136925500Y-137566021D01*
X136925500Y-137453979D01*
X136896615Y-137346182D01*
X136901510Y-137309000D01*
X136931263Y-137286170D01*
X136943945Y-137284500D01*
X138539233Y-137284500D01*
X138573881Y-137298852D01*
X138760148Y-137485119D01*
X138774500Y-137519767D01*
X138774500Y-137556021D01*
X138803496Y-137664235D01*
X138803497Y-137664239D01*
X138859515Y-137761263D01*
X138938737Y-137840485D01*
X138956056Y-137850484D01*
X139035760Y-137896502D01*
X139035762Y-137896502D01*
X139035763Y-137896503D01*
X139073084Y-137906503D01*
X139143978Y-137925499D01*
X139143979Y-137925500D01*
X139143982Y-137925500D01*
X139256021Y-137925500D01*
X139256021Y-137925499D01*
X139364237Y-137896503D01*
X139461263Y-137840485D01*
X139540485Y-137761263D01*
X139590728Y-137674239D01*
X139596502Y-137664239D01*
X139596502Y-137664238D01*
X139596503Y-137664237D01*
X139625499Y-137556021D01*
X139625500Y-137556021D01*
X139625500Y-137443979D01*
X139625499Y-137443978D01*
X139596503Y-137335764D01*
X139596502Y-137335760D01*
X139540484Y-137238736D01*
X139461263Y-137159515D01*
X139364239Y-137103497D01*
X139364235Y-137103496D01*
X139256021Y-137074500D01*
X139256018Y-137074500D01*
X139219767Y-137074500D01*
X139185119Y-137060148D01*
X138868511Y-136743540D01*
X138799990Y-136703979D01*
X138723564Y-136683500D01*
X138723562Y-136683500D01*
X136242561Y-136683500D01*
X136242559Y-136683500D01*
X136166133Y-136703979D01*
X136166131Y-136703979D01*
X136097611Y-136743540D01*
X136097611Y-136743541D01*
X136006004Y-136835148D01*
X135971356Y-136849500D01*
X135231544Y-136849500D01*
X135196896Y-136835148D01*
X135171263Y-136809515D01*
X135074239Y-136753497D01*
X135074235Y-136753496D01*
X134966021Y-136724500D01*
X134966018Y-136724500D01*
X134853982Y-136724500D01*
X134853979Y-136724500D01*
X134745764Y-136753496D01*
X134745760Y-136753497D01*
X134648736Y-136809515D01*
X134648736Y-136809516D01*
X134569516Y-136888736D01*
X134569515Y-136888736D01*
X134513497Y-136985760D01*
X134513496Y-136985764D01*
X134484500Y-137093978D01*
X134484500Y-137206021D01*
X134513496Y-137314235D01*
X134513497Y-137314239D01*
X134531940Y-137346182D01*
X134569515Y-137411263D01*
X134648737Y-137490485D01*
X134672276Y-137504075D01*
X134745760Y-137546502D01*
X134745762Y-137546502D01*
X134745763Y-137546503D01*
X134818606Y-137566021D01*
X134853978Y-137575499D01*
X134853979Y-137575500D01*
X134853982Y-137575500D01*
X134966021Y-137575500D01*
X134966021Y-137575499D01*
X135074237Y-137546503D01*
X135171263Y-137490485D01*
X135196896Y-137464852D01*
X135231544Y-137450500D01*
X136016233Y-137450500D01*
X136050881Y-137464852D01*
X136065233Y-137499500D01*
X136050881Y-137534148D01*
X135087041Y-138497988D01*
X135087040Y-138497988D01*
X135047479Y-138566508D01*
X135047479Y-138566510D01*
X135027000Y-138642936D01*
X135027000Y-139905233D01*
X135012648Y-139939881D01*
X134464881Y-140487648D01*
X134430233Y-140502000D01*
X134222644Y-140502000D01*
X134187996Y-140487648D01*
X134173644Y-140453000D01*
X134182682Y-140424645D01*
X134216487Y-140377000D01*
X134225505Y-140364291D01*
X134239857Y-140329643D01*
X134255500Y-140251000D01*
X134255500Y-134931436D01*
X141793500Y-134931436D01*
X141793500Y-143133563D01*
X141813979Y-143209989D01*
X141813979Y-143209991D01*
X141837332Y-143250438D01*
X141853540Y-143278511D01*
X141853545Y-143278516D01*
X141854372Y-143279593D01*
X141854667Y-143280462D01*
X141855146Y-143281292D01*
X141854981Y-143281387D01*
X141864500Y-143309426D01*
X141864500Y-143346021D01*
X141893496Y-143454235D01*
X141893497Y-143454239D01*
X141949515Y-143551263D01*
X142028737Y-143630485D01*
X142064249Y-143650988D01*
X142125760Y-143686502D01*
X142125762Y-143686502D01*
X142125763Y-143686503D01*
X142211111Y-143709371D01*
X142233978Y-143715499D01*
X142233979Y-143715500D01*
X142233982Y-143715500D01*
X142346021Y-143715500D01*
X142346021Y-143715499D01*
X142454237Y-143686503D01*
X142551263Y-143630485D01*
X142630485Y-143551263D01*
X142686503Y-143454237D01*
X142715499Y-143346021D01*
X142715500Y-143346021D01*
X142715500Y-143233979D01*
X142715499Y-143233978D01*
X142695679Y-143160009D01*
X142686503Y-143125763D01*
X142686502Y-143125762D01*
X142686502Y-143125760D01*
X142630484Y-143028736D01*
X142551263Y-142949515D01*
X142454239Y-142893497D01*
X142454235Y-142893496D01*
X142430817Y-142887221D01*
X142401064Y-142864390D01*
X142394500Y-142839891D01*
X142394500Y-135115767D01*
X142408852Y-135081119D01*
X143285119Y-134204852D01*
X143319767Y-134190500D01*
X143356021Y-134190500D01*
X143356021Y-134190499D01*
X143464237Y-134161503D01*
X143561263Y-134105485D01*
X143640485Y-134026263D01*
X143696503Y-133929237D01*
X143725499Y-133821021D01*
X143725500Y-133821021D01*
X143725500Y-133708979D01*
X143725499Y-133708978D01*
X143696503Y-133600764D01*
X143696502Y-133600760D01*
X143660988Y-133539249D01*
X143640485Y-133503737D01*
X143561263Y-133424515D01*
X143548676Y-133417248D01*
X143464239Y-133368497D01*
X143464235Y-133368496D01*
X143356021Y-133339500D01*
X143356018Y-133339500D01*
X143243982Y-133339500D01*
X143243979Y-133339500D01*
X143135764Y-133368496D01*
X143135760Y-133368497D01*
X143038736Y-133424515D01*
X143038736Y-133424516D01*
X142959516Y-133503736D01*
X142959515Y-133503736D01*
X142903497Y-133600760D01*
X142903496Y-133600764D01*
X142874500Y-133708978D01*
X142874500Y-133745233D01*
X142860148Y-133779881D01*
X141853541Y-134786488D01*
X141853540Y-134786488D01*
X141813979Y-134855008D01*
X141813979Y-134855010D01*
X141793500Y-134931436D01*
X134255500Y-134931436D01*
X134255500Y-133984908D01*
X140476651Y-133984908D01*
X140476651Y-134096951D01*
X140505647Y-134205165D01*
X140505648Y-134205169D01*
X140561666Y-134302193D01*
X140640888Y-134381415D01*
X140676400Y-134401918D01*
X140737911Y-134437432D01*
X140737913Y-134437432D01*
X140737914Y-134437433D01*
X140823262Y-134460301D01*
X140846129Y-134466429D01*
X140846130Y-134466430D01*
X140846133Y-134466430D01*
X140958172Y-134466430D01*
X140958172Y-134466429D01*
X141066388Y-134437433D01*
X141163414Y-134381415D01*
X141242636Y-134302193D01*
X141298654Y-134205167D01*
X141327650Y-134096951D01*
X141327651Y-134096951D01*
X141327651Y-133984909D01*
X141327650Y-133984908D01*
X141315751Y-133940500D01*
X141298654Y-133876693D01*
X141298653Y-133876692D01*
X141298653Y-133876690D01*
X141253083Y-133797762D01*
X141242636Y-133779667D01*
X141163414Y-133700445D01*
X141066390Y-133644427D01*
X141066386Y-133644426D01*
X140958172Y-133615430D01*
X140958169Y-133615430D01*
X140846133Y-133615430D01*
X140846130Y-133615430D01*
X140737915Y-133644426D01*
X140737911Y-133644427D01*
X140640887Y-133700445D01*
X140640887Y-133700446D01*
X140561667Y-133779666D01*
X140561666Y-133779666D01*
X140505648Y-133876690D01*
X140505647Y-133876694D01*
X140476651Y-133984908D01*
X134255500Y-133984908D01*
X134255500Y-133503486D01*
X134269852Y-133468838D01*
X134304500Y-133454486D01*
X134328997Y-133461050D01*
X134355763Y-133476503D01*
X134441111Y-133499371D01*
X134463978Y-133505499D01*
X134463979Y-133505500D01*
X134463982Y-133505500D01*
X134576021Y-133505500D01*
X134576021Y-133505499D01*
X134684237Y-133476503D01*
X134781263Y-133420485D01*
X134860485Y-133341263D01*
X134916503Y-133244237D01*
X134945499Y-133136021D01*
X134945500Y-133136021D01*
X134945500Y-133023979D01*
X134945499Y-133023978D01*
X134916503Y-132915764D01*
X134916502Y-132915760D01*
X134860484Y-132818736D01*
X134781263Y-132739515D01*
X134684239Y-132683497D01*
X134684235Y-132683496D01*
X134576021Y-132654500D01*
X134576018Y-132654500D01*
X134463982Y-132654500D01*
X134463979Y-132654500D01*
X134355764Y-132683496D01*
X134355760Y-132683497D01*
X134329000Y-132698948D01*
X134291818Y-132703843D01*
X134262065Y-132681013D01*
X134255500Y-132656513D01*
X134255500Y-132388978D01*
X140254500Y-132388978D01*
X140254500Y-132501021D01*
X140283496Y-132609235D01*
X140283497Y-132609239D01*
X140324937Y-132681013D01*
X140339515Y-132706263D01*
X140418737Y-132785485D01*
X140454249Y-132805988D01*
X140515760Y-132841502D01*
X140515762Y-132841502D01*
X140515763Y-132841503D01*
X140601111Y-132864371D01*
X140623978Y-132870499D01*
X140623979Y-132870500D01*
X140623982Y-132870500D01*
X140736021Y-132870500D01*
X140736021Y-132870499D01*
X140844237Y-132841503D01*
X140941263Y-132785485D01*
X141020485Y-132706263D01*
X141076503Y-132609237D01*
X141105499Y-132501021D01*
X141105500Y-132501021D01*
X141105500Y-132388979D01*
X141105499Y-132388978D01*
X141076503Y-132280764D01*
X141076502Y-132280760D01*
X141020484Y-132183736D01*
X140941263Y-132104515D01*
X140844239Y-132048497D01*
X140844235Y-132048496D01*
X140736021Y-132019500D01*
X140736018Y-132019500D01*
X140623982Y-132019500D01*
X140623979Y-132019500D01*
X140515764Y-132048496D01*
X140515760Y-132048497D01*
X140418736Y-132104515D01*
X140418736Y-132104516D01*
X140339516Y-132183736D01*
X140339515Y-132183736D01*
X140283497Y-132280760D01*
X140283496Y-132280764D01*
X140254500Y-132388978D01*
X134255500Y-132388978D01*
X134255500Y-131430299D01*
X134255500Y-131430296D01*
X134239857Y-131351653D01*
X134225505Y-131317005D01*
X134180958Y-131250338D01*
X131039662Y-128109042D01*
X130972995Y-128064495D01*
X130972991Y-128064493D01*
X130972989Y-128064492D01*
X130938354Y-128050145D01*
X130938344Y-128050142D01*
X130906630Y-128043834D01*
X130859704Y-128034500D01*
X126502796Y-128034500D01*
X126463655Y-128042285D01*
X126424155Y-128050142D01*
X126424145Y-128050145D01*
X126389510Y-128064492D01*
X126389506Y-128064494D01*
X126389505Y-128064495D01*
X126323723Y-128108450D01*
X126322835Y-128109044D01*
X125146732Y-129285148D01*
X125112084Y-129299500D01*
X124560252Y-129299500D01*
X124501769Y-129311133D01*
X124435447Y-129355447D01*
X124391133Y-129421769D01*
X124379500Y-129480252D01*
X123200500Y-129480252D01*
X123200500Y-126893978D01*
X142924500Y-126893978D01*
X142924500Y-127006021D01*
X142953496Y-127114235D01*
X142953497Y-127114239D01*
X143009515Y-127211263D01*
X143088737Y-127290485D01*
X143124249Y-127310988D01*
X143185760Y-127346502D01*
X143185762Y-127346502D01*
X143185763Y-127346503D01*
X143271111Y-127369371D01*
X143293978Y-127375499D01*
X143293979Y-127375500D01*
X143293982Y-127375500D01*
X143406021Y-127375500D01*
X143406021Y-127375499D01*
X143514237Y-127346503D01*
X143611263Y-127290485D01*
X143690485Y-127211263D01*
X143746503Y-127114237D01*
X143775499Y-127006021D01*
X143775500Y-127006021D01*
X143775500Y-126893979D01*
X143775499Y-126893978D01*
X143746503Y-126785764D01*
X143746502Y-126785760D01*
X143690484Y-126688736D01*
X143611263Y-126609515D01*
X143514239Y-126553497D01*
X143514235Y-126553496D01*
X143406021Y-126524500D01*
X143406018Y-126524500D01*
X143293982Y-126524500D01*
X143293979Y-126524500D01*
X143185764Y-126553496D01*
X143185760Y-126553497D01*
X143088736Y-126609515D01*
X143088736Y-126609516D01*
X143009516Y-126688736D01*
X143009515Y-126688736D01*
X142953497Y-126785760D01*
X142953496Y-126785764D01*
X142924500Y-126893978D01*
X123200500Y-126893978D01*
X123200500Y-125379500D01*
X123214852Y-125344852D01*
X123249500Y-125330500D01*
X144750500Y-125330500D01*
X144785148Y-125344852D01*
G37*
%TD.AperFunction*%
%TD*%
%TA.AperFunction,Conductor*%
%TO.N,+3.3V*%
G36*
X143180000Y-152404704D02*
G01*
X143175000Y-152416774D01*
X143175000Y-153210000D01*
X142825000Y-153210000D01*
X142825000Y-152430000D01*
X142805304Y-152430000D01*
X142759558Y-152439098D01*
X142740442Y-152439098D01*
X142694696Y-152430000D01*
X142675000Y-152430000D01*
X142675000Y-153210000D01*
X142375500Y-153210000D01*
X142375500Y-152610252D01*
X142363867Y-152551769D01*
X142354596Y-152537895D01*
X142333258Y-152505959D01*
X142325000Y-152478736D01*
X142325000Y-152430000D01*
X142305300Y-152430000D01*
X142303795Y-152430148D01*
X142303307Y-152430000D01*
X142302895Y-152430000D01*
X142302895Y-152429874D01*
X142267909Y-152419256D01*
X142250235Y-152386178D01*
X142250000Y-152381383D01*
X142250000Y-151156436D01*
X142250000Y-151130000D01*
X142260000Y-151120000D01*
X143180000Y-151120000D01*
X143180000Y-152404704D01*
G37*
%TD.AperFunction*%
%TD*%
%TA.AperFunction,Conductor*%
%TO.N,+3.3V*%
G36*
X125750000Y-152381383D02*
G01*
X125735648Y-152416031D01*
X125701000Y-152430383D01*
X125696205Y-152430148D01*
X125694700Y-152430000D01*
X125675000Y-152430000D01*
X125675000Y-152478736D01*
X125666742Y-152505959D01*
X125636133Y-152551768D01*
X125636133Y-152551769D01*
X125624500Y-152610252D01*
X125624500Y-152610255D01*
X125624500Y-153220000D01*
X125325000Y-153220000D01*
X125325000Y-152430000D01*
X125305304Y-152430000D01*
X125259558Y-152439098D01*
X125240442Y-152439098D01*
X125194696Y-152430000D01*
X125175000Y-152430000D01*
X125175000Y-153220000D01*
X124825000Y-153220000D01*
X124825000Y-152416774D01*
X124820000Y-152404704D01*
X124820000Y-151160296D01*
X124830000Y-151136154D01*
X124830000Y-151130000D01*
X125750000Y-151130000D01*
X125750000Y-152381383D01*
G37*
%TD.AperFunction*%
%TD*%
%TA.AperFunction,Conductor*%
%TO.N,VBUS2*%
G36*
X130894352Y-128254352D02*
G01*
X134035648Y-131395648D01*
X134050000Y-131430296D01*
X134050000Y-140251000D01*
X134035648Y-140285648D01*
X134001000Y-140300000D01*
X132909000Y-140300000D01*
X132874352Y-140285648D01*
X132860000Y-140251000D01*
X132860000Y-131860000D01*
X130290000Y-129290000D01*
X127370000Y-129290000D01*
X126294352Y-130365648D01*
X126259704Y-130380000D01*
X125269000Y-130380000D01*
X125234352Y-130365648D01*
X125220000Y-130331000D01*
X125220000Y-129522796D01*
X125234352Y-129488148D01*
X126468148Y-128254352D01*
X126502796Y-128240000D01*
X130859704Y-128240000D01*
X130894352Y-128254352D01*
G37*
%TD.AperFunction*%
%TD*%
%TA.AperFunction,Conductor*%
%TO.N,+3.3V*%
G36*
X142364352Y-148844352D02*
G01*
X143165648Y-149645648D01*
X143180000Y-149680296D01*
X143180000Y-151120000D01*
X142260000Y-151120000D01*
X141510000Y-150370000D01*
X137749000Y-150370000D01*
X137714352Y-150355648D01*
X137700000Y-150321000D01*
X137700000Y-148879000D01*
X137714352Y-148844352D01*
X137749000Y-148830000D01*
X142329704Y-148830000D01*
X142364352Y-148844352D01*
G37*
%TD.AperFunction*%
%TD*%
%TA.AperFunction,Conductor*%
%TO.N,+3.3V*%
G36*
X127955648Y-144434352D02*
G01*
X127970000Y-144469000D01*
X127970000Y-149729704D01*
X127955648Y-149764352D01*
X126604352Y-151115648D01*
X126569704Y-151130000D01*
X124830000Y-151130000D01*
X124404352Y-150704352D01*
X124390000Y-150669704D01*
X124390000Y-144469000D01*
X124404352Y-144434352D01*
X124439000Y-144420000D01*
X127921000Y-144420000D01*
X127955648Y-144434352D01*
G37*
%TD.AperFunction*%
%TD*%
%TA.AperFunction,Conductor*%
%TO.N,VBUS1*%
G36*
X130204352Y-129514352D02*
G01*
X132645648Y-131955648D01*
X132660000Y-131990296D01*
X132660000Y-140251000D01*
X132645648Y-140285648D01*
X132611000Y-140300000D01*
X131529000Y-140300000D01*
X131494352Y-140285648D01*
X131480000Y-140251000D01*
X131480000Y-132540000D01*
X130140000Y-131200000D01*
X128014000Y-131200000D01*
X127979352Y-131185648D01*
X127965000Y-131151000D01*
X127965000Y-129549000D01*
X127979352Y-129514352D01*
X128014000Y-129500000D01*
X130169704Y-129500000D01*
X130204352Y-129514352D01*
G37*
%TD.AperFunction*%
%TD*%
M02*
