%TF.GenerationSoftware,KiCad,Pcbnew,9.0.3*%
%TF.CreationDate,2026-06-16T12:23:42-04:00*%
%TF.ProjectId,M.2 to USB,4d2e3220-746f-4205-9553-422e6b696361,rev?*%
%TF.SameCoordinates,Original*%
%TF.FileFunction,Legend,Bot*%
%TF.FilePolarity,Positive*%
%FSLAX46Y46*%
G04 Gerber Fmt 4.6, Leading zero omitted, Abs format (unit mm)*
G04 Created by KiCad (PCBNEW 9.0.3) date 2026-06-16 12:23:42*
%MOMM*%
%LPD*%
G01*
G04 APERTURE LIST*
%ADD10C,0.150000*%
G04 APERTURE END LIST*
D10*
X144502856Y-147629200D02*
X144374285Y-147672057D01*
X144374285Y-147672057D02*
X144159999Y-147672057D01*
X144159999Y-147672057D02*
X144074285Y-147629200D01*
X144074285Y-147629200D02*
X144031427Y-147586342D01*
X144031427Y-147586342D02*
X143988570Y-147500628D01*
X143988570Y-147500628D02*
X143988570Y-147414914D01*
X143988570Y-147414914D02*
X144031427Y-147329200D01*
X144031427Y-147329200D02*
X144074285Y-147286342D01*
X144074285Y-147286342D02*
X144159999Y-147243485D01*
X144159999Y-147243485D02*
X144331427Y-147200628D01*
X144331427Y-147200628D02*
X144417142Y-147157771D01*
X144417142Y-147157771D02*
X144459999Y-147114914D01*
X144459999Y-147114914D02*
X144502856Y-147029200D01*
X144502856Y-147029200D02*
X144502856Y-146943485D01*
X144502856Y-146943485D02*
X144459999Y-146857771D01*
X144459999Y-146857771D02*
X144417142Y-146814914D01*
X144417142Y-146814914D02*
X144331427Y-146772057D01*
X144331427Y-146772057D02*
X144117142Y-146772057D01*
X144117142Y-146772057D02*
X143988570Y-146814914D01*
X143217142Y-147072057D02*
X143217142Y-147672057D01*
X143602856Y-147072057D02*
X143602856Y-147543485D01*
X143602856Y-147543485D02*
X143559999Y-147629200D01*
X143559999Y-147629200D02*
X143474284Y-147672057D01*
X143474284Y-147672057D02*
X143345713Y-147672057D01*
X143345713Y-147672057D02*
X143259999Y-147629200D01*
X143259999Y-147629200D02*
X143217142Y-147586342D01*
X142788570Y-147072057D02*
X142788570Y-147972057D01*
X142788570Y-147114914D02*
X142702856Y-147072057D01*
X142702856Y-147072057D02*
X142531427Y-147072057D01*
X142531427Y-147072057D02*
X142445713Y-147114914D01*
X142445713Y-147114914D02*
X142402856Y-147157771D01*
X142402856Y-147157771D02*
X142359998Y-147243485D01*
X142359998Y-147243485D02*
X142359998Y-147500628D01*
X142359998Y-147500628D02*
X142402856Y-147586342D01*
X142402856Y-147586342D02*
X142445713Y-147629200D01*
X142445713Y-147629200D02*
X142531427Y-147672057D01*
X142531427Y-147672057D02*
X142702856Y-147672057D01*
X142702856Y-147672057D02*
X142788570Y-147629200D01*
X141631427Y-147629200D02*
X141717141Y-147672057D01*
X141717141Y-147672057D02*
X141888570Y-147672057D01*
X141888570Y-147672057D02*
X141974284Y-147629200D01*
X141974284Y-147629200D02*
X142017141Y-147543485D01*
X142017141Y-147543485D02*
X142017141Y-147200628D01*
X142017141Y-147200628D02*
X141974284Y-147114914D01*
X141974284Y-147114914D02*
X141888570Y-147072057D01*
X141888570Y-147072057D02*
X141717141Y-147072057D01*
X141717141Y-147072057D02*
X141631427Y-147114914D01*
X141631427Y-147114914D02*
X141588570Y-147200628D01*
X141588570Y-147200628D02*
X141588570Y-147286342D01*
X141588570Y-147286342D02*
X142017141Y-147372057D01*
X141202855Y-147672057D02*
X141202855Y-147072057D01*
X141202855Y-147243485D02*
X141159998Y-147157771D01*
X141159998Y-147157771D02*
X141117141Y-147114914D01*
X141117141Y-147114914D02*
X141031426Y-147072057D01*
X141031426Y-147072057D02*
X140945712Y-147072057D01*
X140131426Y-147586342D02*
X140174283Y-147629200D01*
X140174283Y-147629200D02*
X140302855Y-147672057D01*
X140302855Y-147672057D02*
X140388569Y-147672057D01*
X140388569Y-147672057D02*
X140517140Y-147629200D01*
X140517140Y-147629200D02*
X140602855Y-147543485D01*
X140602855Y-147543485D02*
X140645712Y-147457771D01*
X140645712Y-147457771D02*
X140688569Y-147286342D01*
X140688569Y-147286342D02*
X140688569Y-147157771D01*
X140688569Y-147157771D02*
X140645712Y-146986342D01*
X140645712Y-146986342D02*
X140602855Y-146900628D01*
X140602855Y-146900628D02*
X140517140Y-146814914D01*
X140517140Y-146814914D02*
X140388569Y-146772057D01*
X140388569Y-146772057D02*
X140302855Y-146772057D01*
X140302855Y-146772057D02*
X140174283Y-146814914D01*
X140174283Y-146814914D02*
X140131426Y-146857771D01*
X139617140Y-147672057D02*
X139702855Y-147629200D01*
X139702855Y-147629200D02*
X139745712Y-147586342D01*
X139745712Y-147586342D02*
X139788569Y-147500628D01*
X139788569Y-147500628D02*
X139788569Y-147243485D01*
X139788569Y-147243485D02*
X139745712Y-147157771D01*
X139745712Y-147157771D02*
X139702855Y-147114914D01*
X139702855Y-147114914D02*
X139617140Y-147072057D01*
X139617140Y-147072057D02*
X139488569Y-147072057D01*
X139488569Y-147072057D02*
X139402855Y-147114914D01*
X139402855Y-147114914D02*
X139359998Y-147157771D01*
X139359998Y-147157771D02*
X139317140Y-147243485D01*
X139317140Y-147243485D02*
X139317140Y-147500628D01*
X139317140Y-147500628D02*
X139359998Y-147586342D01*
X139359998Y-147586342D02*
X139402855Y-147629200D01*
X139402855Y-147629200D02*
X139488569Y-147672057D01*
X139488569Y-147672057D02*
X139617140Y-147672057D01*
X138802854Y-147672057D02*
X138888569Y-147629200D01*
X138888569Y-147629200D02*
X138931426Y-147586342D01*
X138931426Y-147586342D02*
X138974283Y-147500628D01*
X138974283Y-147500628D02*
X138974283Y-147243485D01*
X138974283Y-147243485D02*
X138931426Y-147157771D01*
X138931426Y-147157771D02*
X138888569Y-147114914D01*
X138888569Y-147114914D02*
X138802854Y-147072057D01*
X138802854Y-147072057D02*
X138674283Y-147072057D01*
X138674283Y-147072057D02*
X138588569Y-147114914D01*
X138588569Y-147114914D02*
X138545712Y-147157771D01*
X138545712Y-147157771D02*
X138502854Y-147243485D01*
X138502854Y-147243485D02*
X138502854Y-147500628D01*
X138502854Y-147500628D02*
X138545712Y-147586342D01*
X138545712Y-147586342D02*
X138588569Y-147629200D01*
X138588569Y-147629200D02*
X138674283Y-147672057D01*
X138674283Y-147672057D02*
X138802854Y-147672057D01*
X138117140Y-147672057D02*
X138117140Y-146772057D01*
X138031426Y-147329200D02*
X137774283Y-147672057D01*
X137774283Y-147072057D02*
X138117140Y-147414914D01*
X137388569Y-147672057D02*
X137388569Y-147072057D01*
X137388569Y-146772057D02*
X137431426Y-146814914D01*
X137431426Y-146814914D02*
X137388569Y-146857771D01*
X137388569Y-146857771D02*
X137345712Y-146814914D01*
X137345712Y-146814914D02*
X137388569Y-146772057D01*
X137388569Y-146772057D02*
X137388569Y-146857771D01*
X136617141Y-147629200D02*
X136702855Y-147672057D01*
X136702855Y-147672057D02*
X136874284Y-147672057D01*
X136874284Y-147672057D02*
X136959998Y-147629200D01*
X136959998Y-147629200D02*
X137002855Y-147543485D01*
X137002855Y-147543485D02*
X137002855Y-147200628D01*
X137002855Y-147200628D02*
X136959998Y-147114914D01*
X136959998Y-147114914D02*
X136874284Y-147072057D01*
X136874284Y-147072057D02*
X136702855Y-147072057D01*
X136702855Y-147072057D02*
X136617141Y-147114914D01*
X136617141Y-147114914D02*
X136574284Y-147200628D01*
X136574284Y-147200628D02*
X136574284Y-147286342D01*
X136574284Y-147286342D02*
X137002855Y-147372057D01*
X136145712Y-146772057D02*
X136231426Y-146943485D01*
X135802855Y-147629200D02*
X135717141Y-147672057D01*
X135717141Y-147672057D02*
X135545712Y-147672057D01*
X135545712Y-147672057D02*
X135459998Y-147629200D01*
X135459998Y-147629200D02*
X135417141Y-147543485D01*
X135417141Y-147543485D02*
X135417141Y-147500628D01*
X135417141Y-147500628D02*
X135459998Y-147414914D01*
X135459998Y-147414914D02*
X135545712Y-147372057D01*
X135545712Y-147372057D02*
X135674284Y-147372057D01*
X135674284Y-147372057D02*
X135759998Y-147329200D01*
X135759998Y-147329200D02*
X135802855Y-147243485D01*
X135802855Y-147243485D02*
X135802855Y-147200628D01*
X135802855Y-147200628D02*
X135759998Y-147114914D01*
X135759998Y-147114914D02*
X135674284Y-147072057D01*
X135674284Y-147072057D02*
X135545712Y-147072057D01*
X135545712Y-147072057D02*
X135459998Y-147114914D01*
X134345713Y-147672057D02*
X134345713Y-146772057D01*
X134345713Y-146772057D02*
X134045713Y-147414914D01*
X134045713Y-147414914D02*
X133745713Y-146772057D01*
X133745713Y-146772057D02*
X133745713Y-147672057D01*
X133317142Y-147586342D02*
X133274285Y-147629200D01*
X133274285Y-147629200D02*
X133317142Y-147672057D01*
X133317142Y-147672057D02*
X133359999Y-147629200D01*
X133359999Y-147629200D02*
X133317142Y-147586342D01*
X133317142Y-147586342D02*
X133317142Y-147672057D01*
X132931428Y-146857771D02*
X132888571Y-146814914D01*
X132888571Y-146814914D02*
X132802857Y-146772057D01*
X132802857Y-146772057D02*
X132588571Y-146772057D01*
X132588571Y-146772057D02*
X132502857Y-146814914D01*
X132502857Y-146814914D02*
X132459999Y-146857771D01*
X132459999Y-146857771D02*
X132417142Y-146943485D01*
X132417142Y-146943485D02*
X132417142Y-147029200D01*
X132417142Y-147029200D02*
X132459999Y-147157771D01*
X132459999Y-147157771D02*
X132974285Y-147672057D01*
X132974285Y-147672057D02*
X132417142Y-147672057D01*
X131474285Y-147072057D02*
X131131428Y-147072057D01*
X131345714Y-146772057D02*
X131345714Y-147543485D01*
X131345714Y-147543485D02*
X131302857Y-147629200D01*
X131302857Y-147629200D02*
X131217142Y-147672057D01*
X131217142Y-147672057D02*
X131131428Y-147672057D01*
X130702856Y-147672057D02*
X130788571Y-147629200D01*
X130788571Y-147629200D02*
X130831428Y-147586342D01*
X130831428Y-147586342D02*
X130874285Y-147500628D01*
X130874285Y-147500628D02*
X130874285Y-147243485D01*
X130874285Y-147243485D02*
X130831428Y-147157771D01*
X130831428Y-147157771D02*
X130788571Y-147114914D01*
X130788571Y-147114914D02*
X130702856Y-147072057D01*
X130702856Y-147072057D02*
X130574285Y-147072057D01*
X130574285Y-147072057D02*
X130488571Y-147114914D01*
X130488571Y-147114914D02*
X130445714Y-147157771D01*
X130445714Y-147157771D02*
X130402856Y-147243485D01*
X130402856Y-147243485D02*
X130402856Y-147500628D01*
X130402856Y-147500628D02*
X130445714Y-147586342D01*
X130445714Y-147586342D02*
X130488571Y-147629200D01*
X130488571Y-147629200D02*
X130574285Y-147672057D01*
X130574285Y-147672057D02*
X130702856Y-147672057D01*
X129331428Y-146772057D02*
X129331428Y-147500628D01*
X129331428Y-147500628D02*
X129288571Y-147586342D01*
X129288571Y-147586342D02*
X129245714Y-147629200D01*
X129245714Y-147629200D02*
X129159999Y-147672057D01*
X129159999Y-147672057D02*
X128988571Y-147672057D01*
X128988571Y-147672057D02*
X128902856Y-147629200D01*
X128902856Y-147629200D02*
X128859999Y-147586342D01*
X128859999Y-147586342D02*
X128817142Y-147500628D01*
X128817142Y-147500628D02*
X128817142Y-146772057D01*
X128431428Y-147629200D02*
X128302857Y-147672057D01*
X128302857Y-147672057D02*
X128088571Y-147672057D01*
X128088571Y-147672057D02*
X128002857Y-147629200D01*
X128002857Y-147629200D02*
X127959999Y-147586342D01*
X127959999Y-147586342D02*
X127917142Y-147500628D01*
X127917142Y-147500628D02*
X127917142Y-147414914D01*
X127917142Y-147414914D02*
X127959999Y-147329200D01*
X127959999Y-147329200D02*
X128002857Y-147286342D01*
X128002857Y-147286342D02*
X128088571Y-147243485D01*
X128088571Y-147243485D02*
X128259999Y-147200628D01*
X128259999Y-147200628D02*
X128345714Y-147157771D01*
X128345714Y-147157771D02*
X128388571Y-147114914D01*
X128388571Y-147114914D02*
X128431428Y-147029200D01*
X128431428Y-147029200D02*
X128431428Y-146943485D01*
X128431428Y-146943485D02*
X128388571Y-146857771D01*
X128388571Y-146857771D02*
X128345714Y-146814914D01*
X128345714Y-146814914D02*
X128259999Y-146772057D01*
X128259999Y-146772057D02*
X128045714Y-146772057D01*
X128045714Y-146772057D02*
X127917142Y-146814914D01*
X127231428Y-147200628D02*
X127102856Y-147243485D01*
X127102856Y-147243485D02*
X127059999Y-147286342D01*
X127059999Y-147286342D02*
X127017142Y-147372057D01*
X127017142Y-147372057D02*
X127017142Y-147500628D01*
X127017142Y-147500628D02*
X127059999Y-147586342D01*
X127059999Y-147586342D02*
X127102856Y-147629200D01*
X127102856Y-147629200D02*
X127188571Y-147672057D01*
X127188571Y-147672057D02*
X127531428Y-147672057D01*
X127531428Y-147672057D02*
X127531428Y-146772057D01*
X127531428Y-146772057D02*
X127231428Y-146772057D01*
X127231428Y-146772057D02*
X127145714Y-146814914D01*
X127145714Y-146814914D02*
X127102856Y-146857771D01*
X127102856Y-146857771D02*
X127059999Y-146943485D01*
X127059999Y-146943485D02*
X127059999Y-147029200D01*
X127059999Y-147029200D02*
X127102856Y-147114914D01*
X127102856Y-147114914D02*
X127145714Y-147157771D01*
X127145714Y-147157771D02*
X127231428Y-147200628D01*
X127231428Y-147200628D02*
X127531428Y-147200628D01*
X126074285Y-146772057D02*
X125774285Y-147672057D01*
X125774285Y-147672057D02*
X125474285Y-146772057D01*
X124702856Y-147672057D02*
X125217142Y-147672057D01*
X124959999Y-147672057D02*
X124959999Y-146772057D01*
X124959999Y-146772057D02*
X125045713Y-146900628D01*
X125045713Y-146900628D02*
X125131428Y-146986342D01*
X125131428Y-146986342D02*
X125217142Y-147029200D01*
X124317142Y-147586342D02*
X124274285Y-147629200D01*
X124274285Y-147629200D02*
X124317142Y-147672057D01*
X124317142Y-147672057D02*
X124359999Y-147629200D01*
X124359999Y-147629200D02*
X124317142Y-147586342D01*
X124317142Y-147586342D02*
X124317142Y-147672057D01*
X123417142Y-147672057D02*
X123931428Y-147672057D01*
X123674285Y-147672057D02*
X123674285Y-146772057D01*
X123674285Y-146772057D02*
X123759999Y-146900628D01*
X123759999Y-146900628D02*
X123845714Y-146986342D01*
X123845714Y-146986342D02*
X123931428Y-147029200D01*
M02*
