%TF.GenerationSoftware,KiCad,Pcbnew,9.0.1*%
%TF.CreationDate,2025-04-18T20:02:12-04:00*%
%TF.ProjectId,M.2 to USB V1.0,4d2e3220-746f-4205-9553-422056312e30,rev?*%
%TF.SameCoordinates,Original*%
%TF.FileFunction,Legend,Top*%
%TF.FilePolarity,Positive*%
%FSLAX46Y46*%
G04 Gerber Fmt 4.6, Leading zero omitted, Abs format (unit mm)*
G04 Created by KiCad (PCBNEW 9.0.1) date 2025-04-18 20:02:12*
%MOMM*%
%LPD*%
G01*
G04 APERTURE LIST*
%ADD10C,0.150000*%
%ADD11C,0.200000*%
%ADD12C,0.120000*%
%ADD13C,0.100000*%
%ADD14C,0.000000*%
%ADD15C,0.250000*%
G04 APERTURE END LIST*
D10*
X149477142Y-88364580D02*
X149429523Y-88412200D01*
X149429523Y-88412200D02*
X149286666Y-88459819D01*
X149286666Y-88459819D02*
X149191428Y-88459819D01*
X149191428Y-88459819D02*
X149048571Y-88412200D01*
X149048571Y-88412200D02*
X148953333Y-88316961D01*
X148953333Y-88316961D02*
X148905714Y-88221723D01*
X148905714Y-88221723D02*
X148858095Y-88031247D01*
X148858095Y-88031247D02*
X148858095Y-87888390D01*
X148858095Y-87888390D02*
X148905714Y-87697914D01*
X148905714Y-87697914D02*
X148953333Y-87602676D01*
X148953333Y-87602676D02*
X149048571Y-87507438D01*
X149048571Y-87507438D02*
X149191428Y-87459819D01*
X149191428Y-87459819D02*
X149286666Y-87459819D01*
X149286666Y-87459819D02*
X149429523Y-87507438D01*
X149429523Y-87507438D02*
X149477142Y-87555057D01*
X150429523Y-88459819D02*
X149858095Y-88459819D01*
X150143809Y-88459819D02*
X150143809Y-87459819D01*
X150143809Y-87459819D02*
X150048571Y-87602676D01*
X150048571Y-87602676D02*
X149953333Y-87697914D01*
X149953333Y-87697914D02*
X149858095Y-87745533D01*
X151048571Y-87459819D02*
X151143809Y-87459819D01*
X151143809Y-87459819D02*
X151239047Y-87507438D01*
X151239047Y-87507438D02*
X151286666Y-87555057D01*
X151286666Y-87555057D02*
X151334285Y-87650295D01*
X151334285Y-87650295D02*
X151381904Y-87840771D01*
X151381904Y-87840771D02*
X151381904Y-88078866D01*
X151381904Y-88078866D02*
X151334285Y-88269342D01*
X151334285Y-88269342D02*
X151286666Y-88364580D01*
X151286666Y-88364580D02*
X151239047Y-88412200D01*
X151239047Y-88412200D02*
X151143809Y-88459819D01*
X151143809Y-88459819D02*
X151048571Y-88459819D01*
X151048571Y-88459819D02*
X150953333Y-88412200D01*
X150953333Y-88412200D02*
X150905714Y-88364580D01*
X150905714Y-88364580D02*
X150858095Y-88269342D01*
X150858095Y-88269342D02*
X150810476Y-88078866D01*
X150810476Y-88078866D02*
X150810476Y-87840771D01*
X150810476Y-87840771D02*
X150858095Y-87650295D01*
X150858095Y-87650295D02*
X150905714Y-87555057D01*
X150905714Y-87555057D02*
X150953333Y-87507438D01*
X150953333Y-87507438D02*
X151048571Y-87459819D01*
X156872142Y-86292080D02*
X156824523Y-86339700D01*
X156824523Y-86339700D02*
X156681666Y-86387319D01*
X156681666Y-86387319D02*
X156586428Y-86387319D01*
X156586428Y-86387319D02*
X156443571Y-86339700D01*
X156443571Y-86339700D02*
X156348333Y-86244461D01*
X156348333Y-86244461D02*
X156300714Y-86149223D01*
X156300714Y-86149223D02*
X156253095Y-85958747D01*
X156253095Y-85958747D02*
X156253095Y-85815890D01*
X156253095Y-85815890D02*
X156300714Y-85625414D01*
X156300714Y-85625414D02*
X156348333Y-85530176D01*
X156348333Y-85530176D02*
X156443571Y-85434938D01*
X156443571Y-85434938D02*
X156586428Y-85387319D01*
X156586428Y-85387319D02*
X156681666Y-85387319D01*
X156681666Y-85387319D02*
X156824523Y-85434938D01*
X156824523Y-85434938D02*
X156872142Y-85482557D01*
X157824523Y-86387319D02*
X157253095Y-86387319D01*
X157538809Y-86387319D02*
X157538809Y-85387319D01*
X157538809Y-85387319D02*
X157443571Y-85530176D01*
X157443571Y-85530176D02*
X157348333Y-85625414D01*
X157348333Y-85625414D02*
X157253095Y-85673033D01*
X158157857Y-85387319D02*
X158776904Y-85387319D01*
X158776904Y-85387319D02*
X158443571Y-85768271D01*
X158443571Y-85768271D02*
X158586428Y-85768271D01*
X158586428Y-85768271D02*
X158681666Y-85815890D01*
X158681666Y-85815890D02*
X158729285Y-85863509D01*
X158729285Y-85863509D02*
X158776904Y-85958747D01*
X158776904Y-85958747D02*
X158776904Y-86196842D01*
X158776904Y-86196842D02*
X158729285Y-86292080D01*
X158729285Y-86292080D02*
X158681666Y-86339700D01*
X158681666Y-86339700D02*
X158586428Y-86387319D01*
X158586428Y-86387319D02*
X158300714Y-86387319D01*
X158300714Y-86387319D02*
X158205476Y-86339700D01*
X158205476Y-86339700D02*
X158157857Y-86292080D01*
X150024580Y-84457857D02*
X150072200Y-84505476D01*
X150072200Y-84505476D02*
X150119819Y-84648333D01*
X150119819Y-84648333D02*
X150119819Y-84743571D01*
X150119819Y-84743571D02*
X150072200Y-84886428D01*
X150072200Y-84886428D02*
X149976961Y-84981666D01*
X149976961Y-84981666D02*
X149881723Y-85029285D01*
X149881723Y-85029285D02*
X149691247Y-85076904D01*
X149691247Y-85076904D02*
X149548390Y-85076904D01*
X149548390Y-85076904D02*
X149357914Y-85029285D01*
X149357914Y-85029285D02*
X149262676Y-84981666D01*
X149262676Y-84981666D02*
X149167438Y-84886428D01*
X149167438Y-84886428D02*
X149119819Y-84743571D01*
X149119819Y-84743571D02*
X149119819Y-84648333D01*
X149119819Y-84648333D02*
X149167438Y-84505476D01*
X149167438Y-84505476D02*
X149215057Y-84457857D01*
X150119819Y-83505476D02*
X150119819Y-84076904D01*
X150119819Y-83791190D02*
X149119819Y-83791190D01*
X149119819Y-83791190D02*
X149262676Y-83886428D01*
X149262676Y-83886428D02*
X149357914Y-83981666D01*
X149357914Y-83981666D02*
X149405533Y-84076904D01*
X150119819Y-82553095D02*
X150119819Y-83124523D01*
X150119819Y-82838809D02*
X149119819Y-82838809D01*
X149119819Y-82838809D02*
X149262676Y-82934047D01*
X149262676Y-82934047D02*
X149357914Y-83029285D01*
X149357914Y-83029285D02*
X149405533Y-83124523D01*
X162623333Y-81139819D02*
X162290000Y-80663628D01*
X162051905Y-81139819D02*
X162051905Y-80139819D01*
X162051905Y-80139819D02*
X162432857Y-80139819D01*
X162432857Y-80139819D02*
X162528095Y-80187438D01*
X162528095Y-80187438D02*
X162575714Y-80235057D01*
X162575714Y-80235057D02*
X162623333Y-80330295D01*
X162623333Y-80330295D02*
X162623333Y-80473152D01*
X162623333Y-80473152D02*
X162575714Y-80568390D01*
X162575714Y-80568390D02*
X162528095Y-80616009D01*
X162528095Y-80616009D02*
X162432857Y-80663628D01*
X162432857Y-80663628D02*
X162051905Y-80663628D01*
X163575714Y-81139819D02*
X163004286Y-81139819D01*
X163290000Y-81139819D02*
X163290000Y-80139819D01*
X163290000Y-80139819D02*
X163194762Y-80282676D01*
X163194762Y-80282676D02*
X163099524Y-80377914D01*
X163099524Y-80377914D02*
X163004286Y-80425533D01*
X146754819Y-92666666D02*
X146278628Y-92999999D01*
X146754819Y-93238094D02*
X145754819Y-93238094D01*
X145754819Y-93238094D02*
X145754819Y-92857142D01*
X145754819Y-92857142D02*
X145802438Y-92761904D01*
X145802438Y-92761904D02*
X145850057Y-92714285D01*
X145850057Y-92714285D02*
X145945295Y-92666666D01*
X145945295Y-92666666D02*
X146088152Y-92666666D01*
X146088152Y-92666666D02*
X146183390Y-92714285D01*
X146183390Y-92714285D02*
X146231009Y-92761904D01*
X146231009Y-92761904D02*
X146278628Y-92857142D01*
X146278628Y-92857142D02*
X146278628Y-93238094D01*
X145754819Y-91761904D02*
X145754819Y-92238094D01*
X145754819Y-92238094D02*
X146231009Y-92285713D01*
X146231009Y-92285713D02*
X146183390Y-92238094D01*
X146183390Y-92238094D02*
X146135771Y-92142856D01*
X146135771Y-92142856D02*
X146135771Y-91904761D01*
X146135771Y-91904761D02*
X146183390Y-91809523D01*
X146183390Y-91809523D02*
X146231009Y-91761904D01*
X146231009Y-91761904D02*
X146326247Y-91714285D01*
X146326247Y-91714285D02*
X146564342Y-91714285D01*
X146564342Y-91714285D02*
X146659580Y-91761904D01*
X146659580Y-91761904D02*
X146707200Y-91809523D01*
X146707200Y-91809523D02*
X146754819Y-91904761D01*
X146754819Y-91904761D02*
X146754819Y-92142856D01*
X146754819Y-92142856D02*
X146707200Y-92238094D01*
X146707200Y-92238094D02*
X146659580Y-92285713D01*
X150378333Y-94274580D02*
X150330714Y-94322200D01*
X150330714Y-94322200D02*
X150187857Y-94369819D01*
X150187857Y-94369819D02*
X150092619Y-94369819D01*
X150092619Y-94369819D02*
X149949762Y-94322200D01*
X149949762Y-94322200D02*
X149854524Y-94226961D01*
X149854524Y-94226961D02*
X149806905Y-94131723D01*
X149806905Y-94131723D02*
X149759286Y-93941247D01*
X149759286Y-93941247D02*
X149759286Y-93798390D01*
X149759286Y-93798390D02*
X149806905Y-93607914D01*
X149806905Y-93607914D02*
X149854524Y-93512676D01*
X149854524Y-93512676D02*
X149949762Y-93417438D01*
X149949762Y-93417438D02*
X150092619Y-93369819D01*
X150092619Y-93369819D02*
X150187857Y-93369819D01*
X150187857Y-93369819D02*
X150330714Y-93417438D01*
X150330714Y-93417438D02*
X150378333Y-93465057D01*
X150854524Y-94369819D02*
X151045000Y-94369819D01*
X151045000Y-94369819D02*
X151140238Y-94322200D01*
X151140238Y-94322200D02*
X151187857Y-94274580D01*
X151187857Y-94274580D02*
X151283095Y-94131723D01*
X151283095Y-94131723D02*
X151330714Y-93941247D01*
X151330714Y-93941247D02*
X151330714Y-93560295D01*
X151330714Y-93560295D02*
X151283095Y-93465057D01*
X151283095Y-93465057D02*
X151235476Y-93417438D01*
X151235476Y-93417438D02*
X151140238Y-93369819D01*
X151140238Y-93369819D02*
X150949762Y-93369819D01*
X150949762Y-93369819D02*
X150854524Y-93417438D01*
X150854524Y-93417438D02*
X150806905Y-93465057D01*
X150806905Y-93465057D02*
X150759286Y-93560295D01*
X150759286Y-93560295D02*
X150759286Y-93798390D01*
X150759286Y-93798390D02*
X150806905Y-93893628D01*
X150806905Y-93893628D02*
X150854524Y-93941247D01*
X150854524Y-93941247D02*
X150949762Y-93988866D01*
X150949762Y-93988866D02*
X151140238Y-93988866D01*
X151140238Y-93988866D02*
X151235476Y-93941247D01*
X151235476Y-93941247D02*
X151283095Y-93893628D01*
X151283095Y-93893628D02*
X151330714Y-93798390D01*
X159684580Y-73621666D02*
X159732200Y-73669285D01*
X159732200Y-73669285D02*
X159779819Y-73812142D01*
X159779819Y-73812142D02*
X159779819Y-73907380D01*
X159779819Y-73907380D02*
X159732200Y-74050237D01*
X159732200Y-74050237D02*
X159636961Y-74145475D01*
X159636961Y-74145475D02*
X159541723Y-74193094D01*
X159541723Y-74193094D02*
X159351247Y-74240713D01*
X159351247Y-74240713D02*
X159208390Y-74240713D01*
X159208390Y-74240713D02*
X159017914Y-74193094D01*
X159017914Y-74193094D02*
X158922676Y-74145475D01*
X158922676Y-74145475D02*
X158827438Y-74050237D01*
X158827438Y-74050237D02*
X158779819Y-73907380D01*
X158779819Y-73907380D02*
X158779819Y-73812142D01*
X158779819Y-73812142D02*
X158827438Y-73669285D01*
X158827438Y-73669285D02*
X158875057Y-73621666D01*
X158779819Y-72764523D02*
X158779819Y-72954999D01*
X158779819Y-72954999D02*
X158827438Y-73050237D01*
X158827438Y-73050237D02*
X158875057Y-73097856D01*
X158875057Y-73097856D02*
X159017914Y-73193094D01*
X159017914Y-73193094D02*
X159208390Y-73240713D01*
X159208390Y-73240713D02*
X159589342Y-73240713D01*
X159589342Y-73240713D02*
X159684580Y-73193094D01*
X159684580Y-73193094D02*
X159732200Y-73145475D01*
X159732200Y-73145475D02*
X159779819Y-73050237D01*
X159779819Y-73050237D02*
X159779819Y-72859761D01*
X159779819Y-72859761D02*
X159732200Y-72764523D01*
X159732200Y-72764523D02*
X159684580Y-72716904D01*
X159684580Y-72716904D02*
X159589342Y-72669285D01*
X159589342Y-72669285D02*
X159351247Y-72669285D01*
X159351247Y-72669285D02*
X159256009Y-72716904D01*
X159256009Y-72716904D02*
X159208390Y-72764523D01*
X159208390Y-72764523D02*
X159160771Y-72859761D01*
X159160771Y-72859761D02*
X159160771Y-73050237D01*
X159160771Y-73050237D02*
X159208390Y-73145475D01*
X159208390Y-73145475D02*
X159256009Y-73193094D01*
X159256009Y-73193094D02*
X159351247Y-73240713D01*
X155924580Y-82246666D02*
X155972200Y-82294285D01*
X155972200Y-82294285D02*
X156019819Y-82437142D01*
X156019819Y-82437142D02*
X156019819Y-82532380D01*
X156019819Y-82532380D02*
X155972200Y-82675237D01*
X155972200Y-82675237D02*
X155876961Y-82770475D01*
X155876961Y-82770475D02*
X155781723Y-82818094D01*
X155781723Y-82818094D02*
X155591247Y-82865713D01*
X155591247Y-82865713D02*
X155448390Y-82865713D01*
X155448390Y-82865713D02*
X155257914Y-82818094D01*
X155257914Y-82818094D02*
X155162676Y-82770475D01*
X155162676Y-82770475D02*
X155067438Y-82675237D01*
X155067438Y-82675237D02*
X155019819Y-82532380D01*
X155019819Y-82532380D02*
X155019819Y-82437142D01*
X155019819Y-82437142D02*
X155067438Y-82294285D01*
X155067438Y-82294285D02*
X155115057Y-82246666D01*
X155019819Y-81913332D02*
X155019819Y-81294285D01*
X155019819Y-81294285D02*
X155400771Y-81627618D01*
X155400771Y-81627618D02*
X155400771Y-81484761D01*
X155400771Y-81484761D02*
X155448390Y-81389523D01*
X155448390Y-81389523D02*
X155496009Y-81341904D01*
X155496009Y-81341904D02*
X155591247Y-81294285D01*
X155591247Y-81294285D02*
X155829342Y-81294285D01*
X155829342Y-81294285D02*
X155924580Y-81341904D01*
X155924580Y-81341904D02*
X155972200Y-81389523D01*
X155972200Y-81389523D02*
X156019819Y-81484761D01*
X156019819Y-81484761D02*
X156019819Y-81770475D01*
X156019819Y-81770475D02*
X155972200Y-81865713D01*
X155972200Y-81865713D02*
X155924580Y-81913332D01*
X157554819Y-73756666D02*
X157078628Y-74089999D01*
X157554819Y-74328094D02*
X156554819Y-74328094D01*
X156554819Y-74328094D02*
X156554819Y-73947142D01*
X156554819Y-73947142D02*
X156602438Y-73851904D01*
X156602438Y-73851904D02*
X156650057Y-73804285D01*
X156650057Y-73804285D02*
X156745295Y-73756666D01*
X156745295Y-73756666D02*
X156888152Y-73756666D01*
X156888152Y-73756666D02*
X156983390Y-73804285D01*
X156983390Y-73804285D02*
X157031009Y-73851904D01*
X157031009Y-73851904D02*
X157078628Y-73947142D01*
X157078628Y-73947142D02*
X157078628Y-74328094D01*
X156650057Y-73375713D02*
X156602438Y-73328094D01*
X156602438Y-73328094D02*
X156554819Y-73232856D01*
X156554819Y-73232856D02*
X156554819Y-72994761D01*
X156554819Y-72994761D02*
X156602438Y-72899523D01*
X156602438Y-72899523D02*
X156650057Y-72851904D01*
X156650057Y-72851904D02*
X156745295Y-72804285D01*
X156745295Y-72804285D02*
X156840533Y-72804285D01*
X156840533Y-72804285D02*
X156983390Y-72851904D01*
X156983390Y-72851904D02*
X157554819Y-73423332D01*
X157554819Y-73423332D02*
X157554819Y-72804285D01*
X162479580Y-85577857D02*
X162527200Y-85625476D01*
X162527200Y-85625476D02*
X162574819Y-85768333D01*
X162574819Y-85768333D02*
X162574819Y-85863571D01*
X162574819Y-85863571D02*
X162527200Y-86006428D01*
X162527200Y-86006428D02*
X162431961Y-86101666D01*
X162431961Y-86101666D02*
X162336723Y-86149285D01*
X162336723Y-86149285D02*
X162146247Y-86196904D01*
X162146247Y-86196904D02*
X162003390Y-86196904D01*
X162003390Y-86196904D02*
X161812914Y-86149285D01*
X161812914Y-86149285D02*
X161717676Y-86101666D01*
X161717676Y-86101666D02*
X161622438Y-86006428D01*
X161622438Y-86006428D02*
X161574819Y-85863571D01*
X161574819Y-85863571D02*
X161574819Y-85768333D01*
X161574819Y-85768333D02*
X161622438Y-85625476D01*
X161622438Y-85625476D02*
X161670057Y-85577857D01*
X162574819Y-84625476D02*
X162574819Y-85196904D01*
X162574819Y-84911190D02*
X161574819Y-84911190D01*
X161574819Y-84911190D02*
X161717676Y-85006428D01*
X161717676Y-85006428D02*
X161812914Y-85101666D01*
X161812914Y-85101666D02*
X161860533Y-85196904D01*
X161670057Y-84244523D02*
X161622438Y-84196904D01*
X161622438Y-84196904D02*
X161574819Y-84101666D01*
X161574819Y-84101666D02*
X161574819Y-83863571D01*
X161574819Y-83863571D02*
X161622438Y-83768333D01*
X161622438Y-83768333D02*
X161670057Y-83720714D01*
X161670057Y-83720714D02*
X161765295Y-83673095D01*
X161765295Y-83673095D02*
X161860533Y-83673095D01*
X161860533Y-83673095D02*
X162003390Y-83720714D01*
X162003390Y-83720714D02*
X162574819Y-84292142D01*
X162574819Y-84292142D02*
X162574819Y-83673095D01*
X156855833Y-79919819D02*
X156522500Y-79443628D01*
X156284405Y-79919819D02*
X156284405Y-78919819D01*
X156284405Y-78919819D02*
X156665357Y-78919819D01*
X156665357Y-78919819D02*
X156760595Y-78967438D01*
X156760595Y-78967438D02*
X156808214Y-79015057D01*
X156808214Y-79015057D02*
X156855833Y-79110295D01*
X156855833Y-79110295D02*
X156855833Y-79253152D01*
X156855833Y-79253152D02*
X156808214Y-79348390D01*
X156808214Y-79348390D02*
X156760595Y-79396009D01*
X156760595Y-79396009D02*
X156665357Y-79443628D01*
X156665357Y-79443628D02*
X156284405Y-79443628D01*
X157712976Y-79253152D02*
X157712976Y-79919819D01*
X157474881Y-78872200D02*
X157236786Y-79586485D01*
X157236786Y-79586485D02*
X157855833Y-79586485D01*
X154439819Y-77496666D02*
X153963628Y-77829999D01*
X154439819Y-78068094D02*
X153439819Y-78068094D01*
X153439819Y-78068094D02*
X153439819Y-77687142D01*
X153439819Y-77687142D02*
X153487438Y-77591904D01*
X153487438Y-77591904D02*
X153535057Y-77544285D01*
X153535057Y-77544285D02*
X153630295Y-77496666D01*
X153630295Y-77496666D02*
X153773152Y-77496666D01*
X153773152Y-77496666D02*
X153868390Y-77544285D01*
X153868390Y-77544285D02*
X153916009Y-77591904D01*
X153916009Y-77591904D02*
X153963628Y-77687142D01*
X153963628Y-77687142D02*
X153963628Y-78068094D01*
X153439819Y-77163332D02*
X153439819Y-76544285D01*
X153439819Y-76544285D02*
X153820771Y-76877618D01*
X153820771Y-76877618D02*
X153820771Y-76734761D01*
X153820771Y-76734761D02*
X153868390Y-76639523D01*
X153868390Y-76639523D02*
X153916009Y-76591904D01*
X153916009Y-76591904D02*
X154011247Y-76544285D01*
X154011247Y-76544285D02*
X154249342Y-76544285D01*
X154249342Y-76544285D02*
X154344580Y-76591904D01*
X154344580Y-76591904D02*
X154392200Y-76639523D01*
X154392200Y-76639523D02*
X154439819Y-76734761D01*
X154439819Y-76734761D02*
X154439819Y-77020475D01*
X154439819Y-77020475D02*
X154392200Y-77115713D01*
X154392200Y-77115713D02*
X154344580Y-77163332D01*
X163029580Y-73616666D02*
X163077200Y-73664285D01*
X163077200Y-73664285D02*
X163124819Y-73807142D01*
X163124819Y-73807142D02*
X163124819Y-73902380D01*
X163124819Y-73902380D02*
X163077200Y-74045237D01*
X163077200Y-74045237D02*
X162981961Y-74140475D01*
X162981961Y-74140475D02*
X162886723Y-74188094D01*
X162886723Y-74188094D02*
X162696247Y-74235713D01*
X162696247Y-74235713D02*
X162553390Y-74235713D01*
X162553390Y-74235713D02*
X162362914Y-74188094D01*
X162362914Y-74188094D02*
X162267676Y-74140475D01*
X162267676Y-74140475D02*
X162172438Y-74045237D01*
X162172438Y-74045237D02*
X162124819Y-73902380D01*
X162124819Y-73902380D02*
X162124819Y-73807142D01*
X162124819Y-73807142D02*
X162172438Y-73664285D01*
X162172438Y-73664285D02*
X162220057Y-73616666D01*
X162124819Y-73283332D02*
X162124819Y-72616666D01*
X162124819Y-72616666D02*
X163124819Y-73045237D01*
X147979819Y-92641666D02*
X147503628Y-92974999D01*
X147979819Y-93213094D02*
X146979819Y-93213094D01*
X146979819Y-93213094D02*
X146979819Y-92832142D01*
X146979819Y-92832142D02*
X147027438Y-92736904D01*
X147027438Y-92736904D02*
X147075057Y-92689285D01*
X147075057Y-92689285D02*
X147170295Y-92641666D01*
X147170295Y-92641666D02*
X147313152Y-92641666D01*
X147313152Y-92641666D02*
X147408390Y-92689285D01*
X147408390Y-92689285D02*
X147456009Y-92736904D01*
X147456009Y-92736904D02*
X147503628Y-92832142D01*
X147503628Y-92832142D02*
X147503628Y-93213094D01*
X146979819Y-91784523D02*
X146979819Y-91974999D01*
X146979819Y-91974999D02*
X147027438Y-92070237D01*
X147027438Y-92070237D02*
X147075057Y-92117856D01*
X147075057Y-92117856D02*
X147217914Y-92213094D01*
X147217914Y-92213094D02*
X147408390Y-92260713D01*
X147408390Y-92260713D02*
X147789342Y-92260713D01*
X147789342Y-92260713D02*
X147884580Y-92213094D01*
X147884580Y-92213094D02*
X147932200Y-92165475D01*
X147932200Y-92165475D02*
X147979819Y-92070237D01*
X147979819Y-92070237D02*
X147979819Y-91879761D01*
X147979819Y-91879761D02*
X147932200Y-91784523D01*
X147932200Y-91784523D02*
X147884580Y-91736904D01*
X147884580Y-91736904D02*
X147789342Y-91689285D01*
X147789342Y-91689285D02*
X147551247Y-91689285D01*
X147551247Y-91689285D02*
X147456009Y-91736904D01*
X147456009Y-91736904D02*
X147408390Y-91784523D01*
X147408390Y-91784523D02*
X147360771Y-91879761D01*
X147360771Y-91879761D02*
X147360771Y-92070237D01*
X147360771Y-92070237D02*
X147408390Y-92165475D01*
X147408390Y-92165475D02*
X147456009Y-92213094D01*
X147456009Y-92213094D02*
X147551247Y-92260713D01*
X163498333Y-83032080D02*
X163450714Y-83079700D01*
X163450714Y-83079700D02*
X163307857Y-83127319D01*
X163307857Y-83127319D02*
X163212619Y-83127319D01*
X163212619Y-83127319D02*
X163069762Y-83079700D01*
X163069762Y-83079700D02*
X162974524Y-82984461D01*
X162974524Y-82984461D02*
X162926905Y-82889223D01*
X162926905Y-82889223D02*
X162879286Y-82698747D01*
X162879286Y-82698747D02*
X162879286Y-82555890D01*
X162879286Y-82555890D02*
X162926905Y-82365414D01*
X162926905Y-82365414D02*
X162974524Y-82270176D01*
X162974524Y-82270176D02*
X163069762Y-82174938D01*
X163069762Y-82174938D02*
X163212619Y-82127319D01*
X163212619Y-82127319D02*
X163307857Y-82127319D01*
X163307857Y-82127319D02*
X163450714Y-82174938D01*
X163450714Y-82174938D02*
X163498333Y-82222557D01*
X164069762Y-82555890D02*
X163974524Y-82508271D01*
X163974524Y-82508271D02*
X163926905Y-82460652D01*
X163926905Y-82460652D02*
X163879286Y-82365414D01*
X163879286Y-82365414D02*
X163879286Y-82317795D01*
X163879286Y-82317795D02*
X163926905Y-82222557D01*
X163926905Y-82222557D02*
X163974524Y-82174938D01*
X163974524Y-82174938D02*
X164069762Y-82127319D01*
X164069762Y-82127319D02*
X164260238Y-82127319D01*
X164260238Y-82127319D02*
X164355476Y-82174938D01*
X164355476Y-82174938D02*
X164403095Y-82222557D01*
X164403095Y-82222557D02*
X164450714Y-82317795D01*
X164450714Y-82317795D02*
X164450714Y-82365414D01*
X164450714Y-82365414D02*
X164403095Y-82460652D01*
X164403095Y-82460652D02*
X164355476Y-82508271D01*
X164355476Y-82508271D02*
X164260238Y-82555890D01*
X164260238Y-82555890D02*
X164069762Y-82555890D01*
X164069762Y-82555890D02*
X163974524Y-82603509D01*
X163974524Y-82603509D02*
X163926905Y-82651128D01*
X163926905Y-82651128D02*
X163879286Y-82746366D01*
X163879286Y-82746366D02*
X163879286Y-82936842D01*
X163879286Y-82936842D02*
X163926905Y-83032080D01*
X163926905Y-83032080D02*
X163974524Y-83079700D01*
X163974524Y-83079700D02*
X164069762Y-83127319D01*
X164069762Y-83127319D02*
X164260238Y-83127319D01*
X164260238Y-83127319D02*
X164355476Y-83079700D01*
X164355476Y-83079700D02*
X164403095Y-83032080D01*
X164403095Y-83032080D02*
X164450714Y-82936842D01*
X164450714Y-82936842D02*
X164450714Y-82746366D01*
X164450714Y-82746366D02*
X164403095Y-82651128D01*
X164403095Y-82651128D02*
X164355476Y-82603509D01*
X164355476Y-82603509D02*
X164260238Y-82555890D01*
X144785833Y-88879580D02*
X144738214Y-88927200D01*
X144738214Y-88927200D02*
X144595357Y-88974819D01*
X144595357Y-88974819D02*
X144500119Y-88974819D01*
X144500119Y-88974819D02*
X144357262Y-88927200D01*
X144357262Y-88927200D02*
X144262024Y-88831961D01*
X144262024Y-88831961D02*
X144214405Y-88736723D01*
X144214405Y-88736723D02*
X144166786Y-88546247D01*
X144166786Y-88546247D02*
X144166786Y-88403390D01*
X144166786Y-88403390D02*
X144214405Y-88212914D01*
X144214405Y-88212914D02*
X144262024Y-88117676D01*
X144262024Y-88117676D02*
X144357262Y-88022438D01*
X144357262Y-88022438D02*
X144500119Y-87974819D01*
X144500119Y-87974819D02*
X144595357Y-87974819D01*
X144595357Y-87974819D02*
X144738214Y-88022438D01*
X144738214Y-88022438D02*
X144785833Y-88070057D01*
X145166786Y-88070057D02*
X145214405Y-88022438D01*
X145214405Y-88022438D02*
X145309643Y-87974819D01*
X145309643Y-87974819D02*
X145547738Y-87974819D01*
X145547738Y-87974819D02*
X145642976Y-88022438D01*
X145642976Y-88022438D02*
X145690595Y-88070057D01*
X145690595Y-88070057D02*
X145738214Y-88165295D01*
X145738214Y-88165295D02*
X145738214Y-88260533D01*
X145738214Y-88260533D02*
X145690595Y-88403390D01*
X145690595Y-88403390D02*
X145119167Y-88974819D01*
X145119167Y-88974819D02*
X145738214Y-88974819D01*
X153653333Y-85224580D02*
X153605714Y-85272200D01*
X153605714Y-85272200D02*
X153462857Y-85319819D01*
X153462857Y-85319819D02*
X153367619Y-85319819D01*
X153367619Y-85319819D02*
X153224762Y-85272200D01*
X153224762Y-85272200D02*
X153129524Y-85176961D01*
X153129524Y-85176961D02*
X153081905Y-85081723D01*
X153081905Y-85081723D02*
X153034286Y-84891247D01*
X153034286Y-84891247D02*
X153034286Y-84748390D01*
X153034286Y-84748390D02*
X153081905Y-84557914D01*
X153081905Y-84557914D02*
X153129524Y-84462676D01*
X153129524Y-84462676D02*
X153224762Y-84367438D01*
X153224762Y-84367438D02*
X153367619Y-84319819D01*
X153367619Y-84319819D02*
X153462857Y-84319819D01*
X153462857Y-84319819D02*
X153605714Y-84367438D01*
X153605714Y-84367438D02*
X153653333Y-84415057D01*
X154510476Y-84653152D02*
X154510476Y-85319819D01*
X154272381Y-84272200D02*
X154034286Y-84986485D01*
X154034286Y-84986485D02*
X154653333Y-84986485D01*
X164340833Y-78877080D02*
X164293214Y-78924700D01*
X164293214Y-78924700D02*
X164150357Y-78972319D01*
X164150357Y-78972319D02*
X164055119Y-78972319D01*
X164055119Y-78972319D02*
X163912262Y-78924700D01*
X163912262Y-78924700D02*
X163817024Y-78829461D01*
X163817024Y-78829461D02*
X163769405Y-78734223D01*
X163769405Y-78734223D02*
X163721786Y-78543747D01*
X163721786Y-78543747D02*
X163721786Y-78400890D01*
X163721786Y-78400890D02*
X163769405Y-78210414D01*
X163769405Y-78210414D02*
X163817024Y-78115176D01*
X163817024Y-78115176D02*
X163912262Y-78019938D01*
X163912262Y-78019938D02*
X164055119Y-77972319D01*
X164055119Y-77972319D02*
X164150357Y-77972319D01*
X164150357Y-77972319D02*
X164293214Y-78019938D01*
X164293214Y-78019938D02*
X164340833Y-78067557D01*
X165245595Y-77972319D02*
X164769405Y-77972319D01*
X164769405Y-77972319D02*
X164721786Y-78448509D01*
X164721786Y-78448509D02*
X164769405Y-78400890D01*
X164769405Y-78400890D02*
X164864643Y-78353271D01*
X164864643Y-78353271D02*
X165102738Y-78353271D01*
X165102738Y-78353271D02*
X165197976Y-78400890D01*
X165197976Y-78400890D02*
X165245595Y-78448509D01*
X165245595Y-78448509D02*
X165293214Y-78543747D01*
X165293214Y-78543747D02*
X165293214Y-78781842D01*
X165293214Y-78781842D02*
X165245595Y-78877080D01*
X165245595Y-78877080D02*
X165197976Y-78924700D01*
X165197976Y-78924700D02*
X165102738Y-78972319D01*
X165102738Y-78972319D02*
X164864643Y-78972319D01*
X164864643Y-78972319D02*
X164769405Y-78924700D01*
X164769405Y-78924700D02*
X164721786Y-78877080D01*
X147828333Y-83484580D02*
X147780714Y-83532200D01*
X147780714Y-83532200D02*
X147637857Y-83579819D01*
X147637857Y-83579819D02*
X147542619Y-83579819D01*
X147542619Y-83579819D02*
X147399762Y-83532200D01*
X147399762Y-83532200D02*
X147304524Y-83436961D01*
X147304524Y-83436961D02*
X147256905Y-83341723D01*
X147256905Y-83341723D02*
X147209286Y-83151247D01*
X147209286Y-83151247D02*
X147209286Y-83008390D01*
X147209286Y-83008390D02*
X147256905Y-82817914D01*
X147256905Y-82817914D02*
X147304524Y-82722676D01*
X147304524Y-82722676D02*
X147399762Y-82627438D01*
X147399762Y-82627438D02*
X147542619Y-82579819D01*
X147542619Y-82579819D02*
X147637857Y-82579819D01*
X147637857Y-82579819D02*
X147780714Y-82627438D01*
X147780714Y-82627438D02*
X147828333Y-82675057D01*
X148780714Y-83579819D02*
X148209286Y-83579819D01*
X148495000Y-83579819D02*
X148495000Y-82579819D01*
X148495000Y-82579819D02*
X148399762Y-82722676D01*
X148399762Y-82722676D02*
X148304524Y-82817914D01*
X148304524Y-82817914D02*
X148209286Y-82865533D01*
D11*
%TO.C,IC2*%
X144665000Y-84160000D02*
X145865000Y-84160000D01*
X146215000Y-84210000D02*
X146815000Y-84210000D01*
X146215000Y-87110000D02*
X146215000Y-84210000D01*
X146815000Y-84210000D02*
X146815000Y-87110000D01*
X146815000Y-87110000D02*
X146215000Y-87110000D01*
D12*
%TO.C,C10*%
X150235835Y-86715000D02*
X150004165Y-86715000D01*
X150235835Y-87435000D02*
X150004165Y-87435000D01*
%TO.C,L1*%
X152445000Y-87120000D02*
X152895000Y-87120000D01*
X152445000Y-93320000D02*
X152445000Y-87120000D01*
X152445000Y-93320000D02*
X152895000Y-93320000D01*
X158645000Y-87120000D02*
X158195000Y-87120000D01*
X158645000Y-87120000D02*
X158645000Y-93320000D01*
X158645000Y-93320000D02*
X158195000Y-93320000D01*
%TO.C,C13*%
X159949165Y-85405000D02*
X160180835Y-85405000D01*
X159949165Y-86125000D02*
X160180835Y-86125000D01*
%TO.C,C11*%
X150235835Y-85440000D02*
X150004165Y-85440000D01*
X150235835Y-86160000D02*
X150004165Y-86160000D01*
%TO.C,R1*%
X164338859Y-80212500D02*
X164646141Y-80212500D01*
X164338859Y-80972500D02*
X164646141Y-80972500D01*
%TO.C,R5*%
X145925000Y-90570121D02*
X145925000Y-90234879D01*
X146685000Y-90570121D02*
X146685000Y-90234879D01*
%TO.C,C9*%
X150660835Y-92395000D02*
X150429165Y-92395000D01*
X150660835Y-93115000D02*
X150429165Y-93115000D01*
D13*
%TO.C,PS1*%
X149115000Y-88905000D02*
X149115000Y-90905000D01*
X150615000Y-88305000D02*
X150615000Y-88305000D01*
X150715000Y-88305000D02*
X150715000Y-88305000D01*
X151115000Y-88905000D02*
X151115000Y-90905000D01*
X150615000Y-88305000D02*
G75*
G02*
X150715000Y-88305000I50000J0D01*
G01*
X150715000Y-88305000D02*
G75*
G02*
X150615000Y-88305000I-50000J0D01*
G01*
D12*
%TO.C,J2*%
X144700000Y-82085000D02*
X144700000Y-69165000D01*
X147350000Y-79435000D02*
X147350000Y-82085000D01*
X147350000Y-82085000D02*
X144700000Y-82085000D01*
X150000000Y-69165000D02*
X144700000Y-69165000D01*
X150000000Y-79435000D02*
X147350000Y-79435000D01*
X150000000Y-79435000D02*
X150000000Y-69165000D01*
X150000000Y-80705000D02*
X150000000Y-82085000D01*
X150000000Y-82085000D02*
X148620000Y-82085000D01*
%TO.C,C6*%
X160125000Y-73570835D02*
X160125000Y-73339165D01*
X160845000Y-73570835D02*
X160845000Y-73339165D01*
%TO.C,C3*%
X154820000Y-84178335D02*
X154820000Y-83946665D01*
X155540000Y-84178335D02*
X155540000Y-83946665D01*
D14*
%TO.C,G\u002A\u002A\u002A*%
G36*
X162408509Y-87304495D02*
G01*
X162490484Y-87346298D01*
X162572122Y-87385497D01*
X162653361Y-87422070D01*
X162734140Y-87455996D01*
X162814397Y-87487250D01*
X162894070Y-87515810D01*
X162973098Y-87541654D01*
X163051419Y-87564759D01*
X163128972Y-87585101D01*
X163205694Y-87602659D01*
X163232767Y-87608228D01*
X163311738Y-87622575D01*
X163390233Y-87634006D01*
X163468248Y-87642522D01*
X163545780Y-87648122D01*
X163622826Y-87650807D01*
X163699381Y-87650576D01*
X163775442Y-87647431D01*
X163851005Y-87641370D01*
X163926067Y-87632395D01*
X164000623Y-87620505D01*
X164074671Y-87605700D01*
X164148207Y-87587981D01*
X164215572Y-87569055D01*
X164283449Y-87547276D01*
X164351556Y-87522664D01*
X164419690Y-87495314D01*
X164487650Y-87465324D01*
X164555237Y-87432787D01*
X164622249Y-87397800D01*
X164688484Y-87360459D01*
X164753742Y-87320859D01*
X164801212Y-87290206D01*
X164805282Y-87287508D01*
X164805264Y-88048035D01*
X164805262Y-88107738D01*
X164805259Y-88164566D01*
X164805254Y-88218603D01*
X164805246Y-88269934D01*
X164805235Y-88318644D01*
X164805219Y-88364818D01*
X164805199Y-88408540D01*
X164805174Y-88449895D01*
X164805142Y-88488969D01*
X164805103Y-88525845D01*
X164805057Y-88560608D01*
X164805002Y-88593344D01*
X164804938Y-88624136D01*
X164804864Y-88653071D01*
X164804780Y-88680231D01*
X164804685Y-88705703D01*
X164804578Y-88729571D01*
X164804458Y-88751919D01*
X164804326Y-88772833D01*
X164804179Y-88792397D01*
X164804017Y-88810695D01*
X164803840Y-88827814D01*
X164803647Y-88843837D01*
X164803437Y-88858848D01*
X164803210Y-88872934D01*
X164802965Y-88886179D01*
X164802700Y-88898666D01*
X164802416Y-88910482D01*
X164802112Y-88921711D01*
X164801786Y-88932437D01*
X164801439Y-88942745D01*
X164801069Y-88952721D01*
X164800677Y-88962449D01*
X164800260Y-88972013D01*
X164799819Y-88981498D01*
X164799352Y-88990989D01*
X164798860Y-89000572D01*
X164798341Y-89010329D01*
X164797794Y-89020347D01*
X164797220Y-89030711D01*
X164797063Y-89033525D01*
X164789440Y-89147754D01*
X164779271Y-89263325D01*
X164766584Y-89380121D01*
X164751409Y-89498026D01*
X164733776Y-89616924D01*
X164713713Y-89736698D01*
X164691251Y-89857234D01*
X164666419Y-89978414D01*
X164639247Y-90100122D01*
X164609763Y-90222242D01*
X164577997Y-90344659D01*
X164543979Y-90467255D01*
X164507738Y-90589914D01*
X164469303Y-90712522D01*
X164428705Y-90834960D01*
X164385972Y-90957114D01*
X164341133Y-91078866D01*
X164294219Y-91200102D01*
X164245259Y-91320704D01*
X164194282Y-91440556D01*
X164176993Y-91479988D01*
X164126368Y-91592165D01*
X164074274Y-91702833D01*
X164020764Y-91811908D01*
X163965892Y-91919303D01*
X163909712Y-92024935D01*
X163852276Y-92128718D01*
X163793638Y-92230567D01*
X163733851Y-92330396D01*
X163672969Y-92428121D01*
X163611045Y-92523656D01*
X163548133Y-92616917D01*
X163484286Y-92707818D01*
X163419557Y-92796273D01*
X163354000Y-92882199D01*
X163287668Y-92965510D01*
X163220615Y-93046120D01*
X163152893Y-93123944D01*
X163130006Y-93149444D01*
X163113425Y-93167594D01*
X163095388Y-93187012D01*
X163076184Y-93207403D01*
X163056100Y-93228477D01*
X163035422Y-93249941D01*
X163014439Y-93271502D01*
X162993438Y-93292867D01*
X162972706Y-93313744D01*
X162952531Y-93333840D01*
X162933200Y-93352863D01*
X162915000Y-93370521D01*
X162898220Y-93386521D01*
X162884571Y-93399258D01*
X162830791Y-93447986D01*
X162777931Y-93494180D01*
X162725748Y-93538028D01*
X162673997Y-93579717D01*
X162622435Y-93619435D01*
X162570819Y-93657369D01*
X162518903Y-93693706D01*
X162466445Y-93728635D01*
X162413201Y-93762343D01*
X162409879Y-93764390D01*
X162401542Y-93769509D01*
X162393911Y-93774173D01*
X162387395Y-93778132D01*
X162382405Y-93781140D01*
X162379349Y-93782947D01*
X162378737Y-93783290D01*
X162377578Y-93783581D01*
X162375906Y-93783300D01*
X162373442Y-93782285D01*
X162369908Y-93780376D01*
X162365024Y-93777413D01*
X162358512Y-93773236D01*
X162350093Y-93767683D01*
X162340614Y-93761349D01*
X162272853Y-93714400D01*
X162205214Y-93664504D01*
X162137710Y-93611673D01*
X162070353Y-93555918D01*
X162003156Y-93497251D01*
X161936132Y-93435683D01*
X161869293Y-93371226D01*
X161802651Y-93303891D01*
X161736219Y-93233689D01*
X161670010Y-93160632D01*
X161618580Y-93101733D01*
X161546728Y-93016237D01*
X161475736Y-92928002D01*
X161405658Y-92837139D01*
X161336547Y-92743757D01*
X161268459Y-92647966D01*
X161201446Y-92549876D01*
X161135563Y-92449596D01*
X161070864Y-92347237D01*
X161007402Y-92242907D01*
X160945231Y-92136718D01*
X160884406Y-92028778D01*
X160824979Y-91919197D01*
X160767006Y-91808086D01*
X160710540Y-91695553D01*
X160655634Y-91581710D01*
X160602343Y-91466664D01*
X160550721Y-91350527D01*
X160500822Y-91233408D01*
X160452699Y-91115417D01*
X160406406Y-90996663D01*
X160361998Y-90877257D01*
X160319527Y-90757307D01*
X160279049Y-90636925D01*
X160240617Y-90516219D01*
X160204285Y-90395300D01*
X160170106Y-90274277D01*
X160138135Y-90153260D01*
X160108426Y-90032358D01*
X160105679Y-90020694D01*
X160081985Y-89915970D01*
X160060095Y-89811519D01*
X160040047Y-89707586D01*
X160021883Y-89604415D01*
X160005642Y-89502246D01*
X159991363Y-89401325D01*
X159979086Y-89301895D01*
X159968852Y-89204197D01*
X159964919Y-89160806D01*
X159964102Y-89151331D01*
X159963105Y-89139767D01*
X159962002Y-89126973D01*
X159960866Y-89113810D01*
X159959773Y-89101136D01*
X159959366Y-89096426D01*
X159956109Y-89058685D01*
X159955991Y-88818314D01*
X160446800Y-88818314D01*
X160446808Y-88855725D01*
X160446826Y-88890844D01*
X160446854Y-88923767D01*
X160446894Y-88954588D01*
X160446946Y-88983405D01*
X160447010Y-89010311D01*
X160447088Y-89035403D01*
X160447179Y-89058776D01*
X160447285Y-89080525D01*
X160447406Y-89100746D01*
X160447542Y-89119535D01*
X160447695Y-89136986D01*
X160447865Y-89153195D01*
X160448053Y-89168258D01*
X160448258Y-89182270D01*
X160448483Y-89195326D01*
X160448727Y-89207523D01*
X160448991Y-89218955D01*
X160449275Y-89229718D01*
X160449582Y-89239908D01*
X160449910Y-89249619D01*
X160450260Y-89258947D01*
X160450634Y-89267989D01*
X160451031Y-89276838D01*
X160451454Y-89285592D01*
X160451860Y-89293562D01*
X160458261Y-89392455D01*
X160467210Y-89492718D01*
X160478687Y-89594257D01*
X160492668Y-89696974D01*
X160509132Y-89800774D01*
X160528057Y-89905561D01*
X160549421Y-90011238D01*
X160573202Y-90117710D01*
X160599378Y-90224880D01*
X160627926Y-90332653D01*
X160658826Y-90440931D01*
X160692054Y-90549619D01*
X160727589Y-90658622D01*
X160765410Y-90767842D01*
X160805493Y-90877184D01*
X160827434Y-90934603D01*
X160867365Y-91035175D01*
X160908826Y-91134779D01*
X160951760Y-91233327D01*
X160996111Y-91330727D01*
X161041821Y-91426888D01*
X161088833Y-91521722D01*
X161137092Y-91615137D01*
X161186539Y-91707044D01*
X161237118Y-91797352D01*
X161288772Y-91885970D01*
X161341444Y-91972810D01*
X161395077Y-92057779D01*
X161449615Y-92140789D01*
X161505000Y-92221748D01*
X161561175Y-92300567D01*
X161618085Y-92377156D01*
X161675671Y-92451423D01*
X161733877Y-92523279D01*
X161792646Y-92592634D01*
X161851921Y-92659397D01*
X161911645Y-92723478D01*
X161971762Y-92784786D01*
X162028036Y-92839297D01*
X162073040Y-92881018D01*
X162117163Y-92920358D01*
X162160767Y-92957620D01*
X162204216Y-92993108D01*
X162247872Y-93027127D01*
X162286298Y-93055761D01*
X162293234Y-93060772D01*
X162301320Y-93066530D01*
X162310242Y-93072820D01*
X162319683Y-93079424D01*
X162329329Y-93086124D01*
X162338863Y-93092706D01*
X162347971Y-93098950D01*
X162356337Y-93104642D01*
X162363646Y-93109563D01*
X162369581Y-93113498D01*
X162373828Y-93116229D01*
X162376071Y-93117540D01*
X162376313Y-93117624D01*
X162377764Y-93116894D01*
X162381275Y-93114885D01*
X162386384Y-93111868D01*
X162392629Y-93108114D01*
X162395677Y-93106262D01*
X162405933Y-93099899D01*
X162418100Y-93092164D01*
X162431671Y-93083393D01*
X162446137Y-93073923D01*
X162460993Y-93064090D01*
X162475731Y-93054231D01*
X162489843Y-93044681D01*
X162502824Y-93035778D01*
X162514165Y-93027856D01*
X162517920Y-93025187D01*
X162578598Y-92980281D01*
X162639080Y-92932469D01*
X162699315Y-92881799D01*
X162759247Y-92828322D01*
X162818822Y-92772088D01*
X162877988Y-92713147D01*
X162936688Y-92651548D01*
X162994870Y-92587342D01*
X163006125Y-92574551D01*
X163067082Y-92503131D01*
X163127311Y-92428924D01*
X163186755Y-92352028D01*
X163245352Y-92272541D01*
X163303042Y-92190559D01*
X163359765Y-92106181D01*
X163415461Y-92019505D01*
X163470069Y-91930627D01*
X163523530Y-91839645D01*
X163575783Y-91746656D01*
X163626768Y-91651759D01*
X163676425Y-91555051D01*
X163724694Y-91456629D01*
X163771514Y-91356591D01*
X163808088Y-91275006D01*
X163854902Y-91165704D01*
X163899628Y-91055569D01*
X163942226Y-90944740D01*
X163982660Y-90833360D01*
X164020891Y-90721568D01*
X164056881Y-90609507D01*
X164090593Y-90497316D01*
X164121988Y-90385136D01*
X164151030Y-90273109D01*
X164177680Y-90161376D01*
X164201900Y-90050077D01*
X164223653Y-89939353D01*
X164242901Y-89829345D01*
X164259606Y-89720194D01*
X164273730Y-89612041D01*
X164285235Y-89505027D01*
X164286432Y-89492329D01*
X164288563Y-89468746D01*
X164290539Y-89445504D01*
X164292388Y-89422190D01*
X164294137Y-89398391D01*
X164295815Y-89373691D01*
X164297450Y-89347677D01*
X164299070Y-89319935D01*
X164300703Y-89290052D01*
X164302334Y-89258487D01*
X164302491Y-89254368D01*
X164302641Y-89248326D01*
X164302785Y-89240315D01*
X164302923Y-89230288D01*
X164303055Y-89218196D01*
X164303181Y-89203993D01*
X164303302Y-89187632D01*
X164303417Y-89169066D01*
X164303527Y-89148246D01*
X164303632Y-89125127D01*
X164303732Y-89099662D01*
X164303827Y-89071802D01*
X164303917Y-89041500D01*
X164304003Y-89008710D01*
X164304085Y-88973385D01*
X164304162Y-88935477D01*
X164304235Y-88894938D01*
X164304305Y-88851723D01*
X164304371Y-88805783D01*
X164304433Y-88757071D01*
X164304492Y-88705541D01*
X164304548Y-88651145D01*
X164304601Y-88594123D01*
X164305151Y-87963800D01*
X164301024Y-87966513D01*
X164267305Y-87987932D01*
X164231190Y-88009487D01*
X164193213Y-88030900D01*
X164153909Y-88051894D01*
X164113814Y-88072192D01*
X164073462Y-88091517D01*
X164033387Y-88109592D01*
X163994126Y-88126139D01*
X163989054Y-88128185D01*
X163924652Y-88152460D01*
X163859516Y-88173886D01*
X163793709Y-88192447D01*
X163727295Y-88208128D01*
X163660337Y-88220912D01*
X163592896Y-88230785D01*
X163569470Y-88233519D01*
X163521569Y-88237889D01*
X163471863Y-88240796D01*
X163421124Y-88242229D01*
X163370125Y-88242178D01*
X163319640Y-88240636D01*
X163270439Y-88237592D01*
X163265328Y-88237181D01*
X163197437Y-88230266D01*
X163129161Y-88220659D01*
X163060445Y-88208345D01*
X162991235Y-88193310D01*
X162921476Y-88175539D01*
X162851114Y-88155017D01*
X162780095Y-88131729D01*
X162708365Y-88105660D01*
X162635869Y-88076795D01*
X162562553Y-88045119D01*
X162557141Y-88042684D01*
X162538652Y-88034233D01*
X162518616Y-88024875D01*
X162497692Y-88014931D01*
X162476541Y-88004720D01*
X162455823Y-87994563D01*
X162436199Y-87984780D01*
X162418329Y-87975689D01*
X162410783Y-87971778D01*
X162376165Y-87953709D01*
X162354542Y-87964980D01*
X162279997Y-88002627D01*
X162206026Y-88037560D01*
X162132662Y-88069768D01*
X162059937Y-88099242D01*
X161987881Y-88125969D01*
X161916528Y-88149940D01*
X161845908Y-88171144D01*
X161776054Y-88189571D01*
X161706996Y-88205209D01*
X161638768Y-88218048D01*
X161571400Y-88228078D01*
X161563870Y-88229031D01*
X161540717Y-88231832D01*
X161519587Y-88234206D01*
X161499943Y-88236185D01*
X161481249Y-88237800D01*
X161462969Y-88239085D01*
X161444565Y-88240070D01*
X161425501Y-88240788D01*
X161405240Y-88241270D01*
X161383247Y-88241550D01*
X161358984Y-88241657D01*
X161351669Y-88241661D01*
X161329749Y-88241615D01*
X161310313Y-88241472D01*
X161292888Y-88241210D01*
X161277001Y-88240806D01*
X161262178Y-88240236D01*
X161247944Y-88239478D01*
X161233826Y-88238508D01*
X161219349Y-88237306D01*
X161204040Y-88235846D01*
X161187426Y-88234107D01*
X161181468Y-88233456D01*
X161114316Y-88224603D01*
X161047760Y-88212904D01*
X160981721Y-88198339D01*
X160916121Y-88180888D01*
X160850881Y-88160532D01*
X160785924Y-88137250D01*
X160753744Y-88124593D01*
X160713947Y-88107773D01*
X160672823Y-88089049D01*
X160630997Y-88068745D01*
X160589093Y-88047185D01*
X160547735Y-88024691D01*
X160507545Y-88001588D01*
X160469149Y-87978198D01*
X160459221Y-87971908D01*
X160447381Y-87964341D01*
X160446931Y-88540374D01*
X160446891Y-88593540D01*
X160446858Y-88643842D01*
X160446832Y-88691375D01*
X160446813Y-88736234D01*
X160446802Y-88778515D01*
X160446800Y-88818314D01*
X159955991Y-88818314D01*
X159955677Y-88176096D01*
X159955245Y-87293508D01*
X159960811Y-87296877D01*
X159964763Y-87299345D01*
X159970119Y-87302788D01*
X159975825Y-87306526D01*
X159976736Y-87307131D01*
X159983621Y-87311604D01*
X159992616Y-87317291D01*
X160003270Y-87323920D01*
X160015135Y-87331217D01*
X160027761Y-87338908D01*
X160040699Y-87346721D01*
X160053498Y-87354383D01*
X160065711Y-87361619D01*
X160076886Y-87368158D01*
X160081817Y-87371007D01*
X160152522Y-87410061D01*
X160223653Y-87446187D01*
X160295209Y-87479385D01*
X160367189Y-87509654D01*
X160439593Y-87536994D01*
X160512420Y-87561406D01*
X160585669Y-87582888D01*
X160659340Y-87601441D01*
X160733431Y-87617064D01*
X160807942Y-87629758D01*
X160882872Y-87639522D01*
X160958221Y-87646356D01*
X161033987Y-87650260D01*
X161110170Y-87651234D01*
X161186769Y-87649277D01*
X161263784Y-87644389D01*
X161288029Y-87642252D01*
X161365485Y-87633561D01*
X161443537Y-87621997D01*
X161522188Y-87607558D01*
X161601446Y-87590242D01*
X161681315Y-87570048D01*
X161761801Y-87546974D01*
X161842909Y-87521019D01*
X161924646Y-87492181D01*
X162007016Y-87460459D01*
X162090025Y-87425851D01*
X162135337Y-87405863D01*
X162156083Y-87396409D01*
X162178863Y-87385798D01*
X162203120Y-87374303D01*
X162228295Y-87362197D01*
X162253831Y-87349753D01*
X162279170Y-87337242D01*
X162303754Y-87324938D01*
X162327024Y-87313113D01*
X162348424Y-87302039D01*
X162355969Y-87298074D01*
X162376059Y-87287466D01*
X162408509Y-87304495D01*
G37*
G36*
X162428339Y-88892239D02*
G01*
X162486605Y-88896275D01*
X162544691Y-88903236D01*
X162555624Y-88904879D01*
X162613530Y-88915349D01*
X162670635Y-88928643D01*
X162726843Y-88944713D01*
X162782060Y-88963511D01*
X162836191Y-88984990D01*
X162889142Y-89009100D01*
X162940819Y-89035795D01*
X162991126Y-89065027D01*
X163039970Y-89096747D01*
X163087255Y-89130907D01*
X163132888Y-89167460D01*
X163176773Y-89206358D01*
X163206203Y-89234756D01*
X163246729Y-89277310D01*
X163284883Y-89321580D01*
X163320630Y-89367469D01*
X163353936Y-89414877D01*
X163384769Y-89463709D01*
X163413095Y-89513865D01*
X163438880Y-89565249D01*
X163462090Y-89617762D01*
X163482692Y-89671307D01*
X163500653Y-89725787D01*
X163515939Y-89781104D01*
X163528517Y-89837159D01*
X163538352Y-89893856D01*
X163545412Y-89951097D01*
X163549662Y-90008784D01*
X163551070Y-90066819D01*
X163549601Y-90125106D01*
X163545223Y-90183545D01*
X163541986Y-90212356D01*
X163533316Y-90269945D01*
X163521752Y-90327087D01*
X163507346Y-90383635D01*
X163490148Y-90439443D01*
X163470211Y-90494363D01*
X163447586Y-90548248D01*
X163422323Y-90600951D01*
X163394475Y-90652324D01*
X163380282Y-90676341D01*
X163348914Y-90725168D01*
X163315096Y-90772436D01*
X163278949Y-90818017D01*
X163240596Y-90861785D01*
X163200156Y-90903614D01*
X163157753Y-90943377D01*
X163113507Y-90980947D01*
X163067541Y-91016198D01*
X163026650Y-91044613D01*
X162976539Y-91076150D01*
X162925555Y-91104898D01*
X162873638Y-91130879D01*
X162820728Y-91154114D01*
X162766764Y-91174622D01*
X162711686Y-91192427D01*
X162655435Y-91207548D01*
X162597949Y-91220007D01*
X162539169Y-91229824D01*
X162479034Y-91237021D01*
X162475000Y-91237406D01*
X162468803Y-91237861D01*
X162460249Y-91238304D01*
X162449734Y-91238728D01*
X162437655Y-91239126D01*
X162424410Y-91239491D01*
X162410394Y-91239818D01*
X162396006Y-91240099D01*
X162381642Y-91240327D01*
X162367699Y-91240496D01*
X162354574Y-91240598D01*
X162342665Y-91240628D01*
X162332368Y-91240578D01*
X162324079Y-91240442D01*
X162318197Y-91240212D01*
X162316639Y-91240096D01*
X162313080Y-91239801D01*
X162307257Y-91239357D01*
X162299861Y-91238816D01*
X162291579Y-91238229D01*
X162287778Y-91237965D01*
X162249933Y-91234571D01*
X162210559Y-91229563D01*
X162170475Y-91223092D01*
X162130496Y-91215308D01*
X162091439Y-91206361D01*
X162054121Y-91196401D01*
X162041356Y-91192623D01*
X162033278Y-91190171D01*
X162025813Y-91187915D01*
X162019599Y-91186048D01*
X162015272Y-91184761D01*
X162014048Y-91184405D01*
X162011031Y-91183441D01*
X162005782Y-91181662D01*
X161998854Y-91179259D01*
X161990798Y-91176422D01*
X161982967Y-91173631D01*
X161928171Y-91152550D01*
X161875167Y-91129211D01*
X161823804Y-91103525D01*
X161773932Y-91075404D01*
X161725399Y-91044758D01*
X161678053Y-91011499D01*
X161631743Y-90975536D01*
X161598355Y-90947396D01*
X161590188Y-90940067D01*
X161580436Y-90930967D01*
X161569514Y-90920510D01*
X161557833Y-90909109D01*
X161545809Y-90897179D01*
X161533854Y-90885133D01*
X161522382Y-90873384D01*
X161511806Y-90862346D01*
X161502539Y-90852432D01*
X161494996Y-90844057D01*
X161494581Y-90843582D01*
X161456249Y-90797459D01*
X161420478Y-90749911D01*
X161387294Y-90701001D01*
X161356726Y-90650793D01*
X161328800Y-90599351D01*
X161314317Y-90569179D01*
X161672272Y-90569179D01*
X161672594Y-90583243D01*
X161673491Y-90597125D01*
X161674926Y-90609841D01*
X161676407Y-90618384D01*
X161683192Y-90644082D01*
X161692386Y-90668121D01*
X161704077Y-90690660D01*
X161718352Y-90711856D01*
X161735299Y-90731867D01*
X161744896Y-90741567D01*
X161764639Y-90758626D01*
X161785772Y-90773118D01*
X161808377Y-90785084D01*
X161832538Y-90794567D01*
X161858337Y-90801608D01*
X161868934Y-90803713D01*
X161876609Y-90804656D01*
X161886509Y-90805228D01*
X161897927Y-90805450D01*
X161910155Y-90805337D01*
X161922483Y-90804909D01*
X161934203Y-90804182D01*
X161944606Y-90803174D01*
X161952985Y-90801903D01*
X161954552Y-90801575D01*
X161979989Y-90794408D01*
X162004218Y-90784643D01*
X162027060Y-90772417D01*
X162048332Y-90757869D01*
X162067855Y-90741137D01*
X162085447Y-90722359D01*
X162100929Y-90701672D01*
X162113692Y-90680041D01*
X162123436Y-90658619D01*
X162125484Y-90652660D01*
X162612755Y-90652660D01*
X162612798Y-90663845D01*
X162612955Y-90672681D01*
X162613270Y-90679778D01*
X162613787Y-90685748D01*
X162614548Y-90691201D01*
X162615596Y-90696747D01*
X162616025Y-90698759D01*
X162623083Y-90724560D01*
X162632677Y-90749050D01*
X162644683Y-90772071D01*
X162658978Y-90793467D01*
X162675440Y-90813078D01*
X162693944Y-90830747D01*
X162714369Y-90846316D01*
X162736590Y-90859626D01*
X162744363Y-90863528D01*
X162768229Y-90873410D01*
X162792863Y-90880631D01*
X162817928Y-90885132D01*
X162843086Y-90886851D01*
X162867944Y-90885734D01*
X162894467Y-90881606D01*
X162919646Y-90874849D01*
X162943534Y-90865444D01*
X162966180Y-90853374D01*
X162974441Y-90848105D01*
X162996038Y-90831979D01*
X163015317Y-90814020D01*
X163032243Y-90794280D01*
X163046780Y-90772810D01*
X163058895Y-90749662D01*
X163068551Y-90724886D01*
X163075440Y-90699785D01*
X163076555Y-90694398D01*
X163077388Y-90689259D01*
X163077979Y-90683795D01*
X163078366Y-90677432D01*
X163078591Y-90669597D01*
X163078693Y-90659716D01*
X163078712Y-90652660D01*
X163078686Y-90641336D01*
X163078558Y-90632401D01*
X163078291Y-90625284D01*
X163077844Y-90619416D01*
X163077179Y-90614225D01*
X163076258Y-90609141D01*
X163075510Y-90605657D01*
X163068195Y-90579342D01*
X163058398Y-90554582D01*
X163046171Y-90531454D01*
X163031566Y-90510035D01*
X163014637Y-90490401D01*
X162995435Y-90472630D01*
X162974015Y-90456798D01*
X162972651Y-90455906D01*
X162950335Y-90443121D01*
X162926993Y-90433003D01*
X162902867Y-90425550D01*
X162878197Y-90420760D01*
X162853225Y-90418632D01*
X162828191Y-90419166D01*
X162803337Y-90422360D01*
X162778903Y-90428213D01*
X162755130Y-90436723D01*
X162732259Y-90447890D01*
X162717092Y-90457169D01*
X162695694Y-90473164D01*
X162676507Y-90491102D01*
X162659597Y-90510886D01*
X162645029Y-90532418D01*
X162632868Y-90555603D01*
X162623179Y-90580343D01*
X162616030Y-90606542D01*
X162616025Y-90606561D01*
X162614869Y-90612278D01*
X162614015Y-90617694D01*
X162613421Y-90623420D01*
X162613042Y-90630066D01*
X162612836Y-90638244D01*
X162612759Y-90648562D01*
X162612755Y-90652660D01*
X162125484Y-90652660D01*
X162131362Y-90635561D01*
X162135609Y-90619129D01*
X162136787Y-90613547D01*
X162137662Y-90608409D01*
X162138275Y-90603123D01*
X162138670Y-90597094D01*
X162138889Y-90589731D01*
X162138973Y-90580439D01*
X162138974Y-90572000D01*
X162138911Y-90560677D01*
X162138741Y-90551716D01*
X162138422Y-90544519D01*
X162137913Y-90538487D01*
X162137169Y-90533024D01*
X162136149Y-90527530D01*
X162135635Y-90525100D01*
X162128607Y-90499295D01*
X162119059Y-90475035D01*
X162106954Y-90452248D01*
X162092254Y-90430868D01*
X162074921Y-90410824D01*
X162071079Y-90406913D01*
X162051109Y-90388946D01*
X162029985Y-90373704D01*
X162007709Y-90361189D01*
X161984283Y-90351401D01*
X161959708Y-90344342D01*
X161933988Y-90340011D01*
X161916180Y-90338639D01*
X161890037Y-90338952D01*
X161864614Y-90342038D01*
X161840070Y-90347761D01*
X161816561Y-90355988D01*
X161794247Y-90366585D01*
X161773285Y-90379417D01*
X161753835Y-90394351D01*
X161736053Y-90411252D01*
X161720098Y-90429986D01*
X161706128Y-90450420D01*
X161694302Y-90472418D01*
X161684777Y-90495848D01*
X161677712Y-90520574D01*
X161673510Y-90544436D01*
X161672565Y-90555915D01*
X161672272Y-90569179D01*
X161314317Y-90569179D01*
X161303545Y-90546737D01*
X161280988Y-90493014D01*
X161261157Y-90438246D01*
X161244079Y-90382496D01*
X161229781Y-90325827D01*
X161218292Y-90268302D01*
X161209639Y-90209985D01*
X161206677Y-90183496D01*
X161203157Y-90138974D01*
X161201338Y-90092916D01*
X161201219Y-90046210D01*
X161202040Y-90022108D01*
X162142064Y-90022108D01*
X162144708Y-90047066D01*
X162150064Y-90071690D01*
X162158136Y-90095766D01*
X162168925Y-90119077D01*
X162180200Y-90138078D01*
X162195960Y-90159373D01*
X162213747Y-90178563D01*
X162233404Y-90195542D01*
X162254775Y-90210204D01*
X162277703Y-90222441D01*
X162302031Y-90232149D01*
X162327602Y-90239221D01*
X162329959Y-90239724D01*
X162349798Y-90242738D01*
X162371214Y-90243928D01*
X162393438Y-90243275D01*
X162408399Y-90241796D01*
X162433219Y-90237194D01*
X162456952Y-90229969D01*
X162479467Y-90220296D01*
X162500637Y-90208352D01*
X162520332Y-90194313D01*
X162538424Y-90178356D01*
X162554784Y-90160658D01*
X162569282Y-90141394D01*
X162581791Y-90120741D01*
X162592180Y-90098876D01*
X162600321Y-90075974D01*
X162606085Y-90052213D01*
X162609344Y-90027770D01*
X162609967Y-90002819D01*
X162607827Y-89977538D01*
X162606707Y-89970374D01*
X162600884Y-89945088D01*
X162592414Y-89920899D01*
X162581455Y-89897979D01*
X162568165Y-89876496D01*
X162552702Y-89856623D01*
X162535223Y-89838530D01*
X162515886Y-89822388D01*
X162494850Y-89808368D01*
X162472272Y-89796639D01*
X162448310Y-89787374D01*
X162433560Y-89783125D01*
X162408498Y-89778260D01*
X162383078Y-89776153D01*
X162357619Y-89776759D01*
X162332442Y-89780034D01*
X162307865Y-89785934D01*
X162284210Y-89794416D01*
X162261797Y-89805436D01*
X162258927Y-89807090D01*
X162242230Y-89818050D01*
X162225690Y-89831086D01*
X162209985Y-89845567D01*
X162195794Y-89860864D01*
X162183795Y-89876349D01*
X162183039Y-89877447D01*
X162169455Y-89899873D01*
X162158570Y-89923260D01*
X162150386Y-89947393D01*
X162144906Y-89972056D01*
X162142131Y-89997033D01*
X162142064Y-90022108D01*
X161202040Y-90022108D01*
X161202802Y-89999743D01*
X161206085Y-89954402D01*
X161206682Y-89948174D01*
X161212996Y-89896989D01*
X161221830Y-89845120D01*
X161233049Y-89793192D01*
X161246518Y-89741830D01*
X161261695Y-89692871D01*
X161281668Y-89637853D01*
X161304264Y-89584129D01*
X161329412Y-89531782D01*
X161357035Y-89480892D01*
X161387061Y-89431538D01*
X161419415Y-89383801D01*
X161430885Y-89368542D01*
X161672660Y-89368542D01*
X161672844Y-89381722D01*
X161673481Y-89393966D01*
X161674575Y-89404525D01*
X161675548Y-89410189D01*
X161682223Y-89436036D01*
X161690933Y-89459883D01*
X161701820Y-89482005D01*
X161715030Y-89502680D01*
X161730706Y-89522184D01*
X161737839Y-89529865D01*
X161757244Y-89547862D01*
X161778295Y-89563421D01*
X161800859Y-89576472D01*
X161824807Y-89586946D01*
X161850008Y-89594773D01*
X161865896Y-89598209D01*
X161877222Y-89599720D01*
X161890478Y-89600592D01*
X161904843Y-89600843D01*
X161919501Y-89600491D01*
X161933633Y-89599555D01*
X161946421Y-89598052D01*
X161956255Y-89596195D01*
X161980349Y-89589397D01*
X162002309Y-89580924D01*
X162022600Y-89570517D01*
X162041689Y-89557919D01*
X162060042Y-89542869D01*
X162071057Y-89532391D01*
X162086254Y-89516010D01*
X162612755Y-89516010D01*
X162612798Y-89527194D01*
X162612955Y-89536030D01*
X162613270Y-89543128D01*
X162613787Y-89549098D01*
X162614548Y-89554550D01*
X162615596Y-89560097D01*
X162616025Y-89562109D01*
X162623094Y-89587953D01*
X162632696Y-89612470D01*
X162644714Y-89635506D01*
X162659026Y-89656907D01*
X162675514Y-89676520D01*
X162694058Y-89694191D01*
X162714539Y-89709768D01*
X162736836Y-89723095D01*
X162744363Y-89726873D01*
X162768817Y-89737043D01*
X162793762Y-89744349D01*
X162819058Y-89748768D01*
X162844570Y-89750274D01*
X162867944Y-89749084D01*
X162894411Y-89744980D01*
X162919502Y-89738279D01*
X162943329Y-89728942D01*
X162966006Y-89716928D01*
X162972651Y-89712764D01*
X162994122Y-89697094D01*
X163013430Y-89679432D01*
X163030505Y-89659882D01*
X163045275Y-89638548D01*
X163057669Y-89615533D01*
X163067617Y-89590940D01*
X163075047Y-89564873D01*
X163075440Y-89563134D01*
X163076555Y-89557747D01*
X163077388Y-89552608D01*
X163077979Y-89547144D01*
X163078366Y-89540782D01*
X163078591Y-89532946D01*
X163078693Y-89523065D01*
X163078712Y-89516010D01*
X163078686Y-89504686D01*
X163078558Y-89495750D01*
X163078291Y-89488634D01*
X163077844Y-89482765D01*
X163077179Y-89477574D01*
X163076258Y-89472490D01*
X163075510Y-89469007D01*
X163068201Y-89442709D01*
X163058414Y-89417967D01*
X163046201Y-89394858D01*
X163031617Y-89373462D01*
X163014715Y-89353856D01*
X162995549Y-89336121D01*
X162974227Y-89320370D01*
X162951791Y-89307315D01*
X162928371Y-89296951D01*
X162904193Y-89289279D01*
X162879488Y-89284297D01*
X162854483Y-89282005D01*
X162829407Y-89282402D01*
X162804488Y-89285487D01*
X162779956Y-89291260D01*
X162756039Y-89299721D01*
X162732965Y-89310867D01*
X162716148Y-89321126D01*
X162695018Y-89337018D01*
X162676022Y-89354921D01*
X162659242Y-89374714D01*
X162644761Y-89396272D01*
X162632661Y-89419473D01*
X162623026Y-89444194D01*
X162616025Y-89469910D01*
X162614869Y-89475627D01*
X162614015Y-89481043D01*
X162613421Y-89486769D01*
X162613042Y-89493416D01*
X162612836Y-89501593D01*
X162612759Y-89511912D01*
X162612755Y-89516010D01*
X162086254Y-89516010D01*
X162086786Y-89515436D01*
X162099985Y-89498409D01*
X162111035Y-89480699D01*
X162120318Y-89461698D01*
X162128039Y-89441322D01*
X162134875Y-89416284D01*
X162138854Y-89390825D01*
X162140003Y-89365187D01*
X162138351Y-89339611D01*
X162133925Y-89314340D01*
X162126753Y-89289615D01*
X162116862Y-89265678D01*
X162105516Y-89244773D01*
X162094775Y-89229041D01*
X162081897Y-89213295D01*
X162067596Y-89198311D01*
X162052586Y-89184866D01*
X162045056Y-89178977D01*
X162023592Y-89164849D01*
X162000867Y-89153297D01*
X161977126Y-89144349D01*
X161952615Y-89138036D01*
X161927579Y-89134386D01*
X161902264Y-89133426D01*
X161876916Y-89135187D01*
X161851780Y-89139697D01*
X161827102Y-89146985D01*
X161814301Y-89151979D01*
X161796230Y-89160501D01*
X161779678Y-89170193D01*
X161763960Y-89181523D01*
X161748393Y-89194962D01*
X161740112Y-89202959D01*
X161722735Y-89222191D01*
X161707946Y-89242670D01*
X161695652Y-89264570D01*
X161685759Y-89288065D01*
X161678173Y-89313331D01*
X161676311Y-89321388D01*
X161674752Y-89330846D01*
X161673620Y-89342356D01*
X161672920Y-89355171D01*
X161672660Y-89368542D01*
X161430885Y-89368542D01*
X161454022Y-89337762D01*
X161490809Y-89293501D01*
X161529701Y-89251097D01*
X161570624Y-89210633D01*
X161613504Y-89172187D01*
X161658266Y-89135840D01*
X161704837Y-89101674D01*
X161753141Y-89069767D01*
X161803105Y-89040200D01*
X161854655Y-89013054D01*
X161907717Y-88988409D01*
X161915555Y-88985038D01*
X161970061Y-88963429D01*
X162025464Y-88944610D01*
X162081644Y-88928594D01*
X162138482Y-88915399D01*
X162195857Y-88905038D01*
X162253650Y-88897526D01*
X162311741Y-88892879D01*
X162370011Y-88891112D01*
X162428339Y-88892239D01*
G37*
D12*
%TO.C,R2*%
X156630000Y-75537379D02*
X156630000Y-75872621D01*
X157390000Y-75537379D02*
X157390000Y-75872621D01*
%TO.C,C12*%
X161510000Y-82605835D02*
X161510000Y-82374165D01*
X162230000Y-82605835D02*
X162230000Y-82374165D01*
%TO.C,R4*%
X157190121Y-77915000D02*
X156854879Y-77915000D01*
X157190121Y-78675000D02*
X156854879Y-78675000D01*
%TO.C,R3*%
X154845000Y-77162379D02*
X154845000Y-77497621D01*
X155605000Y-77162379D02*
X155605000Y-77497621D01*
D13*
%TO.C,U1*%
X154320000Y-73865000D02*
X154320000Y-72855000D01*
X154320000Y-74750000D02*
X154320000Y-75755000D01*
X154320000Y-75755000D02*
X155620000Y-75755000D01*
X155620000Y-72855000D02*
X154320000Y-72855000D01*
X155620000Y-74790000D02*
X155620000Y-73810000D01*
D12*
%TO.C,C7*%
X161150000Y-73334165D02*
X161150000Y-73565835D01*
X161870000Y-73334165D02*
X161870000Y-73565835D01*
D13*
%TO.C,Y1*%
X159650000Y-81245000D02*
X159650000Y-81245000D01*
X159750000Y-81245000D02*
X159750000Y-81245000D01*
X159650000Y-81245000D02*
G75*
G02*
X159750000Y-81245000I50000J0D01*
G01*
X159750000Y-81245000D02*
G75*
G02*
X159650000Y-81245000I-50000J0D01*
G01*
D12*
%TO.C,R6*%
X147175000Y-90234879D02*
X147175000Y-90570121D01*
X147935000Y-90234879D02*
X147935000Y-90570121D01*
%TO.C,C8*%
X163504165Y-81172500D02*
X163735835Y-81172500D01*
X163504165Y-81892500D02*
X163735835Y-81892500D01*
D11*
%TO.C,IC3*%
X152265000Y-81040000D02*
X152865000Y-81040000D01*
X152265000Y-83940000D02*
X152265000Y-81040000D01*
X152865000Y-81040000D02*
X152865000Y-83940000D01*
X152865000Y-83940000D02*
X152265000Y-83940000D01*
X154415000Y-83990000D02*
X153215000Y-83990000D01*
D12*
%TO.C,C2*%
X147100835Y-88180000D02*
X146869165Y-88180000D01*
X147100835Y-88900000D02*
X146869165Y-88900000D01*
D15*
%TO.C,IC1*%
X163425000Y-79542500D02*
G75*
G02*
X163175000Y-79542500I-125000J0D01*
G01*
X163175000Y-79542500D02*
G75*
G02*
X163425000Y-79542500I125000J0D01*
G01*
D12*
%TO.C,C4*%
X151744165Y-84455000D02*
X151975835Y-84455000D01*
X151744165Y-85175000D02*
X151975835Y-85175000D01*
%TO.C,C5*%
X164620336Y-79202500D02*
X164404664Y-79202500D01*
X164620336Y-79922500D02*
X164404664Y-79922500D01*
%TO.C,C1*%
X145950835Y-82765000D02*
X145719165Y-82765000D01*
X145950835Y-83485000D02*
X145719165Y-83485000D01*
%TD*%
M02*
