%TF.GenerationSoftware,KiCad,Pcbnew,9.0.1*%
%TF.CreationDate,2025-04-18T20:02:12-04:00*%
%TF.ProjectId,M.2 to USB V1.0,4d2e3220-746f-4205-9553-422056312e30,rev?*%
%TF.SameCoordinates,Original*%
%TF.FileFunction,Soldermask,Top*%
%TF.FilePolarity,Negative*%
%FSLAX46Y46*%
G04 Gerber Fmt 4.6, Leading zero omitted, Abs format (unit mm)*
G04 Created by KiCad (PCBNEW 9.0.1) date 2025-04-18 20:02:12*
%MOMM*%
%LPD*%
G01*
G04 APERTURE LIST*
G04 Aperture macros list*
%AMRoundRect*
0 Rectangle with rounded corners*
0 $1 Rounding radius*
0 $2 $3 $4 $5 $6 $7 $8 $9 X,Y pos of 4 corners*
0 Add a 4 corners polygon primitive as box body*
4,1,4,$2,$3,$4,$5,$6,$7,$8,$9,$2,$3,0*
0 Add four circle primitives for the rounded corners*
1,1,$1+$1,$2,$3*
1,1,$1+$1,$4,$5*
1,1,$1+$1,$6,$7*
1,1,$1+$1,$8,$9*
0 Add four rect primitives between the rounded corners*
20,1,$1+$1,$2,$3,$4,$5,0*
20,1,$1+$1,$4,$5,$6,$7,0*
20,1,$1+$1,$6,$7,$8,$9,0*
20,1,$1+$1,$8,$9,$2,$3,0*%
G04 Aperture macros list end*
%ADD10C,0.100000*%
%ADD11R,1.200000X0.600000*%
%ADD12RoundRect,0.155000X0.212500X0.155000X-0.212500X0.155000X-0.212500X-0.155000X0.212500X-0.155000X0*%
%ADD13R,5.100000X2.350000*%
%ADD14RoundRect,0.155000X-0.212500X-0.155000X0.212500X-0.155000X0.212500X0.155000X-0.212500X0.155000X0*%
%ADD15RoundRect,0.135000X-0.135000X-0.185000X0.135000X-0.185000X0.135000X0.185000X-0.135000X0.185000X0*%
%ADD16RoundRect,0.160000X0.160000X-0.197500X0.160000X0.197500X-0.160000X0.197500X-0.160000X-0.197500X0*%
%ADD17R,0.350000X1.150000*%
%ADD18R,0.200000X1.450000*%
%ADD19R,0.250000X0.450000*%
%ADD20C,1.700000*%
%ADD21RoundRect,0.155000X0.155000X-0.212500X0.155000X0.212500X-0.155000X0.212500X-0.155000X-0.212500X0*%
%ADD22RoundRect,0.160000X-0.160000X0.197500X-0.160000X-0.197500X0.160000X-0.197500X0.160000X0.197500X0*%
%ADD23RoundRect,0.160000X0.197500X0.160000X-0.197500X0.160000X-0.197500X-0.160000X0.197500X-0.160000X0*%
%ADD24RoundRect,0.120000X0.330000X0.280000X-0.330000X0.280000X-0.330000X-0.280000X0.330000X-0.280000X0*%
%ADD25RoundRect,0.155000X-0.155000X0.212500X-0.155000X-0.212500X0.155000X-0.212500X0.155000X0.212500X0*%
%ADD26R,1.400000X1.100000*%
%ADD27C,5.500000*%
%ADD28R,0.850000X0.300000*%
%ADD29R,0.300000X0.850000*%
%ADD30R,2.600000X2.600000*%
%ADD31RoundRect,0.140000X0.140000X0.170000X-0.140000X0.170000X-0.140000X-0.170000X0.140000X-0.170000X0*%
G04 APERTURE END LIST*
%TO.C,J1*%
D10*
X144950000Y-96385000D02*
X156900000Y-96385000D01*
X156900000Y-98435000D01*
X144950000Y-98435000D01*
X144950000Y-96385000D01*
G36*
X144950000Y-96385000D02*
G01*
X156900000Y-96385000D01*
X156900000Y-98435000D01*
X144950000Y-98435000D01*
X144950000Y-96385000D01*
G37*
X158100000Y-96385000D02*
X160900000Y-96385000D01*
X160900000Y-98435000D01*
X158100000Y-98435000D01*
X158100000Y-96385000D01*
G36*
X158100000Y-96385000D02*
G01*
X160900000Y-96385000D01*
X160900000Y-98435000D01*
X158100000Y-98435000D01*
X158100000Y-96385000D01*
G37*
X162105000Y-96385000D02*
X164800000Y-96385000D01*
X164800000Y-98435000D01*
X162105000Y-98435000D01*
X162105000Y-96385000D01*
G36*
X162105000Y-96385000D02*
G01*
X164800000Y-96385000D01*
X164800000Y-98435000D01*
X162105000Y-98435000D01*
X162105000Y-96385000D01*
G37*
%TD*%
D11*
%TO.C,IC2*%
X145265000Y-84710000D03*
X145265000Y-85660000D03*
X145265000Y-86610000D03*
X147765000Y-86610000D03*
X147765000Y-84710000D03*
%TD*%
D12*
%TO.C,C10*%
X150687500Y-87075000D03*
X149552500Y-87075000D03*
%TD*%
D13*
%TO.C,L1*%
X155545000Y-92295000D03*
X155545000Y-88145000D03*
%TD*%
D14*
%TO.C,C13*%
X159497500Y-85765000D03*
X160632500Y-85765000D03*
%TD*%
D12*
%TO.C,C11*%
X150687500Y-85800000D03*
X149552500Y-85800000D03*
%TD*%
D15*
%TO.C,R1*%
X163982500Y-80592500D03*
X165002500Y-80592500D03*
%TD*%
D16*
%TO.C,R5*%
X146305000Y-91000000D03*
X146305000Y-89805000D03*
%TD*%
D12*
%TO.C,C9*%
X151112500Y-92755000D03*
X149977500Y-92755000D03*
%TD*%
D17*
%TO.C,PS1*%
X150665000Y-89280000D03*
D18*
X150115000Y-89430000D03*
D17*
X149565000Y-89280000D03*
D19*
X149365000Y-90880000D03*
X149865000Y-90880000D03*
X150365000Y-90880000D03*
X150865000Y-90880000D03*
%TD*%
D20*
%TO.C,J2*%
X146080000Y-70545000D03*
X148620000Y-70545000D03*
X146080000Y-73085000D03*
X148620000Y-73085000D03*
X146080000Y-75625000D03*
X148620000Y-75625000D03*
X146080000Y-78165000D03*
X148620000Y-78165000D03*
X146080000Y-80705000D03*
%TD*%
D21*
%TO.C,C6*%
X160485000Y-74022500D03*
X160485000Y-72887500D03*
%TD*%
%TO.C,C3*%
X155180000Y-84630000D03*
X155180000Y-83495000D03*
%TD*%
D22*
%TO.C,R2*%
X157010000Y-75107500D03*
X157010000Y-76302500D03*
%TD*%
D21*
%TO.C,C12*%
X161870000Y-83057500D03*
X161870000Y-81922500D03*
%TD*%
D23*
%TO.C,R4*%
X157620000Y-78295000D03*
X156425000Y-78295000D03*
%TD*%
D22*
%TO.C,R3*%
X155225000Y-76732500D03*
X155225000Y-77927500D03*
%TD*%
D24*
%TO.C,U1*%
X155970000Y-75255000D03*
X155970000Y-73355000D03*
X153970000Y-74305000D03*
%TD*%
D25*
%TO.C,C7*%
X161510000Y-72882500D03*
X161510000Y-74017500D03*
%TD*%
D26*
%TO.C,Y1*%
X159650000Y-82145000D03*
X157450000Y-82145000D03*
X157450000Y-83745000D03*
X159650000Y-83745000D03*
%TD*%
D22*
%TO.C,R6*%
X147555000Y-89805000D03*
X147555000Y-91000000D03*
%TD*%
D14*
%TO.C,C8*%
X163052500Y-81532500D03*
X164187500Y-81532500D03*
%TD*%
D11*
%TO.C,IC3*%
X153815000Y-83440000D03*
X153815000Y-82490000D03*
X153815000Y-81540000D03*
X151315000Y-81540000D03*
X151315000Y-83440000D03*
%TD*%
D27*
%TO.C,H1*%
X154875000Y-68435000D03*
%TD*%
D12*
%TO.C,C2*%
X147552500Y-88540000D03*
X146417500Y-88540000D03*
%TD*%
D28*
%TO.C,IC1*%
X162875000Y-78792500D03*
X162875000Y-78292500D03*
X162875000Y-77792500D03*
X162875000Y-77292500D03*
X162875000Y-76792500D03*
X162875000Y-76292500D03*
D29*
X162175000Y-75592500D03*
X161675000Y-75592500D03*
X161175000Y-75592500D03*
X160675000Y-75592500D03*
X160175000Y-75592500D03*
X159675000Y-75592500D03*
D28*
X158975000Y-76292500D03*
X158975000Y-76792500D03*
X158975000Y-77292500D03*
X158975000Y-77792500D03*
X158975000Y-78292500D03*
X158975000Y-78792500D03*
D29*
X159675000Y-79492500D03*
X160175000Y-79492500D03*
X160675000Y-79492500D03*
X161175000Y-79492500D03*
X161675000Y-79492500D03*
X162175000Y-79492500D03*
D30*
X160925000Y-77542500D03*
%TD*%
D14*
%TO.C,C4*%
X151292500Y-84815000D03*
X152427500Y-84815000D03*
%TD*%
D31*
%TO.C,C5*%
X164992500Y-79562500D03*
X164032500Y-79562500D03*
%TD*%
D12*
%TO.C,C1*%
X146402500Y-83125000D03*
X145267500Y-83125000D03*
%TD*%
M02*
