M48
; DRILL file {KiCad 9.0.1} date 2025-04-18T20:02:15-0400
; FORMAT={-:-/ absolute / inch / decimal}
; #@! TF.CreationDate,2025-04-18T20:02:15-04:00
; #@! TF.GenerationSoftware,Kicad,Pcbnew,9.0.1
; #@! TF.FileFunction,Plated,1,2,PTH
FMAT,2
INCH
; #@! TA.AperFunction,Plated,PTH,ViaDrill
T1C0.0100
; #@! TA.AperFunction,Plated,PTH,ViaDrill
T2C0.0197
; #@! TA.AperFunction,Plated,PTH,ComponentDrill
T3C0.0394
; #@! TA.AperFunction,Plated,PTH,ComponentDrill
T4C0.1378
%
G90
G05
T1
X5.7055Y-3.5315
X5.7057Y-3.4846
X5.7063Y-3.6398
X5.7065Y-3.5764
X5.7159Y-3.6937
X5.7193Y-3.4441
X5.7673Y-3.3764
X5.7858Y-3.7543
X5.81Y-3.2443
X5.8106Y-3.3793
X5.8189Y-3.1923
X5.8291Y-3.2774
X5.8449Y-3.2295
X5.8449Y-3.7543
X5.8463Y-3.1551
X5.8705Y-3.1931
X5.8841Y-3.6841
X5.898Y-3.3096
X5.9039Y-3.7543
X5.9065Y-3.6841
X5.9321Y-3.4654
X5.9437Y-2.7339
X5.9447Y-2.7835
X5.952Y-3.6199
X5.9561Y-3.2453
X5.963Y-3.7543
X5.9652Y-3.402
X5.9675Y-3.5978
X5.9843Y-2.8104
X5.9974Y-3.6085
X5.9976Y-3.6423
X5.9999Y-3.6705
X6.0024Y-3.378
X6.022Y-3.7543
X6.0482Y-3.0504
X6.0533Y-3.3659
X6.0683Y-3.177
X6.0811Y-3.7543
X6.0962Y-3.3902
X6.0986Y-2.8923
X6.1033Y-2.9411
X6.11Y-3.2413
X6.1205Y-3.1451
X6.1402Y-3.7543
X6.1818Y-3.5522
X6.1965Y-3.05
X6.2065Y-3.1504
X6.2167Y-2.7902
X6.2169Y-3.1163
X6.2237Y-3.1761
X6.2502Y-2.7327
X6.2502Y-3.7537
X6.2528Y-2.9372
X6.2659Y-3.6287
X6.2661Y-3.5969
X6.2661Y-3.662
X6.2705Y-2.8764
X6.2742Y-3.5514
X6.2773Y-3.4945
X6.2791Y-2.7807
X6.2795Y-2.9183
X6.2843Y-3.3406
X6.3067Y-3.0792
X6.3069Y-3.7533
X6.3075Y-3.0279
X6.3098Y-2.7799
X6.3356Y-3.0529
X6.3409Y-3.4438
X6.3561Y-3.4898
X6.3614Y-3.0273
X6.3618Y-3.0798
X6.3665Y-2.7805
X6.3794Y-3.3224
X6.3841Y-2.9142
X6.39Y-3.7244
X6.3971Y-2.781
X6.4152Y-3.1323
X6.4198Y-3.2924
X6.4198Y-3.3521
X6.4203Y-2.91
X6.4209Y-3.4594
X6.4222Y-3.5262
X6.4257Y-3.4017
X6.437Y-2.9462
X6.4837Y-3.0419
X6.4843Y-3.6854
X6.4852Y-3.6065
X6.4878Y-2.7378
X6.4881Y-3.3512
X6.4886Y-3.4008
X6.4899Y-3.5284
X6.4907Y-3.4604
X6.4911Y-3.2924
X6.5115Y-3.0415
T2
X5.9573Y-2.9654
X6.0061Y-3.1378
T3
X5.7512Y-2.7774
X5.7512Y-2.8774
X5.7512Y-2.9774
X5.7512Y-3.0774
X5.7512Y-3.1774
X5.8512Y-2.7774
X5.8512Y-2.8774
X5.8512Y-2.9774
X5.8512Y-3.0774
T4
X6.0974Y-2.6943
M30
