%TF.GenerationSoftware,KiCad,Pcbnew,9.0.1*%
%TF.CreationDate,2025-04-18T20:02:12-04:00*%
%TF.ProjectId,M.2 to USB V1.0,4d2e3220-746f-4205-9553-422056312e30,rev?*%
%TF.SameCoordinates,Original*%
%TF.FileFunction,Copper,L1,Top*%
%TF.FilePolarity,Positive*%
%FSLAX46Y46*%
G04 Gerber Fmt 4.6, Leading zero omitted, Abs format (unit mm)*
G04 Created by KiCad (PCBNEW 9.0.1) date 2025-04-18 20:02:12*
%MOMM*%
%LPD*%
G01*
G04 APERTURE LIST*
G04 Aperture macros list*
%AMRoundRect*
0 Rectangle with rounded corners*
0 $1 Rounding radius*
0 $2 $3 $4 $5 $6 $7 $8 $9 X,Y pos of 4 corners*
0 Add a 4 corners polygon primitive as box body*
4,1,4,$2,$3,$4,$5,$6,$7,$8,$9,$2,$3,0*
0 Add four circle primitives for the rounded corners*
1,1,$1+$1,$2,$3*
1,1,$1+$1,$4,$5*
1,1,$1+$1,$6,$7*
1,1,$1+$1,$8,$9*
0 Add four rect primitives between the rounded corners*
20,1,$1+$1,$2,$3,$4,$5,0*
20,1,$1+$1,$4,$5,$6,$7,0*
20,1,$1+$1,$6,$7,$8,$9,0*
20,1,$1+$1,$8,$9,$2,$3,0*%
G04 Aperture macros list end*
%TA.AperFunction,SMDPad,CuDef*%
%ADD10R,1.200000X0.600000*%
%TD*%
%TA.AperFunction,SMDPad,CuDef*%
%ADD11RoundRect,0.155000X0.212500X0.155000X-0.212500X0.155000X-0.212500X-0.155000X0.212500X-0.155000X0*%
%TD*%
%TA.AperFunction,SMDPad,CuDef*%
%ADD12R,5.100000X2.350000*%
%TD*%
%TA.AperFunction,SMDPad,CuDef*%
%ADD13RoundRect,0.155000X-0.212500X-0.155000X0.212500X-0.155000X0.212500X0.155000X-0.212500X0.155000X0*%
%TD*%
%TA.AperFunction,SMDPad,CuDef*%
%ADD14RoundRect,0.135000X-0.135000X-0.185000X0.135000X-0.185000X0.135000X0.185000X-0.135000X0.185000X0*%
%TD*%
%TA.AperFunction,SMDPad,CuDef*%
%ADD15RoundRect,0.160000X0.160000X-0.197500X0.160000X0.197500X-0.160000X0.197500X-0.160000X-0.197500X0*%
%TD*%
%TA.AperFunction,SMDPad,CuDef*%
%ADD16R,0.350000X1.150000*%
%TD*%
%TA.AperFunction,SMDPad,CuDef*%
%ADD17R,0.200000X1.450000*%
%TD*%
%TA.AperFunction,SMDPad,CuDef*%
%ADD18R,0.250000X0.450000*%
%TD*%
%TA.AperFunction,ComponentPad*%
%ADD19C,1.700000*%
%TD*%
%TA.AperFunction,SMDPad,CuDef*%
%ADD20R,0.350000X1.450000*%
%TD*%
%TA.AperFunction,SMDPad,CuDef*%
%ADD21RoundRect,0.155000X0.155000X-0.212500X0.155000X0.212500X-0.155000X0.212500X-0.155000X-0.212500X0*%
%TD*%
%TA.AperFunction,SMDPad,CuDef*%
%ADD22RoundRect,0.160000X-0.160000X0.197500X-0.160000X-0.197500X0.160000X-0.197500X0.160000X0.197500X0*%
%TD*%
%TA.AperFunction,SMDPad,CuDef*%
%ADD23RoundRect,0.160000X0.197500X0.160000X-0.197500X0.160000X-0.197500X-0.160000X0.197500X-0.160000X0*%
%TD*%
%TA.AperFunction,SMDPad,CuDef*%
%ADD24RoundRect,0.120000X0.330000X0.280000X-0.330000X0.280000X-0.330000X-0.280000X0.330000X-0.280000X0*%
%TD*%
%TA.AperFunction,SMDPad,CuDef*%
%ADD25RoundRect,0.155000X-0.155000X0.212500X-0.155000X-0.212500X0.155000X-0.212500X0.155000X0.212500X0*%
%TD*%
%TA.AperFunction,SMDPad,CuDef*%
%ADD26R,1.400000X1.100000*%
%TD*%
%TA.AperFunction,CastellatedPad*%
%ADD27C,5.500000*%
%TD*%
%TA.AperFunction,SMDPad,CuDef*%
%ADD28R,0.850000X0.300000*%
%TD*%
%TA.AperFunction,SMDPad,CuDef*%
%ADD29R,0.300000X0.850000*%
%TD*%
%TA.AperFunction,SMDPad,CuDef*%
%ADD30R,2.600000X2.600000*%
%TD*%
%TA.AperFunction,SMDPad,CuDef*%
%ADD31RoundRect,0.140000X0.140000X0.170000X-0.140000X0.170000X-0.140000X-0.170000X0.140000X-0.170000X0*%
%TD*%
%TA.AperFunction,ViaPad*%
%ADD32C,0.508000*%
%TD*%
%TA.AperFunction,ViaPad*%
%ADD33C,0.754000*%
%TD*%
%TA.AperFunction,Conductor*%
%ADD34C,0.500000*%
%TD*%
%TA.AperFunction,Conductor*%
%ADD35C,0.200000*%
%TD*%
G04 APERTURE END LIST*
D10*
%TO.P,IC2,1,OUT*%
%TO.N,VBUS_OUT_1*%
X145265000Y-84710000D03*
%TO.P,IC2,2,GND*%
%TO.N,GND*%
X145265000Y-85660000D03*
%TO.P,IC2,3,~{FLT}*%
%TO.N,OC1*%
X145265000Y-86610000D03*
%TO.P,IC2,4,EN/~{EN}*%
%TO.N,Port1_EN*%
X147765000Y-86610000D03*
%TO.P,IC2,5,IN*%
%TO.N,+5V*%
X147765000Y-84710000D03*
%TD*%
D11*
%TO.P,C10,1*%
%TO.N,GND*%
X150687500Y-87075000D03*
%TO.P,C10,2*%
%TO.N,+5V*%
X149552500Y-87075000D03*
%TD*%
D12*
%TO.P,L1,1,1*%
%TO.N,+3.3V*%
X155545000Y-92295000D03*
%TO.P,L1,2,2*%
%TO.N,Net-(PS1-SW)*%
X155545000Y-88145000D03*
%TD*%
D13*
%TO.P,C13,1*%
%TO.N,XTAL2*%
X159497500Y-85765000D03*
%TO.P,C13,2*%
%TO.N,GND*%
X160632500Y-85765000D03*
%TD*%
D11*
%TO.P,C11,1*%
%TO.N,GND*%
X150687500Y-85800000D03*
%TO.P,C11,2*%
%TO.N,+5V*%
X149552500Y-85800000D03*
%TD*%
D14*
%TO.P,R1,1*%
%TO.N,Net-(IC1-RBIAS)*%
X163982500Y-80592500D03*
%TO.P,R1,2*%
%TO.N,GND*%
X165002500Y-80592500D03*
%TD*%
D15*
%TO.P,R5,1*%
%TO.N,Net-(PS1-FB)*%
X146305000Y-91000000D03*
%TO.P,R5,2*%
%TO.N,GND*%
X146305000Y-89805000D03*
%TD*%
D11*
%TO.P,C9,1*%
%TO.N,+3.3V*%
X151112500Y-92755000D03*
%TO.P,C9,2*%
%TO.N,GND*%
X149977500Y-92755000D03*
%TD*%
D16*
%TO.P,PS1,1,GND*%
%TO.N,GND*%
X150665000Y-89280000D03*
D17*
%TO.P,PS1,2,SW*%
%TO.N,Net-(PS1-SW)*%
X150115000Y-89430000D03*
D16*
%TO.P,PS1,3,VOUT*%
%TO.N,+5V*%
X149565000Y-89280000D03*
D18*
%TO.P,PS1,4,FB*%
%TO.N,Net-(PS1-FB)*%
X149365000Y-90880000D03*
%TO.P,PS1,5,EN*%
%TO.N,+3.3V*%
X149865000Y-90880000D03*
%TO.P,PS1,6,MODE*%
%TO.N,GND*%
X150365000Y-90880000D03*
%TO.P,PS1,7,VIN*%
%TO.N,+3.3V*%
X150865000Y-90880000D03*
%TD*%
D19*
%TO.P,J2,1,Pin_1*%
%TO.N,VBUS_OUT_1*%
X146080000Y-70545000D03*
%TO.P,J2,2,Pin_2*%
%TO.N,VBUS_OUT_2*%
X148620000Y-70545000D03*
%TO.P,J2,3,Pin_3*%
%TO.N,USB_D_DN1-*%
X146080000Y-73085000D03*
%TO.P,J2,4,Pin_4*%
%TO.N,USB_D_DN2+*%
X148620000Y-73085000D03*
%TO.P,J2,5,Pin_5*%
%TO.N,USB_D_DN1+*%
X146080000Y-75625000D03*
%TO.P,J2,6,Pin_6*%
%TO.N,USB_D_DN2-*%
X148620000Y-75625000D03*
%TO.P,J2,7,Pin_7*%
%TO.N,GND*%
X146080000Y-78165000D03*
%TO.P,J2,8,Pin_8*%
X148620000Y-78165000D03*
%TO.P,J2,9,Pin_9*%
%TO.N,unconnected-(J2-Pin_9-Pad9)*%
X146080000Y-80705000D03*
%TD*%
D20*
%TO.P,J1,1,1*%
%TO.N,GND*%
X164125000Y-97160000D03*
%TO.P,J1,3,3*%
%TO.N,USB_D_UP+*%
X163625000Y-97160000D03*
%TO.P,J1,5,5*%
%TO.N,USB_D_UP-*%
X163125000Y-97160000D03*
%TO.P,J1,7,7*%
%TO.N,GND*%
X162625000Y-97160000D03*
%TO.P,J1,17,17*%
%TO.N,unconnected-(J1-Pad17)*%
X160125000Y-97160000D03*
%TO.P,J1,19,19*%
%TO.N,unconnected-(J1-Pad19)*%
X159625000Y-97160000D03*
%TO.P,J1,21,21*%
%TO.N,unconnected-(J1-Pad21)*%
X159125000Y-97160000D03*
%TO.P,J1,23,23*%
%TO.N,unconnected-(J1-Pad23)*%
X158625000Y-97160000D03*
%TO.P,J1,33,33*%
%TO.N,GND*%
X156125000Y-97160000D03*
%TO.P,J1,35,35*%
%TO.N,unconnected-(J1-Pad35)*%
X155625000Y-97160000D03*
%TO.P,J1,37,37*%
%TO.N,unconnected-(J1-Pad37)*%
X155125000Y-97160000D03*
%TO.P,J1,39,39*%
%TO.N,GND*%
X154625000Y-97160000D03*
%TO.P,J1,41,41*%
%TO.N,unconnected-(J1-Pad41)*%
X154125000Y-97160000D03*
%TO.P,J1,43,43*%
%TO.N,unconnected-(J1-Pad43)*%
X153625000Y-97160000D03*
%TO.P,J1,45,45*%
%TO.N,GND*%
X153125000Y-97160000D03*
%TO.P,J1,47,47*%
%TO.N,unconnected-(J1-Pad47)*%
X152625000Y-97160000D03*
%TO.P,J1,49,49*%
%TO.N,unconnected-(J1-Pad49)*%
X152125000Y-97160000D03*
%TO.P,J1,51,51*%
%TO.N,GND*%
X151625000Y-97160000D03*
%TO.P,J1,53,53*%
%TO.N,unconnected-(J1-Pad53)*%
X151125000Y-97160000D03*
%TO.P,J1,55,55*%
%TO.N,unconnected-(J1-Pad55)*%
X150625000Y-97160000D03*
%TO.P,J1,57,57*%
%TO.N,GND*%
X150125000Y-97160000D03*
%TO.P,J1,59,59*%
%TO.N,unconnected-(J1-Pad59)*%
X149625000Y-97160000D03*
%TO.P,J1,61,61*%
%TO.N,unconnected-(J1-Pad61)*%
X149125000Y-97160000D03*
%TO.P,J1,63,63*%
%TO.N,GND*%
X148625000Y-97160000D03*
%TO.P,J1,65,65*%
%TO.N,unconnected-(J1-Pad65)*%
X148125000Y-97160000D03*
%TO.P,J1,67,67*%
%TO.N,unconnected-(J1-Pad67)*%
X147625000Y-97160000D03*
%TO.P,J1,69,69*%
%TO.N,GND*%
X147125000Y-97160000D03*
%TO.P,J1,71,71*%
%TO.N,unconnected-(J1-Pad71)*%
X146625000Y-97160000D03*
%TO.P,J1,73,73*%
%TO.N,unconnected-(J1-Pad73)*%
X146125000Y-97160000D03*
%TO.P,J1,75,75*%
%TO.N,GND*%
X145625000Y-97160000D03*
%TD*%
D21*
%TO.P,C6,1*%
%TO.N,Net-(IC1-CRFILT)*%
X160485000Y-74022500D03*
%TO.P,C6,2*%
%TO.N,GND*%
X160485000Y-72887500D03*
%TD*%
%TO.P,C3,1*%
%TO.N,GND*%
X155180000Y-84630000D03*
%TO.P,C3,2*%
%TO.N,VBUS_OUT_2*%
X155180000Y-83495000D03*
%TD*%
D22*
%TO.P,R2,1*%
%TO.N,Net-(U1-~Reset)*%
X157010000Y-75107500D03*
%TO.P,R2,2*%
%TO.N,Reset*%
X157010000Y-76302500D03*
%TD*%
D21*
%TO.P,C12,1*%
%TO.N,GND*%
X161870000Y-83057500D03*
%TO.P,C12,2*%
%TO.N,XTAL1*%
X161870000Y-81922500D03*
%TD*%
D23*
%TO.P,R4,1*%
%TO.N,Net-(IC1-SUSP_IND{slash}LOCAL_PWR{slash}(NON_REM0))*%
X157620000Y-78295000D03*
%TO.P,R4,2*%
%TO.N,GND*%
X156425000Y-78295000D03*
%TD*%
D22*
%TO.P,R3,1*%
%TO.N,Reset*%
X155225000Y-76732500D03*
%TO.P,R3,2*%
%TO.N,GND*%
X155225000Y-77927500D03*
%TD*%
D24*
%TO.P,U1,1,~Reset*%
%TO.N,Net-(U1-~Reset)*%
X155970000Y-75255000D03*
%TO.P,U1,2,GND*%
%TO.N,GND*%
X155970000Y-73355000D03*
%TO.P,U1,3,Vcc*%
%TO.N,+5V*%
X153970000Y-74305000D03*
%TD*%
D25*
%TO.P,C7,1*%
%TO.N,GND*%
X161510000Y-72882500D03*
%TO.P,C7,2*%
%TO.N,+3.3V*%
X161510000Y-74017500D03*
%TD*%
D26*
%TO.P,Y1,1,CRYSTAL_1*%
%TO.N,XTAL1*%
X159650000Y-82145000D03*
%TO.P,Y1,2,GND_1*%
%TO.N,GND*%
X157450000Y-82145000D03*
%TO.P,Y1,3,CRYSTAL_2*%
%TO.N,XTAL2*%
X157450000Y-83745000D03*
%TO.P,Y1,4,GND_2*%
%TO.N,GND*%
X159650000Y-83745000D03*
%TD*%
D22*
%TO.P,R6,1*%
%TO.N,+5V*%
X147555000Y-89805000D03*
%TO.P,R6,2*%
%TO.N,Net-(PS1-FB)*%
X147555000Y-91000000D03*
%TD*%
D13*
%TO.P,C8,1*%
%TO.N,Net-(IC1-PLLFILT)*%
X163052500Y-81532500D03*
%TO.P,C8,2*%
%TO.N,GND*%
X164187500Y-81532500D03*
%TD*%
D10*
%TO.P,IC3,1,OUT*%
%TO.N,VBUS_OUT_2*%
X153815000Y-83440000D03*
%TO.P,IC3,2,GND*%
%TO.N,GND*%
X153815000Y-82490000D03*
%TO.P,IC3,3,~{FLT}*%
%TO.N,OC2*%
X153815000Y-81540000D03*
%TO.P,IC3,4,EN/~{EN}*%
%TO.N,Port2_EN*%
X151315000Y-81540000D03*
%TO.P,IC3,5,IN*%
%TO.N,+5V*%
X151315000Y-83440000D03*
%TD*%
D27*
%TO.P,H1,1,1*%
%TO.N,GND*%
X154875000Y-68435000D03*
%TD*%
D11*
%TO.P,C2,1*%
%TO.N,+5V*%
X147552500Y-88540000D03*
%TO.P,C2,2*%
%TO.N,GND*%
X146417500Y-88540000D03*
%TD*%
D28*
%TO.P,IC1,1,VDD33_1*%
%TO.N,+3.3V*%
X162875000Y-78792500D03*
%TO.P,IC1,2,USBDM_DN1/PRT_DIS_M1*%
%TO.N,USB_D_DN1-*%
X162875000Y-78292500D03*
%TO.P,IC1,3,USBDP_DN1/PRT_DIS_P1*%
%TO.N,USB_D_DN1+*%
X162875000Y-77792500D03*
%TO.P,IC1,4,USBDM_DN2/PRT_DIS_M2*%
%TO.N,USB_D_DN2-*%
X162875000Y-77292500D03*
%TO.P,IC1,5,USBDP_DN2/PRT_DIS_P2*%
%TO.N,USB_D_DN2+*%
X162875000Y-76792500D03*
%TO.P,IC1,6,NC*%
%TO.N,unconnected-(IC1-NC-Pad6)*%
X162875000Y-76292500D03*
D29*
%TO.P,IC1,7,PRTPWR1/(BC_EN1)*%
%TO.N,Port1_EN*%
X162175000Y-75592500D03*
%TO.P,IC1,8,OCS1_N*%
%TO.N,OC1*%
X161675000Y-75592500D03*
%TO.P,IC1,9,VDD33_2*%
%TO.N,+3.3V*%
X161175000Y-75592500D03*
%TO.P,IC1,10,CRFILT*%
%TO.N,Net-(IC1-CRFILT)*%
X160675000Y-75592500D03*
%TO.P,IC1,11,PRTPWR2*%
%TO.N,Port2_EN*%
X160175000Y-75592500D03*
%TO.P,IC1,12,OCS2_N*%
%TO.N,OC2*%
X159675000Y-75592500D03*
D28*
%TO.P,IC1,13,SMBDATA/NON_REM1*%
%TO.N,unconnected-(IC1-SMBDATA{slash}NON_REM1-Pad13)*%
X158975000Y-76292500D03*
%TO.P,IC1,14,SMBCLK/CFG_SEL0*%
%TO.N,unconnected-(IC1-SMBCLK{slash}CFG_SEL0-Pad14)*%
X158975000Y-76792500D03*
%TO.P,IC1,15,RESET_N*%
%TO.N,Reset*%
X158975000Y-77292500D03*
%TO.P,IC1,16,VBUS_DET*%
%TO.N,+3.3V*%
X158975000Y-77792500D03*
%TO.P,IC1,17,SUSP_IND/LOCAL_PWR/(NON_REM0)*%
%TO.N,Net-(IC1-SUSP_IND{slash}LOCAL_PWR{slash}(NON_REM0))*%
X158975000Y-78292500D03*
%TO.P,IC1,18,VDD33_3*%
%TO.N,+3.3V*%
X158975000Y-78792500D03*
D29*
%TO.P,IC1,19,USBDM_UP*%
%TO.N,USB_D_UP-*%
X159675000Y-79492500D03*
%TO.P,IC1,20,USBDP_UP*%
%TO.N,USB_D_UP+*%
X160175000Y-79492500D03*
%TO.P,IC1,21,XTALOUT/(CLKIN_EN)*%
%TO.N,XTAL2*%
X160675000Y-79492500D03*
%TO.P,IC1,22,XTALIN/CLKIN*%
%TO.N,XTAL1*%
X161175000Y-79492500D03*
%TO.P,IC1,23,PLLFILT*%
%TO.N,Net-(IC1-PLLFILT)*%
X161675000Y-79492500D03*
%TO.P,IC1,24,RBIAS*%
%TO.N,Net-(IC1-RBIAS)*%
X162175000Y-79492500D03*
D30*
%TO.P,IC1,25,EP*%
%TO.N,GND*%
X160925000Y-77542500D03*
%TD*%
D13*
%TO.P,C4,1*%
%TO.N,+5V*%
X151292500Y-84815000D03*
%TO.P,C4,2*%
%TO.N,GND*%
X152427500Y-84815000D03*
%TD*%
D31*
%TO.P,C5,1*%
%TO.N,GND*%
X164992500Y-79562500D03*
%TO.P,C5,2*%
%TO.N,+3.3V*%
X164032500Y-79562500D03*
%TD*%
D11*
%TO.P,C1,1*%
%TO.N,GND*%
X146402500Y-83125000D03*
%TO.P,C1,2*%
%TO.N,VBUS_OUT_1*%
X145267500Y-83125000D03*
%TD*%
D32*
%TO.N,GND*%
X164725000Y-91605000D03*
X154460000Y-95360000D03*
X162305788Y-94599085D03*
X150970000Y-69440000D03*
X160190000Y-78212500D03*
X163090000Y-87870000D03*
X152460000Y-85800000D03*
X148060000Y-83245000D03*
X161580000Y-76892500D03*
X163062500Y-83627500D03*
X146490000Y-85760000D03*
X155025000Y-74705000D03*
X146960000Y-95360000D03*
X155460000Y-79885000D03*
X150025000Y-93575000D03*
X147800000Y-81085000D03*
X148495000Y-80140000D03*
X163125000Y-89565000D03*
X151460000Y-95360000D03*
X152000000Y-71385000D03*
X150675000Y-88020000D03*
X150995000Y-70700000D03*
X154905000Y-73465000D03*
X164700000Y-93610000D03*
X160925000Y-77542500D03*
X164790000Y-69540000D03*
X148460000Y-82030000D03*
X149455000Y-93575000D03*
X151515000Y-86410000D03*
X158755000Y-95345000D03*
X155195000Y-82330000D03*
X144945000Y-90840000D03*
X151285000Y-82430000D03*
X160195000Y-95335000D03*
X144920000Y-89700000D03*
X160210000Y-76907500D03*
X148460000Y-95360000D03*
X159620000Y-84850000D03*
X159365000Y-90205000D03*
X144925000Y-88510000D03*
X164810000Y-86380000D03*
X147575000Y-82405000D03*
X163062500Y-85142500D03*
X164865000Y-87895000D03*
X153755000Y-85495000D03*
X155960000Y-95360000D03*
X164842500Y-89622500D03*
X159270000Y-73060000D03*
X149110000Y-81105000D03*
X152960000Y-95360000D03*
X164797500Y-85120000D03*
X161590000Y-78227500D03*
X162037500Y-84390000D03*
X157905000Y-70870000D03*
X164875000Y-83627500D03*
X144940000Y-92450000D03*
X145185000Y-93820000D03*
X158755000Y-69410000D03*
X149960000Y-95360000D03*
%TO.N,+5V*%
X149810000Y-84065000D03*
D33*
%TO.N,VBUS_OUT_2*%
X152555000Y-79700000D03*
X151315000Y-75320000D03*
D32*
%TO.N,+3.3V*%
X157390000Y-77470000D03*
X159160000Y-93015000D03*
X152335000Y-91655000D03*
X151575000Y-91385000D03*
X162945000Y-79560000D03*
X159160000Y-91360000D03*
X152340000Y-92515000D03*
X152397729Y-93231701D03*
X151180000Y-91945000D03*
X159155000Y-92170000D03*
X162155000Y-74020000D03*
X157910000Y-79155000D03*
%TO.N,OC2*%
X154135000Y-80695000D03*
X158820000Y-74605000D03*
%TO.N,USB_D_UP+*%
X158081000Y-80674000D03*
X161444099Y-88640901D03*
%TO.N,USB_D_DN1+*%
X164685000Y-77265000D03*
X160270000Y-70610000D03*
%TO.N,USB_D_DN2+*%
X161710000Y-70625000D03*
%TO.N,USB_D_DN1-*%
X165393000Y-77255000D03*
X159490000Y-70630000D03*
%TO.N,USB_D_UP-*%
X157645000Y-80020000D03*
X159442188Y-88761287D03*
%TO.N,USB_D_DN2-*%
X162486156Y-70636156D03*
%TO.N,Port2_EN*%
X153625000Y-77480000D03*
X159500000Y-74125000D03*
%TO.N,OC1*%
X145270000Y-87480000D03*
X161058337Y-87471663D03*
X157017500Y-90225000D03*
X163075000Y-73915000D03*
%TO.N,Port1_EN*%
X154843750Y-86111250D03*
X163499000Y-74834064D03*
X147590000Y-85835000D03*
X163212500Y-86402500D03*
%TD*%
D34*
%TO.N,VBUS_OUT_1*%
X145267500Y-82642500D02*
X144590000Y-81965000D01*
X145267500Y-83125000D02*
X145267500Y-82642500D01*
X145265000Y-84710000D02*
X145265000Y-83127500D01*
X144590000Y-81965000D02*
X144590000Y-72035000D01*
D35*
X145265000Y-83127500D02*
X145267500Y-83125000D01*
D34*
X144590000Y-72035000D02*
X146080000Y-70545000D01*
D35*
%TO.N,GND*%
X162625000Y-97160000D02*
X162625000Y-94918297D01*
X164125000Y-94185000D02*
X164700000Y-93610000D01*
X162625000Y-94918297D02*
X162305788Y-94599085D01*
X164125000Y-97160000D02*
X164125000Y-94185000D01*
%TO.N,+5V*%
X151810298Y-78230000D02*
X151540000Y-78230000D01*
X151540000Y-78230000D02*
X149810000Y-79960000D01*
X153970000Y-74305000D02*
X153970000Y-76070298D01*
X153970000Y-76070298D02*
X151810298Y-78230000D01*
X149810000Y-79960000D02*
X149810000Y-84065000D01*
D34*
%TO.N,VBUS_OUT_2*%
X151315000Y-75320000D02*
X151315000Y-73240000D01*
X153015000Y-83440000D02*
X153815000Y-83440000D01*
D35*
X155125000Y-83440000D02*
X155180000Y-83495000D01*
D34*
X152555000Y-82980000D02*
X153015000Y-83440000D01*
X153815000Y-83440000D02*
X155125000Y-83440000D01*
X151315000Y-73240000D02*
X148620000Y-70545000D01*
X152555000Y-79700000D02*
X152555000Y-82980000D01*
D35*
%TO.N,+3.3V*%
X158612500Y-79155000D02*
X158975000Y-78792500D01*
X157390000Y-77470000D02*
X157620000Y-77470000D01*
X162945000Y-79560000D02*
X164067500Y-79560000D01*
X161512500Y-74020000D02*
X161510000Y-74017500D01*
X148710000Y-93750000D02*
X149235000Y-94275000D01*
X149865000Y-90880000D02*
X149865000Y-91332000D01*
X162155000Y-74020000D02*
X161512500Y-74020000D01*
X157620000Y-77470000D02*
X157824000Y-77674000D01*
X158012886Y-77674000D02*
X158131386Y-77792500D01*
X158131386Y-77792500D02*
X158975000Y-77792500D01*
X157910000Y-79155000D02*
X158612500Y-79155000D01*
X162875000Y-78792500D02*
X162875000Y-79490000D01*
X149235000Y-94275000D02*
X150435000Y-94275000D01*
X161175000Y-74352500D02*
X161510000Y-74017500D01*
X148710000Y-92487000D02*
X148710000Y-93750000D01*
X151112500Y-93597500D02*
X151112500Y-92755000D01*
X161175000Y-75592500D02*
X161175000Y-74352500D01*
X149865000Y-91332000D02*
X148710000Y-92487000D01*
X164067500Y-79560000D02*
X164107500Y-79600000D01*
X162875000Y-79490000D02*
X162945000Y-79560000D01*
X150435000Y-94275000D02*
X151112500Y-93597500D01*
X157824000Y-77674000D02*
X158012886Y-77674000D01*
%TO.N,Net-(IC1-CRFILT)*%
X160675000Y-75592500D02*
X160675000Y-74212500D01*
X160675000Y-74212500D02*
X160485000Y-74022500D01*
%TO.N,Net-(IC1-PLLFILT)*%
X161675000Y-80155000D02*
X163052500Y-81532500D01*
X161675000Y-79492500D02*
X161675000Y-80155000D01*
%TO.N,XTAL1*%
X161175000Y-81227500D02*
X161870000Y-81922500D01*
X159650000Y-82145000D02*
X160125000Y-82145000D01*
X161175000Y-79492500D02*
X161175000Y-81227500D01*
X159872500Y-81922500D02*
X159650000Y-82145000D01*
X161870000Y-81922500D02*
X159872500Y-81922500D01*
%TO.N,XTAL2*%
X157450000Y-83817500D02*
X159497500Y-85865000D01*
X158868000Y-81075000D02*
X158560000Y-81383000D01*
X160675000Y-79492500D02*
X160675000Y-80700000D01*
X158560000Y-82887000D02*
X157702000Y-83745000D01*
X160675000Y-80700000D02*
X160300000Y-81075000D01*
X158560000Y-81383000D02*
X158560000Y-82887000D01*
X157450000Y-83745000D02*
X157450000Y-83817500D01*
X160300000Y-81075000D02*
X158868000Y-81075000D01*
X157702000Y-83745000D02*
X157450000Y-83745000D01*
%TO.N,Net-(IC1-SUSP_IND{slash}LOCAL_PWR{slash}(NON_REM0))*%
X158975000Y-78292500D02*
X157622500Y-78292500D01*
X157622500Y-78292500D02*
X157620000Y-78295000D01*
%TO.N,OC2*%
X153815000Y-81540000D02*
X153815000Y-81015000D01*
X153815000Y-81015000D02*
X154135000Y-80695000D01*
X159675000Y-75592500D02*
X159675000Y-75460000D01*
X159675000Y-75460000D02*
X158820000Y-74605000D01*
%TO.N,USB_D_UP+*%
X159140000Y-80674000D02*
X158081000Y-80674000D01*
X163600000Y-91796802D02*
X161444099Y-89640901D01*
X163625000Y-96072499D02*
X163600000Y-96047499D01*
X160175000Y-79492500D02*
X160175000Y-80300000D01*
X163625000Y-97160000D02*
X163625000Y-96072499D01*
X161444099Y-89640901D02*
X161444099Y-88640901D01*
X160175000Y-80300000D02*
X159801000Y-80674000D01*
X163600000Y-96047499D02*
X163600000Y-91796802D01*
X159801000Y-80674000D02*
X159140000Y-80674000D01*
%TO.N,USB_D_DN1+*%
X157623040Y-72430000D02*
X157543040Y-72430000D01*
X164157500Y-77792500D02*
X164685000Y-77265000D01*
X152730000Y-76743198D02*
X151798198Y-77675000D01*
X147300000Y-76845000D02*
X146080000Y-75625000D01*
X159719889Y-71185000D02*
X159695000Y-71185000D01*
X157223040Y-73350000D02*
X157143040Y-73350000D01*
X156743040Y-72430000D02*
X156325000Y-72430000D01*
X158023040Y-73350000D02*
X157943040Y-73350000D01*
X156325000Y-72430000D02*
X153828198Y-72430000D01*
X158183040Y-72590000D02*
X158183040Y-73190000D01*
X158450000Y-72430000D02*
X158343040Y-72430000D01*
X160045000Y-70835000D02*
X160045000Y-70859889D01*
X152730000Y-73528198D02*
X152730000Y-76743198D01*
X157783040Y-73190000D02*
X157783040Y-72590000D01*
X156823040Y-72430000D02*
X156743040Y-72430000D01*
X149290000Y-76845000D02*
X147300000Y-76845000D01*
X156983040Y-73190000D02*
X156983040Y-72590000D01*
X153828198Y-72430000D02*
X152730000Y-73528198D01*
X151798198Y-77675000D02*
X150120000Y-77675000D01*
X159695000Y-71185000D02*
X158450000Y-72430000D01*
X160045000Y-70859889D02*
X159719889Y-71185000D01*
X157383040Y-72590000D02*
X157383040Y-73190000D01*
X160270000Y-70610000D02*
X160045000Y-70835000D01*
X150120000Y-77675000D02*
X149290000Y-76845000D01*
X162875000Y-77792500D02*
X164157500Y-77792500D01*
X157383040Y-73190000D02*
G75*
G02*
X157223040Y-73350040I-160040J0D01*
G01*
X158183040Y-73190000D02*
G75*
G02*
X158023040Y-73350040I-160040J0D01*
G01*
X158343040Y-72430000D02*
G75*
G03*
X158183000Y-72590000I-40J-160000D01*
G01*
X157943040Y-73350000D02*
G75*
G02*
X157783000Y-73190000I-40J160000D01*
G01*
X157143040Y-73350000D02*
G75*
G02*
X156983000Y-73190000I-40J160000D01*
G01*
X157543040Y-72430000D02*
G75*
G03*
X157383000Y-72590000I-40J-160000D01*
G01*
X156983040Y-72590000D02*
G75*
G03*
X156823040Y-72429960I-160040J0D01*
G01*
X157783040Y-72590000D02*
G75*
G03*
X157623040Y-72429960I-160040J0D01*
G01*
%TO.N,Reset*%
X156580000Y-76732500D02*
X157010000Y-76302500D01*
X155225000Y-76732500D02*
X156580000Y-76732500D01*
X158975000Y-77292500D02*
X158252500Y-77292500D01*
X157010000Y-76302500D02*
X157262500Y-76302500D01*
X157262500Y-76302500D02*
X158252500Y-77292500D01*
%TO.N,USB_D_DN2+*%
X161709587Y-70959587D02*
X164075000Y-73325000D01*
X163175000Y-76817500D02*
X163150000Y-76792500D01*
X164075000Y-73325000D02*
X164075000Y-76221802D01*
X163150000Y-76792500D02*
X162875000Y-76792500D01*
X161710000Y-70625000D02*
X161709587Y-70625413D01*
X163479302Y-76817500D02*
X163175000Y-76817500D01*
X161709587Y-70625413D02*
X161709587Y-70959587D01*
X164075000Y-76221802D02*
X163479302Y-76817500D01*
%TO.N,USB_D_DN1-*%
X147335000Y-74340000D02*
X146080000Y-73085000D01*
X150675000Y-77225000D02*
X150055000Y-76605000D01*
X159490000Y-70630000D02*
X159490000Y-70753603D01*
X152280000Y-76556802D02*
X151611802Y-77225000D01*
X150055000Y-76605000D02*
X150055000Y-74975000D01*
X159490000Y-70753603D02*
X158263603Y-71980000D01*
X153641802Y-71980000D02*
X152280000Y-73341802D01*
X165393000Y-77577000D02*
X165393000Y-77255000D01*
X158263603Y-71980000D02*
X153641802Y-71980000D01*
X149420000Y-74340000D02*
X147335000Y-74340000D01*
X162875000Y-78292500D02*
X164677500Y-78292500D01*
X165050000Y-77920000D02*
X165393000Y-77577000D01*
X151611802Y-77225000D02*
X150675000Y-77225000D01*
X150055000Y-74975000D02*
X149420000Y-74340000D01*
X152280000Y-73341802D02*
X152280000Y-76556802D01*
X164677500Y-78292500D02*
X165050000Y-77920000D01*
%TO.N,USB_D_UP-*%
X157935000Y-79950000D02*
X157715000Y-79950000D01*
X163150000Y-96047499D02*
X163125000Y-96072499D01*
X159442188Y-88761287D02*
X159442188Y-89275386D01*
X159192500Y-79492500D02*
X158755000Y-79930000D01*
X163150000Y-91983198D02*
X163150000Y-96047499D01*
X161125901Y-89959099D02*
X163150000Y-91983198D01*
X157715000Y-79950000D02*
X157645000Y-80020000D01*
X158755000Y-79930000D02*
X158735000Y-79950000D01*
X160125901Y-89959099D02*
X161125901Y-89959099D01*
X159675000Y-79492500D02*
X159192500Y-79492500D01*
X159442188Y-89275386D02*
X160125901Y-89959099D01*
X158735000Y-79950000D02*
X157935000Y-79950000D01*
X163125000Y-96072499D02*
X163125000Y-97160000D01*
%TO.N,USB_D_DN2-*%
X164565000Y-76368198D02*
X163665698Y-77267500D01*
X163665698Y-77267500D02*
X163175000Y-77267500D01*
X163175000Y-77267500D02*
X163150000Y-77292500D01*
X162486156Y-70636156D02*
X164565000Y-72715000D01*
X164565000Y-72715000D02*
X164565000Y-76368198D01*
X163150000Y-77292500D02*
X162875000Y-77292500D01*
%TO.N,Net-(IC1-RBIAS)*%
X162955000Y-80615000D02*
X162175000Y-79835000D01*
X162175000Y-79835000D02*
X162175000Y-79492500D01*
X163997500Y-80615000D02*
X162955000Y-80615000D01*
%TO.N,Port2_EN*%
X151315000Y-79790000D02*
X153625000Y-77480000D01*
X160175000Y-75592500D02*
X160175000Y-74950000D01*
X153625000Y-77480000D02*
X153515000Y-77590000D01*
X159500000Y-74275000D02*
X159500000Y-74125000D01*
X159995000Y-74770000D02*
X159500000Y-74275000D01*
X160175000Y-74950000D02*
X159995000Y-74770000D01*
X151315000Y-81540000D02*
X151315000Y-79790000D01*
%TO.N,OC1*%
X145265000Y-86610000D02*
X145265000Y-87475000D01*
X158735000Y-89795000D02*
X158735000Y-88685000D01*
X161675000Y-75055000D02*
X162045000Y-74685000D01*
X162045000Y-74685000D02*
X162305000Y-74685000D01*
X158305000Y-90225000D02*
X158735000Y-89795000D01*
X162305000Y-74685000D02*
X163075000Y-73915000D01*
X157017500Y-90225000D02*
X158305000Y-90225000D01*
X161675000Y-75592500D02*
X161675000Y-75055000D01*
X158735000Y-88685000D02*
X159948337Y-87471663D01*
X145265000Y-87475000D02*
X145270000Y-87480000D01*
X159948337Y-87471663D02*
X161058337Y-87471663D01*
%TO.N,Port1_EN*%
X154843750Y-86111250D02*
X154852500Y-86120000D01*
X147765000Y-86010000D02*
X147590000Y-85835000D01*
X147765000Y-86610000D02*
X147765000Y-86010000D01*
X163195000Y-86437500D02*
X163195000Y-86385000D01*
X162715000Y-86917500D02*
X163195000Y-86437500D01*
X154852500Y-86120000D02*
X158090000Y-86120000D01*
X163499000Y-74834064D02*
X163460936Y-74834064D01*
X163195000Y-86385000D02*
X163212500Y-86402500D01*
X163460936Y-74834064D02*
X162702500Y-75592500D01*
X162702500Y-75592500D02*
X162175000Y-75592500D01*
X158887500Y-86917500D02*
X162715000Y-86917500D01*
X158090000Y-86120000D02*
X158887500Y-86917500D01*
X162175000Y-75592500D02*
X162175000Y-75500000D01*
%TO.N,Net-(PS1-FB)*%
X146305000Y-91000000D02*
X147555000Y-91000000D01*
X146675000Y-90880000D02*
X146555000Y-91000000D01*
X149365000Y-90880000D02*
X147675000Y-90880000D01*
%TO.N,Net-(U1-~Reset)*%
X156862500Y-75255000D02*
X157010000Y-75107500D01*
X155970000Y-75255000D02*
X156862500Y-75255000D01*
X157010000Y-75107500D02*
X156997500Y-75107500D01*
%TD*%
%TA.AperFunction,Conductor*%
%TO.N,GND*%
G36*
X156300000Y-95040000D02*
G01*
X156300000Y-96547500D01*
X156000500Y-96547500D01*
X156000500Y-96415252D01*
X155988867Y-96356769D01*
X155944552Y-96290448D01*
X155944548Y-96290445D01*
X155878233Y-96246134D01*
X155878231Y-96246133D01*
X155878228Y-96246132D01*
X155878227Y-96246132D01*
X155819758Y-96234501D01*
X155819748Y-96234500D01*
X155430252Y-96234500D01*
X155430247Y-96234500D01*
X155394313Y-96241648D01*
X155355687Y-96241648D01*
X155319752Y-96234500D01*
X155319748Y-96234500D01*
X154930252Y-96234500D01*
X154930251Y-96234500D01*
X154930241Y-96234501D01*
X154871772Y-96246132D01*
X154871766Y-96246134D01*
X154805451Y-96290445D01*
X154805445Y-96290451D01*
X154761134Y-96356766D01*
X154761132Y-96356772D01*
X154749501Y-96415241D01*
X154749500Y-96415253D01*
X154749500Y-96547500D01*
X154500500Y-96547500D01*
X154500500Y-96415252D01*
X154488867Y-96356769D01*
X154444552Y-96290448D01*
X154444548Y-96290445D01*
X154378233Y-96246134D01*
X154378231Y-96246133D01*
X154378228Y-96246132D01*
X154378227Y-96246132D01*
X154319758Y-96234501D01*
X154319748Y-96234500D01*
X153930252Y-96234500D01*
X153930247Y-96234500D01*
X153894313Y-96241648D01*
X153855687Y-96241648D01*
X153819752Y-96234500D01*
X153819748Y-96234500D01*
X153430252Y-96234500D01*
X153430251Y-96234500D01*
X153430241Y-96234501D01*
X153371772Y-96246132D01*
X153371766Y-96246134D01*
X153305451Y-96290445D01*
X153305445Y-96290451D01*
X153261134Y-96356766D01*
X153261132Y-96356772D01*
X153249501Y-96415241D01*
X153249500Y-96415253D01*
X153249500Y-96547500D01*
X153000500Y-96547500D01*
X153000500Y-96415252D01*
X152988867Y-96356769D01*
X152944552Y-96290448D01*
X152944548Y-96290445D01*
X152878233Y-96246134D01*
X152878231Y-96246133D01*
X152878228Y-96246132D01*
X152878227Y-96246132D01*
X152819758Y-96234501D01*
X152819748Y-96234500D01*
X152430252Y-96234500D01*
X152430247Y-96234500D01*
X152394313Y-96241648D01*
X152355687Y-96241648D01*
X152319752Y-96234500D01*
X152319748Y-96234500D01*
X151930252Y-96234500D01*
X151930251Y-96234500D01*
X151930241Y-96234501D01*
X151871772Y-96246132D01*
X151871766Y-96246134D01*
X151805451Y-96290445D01*
X151805445Y-96290451D01*
X151761134Y-96356766D01*
X151761132Y-96356772D01*
X151749501Y-96415241D01*
X151749500Y-96415253D01*
X151749500Y-96547500D01*
X151500500Y-96547500D01*
X151500500Y-96415252D01*
X151488867Y-96356769D01*
X151444552Y-96290448D01*
X151444548Y-96290445D01*
X151378233Y-96246134D01*
X151378231Y-96246133D01*
X151378228Y-96246132D01*
X151378227Y-96246132D01*
X151319758Y-96234501D01*
X151319748Y-96234500D01*
X150930252Y-96234500D01*
X150930247Y-96234500D01*
X150894313Y-96241648D01*
X150855687Y-96241648D01*
X150819752Y-96234500D01*
X150819748Y-96234500D01*
X150430252Y-96234500D01*
X150430251Y-96234500D01*
X150430241Y-96234501D01*
X150371772Y-96246132D01*
X150371766Y-96246134D01*
X150305451Y-96290445D01*
X150305445Y-96290451D01*
X150261134Y-96356766D01*
X150261132Y-96356772D01*
X150249501Y-96415241D01*
X150249500Y-96415253D01*
X150249500Y-96547500D01*
X150000500Y-96547500D01*
X150000500Y-96415252D01*
X149988867Y-96356769D01*
X149944552Y-96290448D01*
X149944548Y-96290445D01*
X149878233Y-96246134D01*
X149878231Y-96246133D01*
X149878228Y-96246132D01*
X149878227Y-96246132D01*
X149819758Y-96234501D01*
X149819748Y-96234500D01*
X149430252Y-96234500D01*
X149430247Y-96234500D01*
X149394313Y-96241648D01*
X149355687Y-96241648D01*
X149319752Y-96234500D01*
X149319748Y-96234500D01*
X148930252Y-96234500D01*
X148930251Y-96234500D01*
X148930241Y-96234501D01*
X148871772Y-96246132D01*
X148871766Y-96246134D01*
X148805451Y-96290445D01*
X148805445Y-96290451D01*
X148761134Y-96356766D01*
X148761132Y-96356772D01*
X148749501Y-96415241D01*
X148749500Y-96415253D01*
X148749500Y-96547500D01*
X148500500Y-96547500D01*
X148500500Y-96415252D01*
X148488867Y-96356769D01*
X148444552Y-96290448D01*
X148444548Y-96290445D01*
X148378233Y-96246134D01*
X148378231Y-96246133D01*
X148378228Y-96246132D01*
X148378227Y-96246132D01*
X148319758Y-96234501D01*
X148319748Y-96234500D01*
X147930252Y-96234500D01*
X147930247Y-96234500D01*
X147894313Y-96241648D01*
X147855687Y-96241648D01*
X147819752Y-96234500D01*
X147819748Y-96234500D01*
X147430252Y-96234500D01*
X147430251Y-96234500D01*
X147430241Y-96234501D01*
X147371772Y-96246132D01*
X147371766Y-96246134D01*
X147305451Y-96290445D01*
X147305445Y-96290451D01*
X147261134Y-96356766D01*
X147261132Y-96356772D01*
X147249501Y-96415241D01*
X147249500Y-96415253D01*
X147249500Y-96547500D01*
X147000500Y-96547500D01*
X147000500Y-96415252D01*
X146988867Y-96356769D01*
X146944552Y-96290448D01*
X146944548Y-96290445D01*
X146878233Y-96246134D01*
X146878231Y-96246133D01*
X146878228Y-96246132D01*
X146878227Y-96246132D01*
X146819758Y-96234501D01*
X146819748Y-96234500D01*
X146430252Y-96234500D01*
X146430247Y-96234500D01*
X146394313Y-96241648D01*
X146355687Y-96241648D01*
X146319752Y-96234500D01*
X146319748Y-96234500D01*
X145930252Y-96234500D01*
X145930251Y-96234500D01*
X145930241Y-96234501D01*
X145871772Y-96246132D01*
X145871766Y-96246134D01*
X145805451Y-96290445D01*
X145805445Y-96290451D01*
X145761134Y-96356766D01*
X145761132Y-96356772D01*
X145749501Y-96415241D01*
X145749500Y-96415253D01*
X145749500Y-96547500D01*
X145550000Y-96547500D01*
X145450000Y-96447500D01*
X145450000Y-95030000D01*
X156290000Y-95030000D01*
X156300000Y-95040000D01*
G37*
%TD.AperFunction*%
%TD*%
%TA.AperFunction,Conductor*%
%TO.N,+5V*%
G36*
X151898940Y-83128907D02*
G01*
X151934904Y-83178407D01*
X151939749Y-83209251D01*
X151937747Y-83999892D01*
X151918692Y-84058034D01*
X151869101Y-84093873D01*
X151839899Y-84098634D01*
X151722500Y-84099999D01*
X151722499Y-84100000D01*
X151712366Y-84947117D01*
X151709613Y-84955254D01*
X151710753Y-84963768D01*
X151702068Y-84977565D01*
X151692764Y-85005078D01*
X151681672Y-85017600D01*
X151676890Y-85022157D01*
X151659815Y-85034563D01*
X151577556Y-85116822D01*
X151576670Y-85117667D01*
X151550124Y-85130397D01*
X151523859Y-85143781D01*
X151521896Y-85143935D01*
X151521501Y-85144125D01*
X151520896Y-85144014D01*
X151508371Y-85145000D01*
X150320000Y-85145000D01*
X150120000Y-85345000D01*
X150120000Y-85345001D01*
X150120000Y-85600778D01*
X150119741Y-85607935D01*
X150119500Y-85611259D01*
X150119500Y-85862686D01*
X150100593Y-85920877D01*
X150063455Y-85951881D01*
X149991875Y-85986352D01*
X149991873Y-85986354D01*
X149934850Y-86057858D01*
X149914500Y-86147021D01*
X149914500Y-86728600D01*
X149932128Y-86811872D01*
X149932129Y-86811873D01*
X149986866Y-86885140D01*
X150066249Y-86926504D01*
X150082186Y-86942734D01*
X150100593Y-86956108D01*
X150103201Y-86964136D01*
X150109116Y-86970160D01*
X150119500Y-87014299D01*
X150119500Y-87137066D01*
X150100593Y-87195257D01*
X150063455Y-87226261D01*
X149991875Y-87260732D01*
X149991873Y-87260734D01*
X149934850Y-87332238D01*
X149914500Y-87421401D01*
X149914500Y-88169492D01*
X149895593Y-88227683D01*
X149885504Y-88239495D01*
X149850000Y-88274999D01*
X149850000Y-88561018D01*
X149833316Y-88616019D01*
X149826134Y-88626767D01*
X149826132Y-88626772D01*
X149814501Y-88685241D01*
X149814500Y-88685253D01*
X149814500Y-90096000D01*
X149795593Y-90154191D01*
X149746093Y-90190155D01*
X149715500Y-90195000D01*
X147219000Y-90195000D01*
X147160809Y-90176093D01*
X147124845Y-90126593D01*
X147120000Y-90096000D01*
X147120000Y-88149000D01*
X147138907Y-88090809D01*
X147188407Y-88054845D01*
X147219000Y-88050000D01*
X148329999Y-88050000D01*
X148330000Y-88050000D01*
X148775000Y-87605000D01*
X148775000Y-85880000D01*
X148125000Y-85230000D01*
X148124999Y-85230000D01*
X147064000Y-85230000D01*
X147005809Y-85211093D01*
X146969845Y-85161593D01*
X146965000Y-85131000D01*
X146965000Y-84371008D01*
X146983907Y-84312817D01*
X146993996Y-84301004D01*
X147196004Y-84098996D01*
X147250521Y-84071219D01*
X147266008Y-84070000D01*
X148574999Y-84070000D01*
X148575000Y-84070000D01*
X149506004Y-83138996D01*
X149560521Y-83111219D01*
X149576008Y-83110000D01*
X151840749Y-83110000D01*
X151898940Y-83128907D01*
G37*
%TD.AperFunction*%
%TD*%
%TA.AperFunction,Conductor*%
%TO.N,GND*%
G36*
X154670000Y-85370000D02*
G01*
X154670000Y-85687272D01*
X154668315Y-85687724D01*
X154564682Y-85747557D01*
X154480057Y-85832182D01*
X154420224Y-85935815D01*
X154420223Y-85935819D01*
X154389250Y-86051414D01*
X154389250Y-86171086D01*
X154420223Y-86286681D01*
X154420224Y-86286684D01*
X154442346Y-86325000D01*
X152825000Y-86325000D01*
X151410000Y-87740000D01*
X151410000Y-89415000D01*
X151040000Y-89785000D01*
X151040000Y-89455001D01*
X151039999Y-89455000D01*
X150764000Y-89455000D01*
X150705809Y-89436093D01*
X150669845Y-89386593D01*
X150665000Y-89356000D01*
X150665000Y-89280001D01*
X150664999Y-89280000D01*
X150589000Y-89280000D01*
X150530809Y-89261093D01*
X150494845Y-89211593D01*
X150490000Y-89181000D01*
X150490000Y-88505001D01*
X150840000Y-88505001D01*
X150840000Y-89104999D01*
X150840001Y-89105000D01*
X151039999Y-89105000D01*
X151040000Y-89104999D01*
X151040000Y-88685302D01*
X151039999Y-88685299D01*
X151028396Y-88626963D01*
X150984193Y-88560810D01*
X150984189Y-88560806D01*
X150918036Y-88516603D01*
X150859700Y-88505000D01*
X150840001Y-88505000D01*
X150840000Y-88505001D01*
X150490000Y-88505001D01*
X150489999Y-88505000D01*
X150470299Y-88505000D01*
X150411963Y-88516603D01*
X150407946Y-88519288D01*
X150381690Y-88526690D01*
X150120000Y-88265000D01*
X150120000Y-87421401D01*
X150136753Y-87424675D01*
X150165298Y-87429196D01*
X150167288Y-87430641D01*
X150168435Y-87430866D01*
X150170185Y-87432746D01*
X150190357Y-87447402D01*
X150265867Y-87522912D01*
X150372305Y-87574946D01*
X150441309Y-87585000D01*
X150487499Y-87585000D01*
X150487500Y-87584999D01*
X150487500Y-87275001D01*
X150887500Y-87275001D01*
X150887500Y-87584999D01*
X150887501Y-87585000D01*
X150933690Y-87585000D01*
X151002694Y-87574946D01*
X151109132Y-87522912D01*
X151192912Y-87439132D01*
X151244946Y-87332695D01*
X151253353Y-87275000D01*
X150887501Y-87275000D01*
X150887500Y-87275001D01*
X150487500Y-87275001D01*
X150487500Y-86565001D01*
X150887500Y-86565001D01*
X150887500Y-86874999D01*
X150887501Y-86875000D01*
X151253352Y-86875000D01*
X151244946Y-86817304D01*
X151192912Y-86710867D01*
X151109132Y-86627087D01*
X151002694Y-86575053D01*
X150933691Y-86565000D01*
X150887501Y-86565000D01*
X150887500Y-86565001D01*
X150487500Y-86565001D01*
X150487499Y-86565000D01*
X150441309Y-86565000D01*
X150372305Y-86575053D01*
X150265867Y-86627087D01*
X150265864Y-86627089D01*
X150190356Y-86702597D01*
X150177934Y-86708926D01*
X150168435Y-86719133D01*
X150151348Y-86722471D01*
X150135839Y-86730374D01*
X150122069Y-86728193D01*
X150120000Y-86728597D01*
X150120000Y-86147021D01*
X150165298Y-86154196D01*
X150190357Y-86172402D01*
X150265867Y-86247912D01*
X150372305Y-86299946D01*
X150441309Y-86310000D01*
X150487499Y-86310000D01*
X150487500Y-86309999D01*
X150487500Y-86000001D01*
X150887500Y-86000001D01*
X150887500Y-86309999D01*
X150887501Y-86310000D01*
X150933690Y-86310000D01*
X151002694Y-86299946D01*
X151109132Y-86247912D01*
X151192912Y-86164132D01*
X151244946Y-86057695D01*
X151253353Y-86000000D01*
X150887501Y-86000000D01*
X150887500Y-86000001D01*
X150487500Y-86000001D01*
X150487500Y-85899000D01*
X150506407Y-85840809D01*
X150555907Y-85804845D01*
X150586500Y-85800000D01*
X150687499Y-85800000D01*
X150687500Y-85799999D01*
X150687500Y-85699000D01*
X150706407Y-85640809D01*
X150755907Y-85604845D01*
X150786500Y-85600000D01*
X151253352Y-85600000D01*
X151244946Y-85542304D01*
X151208612Y-85467980D01*
X151200041Y-85407398D01*
X151222535Y-85365000D01*
X151620000Y-85365000D01*
X151805126Y-85179873D01*
X151844865Y-85159625D01*
X151905298Y-85169196D01*
X151930357Y-85187402D01*
X152005867Y-85262912D01*
X152112305Y-85314946D01*
X152181309Y-85325000D01*
X152227499Y-85325000D01*
X152227500Y-85324999D01*
X152227500Y-85015001D01*
X152627500Y-85015001D01*
X152627500Y-85324999D01*
X152627501Y-85325000D01*
X152673690Y-85325000D01*
X152742694Y-85314946D01*
X152849132Y-85262912D01*
X152932912Y-85179132D01*
X152984946Y-85072695D01*
X152993353Y-85015000D01*
X152627501Y-85015000D01*
X152627500Y-85015001D01*
X152227500Y-85015001D01*
X152227500Y-84305001D01*
X152627500Y-84305001D01*
X152627500Y-84614999D01*
X152627501Y-84615000D01*
X152993352Y-84615000D01*
X152984946Y-84557304D01*
X152932912Y-84450867D01*
X152849132Y-84367087D01*
X152742694Y-84315053D01*
X152673691Y-84305000D01*
X152627501Y-84305000D01*
X152627500Y-84305001D01*
X152227500Y-84305001D01*
X152227499Y-84305000D01*
X152181304Y-84305000D01*
X152173925Y-84306074D01*
X152257500Y-84222500D01*
X153522500Y-84222500D01*
X154670000Y-85370000D01*
G37*
%TD.AperFunction*%
%TD*%
%TA.AperFunction,Conductor*%
%TO.N,+3.3V*%
G36*
X156815632Y-90633263D02*
G01*
X156842069Y-90648527D01*
X156957664Y-90679500D01*
X156957666Y-90679500D01*
X157077334Y-90679500D01*
X157077336Y-90679500D01*
X157192931Y-90648527D01*
X157219367Y-90633263D01*
X157268868Y-90620000D01*
X158728743Y-90620000D01*
X158777806Y-90633013D01*
X159555881Y-91076973D01*
X159597053Y-91122234D01*
X159605808Y-91161545D01*
X159640934Y-93619585D01*
X159622860Y-93678040D01*
X159573879Y-93714708D01*
X159541944Y-93720000D01*
X158120000Y-93720000D01*
X150876008Y-93720000D01*
X150868410Y-93717531D01*
X150860521Y-93718781D01*
X150839865Y-93708256D01*
X150817817Y-93701093D01*
X150806004Y-93691004D01*
X150788300Y-93673300D01*
X150760523Y-93618783D01*
X150761786Y-93581268D01*
X150765500Y-93565000D01*
X150765500Y-93023953D01*
X150765500Y-93023790D01*
X150765496Y-93022738D01*
X150761665Y-93006400D01*
X150760084Y-92998069D01*
X150751034Y-92935947D01*
X150750000Y-92921675D01*
X150750000Y-92588323D01*
X150751034Y-92574052D01*
X150752615Y-92563195D01*
X150757920Y-92526787D01*
X150757919Y-92526786D01*
X150760383Y-92509876D01*
X150761832Y-92502114D01*
X150762124Y-92500837D01*
X150765500Y-92486046D01*
X150765500Y-91196501D01*
X150763481Y-91167768D01*
X150754143Y-91143310D01*
X150749536Y-91127315D01*
X150746902Y-91114071D01*
X150745000Y-91094760D01*
X150745000Y-90759000D01*
X150763907Y-90700809D01*
X150813407Y-90664845D01*
X150844000Y-90660000D01*
X150960581Y-90660000D01*
X151002909Y-90669505D01*
X151024040Y-90679500D01*
X151056730Y-90694962D01*
X151056731Y-90694962D01*
X151056739Y-90694966D01*
X151111741Y-90711651D01*
X151137307Y-90715443D01*
X151171392Y-90720500D01*
X151171396Y-90720500D01*
X156495646Y-90720500D01*
X156495653Y-90720500D01*
X156508212Y-90718678D01*
X156554016Y-90712038D01*
X156554018Y-90712037D01*
X156554020Y-90712037D01*
X156607939Y-90696065D01*
X156637346Y-90684840D01*
X156692997Y-90641138D01*
X156694811Y-90640472D01*
X156695949Y-90638907D01*
X156723374Y-90629996D01*
X156750440Y-90620069D01*
X156754140Y-90620000D01*
X156766132Y-90620000D01*
X156815632Y-90633263D01*
G37*
%TD.AperFunction*%
%TD*%
%TA.AperFunction,Conductor*%
%TO.N,Net-(PS1-SW)*%
G36*
X158264191Y-86738907D02*
G01*
X158300155Y-86788407D01*
X158305000Y-86819000D01*
X158305000Y-89759021D01*
X158302531Y-89766618D01*
X158303781Y-89774508D01*
X158293256Y-89795163D01*
X158286093Y-89817212D01*
X158276004Y-89829025D01*
X158209525Y-89895504D01*
X158155008Y-89923281D01*
X158139521Y-89924500D01*
X157400769Y-89924500D01*
X157342578Y-89905593D01*
X157330766Y-89895504D01*
X157296569Y-89861308D01*
X157192933Y-89801474D01*
X157192935Y-89801474D01*
X157169381Y-89795163D01*
X157077336Y-89770500D01*
X156957664Y-89770500D01*
X156865619Y-89795163D01*
X156842065Y-89801474D01*
X156738432Y-89861307D01*
X156653807Y-89945932D01*
X156593974Y-90049565D01*
X156593973Y-90049569D01*
X156563000Y-90165164D01*
X156563000Y-90284836D01*
X156591279Y-90390379D01*
X156588077Y-90451479D01*
X156549572Y-90499028D01*
X156495653Y-90515000D01*
X151171396Y-90515000D01*
X151116394Y-90498315D01*
X151068233Y-90466134D01*
X151068231Y-90466133D01*
X151068228Y-90466132D01*
X151068227Y-90466132D01*
X151009758Y-90454501D01*
X151009748Y-90454500D01*
X150720252Y-90454500D01*
X150720251Y-90454500D01*
X150720241Y-90454501D01*
X150661769Y-90466132D01*
X150652881Y-90469814D01*
X150591884Y-90474611D01*
X150577119Y-90469814D01*
X150568230Y-90466132D01*
X150509758Y-90454501D01*
X150509748Y-90454500D01*
X150220252Y-90454500D01*
X150220251Y-90454500D01*
X150220241Y-90454501D01*
X150161769Y-90466132D01*
X150152881Y-90469814D01*
X150091966Y-90474631D01*
X150074804Y-90470525D01*
X150068231Y-90466133D01*
X150009748Y-90454500D01*
X150007818Y-90454500D01*
X149999872Y-90452599D01*
X149979257Y-90439988D01*
X149957119Y-90430296D01*
X149953606Y-90424298D01*
X149947677Y-90420671D01*
X149938410Y-90398350D01*
X149926199Y-90377499D01*
X149926882Y-90370582D01*
X149924217Y-90364162D01*
X149929840Y-90340656D01*
X149932217Y-90316610D01*
X149937719Y-90307720D01*
X149938453Y-90304656D01*
X149940358Y-90303025D01*
X149940132Y-90302890D01*
X149944126Y-90296204D01*
X149944128Y-90296203D01*
X149991036Y-90217693D01*
X150009943Y-90159502D01*
X150020000Y-90096000D01*
X150020000Y-90004000D01*
X150024845Y-89989088D01*
X150024845Y-89973407D01*
X150034061Y-89960721D01*
X150038907Y-89945809D01*
X150051592Y-89936592D01*
X150060809Y-89923907D01*
X150075721Y-89919061D01*
X150088407Y-89909845D01*
X150119000Y-89905000D01*
X150229353Y-89905000D01*
X150287544Y-89923907D01*
X150311668Y-89948998D01*
X150338271Y-89988811D01*
X150345448Y-89999552D01*
X150411769Y-90043867D01*
X150456231Y-90052711D01*
X150470241Y-90055498D01*
X150470246Y-90055498D01*
X150470252Y-90055500D01*
X150470253Y-90055500D01*
X150859747Y-90055500D01*
X150859748Y-90055500D01*
X150918231Y-90043867D01*
X150976589Y-90004872D01*
X151020499Y-89988812D01*
X151107872Y-89978968D01*
X151185310Y-89930310D01*
X151185315Y-89930304D01*
X151189653Y-89926846D01*
X151191387Y-89929020D01*
X151236140Y-89906219D01*
X151251627Y-89905000D01*
X151409999Y-89905000D01*
X151410000Y-89905000D01*
X151760000Y-89555000D01*
X151760000Y-87966008D01*
X151778907Y-87907817D01*
X151788996Y-87896004D01*
X152936004Y-86748996D01*
X152990521Y-86721219D01*
X153006008Y-86720000D01*
X158206000Y-86720000D01*
X158264191Y-86738907D01*
G37*
%TD.AperFunction*%
%TD*%
%TA.AperFunction,Conductor*%
%TO.N,GND*%
G36*
X150498691Y-90678907D02*
G01*
X150534655Y-90728407D01*
X150539500Y-90759000D01*
X150539500Y-91124746D01*
X150539501Y-91124758D01*
X150551132Y-91183227D01*
X150551134Y-91183233D01*
X150560000Y-91196501D01*
X150560000Y-92486046D01*
X150554567Y-92497160D01*
X150544500Y-92566258D01*
X150544500Y-92943742D01*
X150554567Y-93012840D01*
X150560000Y-93023953D01*
X150560000Y-93565000D01*
X150225000Y-93900000D01*
X149295000Y-93900000D01*
X149115000Y-93720000D01*
X149115000Y-92590000D01*
X150145000Y-91560000D01*
X150145000Y-91448026D01*
X150145020Y-91447992D01*
X150145020Y-91447990D01*
X150145022Y-91447988D01*
X150165500Y-91371562D01*
X150165500Y-91292438D01*
X150165500Y-91233268D01*
X150177632Y-91193277D01*
X150175134Y-91192243D01*
X150178863Y-91183235D01*
X150178867Y-91183231D01*
X150190500Y-91124748D01*
X150190500Y-90759000D01*
X150195345Y-90744088D01*
X150195345Y-90728407D01*
X150204561Y-90715721D01*
X150209407Y-90700809D01*
X150222092Y-90691592D01*
X150231309Y-90678907D01*
X150246221Y-90674061D01*
X150258907Y-90664845D01*
X150289500Y-90660000D01*
X150440500Y-90660000D01*
X150498691Y-90678907D01*
G37*
%TD.AperFunction*%
%TD*%
%TA.AperFunction,Conductor*%
%TO.N,GND*%
G36*
X146921644Y-77175224D02*
G01*
X146947883Y-77180932D01*
X146957956Y-77188472D01*
X146962056Y-77189968D01*
X146976138Y-77202082D01*
X147004352Y-77230296D01*
X147040135Y-77250955D01*
X147057861Y-77269546D01*
X147089645Y-77279540D01*
X147114118Y-77293670D01*
X147114148Y-77293687D01*
X147236609Y-77326500D01*
X147236610Y-77326500D01*
X147363391Y-77326500D01*
X147626167Y-77326500D01*
X147693206Y-77346185D01*
X147738961Y-77398989D01*
X147748905Y-77468147D01*
X147726486Y-77523384D01*
X147679197Y-77588472D01*
X147600591Y-77742742D01*
X147547085Y-77907415D01*
X147520000Y-78078428D01*
X147520000Y-78251571D01*
X147547085Y-78422584D01*
X147600591Y-78587257D01*
X147679194Y-78741521D01*
X147758097Y-78850124D01*
X148189269Y-78418951D01*
X148219901Y-78472007D01*
X148312993Y-78565099D01*
X148366045Y-78595729D01*
X147934874Y-79026901D01*
X148043478Y-79105805D01*
X148197742Y-79184408D01*
X148362415Y-79237914D01*
X148533429Y-79265000D01*
X148706571Y-79265000D01*
X148877584Y-79237914D01*
X149042257Y-79184408D01*
X149196528Y-79105801D01*
X149305124Y-79026902D01*
X149305125Y-79026901D01*
X148873953Y-78595729D01*
X148927007Y-78565099D01*
X149020099Y-78472007D01*
X149050729Y-78418952D01*
X149481902Y-78850125D01*
X149481902Y-78850124D01*
X149560801Y-78741528D01*
X149639408Y-78587257D01*
X149692914Y-78422584D01*
X149720000Y-78251571D01*
X149720000Y-78214823D01*
X149739685Y-78147784D01*
X149792489Y-78102029D01*
X149861647Y-78092085D01*
X149906002Y-78107437D01*
X149934144Y-78123686D01*
X149934146Y-78123686D01*
X149934147Y-78123687D01*
X150056609Y-78156500D01*
X150183391Y-78156500D01*
X150633194Y-78156500D01*
X150700233Y-78176185D01*
X150745988Y-78228989D01*
X150755932Y-78298147D01*
X150726907Y-78361703D01*
X150720875Y-78368181D01*
X149424706Y-79664349D01*
X149424704Y-79664352D01*
X149361313Y-79774146D01*
X149328500Y-79896609D01*
X149328500Y-82732920D01*
X149308815Y-82799959D01*
X149277386Y-82833238D01*
X149232705Y-82865700D01*
X149232704Y-82865701D01*
X148451225Y-83647181D01*
X148389902Y-83680666D01*
X148363544Y-83683500D01*
X147265998Y-83683500D01*
X147235696Y-83684690D01*
X147220195Y-83685910D01*
X147190065Y-83689476D01*
X147071303Y-83728063D01*
X147001462Y-83730057D01*
X146941630Y-83693975D01*
X146910803Y-83631274D01*
X146918768Y-83561860D01*
X146945311Y-83522444D01*
X146946735Y-83521019D01*
X147004980Y-83406709D01*
X147020000Y-83311877D01*
X147020000Y-83250000D01*
X146527500Y-83250000D01*
X146527500Y-83685000D01*
X146646877Y-83685000D01*
X146741705Y-83669980D01*
X146749265Y-83667524D01*
X146819106Y-83665525D01*
X146878941Y-83701602D01*
X146909773Y-83764302D01*
X146901812Y-83833716D01*
X146875271Y-83873134D01*
X146720703Y-84027701D01*
X146700104Y-84049986D01*
X146694397Y-84056668D01*
X146691749Y-84059770D01*
X146690004Y-84061813D01*
X146671218Y-84085642D01*
X146616322Y-84193384D01*
X146616320Y-84193388D01*
X146597417Y-84251567D01*
X146597416Y-84251574D01*
X146578500Y-84371002D01*
X146578500Y-85131005D01*
X146583257Y-85191449D01*
X146588103Y-85222053D01*
X146602261Y-85281025D01*
X146602262Y-85281030D01*
X146657162Y-85388777D01*
X146693119Y-85438266D01*
X146693125Y-85438274D01*
X146693138Y-85438287D01*
X146693137Y-85438287D01*
X146778631Y-85523779D01*
X146778630Y-85523779D01*
X146886376Y-85578677D01*
X146890880Y-85580543D01*
X146889635Y-85583547D01*
X146936564Y-85613224D01*
X146966052Y-85676566D01*
X146967338Y-85700285D01*
X146966936Y-85709883D01*
X146954500Y-85772409D01*
X146954500Y-85897591D01*
X146958297Y-85916681D01*
X146957678Y-85931504D01*
X146951020Y-85951110D01*
X146949173Y-85971736D01*
X146938471Y-85988065D01*
X146935212Y-85997663D01*
X146928875Y-86002706D01*
X146921468Y-86014009D01*
X146850221Y-86085256D01*
X146794305Y-86199635D01*
X146794304Y-86199637D01*
X146794304Y-86199639D01*
X146783500Y-86273794D01*
X146783500Y-86946206D01*
X146794304Y-87020361D01*
X146794304Y-87020362D01*
X146794305Y-87020364D01*
X146850221Y-87134743D01*
X146850223Y-87134746D01*
X146940253Y-87224776D01*
X146940256Y-87224778D01*
X147025703Y-87266550D01*
X147054639Y-87280696D01*
X147128794Y-87291500D01*
X148242544Y-87291500D01*
X148263789Y-87297738D01*
X148285878Y-87299318D01*
X148296661Y-87307390D01*
X148309583Y-87311185D01*
X148324082Y-87327918D01*
X148341811Y-87341190D01*
X148346518Y-87353810D01*
X148355338Y-87363989D01*
X148358489Y-87385906D01*
X148366228Y-87406654D01*
X148363365Y-87419814D01*
X148365282Y-87433147D01*
X148356082Y-87453290D01*
X148351376Y-87474927D01*
X148338107Y-87492652D01*
X148336257Y-87496703D01*
X148330225Y-87503181D01*
X148206225Y-87627181D01*
X148144902Y-87660666D01*
X148118544Y-87663500D01*
X147218994Y-87663500D01*
X147158550Y-87668257D01*
X147127946Y-87673103D01*
X147068974Y-87687261D01*
X147068969Y-87687262D01*
X146961222Y-87742162D01*
X146911733Y-87778119D01*
X146911727Y-87778124D01*
X146911726Y-87778125D01*
X146911713Y-87778138D01*
X146911712Y-87778137D01*
X146826221Y-87863630D01*
X146799984Y-87915124D01*
X146752009Y-87965920D01*
X146684188Y-87982715D01*
X146670106Y-87981303D01*
X146661877Y-87980000D01*
X146542500Y-87980000D01*
X146542500Y-89106000D01*
X146539949Y-89114685D01*
X146541238Y-89123647D01*
X146530259Y-89147687D01*
X146522815Y-89173039D01*
X146515974Y-89178966D01*
X146512213Y-89187203D01*
X146489978Y-89201492D01*
X146470011Y-89218794D01*
X146459496Y-89221081D01*
X146453435Y-89224977D01*
X146430000Y-89228346D01*
X146430000Y-89681000D01*
X146410315Y-89748039D01*
X146357511Y-89793794D01*
X146306000Y-89805000D01*
X146305000Y-89805000D01*
X146305000Y-89806000D01*
X146285315Y-89873039D01*
X146232511Y-89918794D01*
X146181000Y-89930000D01*
X145735001Y-89930000D01*
X145735001Y-90034767D01*
X145750206Y-90130777D01*
X145810253Y-90248624D01*
X145823149Y-90317293D01*
X145796873Y-90382033D01*
X145774695Y-90403722D01*
X145758502Y-90416001D01*
X145668558Y-90534609D01*
X145613949Y-90673088D01*
X145608204Y-90720933D01*
X145603500Y-90760106D01*
X145603500Y-91239894D01*
X145608988Y-91285595D01*
X145613949Y-91326911D01*
X145635352Y-91381185D01*
X145668558Y-91465390D01*
X145758502Y-91583998D01*
X145877110Y-91673942D01*
X146015587Y-91728550D01*
X146102606Y-91739000D01*
X146102612Y-91739000D01*
X146507388Y-91739000D01*
X146507394Y-91739000D01*
X146594413Y-91728550D01*
X146732890Y-91673942D01*
X146851498Y-91583998D01*
X146851498Y-91583997D01*
X146855074Y-91581286D01*
X146920385Y-91556462D01*
X146988749Y-91570890D01*
X147004926Y-91581286D01*
X147008501Y-91583997D01*
X147008502Y-91583998D01*
X147127110Y-91673942D01*
X147265587Y-91728550D01*
X147352606Y-91739000D01*
X147352612Y-91739000D01*
X147757388Y-91739000D01*
X147757394Y-91739000D01*
X147844413Y-91728550D01*
X147982890Y-91673942D01*
X148101498Y-91583998D01*
X148191442Y-91465390D01*
X148201450Y-91440010D01*
X148244355Y-91384867D01*
X148310263Y-91361673D01*
X148316805Y-91361500D01*
X148855194Y-91361500D01*
X148922233Y-91381185D01*
X148967988Y-91433989D01*
X148977932Y-91503147D01*
X148948907Y-91566703D01*
X148942877Y-91573178D01*
X148493515Y-92022540D01*
X148396911Y-92119144D01*
X148396910Y-92119144D01*
X148396911Y-92119145D01*
X148324704Y-92191352D01*
X148261313Y-92301146D01*
X148228500Y-92423609D01*
X148228500Y-93813390D01*
X148261313Y-93935853D01*
X148287386Y-93981011D01*
X148324704Y-94045648D01*
X148849704Y-94570648D01*
X148939352Y-94660296D01*
X149049148Y-94723687D01*
X149171609Y-94756500D01*
X149171611Y-94756500D01*
X150498389Y-94756500D01*
X150498391Y-94756500D01*
X150620852Y-94723687D01*
X150730648Y-94660296D01*
X151248124Y-94142818D01*
X151309447Y-94109334D01*
X151335805Y-94106500D01*
X159541945Y-94106500D01*
X159546115Y-94106156D01*
X159605130Y-94101300D01*
X159637065Y-94096008D01*
X159698557Y-94080546D01*
X159805505Y-94024113D01*
X159854486Y-93987445D01*
X159938759Y-93900728D01*
X159992112Y-93792211D01*
X160010186Y-93733756D01*
X160027395Y-93614062D01*
X160027006Y-93586875D01*
X160000520Y-91733411D01*
X159992269Y-91156022D01*
X159983065Y-91077526D01*
X159974310Y-91038215D01*
X159949334Y-90963236D01*
X159949333Y-90963235D01*
X159949333Y-90963233D01*
X159882964Y-90862164D01*
X159882962Y-90862161D01*
X159882959Y-90862157D01*
X159841787Y-90816896D01*
X159841785Y-90816894D01*
X159841782Y-90816891D01*
X159747422Y-90741272D01*
X159074972Y-90357581D01*
X159026500Y-90307260D01*
X159012928Y-90238721D01*
X159038566Y-90173725D01*
X159048740Y-90162203D01*
X159120296Y-90090648D01*
X159183687Y-89980852D01*
X159187909Y-89965094D01*
X159224269Y-89905436D01*
X159287115Y-89874905D01*
X159356491Y-89883197D01*
X159395364Y-89909506D01*
X159830253Y-90344395D01*
X159940048Y-90407786D01*
X160062510Y-90440599D01*
X160189292Y-90440599D01*
X160875095Y-90440599D01*
X160942134Y-90460284D01*
X160962776Y-90476918D01*
X162632181Y-92146323D01*
X162665666Y-92207646D01*
X162668500Y-92234004D01*
X162668500Y-95170886D01*
X162648815Y-95237925D01*
X162596011Y-95283680D01*
X162526853Y-95293624D01*
X162463297Y-95264599D01*
X162428873Y-95215680D01*
X162382367Y-95095634D01*
X162382367Y-95095633D01*
X162286610Y-94940980D01*
X162277405Y-94930883D01*
X162164067Y-94806556D01*
X162018909Y-94696938D01*
X162018901Y-94696933D01*
X161856079Y-94615857D01*
X161856080Y-94615857D01*
X161681120Y-94566078D01*
X161500000Y-94549295D01*
X161318879Y-94566078D01*
X161143919Y-94615857D01*
X160981098Y-94696933D01*
X160981090Y-94696938D01*
X160835932Y-94806556D01*
X160713390Y-94940979D01*
X160713388Y-94940981D01*
X160617636Y-95095627D01*
X160617632Y-95095634D01*
X160588480Y-95170886D01*
X160551924Y-95265249D01*
X160518500Y-95444051D01*
X160518500Y-95444053D01*
X160518500Y-95936684D01*
X160498815Y-96003723D01*
X160446011Y-96049478D01*
X160376853Y-96059422D01*
X160336206Y-96053500D01*
X159913794Y-96053500D01*
X159913791Y-96053500D01*
X159892871Y-96056547D01*
X159857129Y-96056547D01*
X159836208Y-96053500D01*
X159836206Y-96053500D01*
X159413794Y-96053500D01*
X159413791Y-96053500D01*
X159392871Y-96056547D01*
X159357129Y-96056547D01*
X159336208Y-96053500D01*
X159336206Y-96053500D01*
X158913794Y-96053500D01*
X158913791Y-96053500D01*
X158892871Y-96056547D01*
X158857129Y-96056547D01*
X158836208Y-96053500D01*
X158836206Y-96053500D01*
X158605500Y-96053500D01*
X158538461Y-96033815D01*
X158492706Y-95981011D01*
X158481500Y-95929500D01*
X158481500Y-95444053D01*
X158481500Y-95444051D01*
X158448076Y-95265249D01*
X158382367Y-95095633D01*
X158286610Y-94940980D01*
X158277405Y-94930883D01*
X158164067Y-94806556D01*
X158018909Y-94696938D01*
X158018901Y-94696933D01*
X157856079Y-94615857D01*
X157856080Y-94615857D01*
X157681120Y-94566078D01*
X157500000Y-94549295D01*
X157318879Y-94566078D01*
X157143919Y-94615857D01*
X156981098Y-94696933D01*
X156981090Y-94696938D01*
X156835932Y-94806556D01*
X156713390Y-94940979D01*
X156713388Y-94940981D01*
X156617636Y-95095627D01*
X156617632Y-95095634D01*
X156588480Y-95170886D01*
X156551924Y-95265249D01*
X156518500Y-95444051D01*
X156518500Y-95444053D01*
X156518500Y-96072469D01*
X156498815Y-96139508D01*
X156446011Y-96185263D01*
X156404076Y-96196099D01*
X156300000Y-96204160D01*
X156300000Y-95040000D01*
X156290000Y-95030000D01*
X145450000Y-95030000D01*
X145450000Y-96187005D01*
X145427534Y-96181805D01*
X145408937Y-96171327D01*
X145388461Y-96165315D01*
X145379108Y-96154521D01*
X145366662Y-96147509D01*
X145356681Y-96128639D01*
X145342706Y-96112511D01*
X145338902Y-96095025D01*
X145333994Y-96085746D01*
X145334805Y-96076192D01*
X145331500Y-96061000D01*
X145331500Y-94848177D01*
X145297625Y-94677881D01*
X145297624Y-94677880D01*
X145297624Y-94677876D01*
X145271935Y-94615857D01*
X145231178Y-94517459D01*
X145231171Y-94517446D01*
X145134706Y-94373077D01*
X145134703Y-94373073D01*
X145011926Y-94250296D01*
X145011922Y-94250293D01*
X144867553Y-94153828D01*
X144867540Y-94153821D01*
X144707128Y-94087377D01*
X144707118Y-94087374D01*
X144536822Y-94053500D01*
X144536820Y-94053500D01*
X144500225Y-94053500D01*
X144380500Y-94053500D01*
X144313461Y-94033815D01*
X144267706Y-93981011D01*
X144256500Y-93929500D01*
X144256500Y-89575225D01*
X145735000Y-89575225D01*
X145735000Y-89680000D01*
X146180000Y-89680000D01*
X146180000Y-89191500D01*
X146182550Y-89182814D01*
X146181262Y-89173853D01*
X146192240Y-89149812D01*
X146199685Y-89124461D01*
X146206525Y-89118533D01*
X146210287Y-89110297D01*
X146232521Y-89096007D01*
X146252489Y-89078706D01*
X146263003Y-89076418D01*
X146269065Y-89072523D01*
X146292500Y-89069153D01*
X146292500Y-88665000D01*
X145800000Y-88665000D01*
X145800000Y-88726877D01*
X145815019Y-88821709D01*
X145873265Y-88936020D01*
X145873268Y-88936025D01*
X145963974Y-89026731D01*
X145971872Y-89032469D01*
X145969627Y-89035558D01*
X146006742Y-89070543D01*
X146023603Y-89138348D01*
X146001130Y-89204505D01*
X145956009Y-89243641D01*
X145901003Y-89271668D01*
X145900998Y-89271672D01*
X145809172Y-89363498D01*
X145809169Y-89363502D01*
X145750204Y-89479228D01*
X145735000Y-89575225D01*
X144256500Y-89575225D01*
X144256500Y-88353122D01*
X145800000Y-88353122D01*
X145800000Y-88415000D01*
X146292500Y-88415000D01*
X146292500Y-87980000D01*
X146173123Y-87980000D01*
X146078290Y-87995019D01*
X145963979Y-88053265D01*
X145963974Y-88053268D01*
X145873268Y-88143974D01*
X145873265Y-88143979D01*
X145815019Y-88258290D01*
X145800000Y-88353122D01*
X144256500Y-88353122D01*
X144256500Y-87333589D01*
X144256912Y-87332184D01*
X144256532Y-87330771D01*
X144266727Y-87298757D01*
X144276185Y-87266550D01*
X144277290Y-87265592D01*
X144277735Y-87264196D01*
X144303635Y-87242764D01*
X144328989Y-87220795D01*
X144330436Y-87220586D01*
X144331565Y-87219653D01*
X144364912Y-87215629D01*
X144398147Y-87210851D01*
X144399949Y-87211402D01*
X144400932Y-87211284D01*
X144429938Y-87220579D01*
X144434561Y-87221994D01*
X144440207Y-87224729D01*
X144440254Y-87224776D01*
X144554639Y-87280696D01*
X144556205Y-87280924D01*
X144566126Y-87285730D01*
X144585310Y-87303132D01*
X144606899Y-87317435D01*
X144610764Y-87326221D01*
X144617877Y-87332673D01*
X144624606Y-87357682D01*
X144635037Y-87381388D01*
X144634587Y-87394769D01*
X144636033Y-87400143D01*
X144634214Y-87405853D01*
X144634033Y-87411241D01*
X144635097Y-87411346D01*
X144634500Y-87417408D01*
X144634500Y-87542595D01*
X144658920Y-87665361D01*
X144658923Y-87665373D01*
X144706823Y-87781015D01*
X144706830Y-87781028D01*
X144776374Y-87885107D01*
X144776377Y-87885111D01*
X144864888Y-87973622D01*
X144864892Y-87973625D01*
X144968971Y-88043169D01*
X144968984Y-88043176D01*
X145084626Y-88091076D01*
X145084631Y-88091078D01*
X145207404Y-88115499D01*
X145207408Y-88115500D01*
X145207409Y-88115500D01*
X145332592Y-88115500D01*
X145332593Y-88115499D01*
X145455369Y-88091078D01*
X145544816Y-88054027D01*
X145571015Y-88043176D01*
X145571015Y-88043175D01*
X145571022Y-88043173D01*
X145675108Y-87973625D01*
X145763625Y-87885108D01*
X145833173Y-87781022D01*
X145834376Y-87778119D01*
X145870612Y-87690636D01*
X145881078Y-87665369D01*
X145905500Y-87542591D01*
X145905500Y-87417409D01*
X145905500Y-87417408D01*
X145904903Y-87411346D01*
X145906108Y-87411227D01*
X145911758Y-87348013D01*
X145954615Y-87292831D01*
X145972693Y-87281999D01*
X145975357Y-87280696D01*
X145975361Y-87280696D01*
X146089746Y-87224776D01*
X146179776Y-87134746D01*
X146179778Y-87134743D01*
X146214113Y-87064509D01*
X146235696Y-87020361D01*
X146246500Y-86946206D01*
X146246500Y-86273794D01*
X146235696Y-86199639D01*
X146216816Y-86161020D01*
X146179778Y-86085256D01*
X146179776Y-86085253D01*
X146151319Y-86056796D01*
X146117834Y-85995473D01*
X146115000Y-85969115D01*
X146115000Y-85785000D01*
X145389000Y-85785000D01*
X145380314Y-85782449D01*
X145371353Y-85783738D01*
X145347312Y-85772759D01*
X145321961Y-85765315D01*
X145316033Y-85758474D01*
X145307797Y-85754713D01*
X145293507Y-85732478D01*
X145276206Y-85712511D01*
X145273918Y-85701996D01*
X145270023Y-85695935D01*
X145265000Y-85661000D01*
X145265000Y-85659000D01*
X145284685Y-85591961D01*
X145337489Y-85546206D01*
X145389000Y-85535000D01*
X146115000Y-85535000D01*
X146115000Y-85350884D01*
X146134685Y-85283845D01*
X146151319Y-85263203D01*
X146165393Y-85249129D01*
X146179776Y-85234746D01*
X146235696Y-85120361D01*
X146246500Y-85046206D01*
X146246500Y-84373794D01*
X146235696Y-84299639D01*
X146231370Y-84290790D01*
X146179778Y-84185256D01*
X146179776Y-84185253D01*
X146089746Y-84095223D01*
X146089743Y-84095221D01*
X145966710Y-84035074D01*
X145968370Y-84031678D01*
X145962494Y-84027772D01*
X145939297Y-84017179D01*
X145933884Y-84008756D01*
X145925547Y-84003215D01*
X145915312Y-83979857D01*
X145901523Y-83958401D01*
X145899380Y-83943498D01*
X145897505Y-83939219D01*
X145896500Y-83923466D01*
X145896500Y-83786457D01*
X145916185Y-83719418D01*
X145968989Y-83673663D01*
X146038147Y-83663719D01*
X146058826Y-83668529D01*
X146063291Y-83669980D01*
X146158123Y-83685000D01*
X146277500Y-83685000D01*
X146277500Y-83000000D01*
X146527500Y-83000000D01*
X147020000Y-83000000D01*
X147020000Y-82938122D01*
X147004980Y-82843290D01*
X146946734Y-82728979D01*
X146946731Y-82728974D01*
X146856025Y-82638268D01*
X146856020Y-82638265D01*
X146741709Y-82580019D01*
X146646877Y-82565000D01*
X146527500Y-82565000D01*
X146527500Y-83000000D01*
X146277500Y-83000000D01*
X146277500Y-82565000D01*
X146158123Y-82565000D01*
X146063290Y-82580019D01*
X146063286Y-82580021D01*
X146060019Y-82581686D01*
X146055623Y-82582511D01*
X146054009Y-82583036D01*
X146053941Y-82582827D01*
X146041492Y-82585164D01*
X146024555Y-82593438D01*
X146007866Y-82591479D01*
X145991349Y-82594581D01*
X145973882Y-82587491D01*
X145955162Y-82585294D01*
X145942180Y-82574622D01*
X145926609Y-82568302D01*
X145915748Y-82552895D01*
X145901188Y-82540926D01*
X145892214Y-82519509D01*
X145886354Y-82511195D01*
X145885697Y-82509213D01*
X145883506Y-82502412D01*
X145874732Y-82458298D01*
X145852241Y-82404000D01*
X145827129Y-82343373D01*
X145758018Y-82239942D01*
X145758015Y-82239938D01*
X145612654Y-82094577D01*
X145579169Y-82033254D01*
X145584153Y-81963562D01*
X145626025Y-81907629D01*
X145691489Y-81883212D01*
X145738651Y-81888964D01*
X145791623Y-81906176D01*
X145983079Y-81936500D01*
X145983080Y-81936500D01*
X146176920Y-81936500D01*
X146176921Y-81936500D01*
X146368377Y-81906176D01*
X146552732Y-81846276D01*
X146725447Y-81758273D01*
X146882268Y-81644336D01*
X147019336Y-81507268D01*
X147133273Y-81350447D01*
X147221276Y-81177732D01*
X147281176Y-80993377D01*
X147311500Y-80801921D01*
X147311500Y-80608079D01*
X147281176Y-80416623D01*
X147239998Y-80289888D01*
X147221277Y-80232270D01*
X147221276Y-80232267D01*
X147170099Y-80131827D01*
X147133273Y-80059553D01*
X147019336Y-79902732D01*
X146882268Y-79765664D01*
X146725447Y-79651727D01*
X146673564Y-79625291D01*
X146552732Y-79563723D01*
X146552729Y-79563722D01*
X146368378Y-79503823D01*
X146286800Y-79490903D01*
X146223665Y-79460974D01*
X146186734Y-79401662D01*
X146187732Y-79331799D01*
X146226342Y-79273567D01*
X146286801Y-79245956D01*
X146337590Y-79237912D01*
X146502257Y-79184408D01*
X146656528Y-79105801D01*
X146765124Y-79026902D01*
X146765125Y-79026902D01*
X146333952Y-78595729D01*
X146387007Y-78565099D01*
X146480099Y-78472007D01*
X146510729Y-78418953D01*
X146941901Y-78850125D01*
X146941902Y-78850124D01*
X147020801Y-78741528D01*
X147099408Y-78587257D01*
X147152914Y-78422584D01*
X147180000Y-78251571D01*
X147180000Y-78078428D01*
X147152914Y-77907415D01*
X147099408Y-77742742D01*
X147020805Y-77588478D01*
X146941900Y-77479874D01*
X146510728Y-77911045D01*
X146480099Y-77857993D01*
X146387007Y-77764901D01*
X146333951Y-77734269D01*
X146765123Y-77303098D01*
X146764840Y-77299497D01*
X146770360Y-77273214D01*
X146772276Y-77246433D01*
X146777433Y-77239543D01*
X146779203Y-77231119D01*
X146798055Y-77211994D01*
X146814146Y-77190499D01*
X146822210Y-77187491D01*
X146828253Y-77181361D01*
X146854450Y-77175465D01*
X146879610Y-77166081D01*
X146888021Y-77167910D01*
X146896418Y-77166021D01*
X146921644Y-77175224D01*
G37*
%TD.AperFunction*%
%TA.AperFunction,Conductor*%
G36*
X165412833Y-78340623D02*
G01*
X165468767Y-78382494D01*
X165493184Y-78447959D01*
X165493500Y-78456805D01*
X165493500Y-78936382D01*
X165473815Y-79003421D01*
X165421011Y-79049176D01*
X165351853Y-79059120D01*
X165313206Y-79046867D01*
X165254519Y-79016964D01*
X165254515Y-79016963D01*
X165163191Y-79002500D01*
X165117500Y-79002500D01*
X165117500Y-79914380D01*
X165124666Y-79927504D01*
X165127500Y-79953862D01*
X165127500Y-81162499D01*
X165174040Y-81162499D01*
X165248874Y-81151596D01*
X165315040Y-81119250D01*
X165383913Y-81107491D01*
X165448210Y-81134835D01*
X165487517Y-81192599D01*
X165493500Y-81230651D01*
X165493500Y-93929500D01*
X165473815Y-93996539D01*
X165421011Y-94042294D01*
X165369500Y-94053500D01*
X165213178Y-94053500D01*
X165042881Y-94087374D01*
X165042871Y-94087377D01*
X164882459Y-94153821D01*
X164882446Y-94153828D01*
X164738077Y-94250293D01*
X164738073Y-94250296D01*
X164615296Y-94373073D01*
X164615293Y-94373077D01*
X164518828Y-94517446D01*
X164518821Y-94517459D01*
X164452377Y-94677871D01*
X164452374Y-94677881D01*
X164418500Y-94848177D01*
X164418500Y-96061000D01*
X164415949Y-96069685D01*
X164417238Y-96078647D01*
X164406259Y-96102687D01*
X164398815Y-96128039D01*
X164391974Y-96133966D01*
X164388213Y-96142203D01*
X164365978Y-96156492D01*
X164346011Y-96173794D01*
X164335496Y-96176081D01*
X164329435Y-96179977D01*
X164294500Y-96185000D01*
X164230500Y-96185000D01*
X164163461Y-96165315D01*
X164117706Y-96112511D01*
X164106500Y-96061000D01*
X164106500Y-96009110D01*
X164106499Y-96009106D01*
X164098971Y-95981011D01*
X164094256Y-95963412D01*
X164085725Y-95931572D01*
X164081500Y-95899480D01*
X164081500Y-91733413D01*
X164081500Y-91733411D01*
X164068802Y-91686022D01*
X164062825Y-91663715D01*
X164048688Y-91610951D01*
X164048687Y-91610949D01*
X163985296Y-91501154D01*
X161961918Y-89477776D01*
X161928433Y-89416453D01*
X161925599Y-89390095D01*
X161925599Y-89101770D01*
X161945284Y-89034731D01*
X161946497Y-89032879D01*
X161950605Y-89026731D01*
X162007272Y-88941923D01*
X162055177Y-88826270D01*
X162079599Y-88703492D01*
X162079599Y-88578310D01*
X162055177Y-88455532D01*
X162014022Y-88356175D01*
X162007275Y-88339885D01*
X162007268Y-88339872D01*
X161937724Y-88235793D01*
X161937721Y-88235789D01*
X161849210Y-88147278D01*
X161849206Y-88147275D01*
X161745127Y-88077731D01*
X161745114Y-88077724D01*
X161628259Y-88029322D01*
X161573855Y-87985481D01*
X161551790Y-87919187D01*
X161569069Y-87851488D01*
X161572591Y-87845896D01*
X161621510Y-87772685D01*
X161669415Y-87657032D01*
X161693837Y-87534254D01*
X161693837Y-87523000D01*
X161713522Y-87455961D01*
X161766326Y-87410206D01*
X161817837Y-87399000D01*
X162778389Y-87399000D01*
X162778391Y-87399000D01*
X162900852Y-87366187D01*
X163010648Y-87302796D01*
X163248936Y-87064506D01*
X163310255Y-87031024D01*
X163312266Y-87030605D01*
X163397869Y-87013578D01*
X163513522Y-86965673D01*
X163617608Y-86896125D01*
X163706125Y-86807608D01*
X163775673Y-86703522D01*
X163823578Y-86587869D01*
X163848000Y-86465091D01*
X163848000Y-86339909D01*
X163823578Y-86217131D01*
X163800336Y-86161020D01*
X163775676Y-86101484D01*
X163775669Y-86101471D01*
X163706125Y-85997392D01*
X163706122Y-85997388D01*
X163617611Y-85908877D01*
X163617607Y-85908874D01*
X163513528Y-85839330D01*
X163513515Y-85839323D01*
X163397873Y-85791423D01*
X163397861Y-85791420D01*
X163275095Y-85767000D01*
X163275091Y-85767000D01*
X163149909Y-85767000D01*
X163149904Y-85767000D01*
X163027138Y-85791420D01*
X163027126Y-85791423D01*
X162911484Y-85839323D01*
X162911471Y-85839330D01*
X162807392Y-85908874D01*
X162807388Y-85908877D01*
X162718877Y-85997388D01*
X162718874Y-85997392D01*
X162649330Y-86101471D01*
X162649323Y-86101484D01*
X162601423Y-86217126D01*
X162601420Y-86217138D01*
X162577739Y-86336191D01*
X162545354Y-86398102D01*
X162484639Y-86432676D01*
X162456122Y-86436000D01*
X161201119Y-86436000D01*
X161134080Y-86416315D01*
X161088325Y-86363511D01*
X161078381Y-86294353D01*
X161107406Y-86230797D01*
X161113438Y-86224319D01*
X161176731Y-86161025D01*
X161176734Y-86161020D01*
X161234980Y-86046709D01*
X161250000Y-85951877D01*
X161250000Y-85890000D01*
X160756500Y-85890000D01*
X160747814Y-85887449D01*
X160738853Y-85888738D01*
X160714812Y-85877759D01*
X160689461Y-85870315D01*
X160683533Y-85863474D01*
X160675297Y-85859713D01*
X160661007Y-85837478D01*
X160643706Y-85817511D01*
X160641418Y-85806996D01*
X160637523Y-85800935D01*
X160632500Y-85766000D01*
X160632500Y-85765000D01*
X160631500Y-85765000D01*
X160564461Y-85745315D01*
X160518706Y-85692511D01*
X160507500Y-85641000D01*
X160507500Y-85640000D01*
X160757500Y-85640000D01*
X161250000Y-85640000D01*
X161250000Y-85578122D01*
X161234980Y-85483290D01*
X161176734Y-85368979D01*
X161176731Y-85368974D01*
X161086025Y-85278268D01*
X161086020Y-85278265D01*
X160971709Y-85220019D01*
X160876877Y-85205000D01*
X160757500Y-85205000D01*
X160757500Y-85640000D01*
X160507500Y-85640000D01*
X160507500Y-85205000D01*
X160388123Y-85205000D01*
X160293290Y-85220019D01*
X160293287Y-85220020D01*
X160236159Y-85249129D01*
X160167490Y-85262025D01*
X160102750Y-85235748D01*
X160093536Y-85227531D01*
X159975418Y-85137959D01*
X159975412Y-85137956D01*
X159838223Y-85083855D01*
X159838215Y-85083853D01*
X159752001Y-85073500D01*
X159438306Y-85073500D01*
X159371267Y-85053815D01*
X159350625Y-85037181D01*
X159070125Y-84756681D01*
X159036640Y-84695358D01*
X159041624Y-84625666D01*
X159083496Y-84569733D01*
X159148960Y-84545316D01*
X159157806Y-84545000D01*
X159525000Y-84545000D01*
X159775000Y-84545000D01*
X160374626Y-84545000D01*
X160374628Y-84544999D01*
X160447540Y-84530496D01*
X160447544Y-84530494D01*
X160530239Y-84475239D01*
X160585494Y-84392544D01*
X160585496Y-84392540D01*
X160599999Y-84319628D01*
X160600000Y-84319626D01*
X160600000Y-83870000D01*
X159775000Y-83870000D01*
X159775000Y-84545000D01*
X159525000Y-84545000D01*
X159525000Y-83869000D01*
X159527550Y-83860314D01*
X159526262Y-83851353D01*
X159537240Y-83827312D01*
X159544685Y-83801961D01*
X159551525Y-83796033D01*
X159555287Y-83787797D01*
X159577521Y-83773507D01*
X159597489Y-83756206D01*
X159608003Y-83753918D01*
X159614065Y-83750023D01*
X159649000Y-83745000D01*
X159650000Y-83745000D01*
X159650000Y-83744000D01*
X159669685Y-83676961D01*
X159722489Y-83631206D01*
X159774000Y-83620000D01*
X160600000Y-83620000D01*
X160600000Y-83301877D01*
X161310000Y-83301877D01*
X161325019Y-83396709D01*
X161383265Y-83511020D01*
X161383268Y-83511025D01*
X161473974Y-83601731D01*
X161473979Y-83601734D01*
X161588290Y-83659980D01*
X161683123Y-83675000D01*
X161745000Y-83675000D01*
X161995000Y-83675000D01*
X162056877Y-83675000D01*
X162151709Y-83659980D01*
X162266020Y-83601734D01*
X162266025Y-83601731D01*
X162356731Y-83511025D01*
X162356734Y-83511020D01*
X162414980Y-83396709D01*
X162430000Y-83301877D01*
X162430000Y-83182500D01*
X161995000Y-83182500D01*
X161995000Y-83675000D01*
X161745000Y-83675000D01*
X161745000Y-83182500D01*
X161310000Y-83182500D01*
X161310000Y-83301877D01*
X160600000Y-83301877D01*
X160600000Y-83170375D01*
X160597147Y-83156033D01*
X160581618Y-83082609D01*
X160583463Y-83058740D01*
X160580903Y-83034943D01*
X160586107Y-83024543D01*
X160587004Y-83012947D01*
X160601461Y-82993864D01*
X160612173Y-82972461D01*
X160615254Y-82969268D01*
X160664776Y-82919746D01*
X160664778Y-82919743D01*
X160702153Y-82843290D01*
X160720696Y-82805361D01*
X160731500Y-82731206D01*
X160731500Y-82528000D01*
X160751185Y-82460961D01*
X160803989Y-82415206D01*
X160855500Y-82404000D01*
X161184087Y-82404000D01*
X161187457Y-82404989D01*
X161190878Y-82404186D01*
X161220738Y-82414762D01*
X161251126Y-82423685D01*
X161254403Y-82426685D01*
X161256739Y-82427513D01*
X161277954Y-82448249D01*
X161282107Y-82452052D01*
X161282480Y-82452533D01*
X161332071Y-82517929D01*
X161334687Y-82519913D01*
X161341664Y-82528917D01*
X161351671Y-82554445D01*
X161364810Y-82578507D01*
X161364238Y-82586503D01*
X161367164Y-82593967D01*
X161361781Y-82620850D01*
X161359826Y-82648199D01*
X161354129Y-82661159D01*
X161325020Y-82718287D01*
X161325019Y-82718290D01*
X161310000Y-82813122D01*
X161310000Y-82932500D01*
X162430000Y-82932500D01*
X162430000Y-82813122D01*
X162414980Y-82718290D01*
X162414978Y-82718285D01*
X162385871Y-82661160D01*
X162372974Y-82592491D01*
X162399250Y-82527751D01*
X162407474Y-82518528D01*
X162407927Y-82517930D01*
X162407929Y-82517929D01*
X162497042Y-82400416D01*
X162544193Y-82280847D01*
X162587098Y-82225706D01*
X162653006Y-82202513D01*
X162705038Y-82210986D01*
X162711782Y-82213646D01*
X162797999Y-82224000D01*
X163307000Y-82223999D01*
X163393218Y-82213646D01*
X163530416Y-82159542D01*
X163638634Y-82077478D01*
X163654688Y-82065304D01*
X163655639Y-82066558D01*
X163708495Y-82037691D01*
X163778187Y-82042669D01*
X163791160Y-82048371D01*
X163848285Y-82077478D01*
X163848290Y-82077480D01*
X163943123Y-82092500D01*
X164062500Y-82092500D01*
X164312500Y-82092500D01*
X164431877Y-82092500D01*
X164526709Y-82077480D01*
X164641020Y-82019234D01*
X164641025Y-82019231D01*
X164731731Y-81928525D01*
X164731734Y-81928520D01*
X164789980Y-81814209D01*
X164805000Y-81719377D01*
X164805000Y-81657500D01*
X164312500Y-81657500D01*
X164312500Y-82092500D01*
X164062500Y-82092500D01*
X164062500Y-81656500D01*
X164065050Y-81647814D01*
X164063762Y-81638853D01*
X164074740Y-81614812D01*
X164082185Y-81589461D01*
X164089025Y-81583533D01*
X164092787Y-81575297D01*
X164115021Y-81561007D01*
X164134989Y-81543706D01*
X164145503Y-81541418D01*
X164151565Y-81537523D01*
X164186500Y-81532500D01*
X164187500Y-81532500D01*
X164187500Y-81531500D01*
X164207185Y-81464461D01*
X164259989Y-81418706D01*
X164311500Y-81407500D01*
X164805000Y-81407500D01*
X164805000Y-81345625D01*
X164798707Y-81305898D01*
X164807661Y-81236605D01*
X164852656Y-81183152D01*
X164858722Y-81181276D01*
X164877500Y-81162498D01*
X164877500Y-80230619D01*
X164870334Y-80217496D01*
X164867500Y-80191138D01*
X164867500Y-79002500D01*
X164867499Y-79002499D01*
X164829988Y-79002500D01*
X164762949Y-78982816D01*
X164717193Y-78930013D01*
X164707249Y-78860854D01*
X164736273Y-78797298D01*
X164795051Y-78759523D01*
X164797817Y-78758746D01*
X164863352Y-78741187D01*
X164973148Y-78677796D01*
X165281819Y-78369123D01*
X165343142Y-78335639D01*
X165412833Y-78340623D01*
G37*
%TD.AperFunction*%
%TA.AperFunction,Conductor*%
G36*
X151411322Y-87788384D02*
G01*
X151411320Y-87788388D01*
X151410000Y-87792450D01*
X151410000Y-87740000D01*
X151462956Y-87687043D01*
X151411322Y-87788384D01*
G37*
%TD.AperFunction*%
%TA.AperFunction,Conductor*%
G36*
X154095554Y-86333322D02*
G01*
X154088914Y-86333500D01*
X153005998Y-86333500D01*
X152975696Y-86334690D01*
X152960195Y-86335910D01*
X152930061Y-86339477D01*
X152815063Y-86376841D01*
X152815058Y-86376842D01*
X152760964Y-86404404D01*
X152760558Y-86404608D01*
X152760530Y-86404625D01*
X152705111Y-86444888D01*
X152825000Y-86325000D01*
X154119142Y-86325000D01*
X154095554Y-86333322D01*
G37*
%TD.AperFunction*%
%TA.AperFunction,Conductor*%
G36*
X154442834Y-76380921D02*
G01*
X154498767Y-76422793D01*
X154523184Y-76488257D01*
X154523500Y-76497103D01*
X154523500Y-76972394D01*
X154526191Y-76994800D01*
X154533949Y-77059411D01*
X154588558Y-77197890D01*
X154678503Y-77316500D01*
X154694693Y-77328777D01*
X154736216Y-77384969D01*
X154740767Y-77454691D01*
X154730252Y-77483874D01*
X154670204Y-77601726D01*
X154655000Y-77697725D01*
X154655000Y-77802500D01*
X155101000Y-77802500D01*
X155109685Y-77805050D01*
X155118647Y-77803762D01*
X155142687Y-77814740D01*
X155168039Y-77822185D01*
X155173966Y-77829025D01*
X155182203Y-77832787D01*
X155196492Y-77855021D01*
X155213794Y-77874989D01*
X155216081Y-77885503D01*
X155219977Y-77891565D01*
X155225000Y-77926500D01*
X155225000Y-77927500D01*
X155226000Y-77927500D01*
X155293039Y-77947185D01*
X155338794Y-77999989D01*
X155350000Y-78051500D01*
X155350000Y-78534999D01*
X155417267Y-78534999D01*
X155513277Y-78519793D01*
X155628995Y-78460831D01*
X155630586Y-78459676D01*
X155632846Y-78458869D01*
X155637691Y-78456401D01*
X155638009Y-78457026D01*
X155696392Y-78436195D01*
X155764446Y-78452019D01*
X155813142Y-78502124D01*
X155825947Y-78540596D01*
X155832706Y-78583277D01*
X155891669Y-78698996D01*
X155891672Y-78699001D01*
X155983498Y-78790827D01*
X155983502Y-78790830D01*
X156099228Y-78849795D01*
X156195225Y-78864999D01*
X156299999Y-78864999D01*
X156300000Y-78864998D01*
X156300000Y-77725000D01*
X156195232Y-77725000D01*
X156099222Y-77740206D01*
X155975294Y-77803351D01*
X155906624Y-77816247D01*
X155841884Y-77789970D01*
X155801627Y-77732864D01*
X155796593Y-77702487D01*
X155795381Y-77702583D01*
X155794999Y-77697738D01*
X155779793Y-77601721D01*
X155719747Y-77483876D01*
X155706850Y-77415206D01*
X155733126Y-77350466D01*
X155738043Y-77344650D01*
X155745917Y-77335896D01*
X155771498Y-77316498D01*
X155815146Y-77258938D01*
X155818627Y-77255070D01*
X155844117Y-77239349D01*
X155868204Y-77221551D01*
X155874902Y-77220363D01*
X155878097Y-77218394D01*
X155885266Y-77218527D01*
X155910815Y-77214000D01*
X156641877Y-77214000D01*
X156708916Y-77233685D01*
X156754671Y-77286489D01*
X156764615Y-77355647D01*
X156763494Y-77362191D01*
X156754500Y-77407405D01*
X156754500Y-77532594D01*
X156763295Y-77576809D01*
X156757068Y-77646400D01*
X156714205Y-77701578D01*
X156648315Y-77724822D01*
X156641678Y-77725000D01*
X156550000Y-77725000D01*
X156550000Y-78864999D01*
X156654767Y-78864999D01*
X156750778Y-78849793D01*
X156868623Y-78789747D01*
X156937292Y-78776850D01*
X157002033Y-78803126D01*
X157023723Y-78825306D01*
X157036002Y-78841498D01*
X157154610Y-78931442D01*
X157154613Y-78931443D01*
X157199140Y-78949003D01*
X157254284Y-78991909D01*
X157277477Y-79057817D01*
X157275269Y-79088542D01*
X157274500Y-79092409D01*
X157274500Y-79217595D01*
X157298920Y-79340361D01*
X157298923Y-79340373D01*
X157307527Y-79361144D01*
X157314996Y-79430613D01*
X157283721Y-79493092D01*
X157261857Y-79511698D01*
X157239892Y-79526374D01*
X157239888Y-79526377D01*
X157151377Y-79614888D01*
X157151374Y-79614892D01*
X157081830Y-79718971D01*
X157081823Y-79718984D01*
X157033923Y-79834626D01*
X157033920Y-79834638D01*
X157009500Y-79957404D01*
X157009500Y-80082595D01*
X157033920Y-80205361D01*
X157033923Y-80205373D01*
X157081823Y-80321015D01*
X157081830Y-80321028D01*
X157151374Y-80425107D01*
X157151377Y-80425111D01*
X157239888Y-80513622D01*
X157239896Y-80513628D01*
X157343967Y-80583166D01*
X157343969Y-80583167D01*
X157343978Y-80583173D01*
X157368951Y-80593517D01*
X157423355Y-80637356D01*
X157445421Y-80703650D01*
X157445500Y-80708078D01*
X157445500Y-80736595D01*
X157469920Y-80859361D01*
X157469923Y-80859373D01*
X157517823Y-80975015D01*
X157517830Y-80975028D01*
X157587374Y-81079107D01*
X157587377Y-81079111D01*
X157641585Y-81133319D01*
X157675070Y-81194642D01*
X157670086Y-81264334D01*
X157628214Y-81320267D01*
X157582790Y-81337209D01*
X157575000Y-81345000D01*
X157575000Y-82021000D01*
X157572449Y-82029685D01*
X157573738Y-82038647D01*
X157562759Y-82062687D01*
X157555315Y-82088039D01*
X157548474Y-82093966D01*
X157544713Y-82102203D01*
X157522478Y-82116492D01*
X157502511Y-82133794D01*
X157491996Y-82136081D01*
X157485935Y-82139977D01*
X157451000Y-82145000D01*
X157450000Y-82145000D01*
X157450000Y-82146000D01*
X157430315Y-82213039D01*
X157377511Y-82258794D01*
X157326000Y-82270000D01*
X156500000Y-82270000D01*
X156500000Y-82719626D01*
X156499999Y-82719626D01*
X156516887Y-82804522D01*
X156513730Y-82805149D01*
X156519092Y-82855080D01*
X156487810Y-82917556D01*
X156484747Y-82920729D01*
X156435224Y-82970252D01*
X156435221Y-82970256D01*
X156379305Y-83084635D01*
X156379304Y-83084637D01*
X156379304Y-83084639D01*
X156368500Y-83158794D01*
X156368500Y-84331206D01*
X156379304Y-84405361D01*
X156379304Y-84405362D01*
X156379305Y-84405364D01*
X156435221Y-84519743D01*
X156435223Y-84519746D01*
X156525253Y-84609776D01*
X156525256Y-84609778D01*
X156634863Y-84663361D01*
X156639639Y-84665696D01*
X156713794Y-84676500D01*
X157576694Y-84676500D01*
X157643733Y-84696185D01*
X157664375Y-84712819D01*
X158430897Y-85479341D01*
X158464382Y-85540664D01*
X158459398Y-85610356D01*
X158417526Y-85666289D01*
X158352062Y-85690706D01*
X158283789Y-85675854D01*
X158281218Y-85674410D01*
X158275857Y-85671315D01*
X158275854Y-85671314D01*
X158275853Y-85671313D01*
X158275852Y-85671313D01*
X158153391Y-85638500D01*
X158153390Y-85638500D01*
X155317715Y-85638500D01*
X155250676Y-85618815D01*
X155248824Y-85617602D01*
X155144778Y-85548080D01*
X155144765Y-85548073D01*
X155029123Y-85500173D01*
X155029111Y-85500170D01*
X154997824Y-85493946D01*
X154997809Y-85493944D01*
X154906341Y-85475750D01*
X154781159Y-85475750D01*
X154781154Y-85475750D01*
X154670000Y-85497860D01*
X154670000Y-85370000D01*
X154174377Y-84874377D01*
X154620000Y-84874377D01*
X154635019Y-84969209D01*
X154693265Y-85083520D01*
X154693268Y-85083525D01*
X154783974Y-85174231D01*
X154783979Y-85174234D01*
X154894733Y-85230667D01*
X155025772Y-85247500D01*
X155055000Y-85247500D01*
X155305000Y-85247500D01*
X155366877Y-85247500D01*
X155461709Y-85232480D01*
X155576020Y-85174234D01*
X155576025Y-85174231D01*
X155666731Y-85083525D01*
X155666734Y-85083520D01*
X155724980Y-84969209D01*
X155740000Y-84874377D01*
X155740000Y-84755000D01*
X155305000Y-84755000D01*
X155305000Y-85247500D01*
X155055000Y-85247500D01*
X155055000Y-84755000D01*
X154620000Y-84755000D01*
X154620000Y-84874377D01*
X154174377Y-84874377D01*
X153522500Y-84222500D01*
X152294980Y-84222500D01*
X152291543Y-84216205D01*
X152294876Y-84151228D01*
X152305026Y-84120261D01*
X152305027Y-84120257D01*
X152324246Y-84000871D01*
X152324396Y-83941515D01*
X152344249Y-83874531D01*
X152397168Y-83828909D01*
X152466352Y-83819140D01*
X152529834Y-83848325D01*
X152536061Y-83854137D01*
X152605390Y-83923466D01*
X152612443Y-83930519D01*
X152715865Y-83999624D01*
X152715872Y-83999628D01*
X152830798Y-84047232D01*
X152952800Y-84071499D01*
X152952802Y-84071500D01*
X152952803Y-84071500D01*
X152995775Y-84071500D01*
X153050236Y-84084100D01*
X153104636Y-84110695D01*
X153104637Y-84110695D01*
X153104639Y-84110696D01*
X153178794Y-84121500D01*
X153178800Y-84121500D01*
X154451204Y-84121500D01*
X154451206Y-84121500D01*
X154505762Y-84113551D01*
X154574936Y-84123364D01*
X154627827Y-84169019D01*
X154647638Y-84236021D01*
X154636855Y-84281125D01*
X154638036Y-84281509D01*
X154635019Y-84290790D01*
X154620000Y-84385622D01*
X154620000Y-84505000D01*
X155740000Y-84505000D01*
X155740000Y-84385622D01*
X155724980Y-84290790D01*
X155724978Y-84290785D01*
X155695871Y-84233660D01*
X155682974Y-84164991D01*
X155709250Y-84100251D01*
X155717474Y-84091028D01*
X155717927Y-84090430D01*
X155717929Y-84090429D01*
X155807042Y-83972916D01*
X155861146Y-83835718D01*
X155871500Y-83749501D01*
X155871499Y-83240500D01*
X155861146Y-83154282D01*
X155807042Y-83017084D01*
X155789434Y-82993864D01*
X155717929Y-82899570D01*
X155600418Y-82810459D01*
X155600412Y-82810456D01*
X155463223Y-82756355D01*
X155463215Y-82756353D01*
X155377001Y-82746000D01*
X154983006Y-82746000D01*
X154896782Y-82756354D01*
X154834489Y-82780919D01*
X154764903Y-82787200D01*
X154702967Y-82754863D01*
X154668346Y-82694174D01*
X154665000Y-82665564D01*
X154665000Y-82615000D01*
X153939000Y-82615000D01*
X153930314Y-82612449D01*
X153921353Y-82613738D01*
X153897312Y-82602759D01*
X153871961Y-82595315D01*
X153866033Y-82588474D01*
X153857797Y-82584713D01*
X153843507Y-82562478D01*
X153826206Y-82542511D01*
X153823918Y-82531996D01*
X153820023Y-82525935D01*
X153815000Y-82491000D01*
X153815000Y-82489000D01*
X153834685Y-82421961D01*
X153887489Y-82376206D01*
X153939000Y-82365000D01*
X154665000Y-82365000D01*
X154665000Y-82180884D01*
X154684685Y-82113845D01*
X154701319Y-82093203D01*
X154706483Y-82088039D01*
X154729776Y-82064746D01*
X154785696Y-81950361D01*
X154796500Y-81876206D01*
X154796500Y-81570371D01*
X156500000Y-81570371D01*
X156500000Y-82020000D01*
X157325000Y-82020000D01*
X157325000Y-81345000D01*
X156725373Y-81345000D01*
X156652459Y-81359503D01*
X156652455Y-81359505D01*
X156569760Y-81414760D01*
X156514505Y-81497455D01*
X156514503Y-81497459D01*
X156500000Y-81570371D01*
X154796500Y-81570371D01*
X154796500Y-81203794D01*
X154785696Y-81129639D01*
X154760992Y-81079107D01*
X154732918Y-81021680D01*
X154721159Y-80952807D01*
X154729756Y-80919772D01*
X154746078Y-80880369D01*
X154770500Y-80757591D01*
X154770500Y-80632409D01*
X154746078Y-80509631D01*
X154711069Y-80425111D01*
X154698176Y-80393984D01*
X154698169Y-80393971D01*
X154628625Y-80289892D01*
X154628622Y-80289888D01*
X154540111Y-80201377D01*
X154540107Y-80201374D01*
X154436028Y-80131830D01*
X154436015Y-80131823D01*
X154320373Y-80083923D01*
X154320361Y-80083920D01*
X154197595Y-80059500D01*
X154197591Y-80059500D01*
X154072409Y-80059500D01*
X154072404Y-80059500D01*
X153949638Y-80083920D01*
X153949626Y-80083923D01*
X153833984Y-80131823D01*
X153833971Y-80131830D01*
X153729892Y-80201374D01*
X153729888Y-80201377D01*
X153641377Y-80289888D01*
X153641374Y-80289892D01*
X153571830Y-80393971D01*
X153571823Y-80393984D01*
X153523923Y-80509626D01*
X153523920Y-80509638D01*
X153502580Y-80616921D01*
X153496276Y-80630173D01*
X153494880Y-80641708D01*
X153481166Y-80661938D01*
X153476467Y-80671818D01*
X153472752Y-80676303D01*
X153429704Y-80719352D01*
X153412666Y-80748861D01*
X153406004Y-80756907D01*
X153385350Y-80770842D01*
X153367319Y-80788035D01*
X153356890Y-80790044D01*
X153348085Y-80795986D01*
X153323173Y-80796542D01*
X153298712Y-80801257D01*
X153288852Y-80797309D01*
X153278233Y-80797547D01*
X153256977Y-80784549D01*
X153233847Y-80775289D01*
X153227686Y-80766636D01*
X153218625Y-80761096D01*
X153207771Y-80738669D01*
X153193319Y-80718374D01*
X153190854Y-80703716D01*
X153188187Y-80698205D01*
X153188915Y-80692185D01*
X153186500Y-80677819D01*
X153186500Y-80157772D01*
X153206185Y-80090733D01*
X153207399Y-80088880D01*
X153227169Y-80059292D01*
X153227170Y-80059289D01*
X153227174Y-80059284D01*
X153284351Y-79921246D01*
X153301581Y-79834626D01*
X153313500Y-79774708D01*
X153313500Y-79625291D01*
X153284352Y-79478759D01*
X153284351Y-79478758D01*
X153284351Y-79478754D01*
X153282175Y-79473500D01*
X153227177Y-79340722D01*
X153227170Y-79340709D01*
X153144165Y-79216484D01*
X153144162Y-79216480D01*
X153038519Y-79110837D01*
X153038511Y-79110831D01*
X152946299Y-79049217D01*
X152901493Y-78995605D01*
X152892786Y-78926280D01*
X152922940Y-78863253D01*
X152927487Y-78858455D01*
X153628676Y-78157267D01*
X154655001Y-78157267D01*
X154670206Y-78253277D01*
X154729169Y-78368996D01*
X154729172Y-78369001D01*
X154820998Y-78460827D01*
X154821002Y-78460830D01*
X154936728Y-78519795D01*
X155032726Y-78534999D01*
X155099999Y-78534998D01*
X155100000Y-78534998D01*
X155100000Y-78052500D01*
X154655001Y-78052500D01*
X154655001Y-78157267D01*
X153628676Y-78157267D01*
X153639590Y-78146353D01*
X153700911Y-78112870D01*
X153702948Y-78112445D01*
X153810369Y-78091078D01*
X153926022Y-78043173D01*
X154030108Y-77973625D01*
X154118625Y-77885108D01*
X154188173Y-77781022D01*
X154236078Y-77665369D01*
X154260500Y-77542591D01*
X154260500Y-77417409D01*
X154236078Y-77294631D01*
X154235680Y-77293670D01*
X154188176Y-77178984D01*
X154188169Y-77178971D01*
X154118625Y-77074892D01*
X154118622Y-77074888D01*
X154030111Y-76986377D01*
X154030107Y-76986374D01*
X153978753Y-76952060D01*
X153933948Y-76898447D01*
X153925241Y-76829122D01*
X153955396Y-76766095D01*
X153959940Y-76761300D01*
X154311821Y-76409420D01*
X154373142Y-76375937D01*
X154442834Y-76380921D01*
G37*
%TD.AperFunction*%
%TA.AperFunction,Conductor*%
G36*
X150445874Y-82136132D02*
G01*
X150456209Y-82136638D01*
X150487559Y-82152852D01*
X150490257Y-82154779D01*
X150601409Y-82209117D01*
X150604639Y-82210696D01*
X150678794Y-82221500D01*
X151799500Y-82221500D01*
X151866539Y-82241185D01*
X151912294Y-82293989D01*
X151923500Y-82345500D01*
X151923500Y-82599500D01*
X151903815Y-82666539D01*
X151851011Y-82712294D01*
X151799500Y-82723500D01*
X150415500Y-82723500D01*
X150348461Y-82703815D01*
X150302706Y-82651011D01*
X150291500Y-82599500D01*
X150291500Y-82253765D01*
X150294904Y-82242169D01*
X150293772Y-82230139D01*
X150304565Y-82209269D01*
X150311185Y-82186726D01*
X150320316Y-82178813D01*
X150325869Y-82168078D01*
X150346234Y-82156354D01*
X150363989Y-82140971D01*
X150375948Y-82139251D01*
X150386423Y-82133222D01*
X150409891Y-82134370D01*
X150433147Y-82131027D01*
X150445874Y-82136132D01*
G37*
%TD.AperFunction*%
%TA.AperFunction,Conductor*%
G36*
X165436539Y-68836185D02*
G01*
X165482294Y-68888989D01*
X165493500Y-68940500D01*
X165493500Y-76495500D01*
X165473815Y-76562539D01*
X165421011Y-76608294D01*
X165391048Y-76617613D01*
X165380354Y-76619500D01*
X165330409Y-76619500D01*
X165207631Y-76643922D01*
X165182155Y-76654474D01*
X165168788Y-76656833D01*
X165147009Y-76654407D01*
X165125222Y-76656749D01*
X165112968Y-76650615D01*
X165099348Y-76649098D01*
X165082337Y-76635282D01*
X165062743Y-76625474D01*
X165055750Y-76613688D01*
X165045113Y-76605049D01*
X165038272Y-76584230D01*
X165027091Y-76565384D01*
X165027179Y-76550469D01*
X165023303Y-76538670D01*
X165027343Y-76523091D01*
X165027464Y-76502629D01*
X165046500Y-76431589D01*
X165046500Y-76304807D01*
X165046500Y-72651609D01*
X165046500Y-72651607D01*
X165043988Y-72642236D01*
X165043985Y-72642225D01*
X165013688Y-72529148D01*
X164994855Y-72496529D01*
X164950296Y-72419352D01*
X163152511Y-70621567D01*
X163119026Y-70560244D01*
X163118596Y-70558186D01*
X163097234Y-70450787D01*
X163091602Y-70437189D01*
X163049332Y-70335140D01*
X163049325Y-70335127D01*
X162979781Y-70231048D01*
X162979778Y-70231044D01*
X162891267Y-70142533D01*
X162891263Y-70142530D01*
X162787184Y-70072986D01*
X162787171Y-70072979D01*
X162671529Y-70025079D01*
X162671517Y-70025076D01*
X162548751Y-70000656D01*
X162548747Y-70000656D01*
X162423565Y-70000656D01*
X162423560Y-70000656D01*
X162300794Y-70025076D01*
X162300786Y-70025078D01*
X162185137Y-70072981D01*
X162185127Y-70072987D01*
X162175314Y-70079544D01*
X162108636Y-70100420D01*
X162041257Y-70081934D01*
X162037536Y-70079543D01*
X162027724Y-70072987D01*
X162011022Y-70061827D01*
X162011019Y-70061825D01*
X162011018Y-70061825D01*
X161895373Y-70013923D01*
X161895361Y-70013920D01*
X161772595Y-69989500D01*
X161772591Y-69989500D01*
X161647409Y-69989500D01*
X161647404Y-69989500D01*
X161524638Y-70013920D01*
X161524626Y-70013923D01*
X161408984Y-70061823D01*
X161408971Y-70061830D01*
X161304892Y-70131374D01*
X161304888Y-70131377D01*
X161216377Y-70219888D01*
X161216374Y-70219892D01*
X161146830Y-70323971D01*
X161146825Y-70323981D01*
X161107667Y-70418517D01*
X161063826Y-70472920D01*
X160997531Y-70494985D01*
X160929832Y-70477706D01*
X160882222Y-70426568D01*
X160878545Y-70418518D01*
X160844010Y-70335140D01*
X160833176Y-70308984D01*
X160833169Y-70308971D01*
X160763625Y-70204892D01*
X160763622Y-70204888D01*
X160675111Y-70116377D01*
X160675107Y-70116374D01*
X160571028Y-70046830D01*
X160571015Y-70046823D01*
X160455373Y-69998923D01*
X160455361Y-69998920D01*
X160332595Y-69974500D01*
X160332591Y-69974500D01*
X160207409Y-69974500D01*
X160207404Y-69974500D01*
X160084638Y-69998920D01*
X160084626Y-69998923D01*
X159968979Y-70046825D01*
X159933921Y-70070250D01*
X159867243Y-70091126D01*
X159799864Y-70072640D01*
X159796145Y-70070250D01*
X159791026Y-70066830D01*
X159791022Y-70066827D01*
X159791020Y-70066826D01*
X159791017Y-70066824D01*
X159675373Y-70018923D01*
X159675361Y-70018920D01*
X159552595Y-69994500D01*
X159552591Y-69994500D01*
X159427409Y-69994500D01*
X159427404Y-69994500D01*
X159304638Y-70018920D01*
X159304626Y-70018923D01*
X159188984Y-70066823D01*
X159188971Y-70066830D01*
X159084892Y-70136374D01*
X159084888Y-70136377D01*
X158996377Y-70224888D01*
X158996374Y-70224892D01*
X158926830Y-70328971D01*
X158926823Y-70328984D01*
X158878923Y-70444626D01*
X158878920Y-70444638D01*
X158854500Y-70567404D01*
X158854500Y-70656796D01*
X158834815Y-70723835D01*
X158818181Y-70744477D01*
X158100478Y-71462181D01*
X158039155Y-71495666D01*
X158012797Y-71498500D01*
X155933059Y-71498500D01*
X155866020Y-71478815D01*
X155820265Y-71426011D01*
X155810321Y-71356853D01*
X155839346Y-71293297D01*
X155892104Y-71257459D01*
X156024862Y-71211004D01*
X156328440Y-71064808D01*
X156613747Y-70885538D01*
X156877184Y-70675455D01*
X156907932Y-70644707D01*
X156023090Y-69759866D01*
X156031331Y-69753543D01*
X156193543Y-69591331D01*
X156199866Y-69583090D01*
X157084707Y-70467932D01*
X157115455Y-70437184D01*
X157325538Y-70173747D01*
X157504808Y-69888440D01*
X157651004Y-69584862D01*
X157762290Y-69266826D01*
X157762294Y-69266814D01*
X157837272Y-68938313D01*
X157837275Y-68938296D01*
X157838591Y-68926617D01*
X157865657Y-68862203D01*
X157923252Y-68822648D01*
X157961811Y-68816500D01*
X165369500Y-68816500D01*
X165436539Y-68836185D01*
G37*
%TD.AperFunction*%
%TA.AperFunction,Conductor*%
G36*
X161050166Y-70757293D02*
G01*
X161097776Y-70808430D01*
X161101454Y-70816482D01*
X161146825Y-70926019D01*
X161146830Y-70926028D01*
X161216377Y-71030112D01*
X161219613Y-71034055D01*
X161243531Y-71080621D01*
X161260899Y-71145437D01*
X161260899Y-71145438D01*
X161260900Y-71145439D01*
X161324291Y-71255235D01*
X161324293Y-71255237D01*
X163136875Y-73067819D01*
X163170360Y-73129142D01*
X163165376Y-73198834D01*
X163123504Y-73254767D01*
X163058040Y-73279184D01*
X163049194Y-73279500D01*
X163012404Y-73279500D01*
X162889638Y-73303920D01*
X162889626Y-73303923D01*
X162773984Y-73351823D01*
X162773971Y-73351830D01*
X162669892Y-73421374D01*
X162669887Y-73421378D01*
X162634932Y-73456333D01*
X162573609Y-73489818D01*
X162503917Y-73484832D01*
X162478361Y-73471753D01*
X162456027Y-73456830D01*
X162456015Y-73456823D01*
X162340373Y-73408923D01*
X162340361Y-73408920D01*
X162217595Y-73384500D01*
X162217591Y-73384500D01*
X162172757Y-73384500D01*
X162105718Y-73364815D01*
X162059963Y-73312011D01*
X162050019Y-73242853D01*
X162054829Y-73222174D01*
X162054980Y-73221708D01*
X162070000Y-73126877D01*
X162070000Y-73007500D01*
X161148963Y-73007500D01*
X161144996Y-73009666D01*
X161118638Y-73012500D01*
X159925000Y-73012500D01*
X159925000Y-73131877D01*
X159940019Y-73226709D01*
X159969129Y-73283839D01*
X159972275Y-73300592D01*
X159980209Y-73315680D01*
X159978590Y-73334219D01*
X159982025Y-73352508D01*
X159975581Y-73368681D01*
X159974132Y-73385285D01*
X159960905Y-73405518D01*
X159956733Y-73415993D01*
X159949718Y-73425063D01*
X159947071Y-73427071D01*
X159891885Y-73499843D01*
X159891515Y-73500323D01*
X159863699Y-73520471D01*
X159836037Y-73540913D01*
X159835425Y-73540952D01*
X159834931Y-73541311D01*
X159800625Y-73543224D01*
X159766315Y-73545464D01*
X159765439Y-73545186D01*
X159765170Y-73545202D01*
X159764768Y-73544974D01*
X159745974Y-73539025D01*
X159685373Y-73513923D01*
X159685361Y-73513920D01*
X159562595Y-73489500D01*
X159562591Y-73489500D01*
X159437409Y-73489500D01*
X159437404Y-73489500D01*
X159314638Y-73513920D01*
X159314626Y-73513923D01*
X159198984Y-73561823D01*
X159198971Y-73561830D01*
X159094892Y-73631374D01*
X159094888Y-73631377D01*
X159006377Y-73719888D01*
X159006374Y-73719892D01*
X158936830Y-73823971D01*
X158936825Y-73823981D01*
X158908256Y-73892953D01*
X158864415Y-73947357D01*
X158798120Y-73969421D01*
X158793695Y-73969500D01*
X158757404Y-73969500D01*
X158634638Y-73993920D01*
X158634626Y-73993923D01*
X158518984Y-74041823D01*
X158518971Y-74041830D01*
X158414892Y-74111374D01*
X158414888Y-74111377D01*
X158326377Y-74199888D01*
X158326374Y-74199892D01*
X158256830Y-74303971D01*
X158256823Y-74303984D01*
X158208923Y-74419626D01*
X158208920Y-74419638D01*
X158184500Y-74542404D01*
X158184500Y-74667595D01*
X158208920Y-74790361D01*
X158208923Y-74790373D01*
X158256823Y-74906015D01*
X158256830Y-74906028D01*
X158326374Y-75010107D01*
X158326377Y-75010111D01*
X158414888Y-75098622D01*
X158414892Y-75098625D01*
X158518971Y-75168169D01*
X158518984Y-75168176D01*
X158634626Y-75216076D01*
X158634631Y-75216078D01*
X158741924Y-75237420D01*
X158803832Y-75269803D01*
X158805360Y-75271304D01*
X158968468Y-75434411D01*
X159083376Y-75549319D01*
X159116861Y-75610642D01*
X159111877Y-75680334D01*
X159070005Y-75736267D01*
X159004541Y-75760684D01*
X158995695Y-75761000D01*
X158513794Y-75761000D01*
X158439639Y-75771804D01*
X158439637Y-75771804D01*
X158439635Y-75771805D01*
X158325256Y-75827721D01*
X158325253Y-75827723D01*
X158235223Y-75917753D01*
X158235221Y-75917756D01*
X158179305Y-76032135D01*
X158179304Y-76032137D01*
X158179304Y-76032139D01*
X158168500Y-76106294D01*
X158168500Y-76106299D01*
X158168500Y-76228194D01*
X158148815Y-76295233D01*
X158096011Y-76340988D01*
X158026853Y-76350932D01*
X157963297Y-76321907D01*
X157956819Y-76315875D01*
X157742906Y-76101962D01*
X157709421Y-76040639D01*
X157707474Y-76029084D01*
X157701050Y-75975587D01*
X157646442Y-75837110D01*
X157646440Y-75837107D01*
X157646440Y-75837106D01*
X157603078Y-75779926D01*
X157578254Y-75714614D01*
X157592682Y-75646251D01*
X157603078Y-75630074D01*
X157646440Y-75572893D01*
X157646440Y-75572892D01*
X157646442Y-75572890D01*
X157701050Y-75434413D01*
X157711500Y-75347394D01*
X157711500Y-74867606D01*
X157701050Y-74780587D01*
X157646442Y-74642110D01*
X157556498Y-74523502D01*
X157437890Y-74433558D01*
X157402591Y-74419638D01*
X157299411Y-74378949D01*
X157254744Y-74373585D01*
X157212394Y-74368500D01*
X156807606Y-74368500D01*
X156768433Y-74373204D01*
X156720588Y-74378949D01*
X156582107Y-74433559D01*
X156537973Y-74467027D01*
X156472661Y-74491849D01*
X156419717Y-74484404D01*
X156407703Y-74479923D01*
X156407699Y-74479922D01*
X156407698Y-74479922D01*
X156347966Y-74473500D01*
X155592034Y-74473500D01*
X155532302Y-74479922D01*
X155532299Y-74479922D01*
X155532298Y-74479923D01*
X155397187Y-74530316D01*
X155281739Y-74616739D01*
X155195316Y-74732187D01*
X155144923Y-74867298D01*
X155144922Y-74867302D01*
X155138500Y-74927034D01*
X155138500Y-75582966D01*
X155144922Y-75642698D01*
X155144922Y-75642700D01*
X155144923Y-75642701D01*
X155174470Y-75721921D01*
X155195318Y-75777815D01*
X155205043Y-75790806D01*
X155208326Y-75795192D01*
X155232741Y-75860656D01*
X155217888Y-75928929D01*
X155168482Y-75978333D01*
X155109057Y-75993500D01*
X155022606Y-75993500D01*
X154983433Y-75998204D01*
X154935588Y-76003949D01*
X154797109Y-76058558D01*
X154678499Y-76148504D01*
X154674303Y-76154038D01*
X154618110Y-76195561D01*
X154548389Y-76200112D01*
X154487275Y-76166246D01*
X154454172Y-76104716D01*
X154451500Y-76079112D01*
X154451500Y-75149835D01*
X154471185Y-75082796D01*
X154523989Y-75037041D01*
X154532162Y-75033654D01*
X154542815Y-75029682D01*
X154658261Y-74943261D01*
X154744682Y-74827815D01*
X154795078Y-74692698D01*
X154801500Y-74632966D01*
X154801500Y-73986077D01*
X155515696Y-73986077D01*
X155532965Y-73994520D01*
X155604892Y-74004999D01*
X156335107Y-74004999D01*
X156407032Y-73994520D01*
X156424301Y-73986077D01*
X155969999Y-73531774D01*
X155515696Y-73986077D01*
X154801500Y-73986077D01*
X154801500Y-73977034D01*
X154795078Y-73917302D01*
X154760267Y-73823971D01*
X154744683Y-73782187D01*
X154744682Y-73782185D01*
X154658261Y-73666739D01*
X154542815Y-73580318D01*
X154542814Y-73580317D01*
X154542812Y-73580316D01*
X154407701Y-73529923D01*
X154407700Y-73529922D01*
X154407698Y-73529922D01*
X154347966Y-73523500D01*
X153715003Y-73523500D01*
X153647964Y-73503815D01*
X153602209Y-73451011D01*
X153592265Y-73381853D01*
X153621290Y-73318297D01*
X153627322Y-73311819D01*
X153991322Y-72947819D01*
X154052645Y-72914334D01*
X154079003Y-72911500D01*
X155146000Y-72911500D01*
X155213039Y-72931185D01*
X155258794Y-72983989D01*
X155270000Y-73035500D01*
X155270000Y-73670107D01*
X155280479Y-73742035D01*
X155280480Y-73742038D01*
X155321754Y-73826467D01*
X155321755Y-73826467D01*
X155793930Y-73354292D01*
X155801875Y-73349953D01*
X155807301Y-73342706D01*
X155832060Y-73333471D01*
X155855253Y-73320807D01*
X155864282Y-73321452D01*
X155872765Y-73318289D01*
X155898585Y-73323905D01*
X155924944Y-73325791D01*
X155933997Y-73331609D01*
X155941038Y-73333141D01*
X155969292Y-73354292D01*
X155969999Y-73354999D01*
X155970706Y-73354293D01*
X156032029Y-73320808D01*
X156101721Y-73325792D01*
X156146068Y-73354293D01*
X156618243Y-73826468D01*
X156618244Y-73826467D01*
X156634204Y-73793820D01*
X156681331Y-73742236D01*
X156748864Y-73724321D01*
X156799387Y-73736548D01*
X156799626Y-73736663D01*
X156799630Y-73736666D01*
X156929905Y-73799374D01*
X157070869Y-73831517D01*
X157070870Y-73831516D01*
X157070871Y-73831517D01*
X157119063Y-73831505D01*
X157143160Y-73831500D01*
X157151565Y-73831500D01*
X157151841Y-73831517D01*
X157159766Y-73831515D01*
X157159770Y-73831516D01*
X157171744Y-73831512D01*
X157171877Y-73831551D01*
X157223160Y-73831538D01*
X157223160Y-73831540D01*
X157295433Y-73831523D01*
X157436348Y-73799328D01*
X157529213Y-73754585D01*
X157598152Y-73743221D01*
X157636816Y-73754566D01*
X157729905Y-73799374D01*
X157729903Y-73799374D01*
X157800387Y-73815445D01*
X157870869Y-73831517D01*
X157870870Y-73831516D01*
X157870871Y-73831517D01*
X157919063Y-73831505D01*
X157943160Y-73831500D01*
X157951565Y-73831500D01*
X157951841Y-73831517D01*
X157959766Y-73831515D01*
X157959770Y-73831516D01*
X157971744Y-73831512D01*
X157971877Y-73831551D01*
X158023160Y-73831538D01*
X158023160Y-73831540D01*
X158095433Y-73831523D01*
X158236348Y-73799328D01*
X158366567Y-73736589D01*
X158479564Y-73646450D01*
X158569675Y-73533431D01*
X158632382Y-73403195D01*
X158664541Y-73262273D01*
X158664540Y-73190000D01*
X158664540Y-73126609D01*
X158664540Y-72933715D01*
X158684225Y-72866676D01*
X158726541Y-72826327D01*
X158745648Y-72815296D01*
X158917822Y-72643122D01*
X159925000Y-72643122D01*
X159925000Y-72762500D01*
X160360000Y-72762500D01*
X160360000Y-72270000D01*
X160610000Y-72270000D01*
X160610000Y-72762500D01*
X160846037Y-72762500D01*
X160850004Y-72760334D01*
X160876362Y-72757500D01*
X161385000Y-72757500D01*
X161635000Y-72757500D01*
X162070000Y-72757500D01*
X162070000Y-72638122D01*
X162054980Y-72543290D01*
X161996734Y-72428979D01*
X161996731Y-72428974D01*
X161906025Y-72338268D01*
X161906020Y-72338265D01*
X161791709Y-72280019D01*
X161696877Y-72265000D01*
X161635000Y-72265000D01*
X161635000Y-72757500D01*
X161385000Y-72757500D01*
X161385000Y-72265000D01*
X161323123Y-72265000D01*
X161228290Y-72280019D01*
X161113979Y-72338265D01*
X161113974Y-72338268D01*
X161082681Y-72369562D01*
X161021358Y-72403047D01*
X160951666Y-72398063D01*
X160907319Y-72369562D01*
X160881025Y-72343268D01*
X160881020Y-72343265D01*
X160766709Y-72285019D01*
X160671877Y-72270000D01*
X160610000Y-72270000D01*
X160360000Y-72270000D01*
X160298123Y-72270000D01*
X160203290Y-72285019D01*
X160088979Y-72343265D01*
X160088974Y-72343268D01*
X159998268Y-72433974D01*
X159998265Y-72433979D01*
X159940019Y-72548290D01*
X159925000Y-72643122D01*
X158917822Y-72643122D01*
X159945106Y-71615836D01*
X159970785Y-71596133D01*
X159973260Y-71594704D01*
X160015537Y-71570296D01*
X160315659Y-71270172D01*
X160376979Y-71236690D01*
X160379045Y-71236259D01*
X160455369Y-71221078D01*
X160571022Y-71173173D01*
X160675108Y-71103625D01*
X160763625Y-71015108D01*
X160833173Y-70911022D01*
X160833174Y-70911019D01*
X160833176Y-70911016D01*
X160859169Y-70848263D01*
X160872332Y-70816482D01*
X160916172Y-70762079D01*
X160982466Y-70740014D01*
X161050166Y-70757293D01*
G37*
%TD.AperFunction*%
%TA.AperFunction,Conductor*%
G36*
X151855228Y-68836185D02*
G01*
X151900983Y-68888989D01*
X151911409Y-68926617D01*
X151912724Y-68938296D01*
X151912727Y-68938313D01*
X151987705Y-69266814D01*
X151987709Y-69266826D01*
X152098995Y-69584862D01*
X152245191Y-69888440D01*
X152424461Y-70173747D01*
X152634548Y-70437189D01*
X152665291Y-70467932D01*
X153550133Y-69583090D01*
X153556457Y-69591331D01*
X153718669Y-69753543D01*
X153726909Y-69759866D01*
X152842067Y-70644708D01*
X152872810Y-70675451D01*
X153136252Y-70885538D01*
X153421559Y-71064808D01*
X153725137Y-71211004D01*
X153857896Y-71257459D01*
X153914672Y-71298180D01*
X153940419Y-71363133D01*
X153926963Y-71431695D01*
X153878575Y-71482097D01*
X153816941Y-71498500D01*
X153578411Y-71498500D01*
X153455948Y-71531313D01*
X153346154Y-71594704D01*
X153346151Y-71594706D01*
X152031679Y-72909178D01*
X151970356Y-72942663D01*
X151900664Y-72937679D01*
X151844731Y-72895807D01*
X151840896Y-72890388D01*
X151805518Y-72837442D01*
X151805515Y-72837438D01*
X149863155Y-70895079D01*
X149829670Y-70833756D01*
X149828363Y-70788000D01*
X149833227Y-70757293D01*
X149851500Y-70641921D01*
X149851500Y-70448079D01*
X149821176Y-70256623D01*
X149782106Y-70136377D01*
X149761277Y-70072270D01*
X149761276Y-70072267D01*
X149716435Y-69984264D01*
X149673273Y-69899553D01*
X149559336Y-69742732D01*
X149422268Y-69605664D01*
X149265447Y-69491727D01*
X149092732Y-69403723D01*
X149092729Y-69403722D01*
X148908378Y-69343824D01*
X148812649Y-69328662D01*
X148716921Y-69313500D01*
X148523079Y-69313500D01*
X148459260Y-69323608D01*
X148331621Y-69343824D01*
X148147270Y-69403722D01*
X148147267Y-69403723D01*
X147974552Y-69491727D01*
X147817729Y-69605666D01*
X147680666Y-69742729D01*
X147566727Y-69899552D01*
X147478723Y-70072267D01*
X147478722Y-70072270D01*
X147467931Y-70105484D01*
X147428493Y-70163160D01*
X147364135Y-70190358D01*
X147295288Y-70178443D01*
X147243813Y-70131199D01*
X147232069Y-70105484D01*
X147221277Y-70072270D01*
X147221276Y-70072267D01*
X147176435Y-69984264D01*
X147133273Y-69899553D01*
X147019336Y-69742732D01*
X146882268Y-69605664D01*
X146725447Y-69491727D01*
X146552732Y-69403723D01*
X146552729Y-69403722D01*
X146368378Y-69343824D01*
X146272649Y-69328662D01*
X146176921Y-69313500D01*
X145983079Y-69313500D01*
X145919260Y-69323608D01*
X145791621Y-69343824D01*
X145607270Y-69403722D01*
X145607267Y-69403723D01*
X145434552Y-69491727D01*
X145277729Y-69605666D01*
X145140666Y-69742729D01*
X145026727Y-69899552D01*
X144938723Y-70072267D01*
X144938722Y-70072270D01*
X144878824Y-70256621D01*
X144848500Y-70448079D01*
X144848500Y-70641921D01*
X144848499Y-70641921D01*
X144871636Y-70788000D01*
X144862681Y-70857293D01*
X144836844Y-70895078D01*
X144468181Y-71263742D01*
X144406858Y-71297227D01*
X144337167Y-71292243D01*
X144281233Y-71250372D01*
X144256816Y-71184907D01*
X144256500Y-71176061D01*
X144256500Y-68940500D01*
X144276185Y-68873461D01*
X144328989Y-68827706D01*
X144380500Y-68816500D01*
X151788189Y-68816500D01*
X151855228Y-68836185D01*
G37*
%TD.AperFunction*%
%TD*%
M02*
